G04 #@! TF.GenerationSoftware,KiCad,Pcbnew,(6.0.9)*
G04 #@! TF.CreationDate,2022-12-09T18:34:30+01:00*
G04 #@! TF.ProjectId,FT2232HL development board to iceprog,46543232-3332-4484-9c20-646576656c6f,1*
G04 #@! TF.SameCoordinates,Original*
G04 #@! TF.FileFunction,Copper,L2,Bot*
G04 #@! TF.FilePolarity,Positive*
%FSLAX46Y46*%
G04 Gerber Fmt 4.6, Leading zero omitted, Abs format (unit mm)*
G04 Created by KiCad (PCBNEW (6.0.9)) date 2022-12-09 18:34:30*
%MOMM*%
%LPD*%
G01*
G04 APERTURE LIST*
G04 Aperture macros list*
%AMRoundRect*
0 Rectangle with rounded corners*
0 $1 Rounding radius*
0 $2 $3 $4 $5 $6 $7 $8 $9 X,Y pos of 4 corners*
0 Add a 4 corners polygon primitive as box body*
4,1,4,$2,$3,$4,$5,$6,$7,$8,$9,$2,$3,0*
0 Add four circle primitives for the rounded corners*
1,1,$1+$1,$2,$3*
1,1,$1+$1,$4,$5*
1,1,$1+$1,$6,$7*
1,1,$1+$1,$8,$9*
0 Add four rect primitives between the rounded corners*
20,1,$1+$1,$2,$3,$4,$5,0*
20,1,$1+$1,$4,$5,$6,$7,0*
20,1,$1+$1,$6,$7,$8,$9,0*
20,1,$1+$1,$8,$9,$2,$3,0*%
G04 Aperture macros list end*
G04 #@! TA.AperFunction,ComponentPad*
%ADD10RoundRect,0.250000X-0.600000X0.600000X-0.600000X-0.600000X0.600000X-0.600000X0.600000X0.600000X0*%
G04 #@! TD*
G04 #@! TA.AperFunction,ComponentPad*
%ADD11C,1.700000*%
G04 #@! TD*
G04 #@! TA.AperFunction,ComponentPad*
%ADD12R,1.700000X1.700000*%
G04 #@! TD*
G04 #@! TA.AperFunction,ComponentPad*
%ADD13O,1.700000X1.700000*%
G04 #@! TD*
G04 #@! TA.AperFunction,ViaPad*
%ADD14C,1.600000*%
G04 #@! TD*
G04 #@! TA.AperFunction,ViaPad*
%ADD15C,0.800000*%
G04 #@! TD*
G04 #@! TA.AperFunction,Conductor*
%ADD16C,1.000000*%
G04 #@! TD*
G04 APERTURE END LIST*
D10*
X5080000Y-119888000D03*
D11*
X5080000Y-122428000D03*
X2540000Y-119888000D03*
X2540000Y-122428000D03*
X0Y-119888000D03*
X0Y-122428000D03*
X-2540000Y-119888000D03*
X-2540000Y-122428000D03*
X-5080000Y-119888000D03*
X-5080000Y-122428000D03*
D12*
X-1270000Y-102870000D03*
D13*
X1270000Y-102870000D03*
D12*
X-16060000Y-85090000D03*
D13*
X-16060000Y-87630000D03*
X-16060000Y-90170000D03*
X-16060000Y-92710000D03*
X-16060000Y-95250000D03*
X-16060000Y-97790000D03*
X-16060000Y-100330000D03*
X-16060000Y-102870000D03*
X-16060000Y-105410000D03*
X-16060000Y-107950000D03*
X-16060000Y-110490000D03*
X-16060000Y-113030000D03*
X-16060000Y-115570000D03*
X-16060000Y-118110000D03*
X-16060000Y-120650000D03*
X-16060000Y-123190000D03*
X-16060000Y-125730000D03*
X-16060000Y-128270000D03*
X-16060000Y-130810000D03*
D12*
X16060000Y-130810000D03*
D13*
X16060000Y-128270000D03*
X16060000Y-125730000D03*
X16060000Y-123190000D03*
X16060000Y-120650000D03*
X16060000Y-118110000D03*
X16060000Y-115570000D03*
X16060000Y-113030000D03*
X16060000Y-110490000D03*
X16060000Y-107950000D03*
X16060000Y-105410000D03*
X16060000Y-102870000D03*
X16060000Y-100330000D03*
X16060000Y-97790000D03*
X16060000Y-95250000D03*
X16060000Y-92710000D03*
X16060000Y-90170000D03*
X16060000Y-87630000D03*
X16060000Y-85090000D03*
D14*
X-2540000Y-97917000D03*
D15*
X-1905000Y-105918000D03*
X-1524000Y-124968000D03*
X-13081000Y-100711000D03*
X-7874000Y-100457000D03*
X-3937000Y-94234000D03*
X-7366000Y-123698000D03*
X-12827000Y-105410000D03*
X2159000Y-113538000D03*
X-10795000Y-93980000D03*
X-7366000Y-118110000D03*
D14*
X-6096000Y-93980000D03*
X-8890000Y-104775000D03*
X0Y-107950000D03*
D16*
X-4318000Y-99695000D02*
X-2540000Y-97917000D01*
X-4318000Y-118110000D02*
X-4318000Y-99695000D01*
X-2540000Y-119888000D02*
X-4318000Y-118110000D01*
X-4318000Y-126111000D02*
X-2540000Y-124333000D01*
X-10795000Y-97155000D02*
X-10795000Y-122428000D01*
X-2540000Y-124333000D02*
X-2540000Y-122428000D01*
X-16060000Y-95250000D02*
X-12700000Y-95250000D01*
X-12700000Y-95250000D02*
X-10795000Y-97155000D01*
X-10795000Y-122428000D02*
X-7112000Y-126111000D01*
X-7112000Y-126111000D02*
X-4318000Y-126111000D01*
X-1040500Y-92304500D02*
X-3175000Y-90170000D01*
X-1270000Y-102870000D02*
X-1040500Y-102640500D01*
X-1040500Y-102640500D02*
X-1040500Y-92304500D01*
X-3175000Y-90170000D02*
X-16060000Y-90170000D01*
X-5080000Y-119888000D02*
X-6096000Y-118872000D01*
X-6096000Y-118872000D02*
X-6096000Y-93980000D01*
X-6096000Y-122428000D02*
X-8890000Y-119634000D01*
X-5080000Y-122428000D02*
X-6096000Y-122428000D01*
X-8890000Y-119634000D02*
X-8890000Y-104775000D01*
X0Y-119888000D02*
X0Y-107950000D01*
X-11430000Y-128270000D02*
X-1270000Y-128270000D01*
X-13335000Y-126365000D02*
X-11430000Y-128270000D01*
X-13335000Y-111125000D02*
X-13335000Y-126365000D01*
X-16060000Y-110490000D02*
X-13970000Y-110490000D01*
X-1270000Y-128270000D02*
X0Y-127000000D01*
X-13970000Y-110490000D02*
X-13335000Y-111125000D01*
X0Y-127000000D02*
X0Y-122428000D01*
X1270000Y-102870000D02*
X3810000Y-102870000D01*
X5080000Y-104140000D02*
X5080000Y-119888000D01*
X3810000Y-102870000D02*
X5080000Y-104140000D01*
G04 #@! TA.AperFunction,Conductor*
G36*
X18483621Y-82570502D02*
G01*
X18530114Y-82624158D01*
X18541500Y-82676500D01*
X18541500Y-133223500D01*
X18521498Y-133291621D01*
X18467842Y-133338114D01*
X18415500Y-133349500D01*
X-18415500Y-133349500D01*
X-18483621Y-133329498D01*
X-18530114Y-133275842D01*
X-18541500Y-133223500D01*
X-18541500Y-130780964D01*
X-17168852Y-130780964D01*
X-17155576Y-130983522D01*
X-17154155Y-130989118D01*
X-17154154Y-130989123D01*
X-17133881Y-131068945D01*
X-17105608Y-131180269D01*
X-17103191Y-131185512D01*
X-17065990Y-131266208D01*
X-17020623Y-131364616D01*
X-16903467Y-131530389D01*
X-16758062Y-131672035D01*
X-16589280Y-131784812D01*
X-16583977Y-131787090D01*
X-16583974Y-131787092D01*
X-16452717Y-131843484D01*
X-16402772Y-131864942D01*
X-16329756Y-131881464D01*
X-16210421Y-131908467D01*
X-16210416Y-131908468D01*
X-16204784Y-131909742D01*
X-16199013Y-131909969D01*
X-16199011Y-131909969D01*
X-16139244Y-131912317D01*
X-16001947Y-131917712D01*
X-15894652Y-131902155D01*
X-15806769Y-131889413D01*
X-15806764Y-131889412D01*
X-15801055Y-131888584D01*
X-15795591Y-131886729D01*
X-15795586Y-131886728D01*
X-15614307Y-131825192D01*
X-15614302Y-131825190D01*
X-15608835Y-131823334D01*
X-15431724Y-131724147D01*
X-15392031Y-131691135D01*
X-15280087Y-131598031D01*
X-15275655Y-131594345D01*
X-15145853Y-131438276D01*
X-15046666Y-131261165D01*
X-15044810Y-131255698D01*
X-15044808Y-131255693D01*
X-14983272Y-131074414D01*
X-14983271Y-131074409D01*
X-14981416Y-131068945D01*
X-14980588Y-131063236D01*
X-14980587Y-131063231D01*
X-14952821Y-130871727D01*
X-14952288Y-130868053D01*
X-14950768Y-130810000D01*
X-14969342Y-130607859D01*
X-14970910Y-130602299D01*
X-15022875Y-130418046D01*
X-15022876Y-130418044D01*
X-15024443Y-130412487D01*
X-15035022Y-130391033D01*
X-15111669Y-130235609D01*
X-15114224Y-130230428D01*
X-15235680Y-130067779D01*
X-15379391Y-129934933D01*
X14955500Y-129934933D01*
X14955501Y-131685066D01*
X14970266Y-131759301D01*
X14977161Y-131769620D01*
X14977162Y-131769622D01*
X15017516Y-131830015D01*
X15026516Y-131843484D01*
X15110699Y-131899734D01*
X15184933Y-131914500D01*
X16059858Y-131914500D01*
X16935066Y-131914499D01*
X16970818Y-131907388D01*
X16997126Y-131902156D01*
X16997128Y-131902155D01*
X17009301Y-131899734D01*
X17019621Y-131892839D01*
X17019622Y-131892838D01*
X17083168Y-131850377D01*
X17093484Y-131843484D01*
X17149734Y-131759301D01*
X17164500Y-131685067D01*
X17164499Y-129934934D01*
X17149734Y-129860699D01*
X17123654Y-129821667D01*
X17100377Y-129786832D01*
X17093484Y-129776516D01*
X17009301Y-129720266D01*
X16935067Y-129705500D01*
X16060142Y-129705500D01*
X15184934Y-129705501D01*
X15149182Y-129712612D01*
X15122874Y-129717844D01*
X15122872Y-129717845D01*
X15110699Y-129720266D01*
X15100379Y-129727161D01*
X15100378Y-129727162D01*
X15039985Y-129767516D01*
X15026516Y-129776516D01*
X14970266Y-129860699D01*
X14955500Y-129934933D01*
X-15379391Y-129934933D01*
X-15384742Y-129929987D01*
X-15389625Y-129926906D01*
X-15389629Y-129926903D01*
X-15551536Y-129824748D01*
X-15556419Y-129821667D01*
X-15744961Y-129746446D01*
X-15750621Y-129745320D01*
X-15750625Y-129745319D01*
X-15938387Y-129707971D01*
X-15938390Y-129707971D01*
X-15944054Y-129706844D01*
X-15949829Y-129706768D01*
X-15949833Y-129706768D01*
X-16051207Y-129705441D01*
X-16147029Y-129704187D01*
X-16152726Y-129705166D01*
X-16152727Y-129705166D01*
X-16240603Y-129720266D01*
X-16347090Y-129738564D01*
X-16537537Y-129808824D01*
X-16711990Y-129912612D01*
X-16716330Y-129916418D01*
X-16716334Y-129916421D01*
X-16860267Y-130042648D01*
X-16864608Y-130046455D01*
X-16990280Y-130205869D01*
X-16992969Y-130210980D01*
X-16992971Y-130210983D01*
X-17005927Y-130235609D01*
X-17084797Y-130385515D01*
X-17144993Y-130579378D01*
X-17168852Y-130780964D01*
X-18541500Y-130780964D01*
X-18541500Y-128240964D01*
X-17168852Y-128240964D01*
X-17155576Y-128443522D01*
X-17154155Y-128449118D01*
X-17154154Y-128449123D01*
X-17133881Y-128528945D01*
X-17105608Y-128640269D01*
X-17103191Y-128645512D01*
X-17065990Y-128726208D01*
X-17020623Y-128824616D01*
X-17000729Y-128852766D01*
X-16907642Y-128984481D01*
X-16903467Y-128990389D01*
X-16899325Y-128994424D01*
X-16863653Y-129029174D01*
X-16758062Y-129132035D01*
X-16589280Y-129244812D01*
X-16583977Y-129247090D01*
X-16583974Y-129247092D01*
X-16495293Y-129285192D01*
X-16402772Y-129324942D01*
X-16329756Y-129341464D01*
X-16210421Y-129368467D01*
X-16210416Y-129368468D01*
X-16204784Y-129369742D01*
X-16199013Y-129369969D01*
X-16199011Y-129369969D01*
X-16139244Y-129372317D01*
X-16001947Y-129377712D01*
X-15901501Y-129363148D01*
X-15806769Y-129349413D01*
X-15806764Y-129349412D01*
X-15801055Y-129348584D01*
X-15795591Y-129346729D01*
X-15795586Y-129346728D01*
X-15614307Y-129285192D01*
X-15614302Y-129285190D01*
X-15608835Y-129283334D01*
X-15431724Y-129184147D01*
X-15369066Y-129132035D01*
X-15280087Y-129058031D01*
X-15275655Y-129054345D01*
X-15250260Y-129023811D01*
X-15149547Y-128902718D01*
X-15149545Y-128902715D01*
X-15145853Y-128898276D01*
X-15046666Y-128721165D01*
X-15044810Y-128715698D01*
X-15044808Y-128715693D01*
X-14983272Y-128534414D01*
X-14983271Y-128534409D01*
X-14981416Y-128528945D01*
X-14980588Y-128523236D01*
X-14980587Y-128523231D01*
X-14952821Y-128331727D01*
X-14952288Y-128328053D01*
X-14950768Y-128270000D01*
X-14969342Y-128067859D01*
X-14970910Y-128062299D01*
X-15022875Y-127878046D01*
X-15022876Y-127878044D01*
X-15024443Y-127872487D01*
X-15035022Y-127851033D01*
X-15111669Y-127695609D01*
X-15114224Y-127690428D01*
X-15235680Y-127527779D01*
X-15384742Y-127389987D01*
X-15389625Y-127386906D01*
X-15389629Y-127386903D01*
X-15551536Y-127284748D01*
X-15556419Y-127281667D01*
X-15744961Y-127206446D01*
X-15750621Y-127205320D01*
X-15750625Y-127205319D01*
X-15938387Y-127167971D01*
X-15938390Y-127167971D01*
X-15944054Y-127166844D01*
X-15949829Y-127166768D01*
X-15949833Y-127166768D01*
X-16051207Y-127165441D01*
X-16147029Y-127164187D01*
X-16152726Y-127165166D01*
X-16152727Y-127165166D01*
X-16341393Y-127197585D01*
X-16347090Y-127198564D01*
X-16537537Y-127268824D01*
X-16711990Y-127372612D01*
X-16716330Y-127376418D01*
X-16716334Y-127376421D01*
X-16830798Y-127476804D01*
X-16864608Y-127506455D01*
X-16868183Y-127510990D01*
X-16868184Y-127510991D01*
X-16869469Y-127512621D01*
X-16990280Y-127665869D01*
X-16992969Y-127670980D01*
X-16992971Y-127670983D01*
X-17005927Y-127695609D01*
X-17084797Y-127845515D01*
X-17144993Y-128039378D01*
X-17168852Y-128240964D01*
X-18541500Y-128240964D01*
X-18541500Y-125700964D01*
X-17168852Y-125700964D01*
X-17155576Y-125903522D01*
X-17154155Y-125909118D01*
X-17154154Y-125909123D01*
X-17133881Y-125988945D01*
X-17105608Y-126100269D01*
X-17103191Y-126105512D01*
X-17065990Y-126186208D01*
X-17020623Y-126284616D01*
X-17017290Y-126289332D01*
X-16909758Y-126441487D01*
X-16903467Y-126450389D01*
X-16758062Y-126592035D01*
X-16589280Y-126704812D01*
X-16583977Y-126707090D01*
X-16583974Y-126707092D01*
X-16459879Y-126760407D01*
X-16402772Y-126784942D01*
X-16329756Y-126801464D01*
X-16210421Y-126828467D01*
X-16210416Y-126828468D01*
X-16204784Y-126829742D01*
X-16199013Y-126829969D01*
X-16199011Y-126829969D01*
X-16139244Y-126832317D01*
X-16001947Y-126837712D01*
X-15900432Y-126822993D01*
X-15806769Y-126809413D01*
X-15806764Y-126809412D01*
X-15801055Y-126808584D01*
X-15795591Y-126806729D01*
X-15795586Y-126806728D01*
X-15614307Y-126745192D01*
X-15614302Y-126745190D01*
X-15608835Y-126743334D01*
X-15599751Y-126738247D01*
X-15510838Y-126688453D01*
X-15431724Y-126644147D01*
X-15424181Y-126637874D01*
X-15280087Y-126518031D01*
X-15275655Y-126514345D01*
X-15145853Y-126358276D01*
X-15046666Y-126181165D01*
X-15044810Y-126175698D01*
X-15044808Y-126175693D01*
X-14983272Y-125994414D01*
X-14983271Y-125994409D01*
X-14981416Y-125988945D01*
X-14980588Y-125983236D01*
X-14980587Y-125983231D01*
X-14952821Y-125791727D01*
X-14952288Y-125788053D01*
X-14950768Y-125730000D01*
X-14969342Y-125527859D01*
X-14970910Y-125522299D01*
X-15022875Y-125338046D01*
X-15022876Y-125338044D01*
X-15024443Y-125332487D01*
X-15030800Y-125319595D01*
X-15111669Y-125155609D01*
X-15114224Y-125150428D01*
X-15235680Y-124987779D01*
X-15343011Y-124888563D01*
X-15380497Y-124853911D01*
X-15384742Y-124849987D01*
X-15389625Y-124846906D01*
X-15389629Y-124846903D01*
X-15551536Y-124744748D01*
X-15556419Y-124741667D01*
X-15744961Y-124666446D01*
X-15750621Y-124665320D01*
X-15750625Y-124665319D01*
X-15938387Y-124627971D01*
X-15938390Y-124627971D01*
X-15944054Y-124626844D01*
X-15949829Y-124626768D01*
X-15949833Y-124626768D01*
X-16051207Y-124625441D01*
X-16147029Y-124624187D01*
X-16152726Y-124625166D01*
X-16152727Y-124625166D01*
X-16341393Y-124657585D01*
X-16347090Y-124658564D01*
X-16537537Y-124728824D01*
X-16711990Y-124832612D01*
X-16716330Y-124836418D01*
X-16716334Y-124836421D01*
X-16804479Y-124913723D01*
X-16864608Y-124966455D01*
X-16990280Y-125125869D01*
X-16992969Y-125130980D01*
X-16992971Y-125130983D01*
X-17005927Y-125155609D01*
X-17084797Y-125305515D01*
X-17144993Y-125499378D01*
X-17168852Y-125700964D01*
X-18541500Y-125700964D01*
X-18541500Y-123160964D01*
X-17168852Y-123160964D01*
X-17155576Y-123363522D01*
X-17154155Y-123369118D01*
X-17154154Y-123369123D01*
X-17113869Y-123527742D01*
X-17105608Y-123560269D01*
X-17103191Y-123565512D01*
X-17065990Y-123646208D01*
X-17020623Y-123744616D01*
X-16903467Y-123910389D01*
X-16758062Y-124052035D01*
X-16589280Y-124164812D01*
X-16583977Y-124167090D01*
X-16583974Y-124167092D01*
X-16495293Y-124205192D01*
X-16402772Y-124244942D01*
X-16329756Y-124261464D01*
X-16210421Y-124288467D01*
X-16210416Y-124288468D01*
X-16204784Y-124289742D01*
X-16199013Y-124289969D01*
X-16199011Y-124289969D01*
X-16139244Y-124292317D01*
X-16001947Y-124297712D01*
X-15901501Y-124283148D01*
X-15806769Y-124269413D01*
X-15806764Y-124269412D01*
X-15801055Y-124268584D01*
X-15795591Y-124266729D01*
X-15795586Y-124266728D01*
X-15614307Y-124205192D01*
X-15614302Y-124205190D01*
X-15608835Y-124203334D01*
X-15431724Y-124104147D01*
X-15369066Y-124052035D01*
X-15280087Y-123978031D01*
X-15275655Y-123974345D01*
X-15145853Y-123818276D01*
X-15046666Y-123641165D01*
X-15044810Y-123635698D01*
X-15044808Y-123635693D01*
X-14983272Y-123454414D01*
X-14983271Y-123454409D01*
X-14981416Y-123448945D01*
X-14980588Y-123443236D01*
X-14980587Y-123443231D01*
X-14958111Y-123288215D01*
X-14952288Y-123248053D01*
X-14950768Y-123190000D01*
X-14963519Y-123051231D01*
X-14968813Y-122993613D01*
X-14968814Y-122993610D01*
X-14969342Y-122987859D01*
X-14972372Y-122977116D01*
X-15022875Y-122798046D01*
X-15022876Y-122798044D01*
X-15024443Y-122792487D01*
X-15035022Y-122771033D01*
X-15111669Y-122615609D01*
X-15114224Y-122610428D01*
X-15129719Y-122589677D01*
X-15204377Y-122489699D01*
X-15235680Y-122447779D01*
X-15384742Y-122309987D01*
X-15389625Y-122306906D01*
X-15389629Y-122306903D01*
X-15551536Y-122204748D01*
X-15556419Y-122201667D01*
X-15744961Y-122126446D01*
X-15750621Y-122125320D01*
X-15750625Y-122125319D01*
X-15938387Y-122087971D01*
X-15938390Y-122087971D01*
X-15944054Y-122086844D01*
X-15949829Y-122086768D01*
X-15949833Y-122086768D01*
X-16051207Y-122085441D01*
X-16147029Y-122084187D01*
X-16152726Y-122085166D01*
X-16152727Y-122085166D01*
X-16329119Y-122115476D01*
X-16347090Y-122118564D01*
X-16537537Y-122188824D01*
X-16542498Y-122191776D01*
X-16542499Y-122191776D01*
X-16551915Y-122197378D01*
X-16711990Y-122292612D01*
X-16716330Y-122296418D01*
X-16716334Y-122296421D01*
X-16839850Y-122404743D01*
X-16864608Y-122426455D01*
X-16990280Y-122585869D01*
X-16992969Y-122590980D01*
X-16992971Y-122590983D01*
X-17036165Y-122673082D01*
X-17084797Y-122765515D01*
X-17144993Y-122959378D01*
X-17168852Y-123160964D01*
X-18541500Y-123160964D01*
X-18541500Y-120620964D01*
X-17168852Y-120620964D01*
X-17155576Y-120823522D01*
X-17154155Y-120829118D01*
X-17154154Y-120829123D01*
X-17119032Y-120967413D01*
X-17105608Y-121020269D01*
X-17103191Y-121025512D01*
X-17065990Y-121106208D01*
X-17020623Y-121204616D01*
X-17017290Y-121209332D01*
X-16911823Y-121358565D01*
X-16903467Y-121370389D01*
X-16758062Y-121512035D01*
X-16589280Y-121624812D01*
X-16583977Y-121627090D01*
X-16583974Y-121627092D01*
X-16456509Y-121681855D01*
X-16402772Y-121704942D01*
X-16329756Y-121721464D01*
X-16210421Y-121748467D01*
X-16210416Y-121748468D01*
X-16204784Y-121749742D01*
X-16199013Y-121749969D01*
X-16199011Y-121749969D01*
X-16139244Y-121752317D01*
X-16001947Y-121757712D01*
X-15901501Y-121743148D01*
X-15806769Y-121729413D01*
X-15806764Y-121729412D01*
X-15801055Y-121728584D01*
X-15795591Y-121726729D01*
X-15795586Y-121726728D01*
X-15614307Y-121665192D01*
X-15614302Y-121665190D01*
X-15608835Y-121663334D01*
X-15431724Y-121564147D01*
X-15417011Y-121551911D01*
X-15286298Y-121443197D01*
X-15275655Y-121434345D01*
X-15210554Y-121356070D01*
X-15149547Y-121282718D01*
X-15149545Y-121282715D01*
X-15145853Y-121278276D01*
X-15046666Y-121101165D01*
X-15044810Y-121095698D01*
X-15044808Y-121095693D01*
X-14983272Y-120914414D01*
X-14983271Y-120914409D01*
X-14981416Y-120908945D01*
X-14980588Y-120903236D01*
X-14980587Y-120903231D01*
X-14958375Y-120750035D01*
X-14952288Y-120708053D01*
X-14950768Y-120650000D01*
X-14969342Y-120447859D01*
X-14972300Y-120437371D01*
X-15022875Y-120258046D01*
X-15022876Y-120258044D01*
X-15024443Y-120252487D01*
X-15035022Y-120231033D01*
X-15111669Y-120075609D01*
X-15114224Y-120070428D01*
X-15235680Y-119907779D01*
X-15384742Y-119769987D01*
X-15389625Y-119766906D01*
X-15389629Y-119766903D01*
X-15551536Y-119664748D01*
X-15556419Y-119661667D01*
X-15744961Y-119586446D01*
X-15750621Y-119585320D01*
X-15750625Y-119585319D01*
X-15938387Y-119547971D01*
X-15938390Y-119547971D01*
X-15944054Y-119546844D01*
X-15949829Y-119546768D01*
X-15949833Y-119546768D01*
X-16051207Y-119545441D01*
X-16147029Y-119544187D01*
X-16152726Y-119545166D01*
X-16152727Y-119545166D01*
X-16281160Y-119567235D01*
X-16347090Y-119578564D01*
X-16537537Y-119648824D01*
X-16711990Y-119752612D01*
X-16716330Y-119756418D01*
X-16716334Y-119756421D01*
X-16860267Y-119882648D01*
X-16864608Y-119886455D01*
X-16990280Y-120045869D01*
X-16992969Y-120050980D01*
X-16992971Y-120050983D01*
X-17023493Y-120108996D01*
X-17084797Y-120225515D01*
X-17144993Y-120419378D01*
X-17168852Y-120620964D01*
X-18541500Y-120620964D01*
X-18541500Y-118080964D01*
X-17168852Y-118080964D01*
X-17155576Y-118283522D01*
X-17154155Y-118289118D01*
X-17154154Y-118289123D01*
X-17111707Y-118456256D01*
X-17105608Y-118480269D01*
X-17103191Y-118485512D01*
X-17065990Y-118566208D01*
X-17020623Y-118664616D01*
X-17017290Y-118669332D01*
X-16911823Y-118818565D01*
X-16903467Y-118830389D01*
X-16899325Y-118834424D01*
X-16880479Y-118852783D01*
X-16758062Y-118972035D01*
X-16589280Y-119084812D01*
X-16583977Y-119087090D01*
X-16583974Y-119087092D01*
X-16456509Y-119141855D01*
X-16402772Y-119164942D01*
X-16342624Y-119178552D01*
X-16210421Y-119208467D01*
X-16210416Y-119208468D01*
X-16204784Y-119209742D01*
X-16199013Y-119209969D01*
X-16199011Y-119209969D01*
X-16139244Y-119212317D01*
X-16001947Y-119217712D01*
X-15901501Y-119203148D01*
X-15806769Y-119189413D01*
X-15806764Y-119189412D01*
X-15801055Y-119188584D01*
X-15795591Y-119186729D01*
X-15795586Y-119186728D01*
X-15614307Y-119125192D01*
X-15614302Y-119125190D01*
X-15608835Y-119123334D01*
X-15601422Y-119119183D01*
X-15484370Y-119053630D01*
X-15431724Y-119024147D01*
X-15417011Y-119011911D01*
X-15286001Y-118902950D01*
X-15275655Y-118894345D01*
X-15210965Y-118816564D01*
X-15149547Y-118742718D01*
X-15149545Y-118742715D01*
X-15145853Y-118738276D01*
X-15059177Y-118583505D01*
X-15049490Y-118566208D01*
X-15049489Y-118566206D01*
X-15046666Y-118561165D01*
X-15044810Y-118555698D01*
X-15044808Y-118555693D01*
X-14983272Y-118374414D01*
X-14983271Y-118374409D01*
X-14981416Y-118368945D01*
X-14980588Y-118363236D01*
X-14980587Y-118363231D01*
X-14952821Y-118171727D01*
X-14952288Y-118168053D01*
X-14950768Y-118110000D01*
X-14969342Y-117907859D01*
X-14970910Y-117902299D01*
X-15022875Y-117718046D01*
X-15022876Y-117718044D01*
X-15024443Y-117712487D01*
X-15035022Y-117691033D01*
X-15111669Y-117535609D01*
X-15114224Y-117530428D01*
X-15235680Y-117367779D01*
X-15384742Y-117229987D01*
X-15389625Y-117226906D01*
X-15389629Y-117226903D01*
X-15551536Y-117124748D01*
X-15556419Y-117121667D01*
X-15744961Y-117046446D01*
X-15750621Y-117045320D01*
X-15750625Y-117045319D01*
X-15938387Y-117007971D01*
X-15938390Y-117007971D01*
X-15944054Y-117006844D01*
X-15949829Y-117006768D01*
X-15949833Y-117006768D01*
X-16051207Y-117005441D01*
X-16147029Y-117004187D01*
X-16152726Y-117005166D01*
X-16152727Y-117005166D01*
X-16341393Y-117037585D01*
X-16347090Y-117038564D01*
X-16537537Y-117108824D01*
X-16711990Y-117212612D01*
X-16716330Y-117216418D01*
X-16716334Y-117216421D01*
X-16736277Y-117233911D01*
X-16864608Y-117346455D01*
X-16990280Y-117505869D01*
X-16992969Y-117510980D01*
X-16992971Y-117510983D01*
X-17005927Y-117535609D01*
X-17084797Y-117685515D01*
X-17144993Y-117879378D01*
X-17168852Y-118080964D01*
X-18541500Y-118080964D01*
X-18541500Y-115540964D01*
X-17168852Y-115540964D01*
X-17155576Y-115743522D01*
X-17154155Y-115749118D01*
X-17154154Y-115749123D01*
X-17133881Y-115828945D01*
X-17105608Y-115940269D01*
X-17103191Y-115945512D01*
X-17065990Y-116026208D01*
X-17020623Y-116124616D01*
X-16903467Y-116290389D01*
X-16758062Y-116432035D01*
X-16589280Y-116544812D01*
X-16583977Y-116547090D01*
X-16583974Y-116547092D01*
X-16495293Y-116585192D01*
X-16402772Y-116624942D01*
X-16329756Y-116641464D01*
X-16210421Y-116668467D01*
X-16210416Y-116668468D01*
X-16204784Y-116669742D01*
X-16199013Y-116669969D01*
X-16199011Y-116669969D01*
X-16139244Y-116672317D01*
X-16001947Y-116677712D01*
X-15901501Y-116663148D01*
X-15806769Y-116649413D01*
X-15806764Y-116649412D01*
X-15801055Y-116648584D01*
X-15795591Y-116646729D01*
X-15795586Y-116646728D01*
X-15614307Y-116585192D01*
X-15614302Y-116585190D01*
X-15608835Y-116583334D01*
X-15431724Y-116484147D01*
X-15369066Y-116432035D01*
X-15280087Y-116358031D01*
X-15275655Y-116354345D01*
X-15145853Y-116198276D01*
X-15046666Y-116021165D01*
X-15044810Y-116015698D01*
X-15044808Y-116015693D01*
X-14983272Y-115834414D01*
X-14983271Y-115834409D01*
X-14981416Y-115828945D01*
X-14980588Y-115823236D01*
X-14980587Y-115823231D01*
X-14952821Y-115631727D01*
X-14952288Y-115628053D01*
X-14950768Y-115570000D01*
X-14969342Y-115367859D01*
X-14970910Y-115362299D01*
X-15022875Y-115178046D01*
X-15022876Y-115178044D01*
X-15024443Y-115172487D01*
X-15035022Y-115151033D01*
X-15111669Y-114995609D01*
X-15114224Y-114990428D01*
X-15235680Y-114827779D01*
X-15384742Y-114689987D01*
X-15389625Y-114686906D01*
X-15389629Y-114686903D01*
X-15551536Y-114584748D01*
X-15556419Y-114581667D01*
X-15744961Y-114506446D01*
X-15750621Y-114505320D01*
X-15750625Y-114505319D01*
X-15938387Y-114467971D01*
X-15938390Y-114467971D01*
X-15944054Y-114466844D01*
X-15949829Y-114466768D01*
X-15949833Y-114466768D01*
X-16051207Y-114465441D01*
X-16147029Y-114464187D01*
X-16152726Y-114465166D01*
X-16152727Y-114465166D01*
X-16341393Y-114497585D01*
X-16347090Y-114498564D01*
X-16537537Y-114568824D01*
X-16711990Y-114672612D01*
X-16716330Y-114676418D01*
X-16716334Y-114676421D01*
X-16736277Y-114693911D01*
X-16864608Y-114806455D01*
X-16990280Y-114965869D01*
X-16992969Y-114970980D01*
X-16992971Y-114970983D01*
X-17005927Y-114995609D01*
X-17084797Y-115145515D01*
X-17144993Y-115339378D01*
X-17168852Y-115540964D01*
X-18541500Y-115540964D01*
X-18541500Y-113000964D01*
X-17168852Y-113000964D01*
X-17155576Y-113203522D01*
X-17154155Y-113209118D01*
X-17154154Y-113209123D01*
X-17133881Y-113288945D01*
X-17105608Y-113400269D01*
X-17103191Y-113405512D01*
X-17065990Y-113486208D01*
X-17020623Y-113584616D01*
X-16903467Y-113750389D01*
X-16758062Y-113892035D01*
X-16589280Y-114004812D01*
X-16583977Y-114007090D01*
X-16583974Y-114007092D01*
X-16495293Y-114045192D01*
X-16402772Y-114084942D01*
X-16329756Y-114101464D01*
X-16210421Y-114128467D01*
X-16210416Y-114128468D01*
X-16204784Y-114129742D01*
X-16199013Y-114129969D01*
X-16199011Y-114129969D01*
X-16139244Y-114132317D01*
X-16001947Y-114137712D01*
X-15901501Y-114123148D01*
X-15806769Y-114109413D01*
X-15806764Y-114109412D01*
X-15801055Y-114108584D01*
X-15795591Y-114106729D01*
X-15795586Y-114106728D01*
X-15614307Y-114045192D01*
X-15614302Y-114045190D01*
X-15608835Y-114043334D01*
X-15431724Y-113944147D01*
X-15369066Y-113892035D01*
X-15280087Y-113818031D01*
X-15275655Y-113814345D01*
X-15145853Y-113658276D01*
X-15046666Y-113481165D01*
X-15044810Y-113475698D01*
X-15044808Y-113475693D01*
X-14983272Y-113294414D01*
X-14983271Y-113294409D01*
X-14981416Y-113288945D01*
X-14980588Y-113283236D01*
X-14980587Y-113283231D01*
X-14952821Y-113091727D01*
X-14952288Y-113088053D01*
X-14950768Y-113030000D01*
X-14969342Y-112827859D01*
X-14970910Y-112822299D01*
X-15022875Y-112638046D01*
X-15022876Y-112638044D01*
X-15024443Y-112632487D01*
X-15035022Y-112611033D01*
X-15111669Y-112455609D01*
X-15114224Y-112450428D01*
X-15235680Y-112287779D01*
X-15384742Y-112149987D01*
X-15389625Y-112146906D01*
X-15389629Y-112146903D01*
X-15551536Y-112044748D01*
X-15556419Y-112041667D01*
X-15744961Y-111966446D01*
X-15750621Y-111965320D01*
X-15750625Y-111965319D01*
X-15938387Y-111927971D01*
X-15938390Y-111927971D01*
X-15944054Y-111926844D01*
X-15949829Y-111926768D01*
X-15949833Y-111926768D01*
X-16051207Y-111925441D01*
X-16147029Y-111924187D01*
X-16152726Y-111925166D01*
X-16152727Y-111925166D01*
X-16341393Y-111957585D01*
X-16347090Y-111958564D01*
X-16537537Y-112028824D01*
X-16711990Y-112132612D01*
X-16716330Y-112136418D01*
X-16716334Y-112136421D01*
X-16736277Y-112153911D01*
X-16864608Y-112266455D01*
X-16990280Y-112425869D01*
X-16992969Y-112430980D01*
X-16992971Y-112430983D01*
X-17005927Y-112455609D01*
X-17084797Y-112605515D01*
X-17144993Y-112799378D01*
X-17168852Y-113000964D01*
X-18541500Y-113000964D01*
X-18541500Y-110460964D01*
X-17168852Y-110460964D01*
X-17168474Y-110466730D01*
X-17156460Y-110650027D01*
X-17155576Y-110663522D01*
X-17154155Y-110669118D01*
X-17154154Y-110669123D01*
X-17118685Y-110808779D01*
X-17105608Y-110860269D01*
X-17103191Y-110865512D01*
X-17067299Y-110943367D01*
X-17020623Y-111044616D01*
X-17017290Y-111049332D01*
X-16950232Y-111144217D01*
X-16903467Y-111210389D01*
X-16758062Y-111352035D01*
X-16589280Y-111464812D01*
X-16583977Y-111467090D01*
X-16583974Y-111467092D01*
X-16495293Y-111505192D01*
X-16402772Y-111544942D01*
X-16329756Y-111561464D01*
X-16210421Y-111588467D01*
X-16210416Y-111588468D01*
X-16204784Y-111589742D01*
X-16199013Y-111589969D01*
X-16199011Y-111589969D01*
X-16139244Y-111592317D01*
X-16001947Y-111597712D01*
X-15901501Y-111583148D01*
X-15806769Y-111569413D01*
X-15806764Y-111569412D01*
X-15801055Y-111568584D01*
X-15795591Y-111566729D01*
X-15795586Y-111566728D01*
X-15614307Y-111505192D01*
X-15614302Y-111505190D01*
X-15608835Y-111503334D01*
X-15584516Y-111489715D01*
X-15491325Y-111437525D01*
X-15431724Y-111404147D01*
X-15369066Y-111352035D01*
X-15275655Y-111274345D01*
X-15274055Y-111276269D01*
X-15221149Y-111247379D01*
X-15194366Y-111244500D01*
X-14334715Y-111244500D01*
X-14266594Y-111264502D01*
X-14245620Y-111281405D01*
X-14126405Y-111400620D01*
X-14092379Y-111462932D01*
X-14089500Y-111489715D01*
X-14089500Y-126298235D01*
X-14090933Y-126317184D01*
X-14094174Y-126338489D01*
X-14093581Y-126345780D01*
X-14093581Y-126345783D01*
X-14089915Y-126390848D01*
X-14089500Y-126401063D01*
X-14089500Y-126409053D01*
X-14089075Y-126412697D01*
X-14086229Y-126437113D01*
X-14085796Y-126441487D01*
X-14084743Y-126454424D01*
X-14079910Y-126513847D01*
X-14077655Y-126520809D01*
X-14076482Y-126526677D01*
X-14075110Y-126532484D01*
X-14074262Y-126539754D01*
X-14049468Y-126608060D01*
X-14048060Y-126612163D01*
X-14025688Y-126681222D01*
X-14021893Y-126687476D01*
X-14019398Y-126692926D01*
X-14016730Y-126698254D01*
X-14014232Y-126705134D01*
X-13974432Y-126765839D01*
X-13972085Y-126769559D01*
X-13938150Y-126825481D01*
X-13934417Y-126831633D01*
X-13927051Y-126839974D01*
X-13927076Y-126839996D01*
X-13924376Y-126843041D01*
X-13921780Y-126846146D01*
X-13917766Y-126852268D01*
X-13912453Y-126857301D01*
X-13861874Y-126905215D01*
X-13859432Y-126907593D01*
X-12010723Y-128756301D01*
X-11998338Y-128770712D01*
X-11985563Y-128788071D01*
X-11979980Y-128792814D01*
X-11945521Y-128822089D01*
X-11938005Y-128829019D01*
X-11932362Y-128834662D01*
X-11910202Y-128852194D01*
X-11906827Y-128854961D01*
X-11851480Y-128901982D01*
X-11844960Y-128905311D01*
X-11839982Y-128908631D01*
X-11834909Y-128911764D01*
X-11829167Y-128916307D01*
X-11822533Y-128919407D01*
X-11822534Y-128919407D01*
X-11763383Y-128947053D01*
X-11759433Y-128948984D01*
X-11694788Y-128981993D01*
X-11687678Y-128983733D01*
X-11682058Y-128985823D01*
X-11676407Y-128987703D01*
X-11669778Y-128990801D01*
X-11662614Y-128992291D01*
X-11662611Y-128992292D01*
X-11622505Y-129000633D01*
X-11598686Y-129005587D01*
X-11594427Y-129006551D01*
X-11523892Y-129023811D01*
X-11518295Y-129024158D01*
X-11518290Y-129024159D01*
X-11512786Y-129024500D01*
X-11512788Y-129024534D01*
X-11508730Y-129024777D01*
X-11504694Y-129025137D01*
X-11497527Y-129026628D01*
X-11420569Y-129024546D01*
X-11417161Y-129024500D01*
X-1336765Y-129024500D01*
X-1317815Y-129025933D01*
X-1303745Y-129028074D01*
X-1303741Y-129028074D01*
X-1296511Y-129029174D01*
X-1289220Y-129028581D01*
X-1289217Y-129028581D01*
X-1244152Y-129024915D01*
X-1233937Y-129024500D01*
X-1225947Y-129024500D01*
X-1218698Y-129023655D01*
X-1197887Y-129021229D01*
X-1193513Y-129020796D01*
X-1128451Y-129015504D01*
X-1128448Y-129015503D01*
X-1121153Y-129014910D01*
X-1114191Y-129012655D01*
X-1108323Y-129011482D01*
X-1102516Y-129010110D01*
X-1095246Y-129009262D01*
X-1026940Y-128984468D01*
X-1022837Y-128983060D01*
X-953778Y-128960688D01*
X-947521Y-128956891D01*
X-942074Y-128954398D01*
X-936746Y-128951730D01*
X-929866Y-128949232D01*
X-869151Y-128909426D01*
X-865441Y-128907085D01*
X-808162Y-128872327D01*
X-808160Y-128872325D01*
X-803367Y-128869417D01*
X-795026Y-128862051D01*
X-795005Y-128862075D01*
X-791962Y-128859379D01*
X-788852Y-128856779D01*
X-782732Y-128852766D01*
X-767733Y-128836933D01*
X-729802Y-128796891D01*
X-727424Y-128794448D01*
X-173940Y-128240964D01*
X14951148Y-128240964D01*
X14964424Y-128443522D01*
X14965845Y-128449118D01*
X14965846Y-128449123D01*
X14986119Y-128528945D01*
X15014392Y-128640269D01*
X15016809Y-128645512D01*
X15054010Y-128726208D01*
X15099377Y-128824616D01*
X15119271Y-128852766D01*
X15212358Y-128984481D01*
X15216533Y-128990389D01*
X15220675Y-128994424D01*
X15256347Y-129029174D01*
X15361938Y-129132035D01*
X15530720Y-129244812D01*
X15536023Y-129247090D01*
X15536026Y-129247092D01*
X15624707Y-129285192D01*
X15717228Y-129324942D01*
X15790244Y-129341464D01*
X15909579Y-129368467D01*
X15909584Y-129368468D01*
X15915216Y-129369742D01*
X15920987Y-129369969D01*
X15920989Y-129369969D01*
X15980756Y-129372317D01*
X16118053Y-129377712D01*
X16218499Y-129363148D01*
X16313231Y-129349413D01*
X16313236Y-129349412D01*
X16318945Y-129348584D01*
X16324409Y-129346729D01*
X16324414Y-129346728D01*
X16505693Y-129285192D01*
X16505698Y-129285190D01*
X16511165Y-129283334D01*
X16688276Y-129184147D01*
X16750934Y-129132035D01*
X16839913Y-129058031D01*
X16844345Y-129054345D01*
X16869740Y-129023811D01*
X16970453Y-128902718D01*
X16970455Y-128902715D01*
X16974147Y-128898276D01*
X17073334Y-128721165D01*
X17075190Y-128715698D01*
X17075192Y-128715693D01*
X17136728Y-128534414D01*
X17136729Y-128534409D01*
X17138584Y-128528945D01*
X17139412Y-128523236D01*
X17139413Y-128523231D01*
X17167179Y-128331727D01*
X17167712Y-128328053D01*
X17169232Y-128270000D01*
X17150658Y-128067859D01*
X17149090Y-128062299D01*
X17097125Y-127878046D01*
X17097124Y-127878044D01*
X17095557Y-127872487D01*
X17084978Y-127851033D01*
X17008331Y-127695609D01*
X17005776Y-127690428D01*
X16884320Y-127527779D01*
X16735258Y-127389987D01*
X16730375Y-127386906D01*
X16730371Y-127386903D01*
X16568464Y-127284748D01*
X16563581Y-127281667D01*
X16375039Y-127206446D01*
X16369379Y-127205320D01*
X16369375Y-127205319D01*
X16181613Y-127167971D01*
X16181610Y-127167971D01*
X16175946Y-127166844D01*
X16170171Y-127166768D01*
X16170167Y-127166768D01*
X16068793Y-127165441D01*
X15972971Y-127164187D01*
X15967274Y-127165166D01*
X15967273Y-127165166D01*
X15778607Y-127197585D01*
X15772910Y-127198564D01*
X15582463Y-127268824D01*
X15408010Y-127372612D01*
X15403670Y-127376418D01*
X15403666Y-127376421D01*
X15289202Y-127476804D01*
X15255392Y-127506455D01*
X15251817Y-127510990D01*
X15251816Y-127510991D01*
X15250531Y-127512621D01*
X15129720Y-127665869D01*
X15127031Y-127670980D01*
X15127029Y-127670983D01*
X15114073Y-127695609D01*
X15035203Y-127845515D01*
X14975007Y-128039378D01*
X14951148Y-128240964D01*
X-173940Y-128240964D01*
X486301Y-127580723D01*
X500712Y-127568338D01*
X518071Y-127555563D01*
X552089Y-127515521D01*
X559019Y-127508005D01*
X564662Y-127502362D01*
X582214Y-127480178D01*
X584981Y-127476804D01*
X627243Y-127427058D01*
X631982Y-127421480D01*
X635311Y-127414961D01*
X638628Y-127409987D01*
X641763Y-127404911D01*
X646307Y-127399168D01*
X677053Y-127333382D01*
X678985Y-127329430D01*
X704467Y-127279527D01*
X711993Y-127264788D01*
X713732Y-127257680D01*
X715814Y-127252082D01*
X717701Y-127246409D01*
X720800Y-127239779D01*
X735585Y-127168697D01*
X736556Y-127164406D01*
X752477Y-127099344D01*
X752477Y-127099343D01*
X753811Y-127093892D01*
X754500Y-127082786D01*
X754534Y-127082788D01*
X754777Y-127078729D01*
X755137Y-127074695D01*
X756628Y-127067527D01*
X754546Y-126990585D01*
X754500Y-126987177D01*
X754500Y-125700964D01*
X14951148Y-125700964D01*
X14964424Y-125903522D01*
X14965845Y-125909118D01*
X14965846Y-125909123D01*
X14986119Y-125988945D01*
X15014392Y-126100269D01*
X15016809Y-126105512D01*
X15054010Y-126186208D01*
X15099377Y-126284616D01*
X15102710Y-126289332D01*
X15210242Y-126441487D01*
X15216533Y-126450389D01*
X15361938Y-126592035D01*
X15530720Y-126704812D01*
X15536023Y-126707090D01*
X15536026Y-126707092D01*
X15660121Y-126760407D01*
X15717228Y-126784942D01*
X15790244Y-126801464D01*
X15909579Y-126828467D01*
X15909584Y-126828468D01*
X15915216Y-126829742D01*
X15920987Y-126829969D01*
X15920989Y-126829969D01*
X15980756Y-126832317D01*
X16118053Y-126837712D01*
X16219568Y-126822993D01*
X16313231Y-126809413D01*
X16313236Y-126809412D01*
X16318945Y-126808584D01*
X16324409Y-126806729D01*
X16324414Y-126806728D01*
X16505693Y-126745192D01*
X16505698Y-126745190D01*
X16511165Y-126743334D01*
X16520249Y-126738247D01*
X16609162Y-126688453D01*
X16688276Y-126644147D01*
X16695819Y-126637874D01*
X16839913Y-126518031D01*
X16844345Y-126514345D01*
X16974147Y-126358276D01*
X17073334Y-126181165D01*
X17075190Y-126175698D01*
X17075192Y-126175693D01*
X17136728Y-125994414D01*
X17136729Y-125994409D01*
X17138584Y-125988945D01*
X17139412Y-125983236D01*
X17139413Y-125983231D01*
X17167179Y-125791727D01*
X17167712Y-125788053D01*
X17169232Y-125730000D01*
X17150658Y-125527859D01*
X17149090Y-125522299D01*
X17097125Y-125338046D01*
X17097124Y-125338044D01*
X17095557Y-125332487D01*
X17089200Y-125319595D01*
X17008331Y-125155609D01*
X17005776Y-125150428D01*
X16884320Y-124987779D01*
X16776989Y-124888563D01*
X16739503Y-124853911D01*
X16735258Y-124849987D01*
X16730375Y-124846906D01*
X16730371Y-124846903D01*
X16568464Y-124744748D01*
X16563581Y-124741667D01*
X16375039Y-124666446D01*
X16369379Y-124665320D01*
X16369375Y-124665319D01*
X16181613Y-124627971D01*
X16181610Y-124627971D01*
X16175946Y-124626844D01*
X16170171Y-124626768D01*
X16170167Y-124626768D01*
X16068793Y-124625441D01*
X15972971Y-124624187D01*
X15967274Y-124625166D01*
X15967273Y-124625166D01*
X15778607Y-124657585D01*
X15772910Y-124658564D01*
X15582463Y-124728824D01*
X15408010Y-124832612D01*
X15403670Y-124836418D01*
X15403666Y-124836421D01*
X15315521Y-124913723D01*
X15255392Y-124966455D01*
X15129720Y-125125869D01*
X15127031Y-125130980D01*
X15127029Y-125130983D01*
X15114073Y-125155609D01*
X15035203Y-125305515D01*
X14975007Y-125499378D01*
X14951148Y-125700964D01*
X754500Y-125700964D01*
X754500Y-123293634D01*
X774502Y-123225513D01*
X784805Y-123212728D01*
X784345Y-123212345D01*
X910453Y-123060718D01*
X910455Y-123060715D01*
X914147Y-123056276D01*
X1002318Y-122898836D01*
X1010510Y-122884208D01*
X1010511Y-122884206D01*
X1013334Y-122879165D01*
X1015190Y-122873698D01*
X1015192Y-122873693D01*
X1076728Y-122692414D01*
X1076729Y-122692409D01*
X1078584Y-122686945D01*
X1079412Y-122681236D01*
X1079413Y-122681231D01*
X1107179Y-122489727D01*
X1107712Y-122486053D01*
X1109232Y-122428000D01*
X1106564Y-122398964D01*
X1431148Y-122398964D01*
X1444424Y-122601522D01*
X1445845Y-122607118D01*
X1445846Y-122607123D01*
X1487475Y-122771033D01*
X1494392Y-122798269D01*
X1496809Y-122803512D01*
X1533915Y-122884002D01*
X1579377Y-122982616D01*
X1599825Y-123011549D01*
X1688247Y-123136664D01*
X1696533Y-123148389D01*
X1700675Y-123152424D01*
X1752082Y-123202502D01*
X1841938Y-123290035D01*
X1846742Y-123293245D01*
X1847324Y-123293634D01*
X2010720Y-123402812D01*
X2016023Y-123405090D01*
X2016026Y-123405092D01*
X2130827Y-123454414D01*
X2197228Y-123482942D01*
X2270244Y-123499464D01*
X2389579Y-123526467D01*
X2389584Y-123526468D01*
X2395216Y-123527742D01*
X2400987Y-123527969D01*
X2400989Y-123527969D01*
X2460756Y-123530317D01*
X2598053Y-123535712D01*
X2698499Y-123521148D01*
X2793231Y-123507413D01*
X2793236Y-123507412D01*
X2798945Y-123506584D01*
X2804409Y-123504729D01*
X2804414Y-123504728D01*
X2985693Y-123443192D01*
X2985698Y-123443190D01*
X2991165Y-123441334D01*
X2997026Y-123438052D01*
X3102652Y-123378898D01*
X3124949Y-123366411D01*
X4505950Y-123366411D01*
X4515830Y-123378898D01*
X4546159Y-123399163D01*
X4556264Y-123404650D01*
X4732077Y-123480185D01*
X4743020Y-123483740D01*
X4929646Y-123525970D01*
X4941055Y-123527472D01*
X5132258Y-123534984D01*
X5143740Y-123534382D01*
X5333106Y-123506926D01*
X5344302Y-123504238D01*
X5525493Y-123442731D01*
X5536002Y-123438052D01*
X5645091Y-123376959D01*
X5654955Y-123366881D01*
X5652000Y-123359210D01*
X5453754Y-123160964D01*
X14951148Y-123160964D01*
X14964424Y-123363522D01*
X14965845Y-123369118D01*
X14965846Y-123369123D01*
X15006131Y-123527742D01*
X15014392Y-123560269D01*
X15016809Y-123565512D01*
X15054010Y-123646208D01*
X15099377Y-123744616D01*
X15216533Y-123910389D01*
X15361938Y-124052035D01*
X15530720Y-124164812D01*
X15536023Y-124167090D01*
X15536026Y-124167092D01*
X15624707Y-124205192D01*
X15717228Y-124244942D01*
X15790244Y-124261464D01*
X15909579Y-124288467D01*
X15909584Y-124288468D01*
X15915216Y-124289742D01*
X15920987Y-124289969D01*
X15920989Y-124289969D01*
X15980756Y-124292317D01*
X16118053Y-124297712D01*
X16218499Y-124283148D01*
X16313231Y-124269413D01*
X16313236Y-124269412D01*
X16318945Y-124268584D01*
X16324409Y-124266729D01*
X16324414Y-124266728D01*
X16505693Y-124205192D01*
X16505698Y-124205190D01*
X16511165Y-124203334D01*
X16688276Y-124104147D01*
X16750934Y-124052035D01*
X16839913Y-123978031D01*
X16844345Y-123974345D01*
X16974147Y-123818276D01*
X17073334Y-123641165D01*
X17075190Y-123635698D01*
X17075192Y-123635693D01*
X17136728Y-123454414D01*
X17136729Y-123454409D01*
X17138584Y-123448945D01*
X17139412Y-123443236D01*
X17139413Y-123443231D01*
X17161889Y-123288215D01*
X17167712Y-123248053D01*
X17169232Y-123190000D01*
X17156481Y-123051231D01*
X17151187Y-122993613D01*
X17151186Y-122993610D01*
X17150658Y-122987859D01*
X17147628Y-122977116D01*
X17097125Y-122798046D01*
X17097124Y-122798044D01*
X17095557Y-122792487D01*
X17084978Y-122771033D01*
X17008331Y-122615609D01*
X17005776Y-122610428D01*
X16990281Y-122589677D01*
X16915623Y-122489699D01*
X16884320Y-122447779D01*
X16735258Y-122309987D01*
X16730375Y-122306906D01*
X16730371Y-122306903D01*
X16568464Y-122204748D01*
X16563581Y-122201667D01*
X16375039Y-122126446D01*
X16369379Y-122125320D01*
X16369375Y-122125319D01*
X16181613Y-122087971D01*
X16181610Y-122087971D01*
X16175946Y-122086844D01*
X16170171Y-122086768D01*
X16170167Y-122086768D01*
X16068793Y-122085441D01*
X15972971Y-122084187D01*
X15967274Y-122085166D01*
X15967273Y-122085166D01*
X15790881Y-122115476D01*
X15772910Y-122118564D01*
X15582463Y-122188824D01*
X15577502Y-122191776D01*
X15577501Y-122191776D01*
X15568085Y-122197378D01*
X15408010Y-122292612D01*
X15403670Y-122296418D01*
X15403666Y-122296421D01*
X15280150Y-122404743D01*
X15255392Y-122426455D01*
X15129720Y-122585869D01*
X15127031Y-122590980D01*
X15127029Y-122590983D01*
X15083835Y-122673082D01*
X15035203Y-122765515D01*
X14975007Y-122959378D01*
X14951148Y-123160964D01*
X5453754Y-123160964D01*
X5092812Y-122800022D01*
X5078868Y-122792408D01*
X5077035Y-122792539D01*
X5070420Y-122796790D01*
X4512146Y-123355064D01*
X4505950Y-123366411D01*
X3124949Y-123366411D01*
X3168276Y-123342147D01*
X3230934Y-123290035D01*
X3319913Y-123216031D01*
X3324345Y-123212345D01*
X3387289Y-123136664D01*
X3450453Y-123060718D01*
X3450455Y-123060715D01*
X3454147Y-123056276D01*
X3542318Y-122898836D01*
X3550510Y-122884208D01*
X3550511Y-122884206D01*
X3553334Y-122879165D01*
X3555190Y-122873698D01*
X3555192Y-122873693D01*
X3616728Y-122692414D01*
X3616729Y-122692409D01*
X3618584Y-122686945D01*
X3619412Y-122681236D01*
X3619413Y-122681231D01*
X3647179Y-122489727D01*
X3647712Y-122486053D01*
X3649232Y-122428000D01*
X3647095Y-122404743D01*
X3972028Y-122404743D01*
X3984542Y-122595676D01*
X3986343Y-122607046D01*
X4033443Y-122792502D01*
X4037284Y-122803348D01*
X4117392Y-122977116D01*
X4123146Y-122987083D01*
X4128658Y-122994882D01*
X4139247Y-123003270D01*
X4152548Y-122996242D01*
X4707978Y-122440812D01*
X4714356Y-122429132D01*
X5444408Y-122429132D01*
X5444539Y-122430965D01*
X5448790Y-122437580D01*
X6007295Y-122996085D01*
X6019675Y-123002845D01*
X6026255Y-122997919D01*
X6090052Y-122884002D01*
X6094731Y-122873493D01*
X6156238Y-122692302D01*
X6158926Y-122681106D01*
X6186678Y-122489699D01*
X6187308Y-122482318D01*
X6188633Y-122431704D01*
X6188390Y-122424305D01*
X6170693Y-122231707D01*
X6168595Y-122220386D01*
X6116658Y-122036231D01*
X6112533Y-122025484D01*
X6028998Y-121856092D01*
X6022010Y-121850847D01*
X6009591Y-121857619D01*
X5452022Y-122415188D01*
X5444408Y-122429132D01*
X4714356Y-122429132D01*
X4715592Y-122426868D01*
X4715461Y-122425035D01*
X4711210Y-122418420D01*
X4151504Y-121858714D01*
X4139124Y-121851954D01*
X4133158Y-121856420D01*
X4058356Y-121998595D01*
X4053953Y-122009228D01*
X3997213Y-122191959D01*
X3994819Y-122203221D01*
X3972329Y-122393241D01*
X3972028Y-122404743D01*
X3647095Y-122404743D01*
X3636520Y-122289657D01*
X3631187Y-122231613D01*
X3631186Y-122231610D01*
X3630658Y-122225859D01*
X3624273Y-122203221D01*
X3577125Y-122036046D01*
X3577124Y-122036044D01*
X3575557Y-122030487D01*
X3565074Y-122009228D01*
X3488331Y-121853609D01*
X3485776Y-121848428D01*
X3364320Y-121685779D01*
X3215258Y-121547987D01*
X3210375Y-121544906D01*
X3210371Y-121544903D01*
X3122709Y-121489593D01*
X4505705Y-121489593D01*
X4509192Y-121497982D01*
X5067188Y-122055978D01*
X5081132Y-122063592D01*
X5082965Y-122063461D01*
X5089580Y-122059210D01*
X5647381Y-121501409D01*
X5654141Y-121489029D01*
X5648111Y-121480974D01*
X5588239Y-121443197D01*
X5577988Y-121437974D01*
X5400260Y-121367068D01*
X5389232Y-121363801D01*
X5201561Y-121326471D01*
X5190115Y-121325268D01*
X4998792Y-121322764D01*
X4987312Y-121323667D01*
X4798737Y-121356070D01*
X4787617Y-121359050D01*
X4608095Y-121425279D01*
X4597717Y-121430229D01*
X4515303Y-121479260D01*
X4505705Y-121489593D01*
X3122709Y-121489593D01*
X3048464Y-121442748D01*
X3043581Y-121439667D01*
X2855039Y-121364446D01*
X2849379Y-121363320D01*
X2849375Y-121363319D01*
X2661613Y-121325971D01*
X2661610Y-121325971D01*
X2655946Y-121324844D01*
X2650171Y-121324768D01*
X2650167Y-121324768D01*
X2548793Y-121323441D01*
X2452971Y-121322187D01*
X2447274Y-121323166D01*
X2447273Y-121323166D01*
X2258607Y-121355585D01*
X2252910Y-121356564D01*
X2062463Y-121426824D01*
X1888010Y-121530612D01*
X1883670Y-121534418D01*
X1883666Y-121534421D01*
X1784256Y-121621602D01*
X1735392Y-121664455D01*
X1609720Y-121823869D01*
X1607031Y-121828980D01*
X1607029Y-121828983D01*
X1592594Y-121856420D01*
X1515203Y-122003515D01*
X1455007Y-122197378D01*
X1431148Y-122398964D01*
X1106564Y-122398964D01*
X1096520Y-122289657D01*
X1091187Y-122231613D01*
X1091186Y-122231610D01*
X1090658Y-122225859D01*
X1084273Y-122203221D01*
X1037125Y-122036046D01*
X1037124Y-122036044D01*
X1035557Y-122030487D01*
X1025074Y-122009228D01*
X948331Y-121853609D01*
X945776Y-121848428D01*
X824320Y-121685779D01*
X675258Y-121547987D01*
X670375Y-121544906D01*
X670371Y-121544903D01*
X508464Y-121442748D01*
X503581Y-121439667D01*
X315039Y-121364446D01*
X309379Y-121363320D01*
X309375Y-121363319D01*
X121613Y-121325971D01*
X121610Y-121325971D01*
X115946Y-121324844D01*
X110171Y-121324768D01*
X110167Y-121324768D01*
X8793Y-121323441D01*
X-87029Y-121322187D01*
X-92726Y-121323166D01*
X-92727Y-121323166D01*
X-281393Y-121355585D01*
X-287090Y-121356564D01*
X-477537Y-121426824D01*
X-651990Y-121530612D01*
X-656330Y-121534418D01*
X-656334Y-121534421D01*
X-755744Y-121621602D01*
X-804608Y-121664455D01*
X-930280Y-121823869D01*
X-932969Y-121828980D01*
X-932971Y-121828983D01*
X-947406Y-121856420D01*
X-1024797Y-122003515D01*
X-1084993Y-122197378D01*
X-1108852Y-122398964D01*
X-1095576Y-122601522D01*
X-1094155Y-122607118D01*
X-1094154Y-122607123D01*
X-1052525Y-122771033D01*
X-1045608Y-122798269D01*
X-1043191Y-122803512D01*
X-1006085Y-122884002D01*
X-960623Y-122982616D01*
X-940175Y-123011549D01*
X-851753Y-123136664D01*
X-843467Y-123148389D01*
X-792577Y-123197963D01*
X-757741Y-123259821D01*
X-754500Y-123288215D01*
X-754500Y-126635286D01*
X-774502Y-126703407D01*
X-791405Y-126724381D01*
X-1545619Y-127478595D01*
X-1607931Y-127512621D01*
X-1634714Y-127515500D01*
X-11065286Y-127515500D01*
X-11133407Y-127495498D01*
X-11154381Y-127478595D01*
X-12543595Y-126089381D01*
X-12577621Y-126027069D01*
X-12580500Y-126000286D01*
X-12580500Y-111191765D01*
X-12579067Y-111172815D01*
X-12576926Y-111158745D01*
X-12576926Y-111158741D01*
X-12575826Y-111151511D01*
X-12580085Y-111099152D01*
X-12580500Y-111088937D01*
X-12580500Y-111080947D01*
X-12581345Y-111073698D01*
X-12583771Y-111052887D01*
X-12584204Y-111048513D01*
X-12589496Y-110983451D01*
X-12589497Y-110983448D01*
X-12590090Y-110976153D01*
X-12592345Y-110969191D01*
X-12593518Y-110963323D01*
X-12594890Y-110957517D01*
X-12595738Y-110950246D01*
X-12620522Y-110881968D01*
X-12621943Y-110877827D01*
X-12642054Y-110815745D01*
X-12642055Y-110815742D01*
X-12644311Y-110808779D01*
X-12648109Y-110802520D01*
X-12650603Y-110797073D01*
X-12653271Y-110791746D01*
X-12655768Y-110784866D01*
X-12695574Y-110724152D01*
X-12697921Y-110720432D01*
X-12732668Y-110663170D01*
X-12732671Y-110663166D01*
X-12735583Y-110658367D01*
X-12742949Y-110650027D01*
X-12742923Y-110650004D01*
X-12745623Y-110646961D01*
X-12748218Y-110643857D01*
X-12752234Y-110637732D01*
X-12808146Y-110584766D01*
X-12810587Y-110582389D01*
X-13389276Y-110003700D01*
X-13401663Y-109989287D01*
X-13410096Y-109977828D01*
X-13414437Y-109971929D01*
X-13454479Y-109937911D01*
X-13461995Y-109930981D01*
X-13467638Y-109925338D01*
X-13489798Y-109907806D01*
X-13493184Y-109905030D01*
X-13515737Y-109885869D01*
X-13548520Y-109858018D01*
X-13555040Y-109854689D01*
X-13560018Y-109851369D01*
X-13565091Y-109848236D01*
X-13570833Y-109843693D01*
X-13636617Y-109812947D01*
X-13640567Y-109811016D01*
X-13698693Y-109781336D01*
X-13705212Y-109778007D01*
X-13712322Y-109776267D01*
X-13717942Y-109774177D01*
X-13723593Y-109772297D01*
X-13730222Y-109769199D01*
X-13737386Y-109767709D01*
X-13737389Y-109767708D01*
X-13777495Y-109759367D01*
X-13801314Y-109754413D01*
X-13805573Y-109753449D01*
X-13876108Y-109736189D01*
X-13881705Y-109735842D01*
X-13881710Y-109735841D01*
X-13887214Y-109735500D01*
X-13887212Y-109735466D01*
X-13891271Y-109735223D01*
X-13895305Y-109734863D01*
X-13902473Y-109733372D01*
X-13909790Y-109733570D01*
X-13979415Y-109735454D01*
X-13982823Y-109735500D01*
X-15199647Y-109735500D01*
X-15267768Y-109715498D01*
X-15285176Y-109702025D01*
X-15380502Y-109613906D01*
X-15380505Y-109613904D01*
X-15384742Y-109609987D01*
X-15556419Y-109501667D01*
X-15744961Y-109426446D01*
X-15750621Y-109425320D01*
X-15750625Y-109425319D01*
X-15938387Y-109387971D01*
X-15938390Y-109387971D01*
X-15944054Y-109386844D01*
X-15949829Y-109386768D01*
X-15949833Y-109386768D01*
X-16051207Y-109385441D01*
X-16147029Y-109384187D01*
X-16152726Y-109385166D01*
X-16152727Y-109385166D01*
X-16341393Y-109417585D01*
X-16347090Y-109418564D01*
X-16537537Y-109488824D01*
X-16711990Y-109592612D01*
X-16716330Y-109596418D01*
X-16716334Y-109596421D01*
X-16736277Y-109613911D01*
X-16864608Y-109726455D01*
X-16990280Y-109885869D01*
X-16992969Y-109890980D01*
X-16992971Y-109890983D01*
X-17005927Y-109915609D01*
X-17084797Y-110065515D01*
X-17144993Y-110259378D01*
X-17168852Y-110460964D01*
X-18541500Y-110460964D01*
X-18541500Y-107920964D01*
X-17168852Y-107920964D01*
X-17155576Y-108123522D01*
X-17154155Y-108129118D01*
X-17154154Y-108129123D01*
X-17133881Y-108208945D01*
X-17105608Y-108320269D01*
X-17103191Y-108325512D01*
X-17065990Y-108406208D01*
X-17020623Y-108504616D01*
X-16903467Y-108670389D01*
X-16758062Y-108812035D01*
X-16589280Y-108924812D01*
X-16583977Y-108927090D01*
X-16583974Y-108927092D01*
X-16495293Y-108965192D01*
X-16402772Y-109004942D01*
X-16329756Y-109021464D01*
X-16210421Y-109048467D01*
X-16210416Y-109048468D01*
X-16204784Y-109049742D01*
X-16199013Y-109049969D01*
X-16199011Y-109049969D01*
X-16139244Y-109052317D01*
X-16001947Y-109057712D01*
X-15901501Y-109043148D01*
X-15806769Y-109029413D01*
X-15806764Y-109029412D01*
X-15801055Y-109028584D01*
X-15795591Y-109026729D01*
X-15795586Y-109026728D01*
X-15614307Y-108965192D01*
X-15614302Y-108965190D01*
X-15608835Y-108963334D01*
X-15431724Y-108864147D01*
X-15369066Y-108812035D01*
X-15280087Y-108738031D01*
X-15275655Y-108734345D01*
X-15145853Y-108578276D01*
X-15046666Y-108401165D01*
X-15044810Y-108395698D01*
X-15044808Y-108395693D01*
X-14983272Y-108214414D01*
X-14983271Y-108214409D01*
X-14981416Y-108208945D01*
X-14980588Y-108203236D01*
X-14980587Y-108203231D01*
X-14952821Y-108011727D01*
X-14952288Y-108008053D01*
X-14950768Y-107950000D01*
X-14969342Y-107747859D01*
X-14972738Y-107735817D01*
X-15022875Y-107558046D01*
X-15022876Y-107558044D01*
X-15024443Y-107552487D01*
X-15030218Y-107540775D01*
X-15111669Y-107375609D01*
X-15114224Y-107370428D01*
X-15235680Y-107207779D01*
X-15384742Y-107069987D01*
X-15389625Y-107066906D01*
X-15389629Y-107066903D01*
X-15551536Y-106964748D01*
X-15556419Y-106961667D01*
X-15744961Y-106886446D01*
X-15750621Y-106885320D01*
X-15750625Y-106885319D01*
X-15938387Y-106847971D01*
X-15938390Y-106847971D01*
X-15944054Y-106846844D01*
X-15949829Y-106846768D01*
X-15949833Y-106846768D01*
X-16051207Y-106845441D01*
X-16147029Y-106844187D01*
X-16152726Y-106845166D01*
X-16152727Y-106845166D01*
X-16341393Y-106877585D01*
X-16347090Y-106878564D01*
X-16537537Y-106948824D01*
X-16711990Y-107052612D01*
X-16716330Y-107056418D01*
X-16716334Y-107056421D01*
X-16733585Y-107071550D01*
X-16864608Y-107186455D01*
X-16868183Y-107190990D01*
X-16868184Y-107190991D01*
X-16885069Y-107212409D01*
X-16990280Y-107345869D01*
X-16992969Y-107350980D01*
X-16992971Y-107350983D01*
X-17005927Y-107375609D01*
X-17084797Y-107525515D01*
X-17144993Y-107719378D01*
X-17168852Y-107920964D01*
X-18541500Y-107920964D01*
X-18541500Y-105380964D01*
X-17168852Y-105380964D01*
X-17155576Y-105583522D01*
X-17154155Y-105589118D01*
X-17154154Y-105589123D01*
X-17133881Y-105668945D01*
X-17105608Y-105780269D01*
X-17103191Y-105785512D01*
X-17065990Y-105866208D01*
X-17020623Y-105964616D01*
X-16903467Y-106130389D01*
X-16758062Y-106272035D01*
X-16589280Y-106384812D01*
X-16583977Y-106387090D01*
X-16583974Y-106387092D01*
X-16495293Y-106425192D01*
X-16402772Y-106464942D01*
X-16329756Y-106481464D01*
X-16210421Y-106508467D01*
X-16210416Y-106508468D01*
X-16204784Y-106509742D01*
X-16199013Y-106509969D01*
X-16199011Y-106509969D01*
X-16139244Y-106512317D01*
X-16001947Y-106517712D01*
X-15901501Y-106503148D01*
X-15806769Y-106489413D01*
X-15806764Y-106489412D01*
X-15801055Y-106488584D01*
X-15795591Y-106486729D01*
X-15795586Y-106486728D01*
X-15614307Y-106425192D01*
X-15614302Y-106425190D01*
X-15608835Y-106423334D01*
X-15431724Y-106324147D01*
X-15369066Y-106272035D01*
X-15280087Y-106198031D01*
X-15275655Y-106194345D01*
X-15145853Y-106038276D01*
X-15046666Y-105861165D01*
X-15044810Y-105855698D01*
X-15044808Y-105855693D01*
X-14983272Y-105674414D01*
X-14983271Y-105674409D01*
X-14981416Y-105668945D01*
X-14980588Y-105663236D01*
X-14980587Y-105663231D01*
X-14952821Y-105471727D01*
X-14952288Y-105468053D01*
X-14950768Y-105410000D01*
X-14969342Y-105207859D01*
X-14970910Y-105202299D01*
X-15022875Y-105018046D01*
X-15022876Y-105018044D01*
X-15024443Y-105012487D01*
X-15028808Y-105003634D01*
X-15111669Y-104835609D01*
X-15114224Y-104830428D01*
X-15235680Y-104667779D01*
X-15384742Y-104529987D01*
X-15389625Y-104526906D01*
X-15389629Y-104526903D01*
X-15551536Y-104424748D01*
X-15556419Y-104421667D01*
X-15744961Y-104346446D01*
X-15750621Y-104345320D01*
X-15750625Y-104345319D01*
X-15938387Y-104307971D01*
X-15938390Y-104307971D01*
X-15944054Y-104306844D01*
X-15949829Y-104306768D01*
X-15949833Y-104306768D01*
X-16051207Y-104305441D01*
X-16147029Y-104304187D01*
X-16152726Y-104305166D01*
X-16152727Y-104305166D01*
X-16202374Y-104313697D01*
X-16347090Y-104338564D01*
X-16537537Y-104408824D01*
X-16711990Y-104512612D01*
X-16716330Y-104516418D01*
X-16716334Y-104516421D01*
X-16783497Y-104575322D01*
X-16864608Y-104646455D01*
X-16990280Y-104805869D01*
X-16992969Y-104810980D01*
X-16992971Y-104810983D01*
X-17005927Y-104835609D01*
X-17084797Y-104985515D01*
X-17144993Y-105179378D01*
X-17168852Y-105380964D01*
X-18541500Y-105380964D01*
X-18541500Y-102840964D01*
X-17168852Y-102840964D01*
X-17155576Y-103043522D01*
X-17154155Y-103049118D01*
X-17154154Y-103049123D01*
X-17133881Y-103128945D01*
X-17105608Y-103240269D01*
X-17103191Y-103245512D01*
X-17065990Y-103326208D01*
X-17020623Y-103424616D01*
X-16903467Y-103590389D01*
X-16758062Y-103732035D01*
X-16589280Y-103844812D01*
X-16583977Y-103847090D01*
X-16583974Y-103847092D01*
X-16459714Y-103900478D01*
X-16402772Y-103924942D01*
X-16329756Y-103941464D01*
X-16210421Y-103968467D01*
X-16210416Y-103968468D01*
X-16204784Y-103969742D01*
X-16199013Y-103969969D01*
X-16199011Y-103969969D01*
X-16139244Y-103972317D01*
X-16001947Y-103977712D01*
X-15894652Y-103962155D01*
X-15806769Y-103949413D01*
X-15806764Y-103949412D01*
X-15801055Y-103948584D01*
X-15795591Y-103946729D01*
X-15795586Y-103946728D01*
X-15614307Y-103885192D01*
X-15614302Y-103885190D01*
X-15608835Y-103883334D01*
X-15431724Y-103784147D01*
X-15392031Y-103751135D01*
X-15284823Y-103661970D01*
X-15275655Y-103654345D01*
X-15145853Y-103498276D01*
X-15046666Y-103321165D01*
X-15044810Y-103315698D01*
X-15044808Y-103315693D01*
X-14983272Y-103134414D01*
X-14983271Y-103134409D01*
X-14981416Y-103128945D01*
X-14980588Y-103123236D01*
X-14980587Y-103123231D01*
X-14952821Y-102931727D01*
X-14952288Y-102928053D01*
X-14950768Y-102870000D01*
X-14969342Y-102667859D01*
X-14970910Y-102662299D01*
X-15022875Y-102478046D01*
X-15022876Y-102478044D01*
X-15024443Y-102472487D01*
X-15035022Y-102451033D01*
X-15111669Y-102295609D01*
X-15114224Y-102290428D01*
X-15235680Y-102127779D01*
X-15384742Y-101989987D01*
X-15389625Y-101986906D01*
X-15389629Y-101986903D01*
X-15551536Y-101884748D01*
X-15556419Y-101881667D01*
X-15744961Y-101806446D01*
X-15750621Y-101805320D01*
X-15750625Y-101805319D01*
X-15938387Y-101767971D01*
X-15938390Y-101767971D01*
X-15944054Y-101766844D01*
X-15949829Y-101766768D01*
X-15949833Y-101766768D01*
X-16051207Y-101765441D01*
X-16147029Y-101764187D01*
X-16152726Y-101765166D01*
X-16152727Y-101765166D01*
X-16226508Y-101777844D01*
X-16347090Y-101798564D01*
X-16537537Y-101868824D01*
X-16711990Y-101972612D01*
X-16716330Y-101976418D01*
X-16716334Y-101976421D01*
X-16836751Y-102082025D01*
X-16864608Y-102106455D01*
X-16990280Y-102265869D01*
X-16992969Y-102270980D01*
X-16992971Y-102270983D01*
X-17005927Y-102295609D01*
X-17084797Y-102445515D01*
X-17144993Y-102639378D01*
X-17168852Y-102840964D01*
X-18541500Y-102840964D01*
X-18541500Y-100300964D01*
X-17168852Y-100300964D01*
X-17155576Y-100503522D01*
X-17154155Y-100509118D01*
X-17154154Y-100509123D01*
X-17133881Y-100588945D01*
X-17105608Y-100700269D01*
X-17103191Y-100705512D01*
X-17065990Y-100786208D01*
X-17020623Y-100884616D01*
X-16903467Y-101050389D01*
X-16758062Y-101192035D01*
X-16589280Y-101304812D01*
X-16583977Y-101307090D01*
X-16583974Y-101307092D01*
X-16495293Y-101345192D01*
X-16402772Y-101384942D01*
X-16329756Y-101401464D01*
X-16210421Y-101428467D01*
X-16210416Y-101428468D01*
X-16204784Y-101429742D01*
X-16199013Y-101429969D01*
X-16199011Y-101429969D01*
X-16139244Y-101432317D01*
X-16001947Y-101437712D01*
X-15901501Y-101423148D01*
X-15806769Y-101409413D01*
X-15806764Y-101409412D01*
X-15801055Y-101408584D01*
X-15795591Y-101406729D01*
X-15795586Y-101406728D01*
X-15614307Y-101345192D01*
X-15614302Y-101345190D01*
X-15608835Y-101343334D01*
X-15431724Y-101244147D01*
X-15369066Y-101192035D01*
X-15280087Y-101118031D01*
X-15275655Y-101114345D01*
X-15145853Y-100958276D01*
X-15046666Y-100781165D01*
X-15044810Y-100775698D01*
X-15044808Y-100775693D01*
X-14983272Y-100594414D01*
X-14983271Y-100594409D01*
X-14981416Y-100588945D01*
X-14980588Y-100583236D01*
X-14980587Y-100583231D01*
X-14952821Y-100391727D01*
X-14952288Y-100388053D01*
X-14950768Y-100330000D01*
X-14969342Y-100127859D01*
X-14970910Y-100122299D01*
X-15022875Y-99938046D01*
X-15022876Y-99938044D01*
X-15024443Y-99932487D01*
X-15035022Y-99911033D01*
X-15111669Y-99755609D01*
X-15114224Y-99750428D01*
X-15235680Y-99587779D01*
X-15384742Y-99449987D01*
X-15389625Y-99446906D01*
X-15389629Y-99446903D01*
X-15551536Y-99344748D01*
X-15556419Y-99341667D01*
X-15744961Y-99266446D01*
X-15750621Y-99265320D01*
X-15750625Y-99265319D01*
X-15938387Y-99227971D01*
X-15938390Y-99227971D01*
X-15944054Y-99226844D01*
X-15949829Y-99226768D01*
X-15949833Y-99226768D01*
X-16051207Y-99225441D01*
X-16147029Y-99224187D01*
X-16152726Y-99225166D01*
X-16152727Y-99225166D01*
X-16341393Y-99257585D01*
X-16347090Y-99258564D01*
X-16537537Y-99328824D01*
X-16711990Y-99432612D01*
X-16716330Y-99436418D01*
X-16716334Y-99436421D01*
X-16818824Y-99526303D01*
X-16864608Y-99566455D01*
X-16990280Y-99725869D01*
X-16992969Y-99730980D01*
X-16992971Y-99730983D01*
X-17005927Y-99755609D01*
X-17084797Y-99905515D01*
X-17144993Y-100099378D01*
X-17168852Y-100300964D01*
X-18541500Y-100300964D01*
X-18541500Y-97760964D01*
X-17168852Y-97760964D01*
X-17155576Y-97963522D01*
X-17154155Y-97969118D01*
X-17154154Y-97969123D01*
X-17133881Y-98048945D01*
X-17105608Y-98160269D01*
X-17103191Y-98165512D01*
X-17065990Y-98246208D01*
X-17020623Y-98344616D01*
X-16903467Y-98510389D01*
X-16758062Y-98652035D01*
X-16589280Y-98764812D01*
X-16583977Y-98767090D01*
X-16583974Y-98767092D01*
X-16495293Y-98805192D01*
X-16402772Y-98844942D01*
X-16329756Y-98861464D01*
X-16210421Y-98888467D01*
X-16210416Y-98888468D01*
X-16204784Y-98889742D01*
X-16199013Y-98889969D01*
X-16199011Y-98889969D01*
X-16139244Y-98892317D01*
X-16001947Y-98897712D01*
X-15901501Y-98883148D01*
X-15806769Y-98869413D01*
X-15806764Y-98869412D01*
X-15801055Y-98868584D01*
X-15795591Y-98866729D01*
X-15795586Y-98866728D01*
X-15614307Y-98805192D01*
X-15614302Y-98805190D01*
X-15608835Y-98803334D01*
X-15431724Y-98704147D01*
X-15407901Y-98684334D01*
X-15280087Y-98578031D01*
X-15275655Y-98574345D01*
X-15145853Y-98418276D01*
X-15046666Y-98241165D01*
X-15044810Y-98235698D01*
X-15044808Y-98235693D01*
X-14983272Y-98054414D01*
X-14983271Y-98054409D01*
X-14981416Y-98048945D01*
X-14980588Y-98043236D01*
X-14980587Y-98043231D01*
X-14952821Y-97851727D01*
X-14952288Y-97848053D01*
X-14950768Y-97790000D01*
X-14969342Y-97587859D01*
X-14970910Y-97582299D01*
X-15022875Y-97398046D01*
X-15022876Y-97398044D01*
X-15024443Y-97392487D01*
X-15035022Y-97371033D01*
X-15111669Y-97215609D01*
X-15114224Y-97210428D01*
X-15235680Y-97047779D01*
X-15384742Y-96909987D01*
X-15389625Y-96906906D01*
X-15389629Y-96906903D01*
X-15551536Y-96804748D01*
X-15556419Y-96801667D01*
X-15744961Y-96726446D01*
X-15750621Y-96725320D01*
X-15750625Y-96725319D01*
X-15938387Y-96687971D01*
X-15938390Y-96687971D01*
X-15944054Y-96686844D01*
X-15949829Y-96686768D01*
X-15949833Y-96686768D01*
X-16051207Y-96685441D01*
X-16147029Y-96684187D01*
X-16152726Y-96685166D01*
X-16152727Y-96685166D01*
X-16199307Y-96693170D01*
X-16347090Y-96718564D01*
X-16537537Y-96788824D01*
X-16711990Y-96892612D01*
X-16716330Y-96896418D01*
X-16716334Y-96896421D01*
X-16827010Y-96993482D01*
X-16864608Y-97026455D01*
X-16990280Y-97185869D01*
X-16992969Y-97190980D01*
X-16992971Y-97190983D01*
X-17004152Y-97212235D01*
X-17084797Y-97365515D01*
X-17144993Y-97559378D01*
X-17168852Y-97760964D01*
X-18541500Y-97760964D01*
X-18541500Y-95220964D01*
X-17168852Y-95220964D01*
X-17155576Y-95423522D01*
X-17154155Y-95429118D01*
X-17154154Y-95429123D01*
X-17133881Y-95508945D01*
X-17105608Y-95620269D01*
X-17103191Y-95625512D01*
X-17065990Y-95706208D01*
X-17020623Y-95804616D01*
X-16903467Y-95970389D01*
X-16758062Y-96112035D01*
X-16589280Y-96224812D01*
X-16583977Y-96227090D01*
X-16583974Y-96227092D01*
X-16495293Y-96265192D01*
X-16402772Y-96304942D01*
X-16329756Y-96321464D01*
X-16210421Y-96348467D01*
X-16210416Y-96348468D01*
X-16204784Y-96349742D01*
X-16199013Y-96349969D01*
X-16199011Y-96349969D01*
X-16139244Y-96352317D01*
X-16001947Y-96357712D01*
X-15901501Y-96343148D01*
X-15806769Y-96329413D01*
X-15806764Y-96329412D01*
X-15801055Y-96328584D01*
X-15795591Y-96326729D01*
X-15795586Y-96326728D01*
X-15614307Y-96265192D01*
X-15614302Y-96265190D01*
X-15608835Y-96263334D01*
X-15431724Y-96164147D01*
X-15369066Y-96112035D01*
X-15275655Y-96034345D01*
X-15274055Y-96036269D01*
X-15221149Y-96007379D01*
X-15194366Y-96004500D01*
X-13064715Y-96004500D01*
X-12996594Y-96024502D01*
X-12975620Y-96041405D01*
X-11586405Y-97430619D01*
X-11552380Y-97492931D01*
X-11549500Y-97519714D01*
X-11549500Y-122361235D01*
X-11550933Y-122380185D01*
X-11552919Y-122393241D01*
X-11554174Y-122401489D01*
X-11553581Y-122408780D01*
X-11553581Y-122408783D01*
X-11549915Y-122453848D01*
X-11549500Y-122464063D01*
X-11549500Y-122472053D01*
X-11549075Y-122475697D01*
X-11546229Y-122500113D01*
X-11545796Y-122504487D01*
X-11539910Y-122576847D01*
X-11537655Y-122583809D01*
X-11536482Y-122589677D01*
X-11535110Y-122595484D01*
X-11534262Y-122602754D01*
X-11509468Y-122671060D01*
X-11508060Y-122675163D01*
X-11485688Y-122744222D01*
X-11481891Y-122750479D01*
X-11479398Y-122755926D01*
X-11476730Y-122761254D01*
X-11474232Y-122768134D01*
X-11453325Y-122800022D01*
X-11434432Y-122828839D01*
X-11432085Y-122832559D01*
X-11400868Y-122884002D01*
X-11394417Y-122894633D01*
X-11390705Y-122898836D01*
X-11387051Y-122902974D01*
X-11387076Y-122902996D01*
X-11384376Y-122906041D01*
X-11381780Y-122909146D01*
X-11377766Y-122915268D01*
X-11372453Y-122920301D01*
X-11321874Y-122968215D01*
X-11319432Y-122970593D01*
X-7692721Y-126597304D01*
X-7680334Y-126611716D01*
X-7667563Y-126629071D01*
X-7658631Y-126636659D01*
X-7627528Y-126663083D01*
X-7620012Y-126670013D01*
X-7614362Y-126675663D01*
X-7611493Y-126677933D01*
X-7611485Y-126677940D01*
X-7592214Y-126693186D01*
X-7588814Y-126695973D01*
X-7570824Y-126711256D01*
X-7533480Y-126742982D01*
X-7526964Y-126746309D01*
X-7521996Y-126749622D01*
X-7516910Y-126752763D01*
X-7511167Y-126757307D01*
X-7504533Y-126760407D01*
X-7504534Y-126760407D01*
X-7445383Y-126788053D01*
X-7441433Y-126789984D01*
X-7376788Y-126822993D01*
X-7369678Y-126824733D01*
X-7364066Y-126826820D01*
X-7358409Y-126828702D01*
X-7351778Y-126831801D01*
X-7344613Y-126833291D01*
X-7344611Y-126833292D01*
X-7280672Y-126846591D01*
X-7276388Y-126847561D01*
X-7205892Y-126864811D01*
X-7200290Y-126865159D01*
X-7200287Y-126865159D01*
X-7194786Y-126865500D01*
X-7194788Y-126865534D01*
X-7190750Y-126865777D01*
X-7186689Y-126866139D01*
X-7179527Y-126867629D01*
X-7102548Y-126865546D01*
X-7099140Y-126865500D01*
X-4384765Y-126865500D01*
X-4365815Y-126866933D01*
X-4351745Y-126869074D01*
X-4351741Y-126869074D01*
X-4344511Y-126870174D01*
X-4337220Y-126869581D01*
X-4337217Y-126869581D01*
X-4292152Y-126865915D01*
X-4281937Y-126865500D01*
X-4273947Y-126865500D01*
X-4266698Y-126864655D01*
X-4245887Y-126862229D01*
X-4241513Y-126861796D01*
X-4176451Y-126856504D01*
X-4176448Y-126856503D01*
X-4169153Y-126855910D01*
X-4162191Y-126853655D01*
X-4156323Y-126852482D01*
X-4150516Y-126851110D01*
X-4143246Y-126850262D01*
X-4074940Y-126825468D01*
X-4070837Y-126824060D01*
X-4001778Y-126801688D01*
X-3995521Y-126797891D01*
X-3990074Y-126795398D01*
X-3984746Y-126792730D01*
X-3977866Y-126790232D01*
X-3917151Y-126750426D01*
X-3913441Y-126748085D01*
X-3856162Y-126713327D01*
X-3856160Y-126713325D01*
X-3851367Y-126710417D01*
X-3843026Y-126703051D01*
X-3843004Y-126703076D01*
X-3839959Y-126700376D01*
X-3836854Y-126697780D01*
X-3830732Y-126693766D01*
X-3777784Y-126637873D01*
X-3775407Y-126635432D01*
X-2053699Y-124913723D01*
X-2039288Y-124901338D01*
X-2021929Y-124888563D01*
X-1987911Y-124848521D01*
X-1980981Y-124841005D01*
X-1975338Y-124835362D01*
X-1957806Y-124813202D01*
X-1955030Y-124809816D01*
X-1912757Y-124760058D01*
X-1908018Y-124754480D01*
X-1904689Y-124747960D01*
X-1901369Y-124742982D01*
X-1898236Y-124737909D01*
X-1893693Y-124732167D01*
X-1863977Y-124668586D01*
X-1862947Y-124666383D01*
X-1861016Y-124662433D01*
X-1831336Y-124604307D01*
X-1828007Y-124597788D01*
X-1826267Y-124590678D01*
X-1824177Y-124585058D01*
X-1822297Y-124579407D01*
X-1819199Y-124572778D01*
X-1804413Y-124501686D01*
X-1803444Y-124497405D01*
X-1787523Y-124432343D01*
X-1786189Y-124426892D01*
X-1785500Y-124415786D01*
X-1785466Y-124415788D01*
X-1785223Y-124411730D01*
X-1784863Y-124407694D01*
X-1783372Y-124400527D01*
X-1785454Y-124323568D01*
X-1785500Y-124320161D01*
X-1785500Y-123293634D01*
X-1765498Y-123225513D01*
X-1755195Y-123212728D01*
X-1755655Y-123212345D01*
X-1629547Y-123060718D01*
X-1629545Y-123060715D01*
X-1625853Y-123056276D01*
X-1537682Y-122898836D01*
X-1529490Y-122884208D01*
X-1529489Y-122884206D01*
X-1526666Y-122879165D01*
X-1524810Y-122873698D01*
X-1524808Y-122873693D01*
X-1463272Y-122692414D01*
X-1463271Y-122692409D01*
X-1461416Y-122686945D01*
X-1460588Y-122681236D01*
X-1460587Y-122681231D01*
X-1432821Y-122489727D01*
X-1432288Y-122486053D01*
X-1430768Y-122428000D01*
X-1443480Y-122289657D01*
X-1448813Y-122231613D01*
X-1448814Y-122231610D01*
X-1449342Y-122225859D01*
X-1455727Y-122203221D01*
X-1502875Y-122036046D01*
X-1502876Y-122036044D01*
X-1504443Y-122030487D01*
X-1514926Y-122009228D01*
X-1591669Y-121853609D01*
X-1594224Y-121848428D01*
X-1715680Y-121685779D01*
X-1864742Y-121547987D01*
X-1869625Y-121544906D01*
X-1869629Y-121544903D01*
X-2031536Y-121442748D01*
X-2036419Y-121439667D01*
X-2224961Y-121364446D01*
X-2230621Y-121363320D01*
X-2230625Y-121363319D01*
X-2418387Y-121325971D01*
X-2418390Y-121325971D01*
X-2424054Y-121324844D01*
X-2429829Y-121324768D01*
X-2429833Y-121324768D01*
X-2531207Y-121323441D01*
X-2627029Y-121322187D01*
X-2632726Y-121323166D01*
X-2632727Y-121323166D01*
X-2821393Y-121355585D01*
X-2827090Y-121356564D01*
X-3017537Y-121426824D01*
X-3191990Y-121530612D01*
X-3196330Y-121534418D01*
X-3196334Y-121534421D01*
X-3295744Y-121621602D01*
X-3344608Y-121664455D01*
X-3470280Y-121823869D01*
X-3472969Y-121828980D01*
X-3472971Y-121828983D01*
X-3487406Y-121856420D01*
X-3564797Y-122003515D01*
X-3624993Y-122197378D01*
X-3648852Y-122398964D01*
X-3635576Y-122601522D01*
X-3634155Y-122607118D01*
X-3634154Y-122607123D01*
X-3592525Y-122771033D01*
X-3585608Y-122798269D01*
X-3583191Y-122803512D01*
X-3546085Y-122884002D01*
X-3500623Y-122982616D01*
X-3480175Y-123011549D01*
X-3391753Y-123136664D01*
X-3383467Y-123148389D01*
X-3332577Y-123197963D01*
X-3297741Y-123259821D01*
X-3294500Y-123288215D01*
X-3294500Y-123968286D01*
X-3314502Y-124036407D01*
X-3331405Y-124057381D01*
X-4593619Y-125319595D01*
X-4655931Y-125353621D01*
X-4682714Y-125356500D01*
X-6747286Y-125356500D01*
X-6815407Y-125336498D01*
X-6836381Y-125319595D01*
X-10003595Y-122152381D01*
X-10037621Y-122090069D01*
X-10040500Y-122063286D01*
X-10040500Y-105364233D01*
X-10020498Y-105296112D01*
X-9966842Y-105249619D01*
X-9896568Y-105239515D01*
X-9831988Y-105269009D01*
X-9802434Y-105306639D01*
X-9783486Y-105343509D01*
X-9783483Y-105343513D01*
X-9780666Y-105348995D01*
X-9677375Y-105479315D01*
X-9671755Y-105486406D01*
X-9645117Y-105552216D01*
X-9644500Y-105564671D01*
X-9644500Y-119567235D01*
X-9645933Y-119586184D01*
X-9649174Y-119607489D01*
X-9648581Y-119614780D01*
X-9648581Y-119614783D01*
X-9644915Y-119659848D01*
X-9644500Y-119670063D01*
X-9644500Y-119678053D01*
X-9644075Y-119681697D01*
X-9641229Y-119706113D01*
X-9640796Y-119710487D01*
X-9636372Y-119764871D01*
X-9634910Y-119782847D01*
X-9632655Y-119789809D01*
X-9631482Y-119795677D01*
X-9630110Y-119801484D01*
X-9629262Y-119808754D01*
X-9604468Y-119877060D01*
X-9603060Y-119881163D01*
X-9580688Y-119950222D01*
X-9576891Y-119956479D01*
X-9574398Y-119961926D01*
X-9571730Y-119967254D01*
X-9569232Y-119974134D01*
X-9565218Y-119980256D01*
X-9529432Y-120034839D01*
X-9527085Y-120038559D01*
X-9507746Y-120070428D01*
X-9489417Y-120100633D01*
X-9485705Y-120104836D01*
X-9482051Y-120108974D01*
X-9482076Y-120108996D01*
X-9479376Y-120112041D01*
X-9476780Y-120115146D01*
X-9472766Y-120121268D01*
X-9467453Y-120126301D01*
X-9416874Y-120174215D01*
X-9414432Y-120176593D01*
X-6676721Y-122914304D01*
X-6664343Y-122928706D01*
X-6651563Y-122946071D01*
X-6615020Y-122977116D01*
X-6611521Y-122980089D01*
X-6604005Y-122987019D01*
X-6598362Y-122992662D01*
X-6576202Y-123010194D01*
X-6572827Y-123012961D01*
X-6517480Y-123059982D01*
X-6510960Y-123063311D01*
X-6505982Y-123066631D01*
X-6500909Y-123069764D01*
X-6495167Y-123074307D01*
X-6488533Y-123077407D01*
X-6488534Y-123077407D01*
X-6429383Y-123105053D01*
X-6425433Y-123106984D01*
X-6360788Y-123139993D01*
X-6353678Y-123141733D01*
X-6348066Y-123143820D01*
X-6342409Y-123145702D01*
X-6335778Y-123148801D01*
X-6328613Y-123150291D01*
X-6328611Y-123150292D01*
X-6264672Y-123163591D01*
X-6260388Y-123164561D01*
X-6189892Y-123181811D01*
X-6184290Y-123182159D01*
X-6184287Y-123182159D01*
X-6178786Y-123182500D01*
X-6178788Y-123182534D01*
X-6174750Y-123182777D01*
X-6170689Y-123183139D01*
X-6163527Y-123184629D01*
X-6086548Y-123182546D01*
X-6083140Y-123182500D01*
X-5939678Y-123182500D01*
X-5871557Y-123202502D01*
X-5851757Y-123218246D01*
X-5782207Y-123285998D01*
X-5782202Y-123286002D01*
X-5778062Y-123290035D01*
X-5609280Y-123402812D01*
X-5603977Y-123405090D01*
X-5603974Y-123405092D01*
X-5489173Y-123454414D01*
X-5422772Y-123482942D01*
X-5349756Y-123499464D01*
X-5230421Y-123526467D01*
X-5230416Y-123526468D01*
X-5224784Y-123527742D01*
X-5219013Y-123527969D01*
X-5219011Y-123527969D01*
X-5159244Y-123530317D01*
X-5021947Y-123535712D01*
X-4921501Y-123521148D01*
X-4826769Y-123507413D01*
X-4826764Y-123507412D01*
X-4821055Y-123506584D01*
X-4815591Y-123504729D01*
X-4815586Y-123504728D01*
X-4634307Y-123443192D01*
X-4634302Y-123443190D01*
X-4628835Y-123441334D01*
X-4622974Y-123438052D01*
X-4517348Y-123378898D01*
X-4451724Y-123342147D01*
X-4389066Y-123290035D01*
X-4300087Y-123216031D01*
X-4295655Y-123212345D01*
X-4232711Y-123136664D01*
X-4169547Y-123060718D01*
X-4169545Y-123060715D01*
X-4165853Y-123056276D01*
X-4077682Y-122898836D01*
X-4069490Y-122884208D01*
X-4069489Y-122884206D01*
X-4066666Y-122879165D01*
X-4064810Y-122873698D01*
X-4064808Y-122873693D01*
X-4003272Y-122692414D01*
X-4003271Y-122692409D01*
X-4001416Y-122686945D01*
X-4000588Y-122681236D01*
X-4000587Y-122681231D01*
X-3972821Y-122489727D01*
X-3972288Y-122486053D01*
X-3970768Y-122428000D01*
X-3983480Y-122289657D01*
X-3988813Y-122231613D01*
X-3988814Y-122231610D01*
X-3989342Y-122225859D01*
X-3995727Y-122203221D01*
X-4042875Y-122036046D01*
X-4042876Y-122036044D01*
X-4044443Y-122030487D01*
X-4054926Y-122009228D01*
X-4131669Y-121853609D01*
X-4134224Y-121848428D01*
X-4255680Y-121685779D01*
X-4404742Y-121547987D01*
X-4409625Y-121544906D01*
X-4409629Y-121544903D01*
X-4571536Y-121442748D01*
X-4576419Y-121439667D01*
X-4764961Y-121364446D01*
X-4770621Y-121363320D01*
X-4770625Y-121363319D01*
X-4958387Y-121325971D01*
X-4958390Y-121325971D01*
X-4964054Y-121324844D01*
X-4969829Y-121324768D01*
X-4969833Y-121324768D01*
X-5071207Y-121323441D01*
X-5167029Y-121322187D01*
X-5172726Y-121323166D01*
X-5172727Y-121323166D01*
X-5361393Y-121355585D01*
X-5367090Y-121356564D01*
X-5557537Y-121426824D01*
X-5731990Y-121530612D01*
X-5746819Y-121543617D01*
X-5811223Y-121573495D01*
X-5881556Y-121563811D01*
X-5918994Y-121537982D01*
X-8098595Y-119358381D01*
X-8132621Y-119296069D01*
X-8135500Y-119269286D01*
X-8135500Y-105561646D01*
X-8115498Y-105493525D01*
X-8104886Y-105479320D01*
X-8024152Y-105385789D01*
X-7941056Y-105239515D01*
X-7925050Y-105211340D01*
X-7925048Y-105211336D01*
X-7922005Y-105205979D01*
X-7889367Y-105107866D01*
X-7858675Y-105015601D01*
X-7858674Y-105015598D01*
X-7856730Y-105009753D01*
X-7830811Y-104804586D01*
X-7830398Y-104775000D01*
X-7850578Y-104569189D01*
X-7910349Y-104371217D01*
X-7958892Y-104279921D01*
X-8004541Y-104194067D01*
X-8004543Y-104194064D01*
X-8007435Y-104188625D01*
X-8011326Y-104183855D01*
X-8011328Y-104183851D01*
X-8134242Y-104033143D01*
X-8134245Y-104033140D01*
X-8138137Y-104028368D01*
X-8145034Y-104022662D01*
X-8292729Y-103900478D01*
X-8292734Y-103900475D01*
X-8297478Y-103896550D01*
X-8302897Y-103893620D01*
X-8302900Y-103893618D01*
X-8473968Y-103801122D01*
X-8473973Y-103801120D01*
X-8479388Y-103798192D01*
X-8676937Y-103737040D01*
X-8683062Y-103736396D01*
X-8683063Y-103736396D01*
X-8876474Y-103716068D01*
X-8876476Y-103716068D01*
X-8882603Y-103715424D01*
X-9008771Y-103726906D01*
X-9082409Y-103733607D01*
X-9082410Y-103733607D01*
X-9088550Y-103734166D01*
X-9286934Y-103792554D01*
X-9292399Y-103795411D01*
X-9464739Y-103885508D01*
X-9464743Y-103885511D01*
X-9470199Y-103888363D01*
X-9631365Y-104017943D01*
X-9764292Y-104176360D01*
X-9804088Y-104248748D01*
X-9854431Y-104298804D01*
X-9923848Y-104313697D01*
X-9990297Y-104288696D01*
X-10032681Y-104231739D01*
X-10040500Y-104188044D01*
X-10040500Y-97221765D01*
X-10039067Y-97202815D01*
X-10036926Y-97188745D01*
X-10036926Y-97188741D01*
X-10035826Y-97181511D01*
X-10037196Y-97164662D01*
X-10040085Y-97129152D01*
X-10040500Y-97118937D01*
X-10040500Y-97110947D01*
X-10041345Y-97103698D01*
X-10043771Y-97082887D01*
X-10044204Y-97078513D01*
X-10049496Y-97013451D01*
X-10049497Y-97013448D01*
X-10050090Y-97006153D01*
X-10052345Y-96999193D01*
X-10053519Y-96993316D01*
X-10054891Y-96987513D01*
X-10055738Y-96980246D01*
X-10080524Y-96911963D01*
X-10081927Y-96907876D01*
X-10104311Y-96838778D01*
X-10108110Y-96832517D01*
X-10110605Y-96827068D01*
X-10113272Y-96821742D01*
X-10115768Y-96814866D01*
X-10155579Y-96754145D01*
X-10157926Y-96750424D01*
X-10192668Y-96693170D01*
X-10192671Y-96693166D01*
X-10195583Y-96688367D01*
X-10202949Y-96680027D01*
X-10202923Y-96680004D01*
X-10205623Y-96676961D01*
X-10208218Y-96673857D01*
X-10212234Y-96667732D01*
X-10268146Y-96614766D01*
X-10270587Y-96612389D01*
X-12119276Y-94763700D01*
X-12131663Y-94749287D01*
X-12140096Y-94737828D01*
X-12144437Y-94731929D01*
X-12184479Y-94697911D01*
X-12191995Y-94690981D01*
X-12197638Y-94685338D01*
X-12219798Y-94667806D01*
X-12223184Y-94665030D01*
X-12245737Y-94645869D01*
X-12278520Y-94618018D01*
X-12285040Y-94614689D01*
X-12290018Y-94611369D01*
X-12295091Y-94608236D01*
X-12300833Y-94603693D01*
X-12366617Y-94572947D01*
X-12370567Y-94571016D01*
X-12428693Y-94541336D01*
X-12435212Y-94538007D01*
X-12442322Y-94536267D01*
X-12447942Y-94534177D01*
X-12453593Y-94532297D01*
X-12460222Y-94529199D01*
X-12467386Y-94527709D01*
X-12467389Y-94527708D01*
X-12507495Y-94519367D01*
X-12531314Y-94514413D01*
X-12535573Y-94513449D01*
X-12606108Y-94496189D01*
X-12611705Y-94495842D01*
X-12611710Y-94495841D01*
X-12617214Y-94495500D01*
X-12617212Y-94495466D01*
X-12621271Y-94495223D01*
X-12625305Y-94494863D01*
X-12632473Y-94493372D01*
X-12639790Y-94493570D01*
X-12709415Y-94495454D01*
X-12712823Y-94495500D01*
X-15199647Y-94495500D01*
X-15267768Y-94475498D01*
X-15285176Y-94462025D01*
X-15380502Y-94373906D01*
X-15380505Y-94373904D01*
X-15384742Y-94369987D01*
X-15556419Y-94261667D01*
X-15744961Y-94186446D01*
X-15750621Y-94185320D01*
X-15750625Y-94185319D01*
X-15938387Y-94147971D01*
X-15938390Y-94147971D01*
X-15944054Y-94146844D01*
X-15949829Y-94146768D01*
X-15949833Y-94146768D01*
X-16051207Y-94145441D01*
X-16147029Y-94144187D01*
X-16152726Y-94145166D01*
X-16152727Y-94145166D01*
X-16339170Y-94177203D01*
X-16347090Y-94178564D01*
X-16537537Y-94248824D01*
X-16711990Y-94352612D01*
X-16716330Y-94356418D01*
X-16716334Y-94356421D01*
X-16778545Y-94410979D01*
X-16864608Y-94486455D01*
X-16990280Y-94645869D01*
X-16992969Y-94650980D01*
X-16992971Y-94650983D01*
X-17030664Y-94722626D01*
X-17084797Y-94825515D01*
X-17144993Y-95019378D01*
X-17168852Y-95220964D01*
X-18541500Y-95220964D01*
X-18541500Y-92680964D01*
X-17168852Y-92680964D01*
X-17155576Y-92883522D01*
X-17154155Y-92889118D01*
X-17154154Y-92889123D01*
X-17124439Y-93006122D01*
X-17105608Y-93080269D01*
X-17103191Y-93085512D01*
X-17037659Y-93227662D01*
X-17020623Y-93264616D01*
X-16903467Y-93430389D01*
X-16758062Y-93572035D01*
X-16589280Y-93684812D01*
X-16583977Y-93687090D01*
X-16583974Y-93687092D01*
X-16408079Y-93762662D01*
X-16402772Y-93764942D01*
X-16334802Y-93780322D01*
X-16210421Y-93808467D01*
X-16210416Y-93808468D01*
X-16204784Y-93809742D01*
X-16199013Y-93809969D01*
X-16199011Y-93809969D01*
X-16139244Y-93812317D01*
X-16001947Y-93817712D01*
X-15901501Y-93803148D01*
X-15806769Y-93789413D01*
X-15806764Y-93789412D01*
X-15801055Y-93788584D01*
X-15795591Y-93786729D01*
X-15795586Y-93786728D01*
X-15614307Y-93725192D01*
X-15614302Y-93725190D01*
X-15608835Y-93723334D01*
X-15431724Y-93624147D01*
X-15381187Y-93582116D01*
X-15280087Y-93498031D01*
X-15275655Y-93494345D01*
X-15218537Y-93425669D01*
X-15149547Y-93342718D01*
X-15149545Y-93342715D01*
X-15145853Y-93338276D01*
X-15046666Y-93161165D01*
X-15044810Y-93155698D01*
X-15044808Y-93155693D01*
X-14983272Y-92974414D01*
X-14983271Y-92974409D01*
X-14981416Y-92968945D01*
X-14980588Y-92963236D01*
X-14980587Y-92963231D01*
X-14952821Y-92771727D01*
X-14952288Y-92768053D01*
X-14950768Y-92710000D01*
X-14969342Y-92507859D01*
X-14970910Y-92502299D01*
X-15022875Y-92318046D01*
X-15022876Y-92318044D01*
X-15024443Y-92312487D01*
X-15035022Y-92291033D01*
X-15111669Y-92135609D01*
X-15114224Y-92130428D01*
X-15235680Y-91967779D01*
X-15384742Y-91829987D01*
X-15389625Y-91826906D01*
X-15389629Y-91826903D01*
X-15551536Y-91724748D01*
X-15556419Y-91721667D01*
X-15744961Y-91646446D01*
X-15750621Y-91645320D01*
X-15750625Y-91645319D01*
X-15938387Y-91607971D01*
X-15938390Y-91607971D01*
X-15944054Y-91606844D01*
X-15949829Y-91606768D01*
X-15949833Y-91606768D01*
X-16051207Y-91605441D01*
X-16147029Y-91604187D01*
X-16152726Y-91605166D01*
X-16152727Y-91605166D01*
X-16341393Y-91637585D01*
X-16347090Y-91638564D01*
X-16537537Y-91708824D01*
X-16711990Y-91812612D01*
X-16716330Y-91816418D01*
X-16716334Y-91816421D01*
X-16811550Y-91899924D01*
X-16864608Y-91946455D01*
X-16990280Y-92105869D01*
X-16992969Y-92110980D01*
X-16992971Y-92110983D01*
X-17005927Y-92135609D01*
X-17084797Y-92285515D01*
X-17144993Y-92479378D01*
X-17168852Y-92680964D01*
X-18541500Y-92680964D01*
X-18541500Y-90140964D01*
X-17168852Y-90140964D01*
X-17155576Y-90343522D01*
X-17154155Y-90349118D01*
X-17154154Y-90349123D01*
X-17133881Y-90428945D01*
X-17105608Y-90540269D01*
X-17103191Y-90545512D01*
X-17065990Y-90626208D01*
X-17020623Y-90724616D01*
X-16903467Y-90890389D01*
X-16758062Y-91032035D01*
X-16589280Y-91144812D01*
X-16583977Y-91147090D01*
X-16583974Y-91147092D01*
X-16495293Y-91185192D01*
X-16402772Y-91224942D01*
X-16329756Y-91241464D01*
X-16210421Y-91268467D01*
X-16210416Y-91268468D01*
X-16204784Y-91269742D01*
X-16199013Y-91269969D01*
X-16199011Y-91269969D01*
X-16139244Y-91272317D01*
X-16001947Y-91277712D01*
X-15901501Y-91263148D01*
X-15806769Y-91249413D01*
X-15806764Y-91249412D01*
X-15801055Y-91248584D01*
X-15795591Y-91246729D01*
X-15795586Y-91246728D01*
X-15614307Y-91185192D01*
X-15614302Y-91185190D01*
X-15608835Y-91183334D01*
X-15431724Y-91084147D01*
X-15369066Y-91032035D01*
X-15275655Y-90954345D01*
X-15274055Y-90956269D01*
X-15221149Y-90927379D01*
X-15194366Y-90924500D01*
X-3539715Y-90924500D01*
X-3471594Y-90944502D01*
X-3450620Y-90961405D01*
X-1831905Y-92580119D01*
X-1797880Y-92642431D01*
X-1795000Y-92669214D01*
X-1795000Y-96909628D01*
X-1815002Y-96977749D01*
X-1868658Y-97024242D01*
X-1938932Y-97034346D01*
X-1980925Y-97020465D01*
X-2129388Y-96940192D01*
X-2326937Y-96879040D01*
X-2333062Y-96878396D01*
X-2333063Y-96878396D01*
X-2526474Y-96858068D01*
X-2526476Y-96858068D01*
X-2532603Y-96857424D01*
X-2658771Y-96868906D01*
X-2732409Y-96875607D01*
X-2732410Y-96875607D01*
X-2738550Y-96876166D01*
X-2936934Y-96934554D01*
X-2942399Y-96937411D01*
X-3114739Y-97027508D01*
X-3114743Y-97027511D01*
X-3120199Y-97030363D01*
X-3281365Y-97159943D01*
X-3414292Y-97318360D01*
X-3513918Y-97499578D01*
X-3576447Y-97696696D01*
X-3577133Y-97702813D01*
X-3577134Y-97702817D01*
X-3595499Y-97866545D01*
X-3622970Y-97932012D01*
X-3631619Y-97941595D01*
X-4804300Y-99114276D01*
X-4818713Y-99126663D01*
X-4836071Y-99139437D01*
X-4840814Y-99145020D01*
X-4870089Y-99179479D01*
X-4877019Y-99186995D01*
X-4882662Y-99192638D01*
X-4900194Y-99214798D01*
X-4902961Y-99218173D01*
X-4949982Y-99273520D01*
X-4953311Y-99280040D01*
X-4956631Y-99285018D01*
X-4959764Y-99290091D01*
X-4964307Y-99295833D01*
X-4967407Y-99302466D01*
X-4995053Y-99361617D01*
X-4996984Y-99365567D01*
X-5029993Y-99430212D01*
X-5031733Y-99437322D01*
X-5033823Y-99442942D01*
X-5035703Y-99448593D01*
X-5038801Y-99455222D01*
X-5040291Y-99462386D01*
X-5040292Y-99462389D01*
X-5053585Y-99526303D01*
X-5054551Y-99530573D01*
X-5071811Y-99601108D01*
X-5072500Y-99612214D01*
X-5072534Y-99612212D01*
X-5072777Y-99616271D01*
X-5073137Y-99620305D01*
X-5074628Y-99627473D01*
X-5074430Y-99634790D01*
X-5072546Y-99704415D01*
X-5072500Y-99707823D01*
X-5072500Y-118043235D01*
X-5073933Y-118062185D01*
X-5075917Y-118075229D01*
X-5077174Y-118083489D01*
X-5076581Y-118090780D01*
X-5076581Y-118090783D01*
X-5072915Y-118135848D01*
X-5072500Y-118146063D01*
X-5072500Y-118154053D01*
X-5072075Y-118157697D01*
X-5069229Y-118182113D01*
X-5068796Y-118186487D01*
X-5062910Y-118258847D01*
X-5060655Y-118265809D01*
X-5059482Y-118271677D01*
X-5058110Y-118277484D01*
X-5057262Y-118284754D01*
X-5032468Y-118353060D01*
X-5031060Y-118357163D01*
X-5008688Y-118426222D01*
X-5004891Y-118432479D01*
X-5002398Y-118437926D01*
X-4999730Y-118443254D01*
X-4997232Y-118450134D01*
X-4957432Y-118510839D01*
X-4955085Y-118514559D01*
X-4920331Y-118571832D01*
X-4920327Y-118571837D01*
X-4917417Y-118576633D01*
X-4913699Y-118580843D01*
X-4911740Y-118583505D01*
X-4887472Y-118650225D01*
X-4903128Y-118719474D01*
X-4953737Y-118769265D01*
X-5014870Y-118784179D01*
X-5028885Y-118783995D01*
X-5066929Y-118783497D01*
X-5134781Y-118762604D01*
X-5154373Y-118746603D01*
X-5304595Y-118596381D01*
X-5338621Y-118534069D01*
X-5341500Y-118507286D01*
X-5341500Y-94766646D01*
X-5321498Y-94698525D01*
X-5310886Y-94684320D01*
X-5230152Y-94590789D01*
X-5175863Y-94495223D01*
X-5131050Y-94416340D01*
X-5131048Y-94416336D01*
X-5128005Y-94410979D01*
X-5062730Y-94214753D01*
X-5036811Y-94009586D01*
X-5036398Y-93980000D01*
X-5056578Y-93774189D01*
X-5116349Y-93576217D01*
X-5213435Y-93393625D01*
X-5217326Y-93388855D01*
X-5217328Y-93388851D01*
X-5340242Y-93238143D01*
X-5340245Y-93238140D01*
X-5344137Y-93233368D01*
X-5351034Y-93227662D01*
X-5498729Y-93105478D01*
X-5498734Y-93105475D01*
X-5503478Y-93101550D01*
X-5508897Y-93098620D01*
X-5508900Y-93098618D01*
X-5679968Y-93006122D01*
X-5679973Y-93006120D01*
X-5685388Y-93003192D01*
X-5882937Y-92942040D01*
X-5889062Y-92941396D01*
X-5889063Y-92941396D01*
X-6082474Y-92921068D01*
X-6082476Y-92921068D01*
X-6088603Y-92920424D01*
X-6214771Y-92931906D01*
X-6288409Y-92938607D01*
X-6288410Y-92938607D01*
X-6294550Y-92939166D01*
X-6492934Y-92997554D01*
X-6498399Y-93000411D01*
X-6670739Y-93090508D01*
X-6670743Y-93090511D01*
X-6676199Y-93093363D01*
X-6837365Y-93222943D01*
X-6970292Y-93381360D01*
X-7069918Y-93562578D01*
X-7132447Y-93759696D01*
X-7133133Y-93765813D01*
X-7133134Y-93765817D01*
X-7137918Y-93808467D01*
X-7155499Y-93965206D01*
X-7138194Y-94171278D01*
X-7081193Y-94370066D01*
X-7078375Y-94375548D01*
X-7078374Y-94375552D01*
X-6989486Y-94548509D01*
X-6989483Y-94548513D01*
X-6986666Y-94553995D01*
X-6882564Y-94685338D01*
X-6877755Y-94691406D01*
X-6851117Y-94757216D01*
X-6850500Y-94769671D01*
X-6850500Y-118805235D01*
X-6851933Y-118824185D01*
X-6853987Y-118837687D01*
X-6855174Y-118845489D01*
X-6854581Y-118852780D01*
X-6854581Y-118852783D01*
X-6850915Y-118897848D01*
X-6850500Y-118908063D01*
X-6850500Y-118916053D01*
X-6849655Y-118923302D01*
X-6847229Y-118944113D01*
X-6846796Y-118948487D01*
X-6843059Y-118994421D01*
X-6840910Y-119020847D01*
X-6838655Y-119027809D01*
X-6837482Y-119033677D01*
X-6836110Y-119039484D01*
X-6835262Y-119046754D01*
X-6810468Y-119115060D01*
X-6809060Y-119119163D01*
X-6786688Y-119188222D01*
X-6782891Y-119194479D01*
X-6780398Y-119199926D01*
X-6777730Y-119205254D01*
X-6775232Y-119212134D01*
X-6735432Y-119272839D01*
X-6733085Y-119276559D01*
X-6695417Y-119338633D01*
X-6691705Y-119342836D01*
X-6688051Y-119346974D01*
X-6688076Y-119346996D01*
X-6685376Y-119350041D01*
X-6682780Y-119353146D01*
X-6678766Y-119359268D01*
X-6673453Y-119364301D01*
X-6622892Y-119412198D01*
X-6620450Y-119414575D01*
X-6420241Y-119614783D01*
X-6223283Y-119811741D01*
X-6189258Y-119874054D01*
X-6186648Y-119892596D01*
X-6182104Y-119961926D01*
X-6175576Y-120061522D01*
X-6174155Y-120067118D01*
X-6174154Y-120067123D01*
X-6135226Y-120220399D01*
X-6125608Y-120258269D01*
X-6123191Y-120263512D01*
X-6085990Y-120344208D01*
X-6040623Y-120442616D01*
X-6037290Y-120447332D01*
X-5931199Y-120597448D01*
X-5923467Y-120608389D01*
X-5919325Y-120612424D01*
X-5910558Y-120620964D01*
X-5778062Y-120750035D01*
X-5609280Y-120862812D01*
X-5603977Y-120865090D01*
X-5603974Y-120865092D01*
X-5428079Y-120940662D01*
X-5422772Y-120942942D01*
X-5349756Y-120959464D01*
X-5230421Y-120986467D01*
X-5230416Y-120986468D01*
X-5224784Y-120987742D01*
X-5219013Y-120987969D01*
X-5219011Y-120987969D01*
X-5159244Y-120990317D01*
X-5021947Y-120995712D01*
X-4921501Y-120981148D01*
X-4826769Y-120967413D01*
X-4826764Y-120967412D01*
X-4821055Y-120966584D01*
X-4815591Y-120964729D01*
X-4815586Y-120964728D01*
X-4634307Y-120903192D01*
X-4634302Y-120903190D01*
X-4628835Y-120901334D01*
X-4451724Y-120802147D01*
X-4389066Y-120750035D01*
X-4300087Y-120676031D01*
X-4295655Y-120672345D01*
X-4226834Y-120589597D01*
X-4169547Y-120520718D01*
X-4169545Y-120520715D01*
X-4165853Y-120516276D01*
X-4066666Y-120339165D01*
X-4064810Y-120333698D01*
X-4064808Y-120333693D01*
X-4003272Y-120152414D01*
X-4003271Y-120152409D01*
X-4001416Y-120146945D01*
X-4000588Y-120141236D01*
X-4000587Y-120141231D01*
X-3976360Y-119974134D01*
X-3972288Y-119946053D01*
X-3970768Y-119888000D01*
X-3971107Y-119884305D01*
X-3975681Y-119834536D01*
X-3961997Y-119764871D01*
X-3912821Y-119713663D01*
X-3843766Y-119697171D01*
X-3776757Y-119720631D01*
X-3761115Y-119733910D01*
X-3683283Y-119811741D01*
X-3649258Y-119874053D01*
X-3646648Y-119892596D01*
X-3642104Y-119961926D01*
X-3635576Y-120061522D01*
X-3634155Y-120067118D01*
X-3634154Y-120067123D01*
X-3595226Y-120220399D01*
X-3585608Y-120258269D01*
X-3583191Y-120263512D01*
X-3545990Y-120344208D01*
X-3500623Y-120442616D01*
X-3497290Y-120447332D01*
X-3391199Y-120597448D01*
X-3383467Y-120608389D01*
X-3379325Y-120612424D01*
X-3370558Y-120620964D01*
X-3238062Y-120750035D01*
X-3069280Y-120862812D01*
X-3063977Y-120865090D01*
X-3063974Y-120865092D01*
X-2888079Y-120940662D01*
X-2882772Y-120942942D01*
X-2809756Y-120959464D01*
X-2690421Y-120986467D01*
X-2690416Y-120986468D01*
X-2684784Y-120987742D01*
X-2679013Y-120987969D01*
X-2679011Y-120987969D01*
X-2619244Y-120990317D01*
X-2481947Y-120995712D01*
X-2381501Y-120981148D01*
X-2286769Y-120967413D01*
X-2286764Y-120967412D01*
X-2281055Y-120966584D01*
X-2275591Y-120964729D01*
X-2275586Y-120964728D01*
X-2094307Y-120903192D01*
X-2094302Y-120903190D01*
X-2088835Y-120901334D01*
X-1911724Y-120802147D01*
X-1849066Y-120750035D01*
X-1760087Y-120676031D01*
X-1755655Y-120672345D01*
X-1686834Y-120589597D01*
X-1629547Y-120520718D01*
X-1629545Y-120520715D01*
X-1625853Y-120516276D01*
X-1526666Y-120339165D01*
X-1524810Y-120333698D01*
X-1524808Y-120333693D01*
X-1463272Y-120152414D01*
X-1463271Y-120152409D01*
X-1461416Y-120146945D01*
X-1460588Y-120141236D01*
X-1460587Y-120141231D01*
X-1436360Y-119974134D01*
X-1432288Y-119946053D01*
X-1430768Y-119888000D01*
X-1433436Y-119858964D01*
X-1108852Y-119858964D01*
X-1095576Y-120061522D01*
X-1094155Y-120067118D01*
X-1094154Y-120067123D01*
X-1055226Y-120220399D01*
X-1045608Y-120258269D01*
X-1043191Y-120263512D01*
X-1005990Y-120344208D01*
X-960623Y-120442616D01*
X-957290Y-120447332D01*
X-851199Y-120597448D01*
X-843467Y-120608389D01*
X-839325Y-120612424D01*
X-830558Y-120620964D01*
X-698062Y-120750035D01*
X-529280Y-120862812D01*
X-523977Y-120865090D01*
X-523974Y-120865092D01*
X-348079Y-120940662D01*
X-342772Y-120942942D01*
X-269756Y-120959464D01*
X-150421Y-120986467D01*
X-150416Y-120986468D01*
X-144784Y-120987742D01*
X-139013Y-120987969D01*
X-139011Y-120987969D01*
X-79244Y-120990317D01*
X58053Y-120995712D01*
X158499Y-120981148D01*
X253231Y-120967413D01*
X253236Y-120967412D01*
X258945Y-120966584D01*
X264409Y-120964729D01*
X264414Y-120964728D01*
X445693Y-120903192D01*
X445698Y-120903190D01*
X451165Y-120901334D01*
X628276Y-120802147D01*
X690934Y-120750035D01*
X779913Y-120676031D01*
X784345Y-120672345D01*
X853166Y-120589597D01*
X910453Y-120520718D01*
X910455Y-120520715D01*
X914147Y-120516276D01*
X1013334Y-120339165D01*
X1015190Y-120333698D01*
X1015192Y-120333693D01*
X1076728Y-120152414D01*
X1076729Y-120152409D01*
X1078584Y-120146945D01*
X1079412Y-120141236D01*
X1079413Y-120141231D01*
X1103640Y-119974134D01*
X1107712Y-119946053D01*
X1109232Y-119888000D01*
X1106564Y-119858964D01*
X1431148Y-119858964D01*
X1444424Y-120061522D01*
X1445845Y-120067118D01*
X1445846Y-120067123D01*
X1484774Y-120220399D01*
X1494392Y-120258269D01*
X1496809Y-120263512D01*
X1534010Y-120344208D01*
X1579377Y-120442616D01*
X1582710Y-120447332D01*
X1688801Y-120597448D01*
X1696533Y-120608389D01*
X1700675Y-120612424D01*
X1709442Y-120620964D01*
X1841938Y-120750035D01*
X2010720Y-120862812D01*
X2016023Y-120865090D01*
X2016026Y-120865092D01*
X2191921Y-120940662D01*
X2197228Y-120942942D01*
X2270244Y-120959464D01*
X2389579Y-120986467D01*
X2389584Y-120986468D01*
X2395216Y-120987742D01*
X2400987Y-120987969D01*
X2400989Y-120987969D01*
X2460756Y-120990317D01*
X2598053Y-120995712D01*
X2698499Y-120981148D01*
X2793231Y-120967413D01*
X2793236Y-120967412D01*
X2798945Y-120966584D01*
X2804409Y-120964729D01*
X2804414Y-120964728D01*
X2985693Y-120903192D01*
X2985698Y-120903190D01*
X2991165Y-120901334D01*
X3168276Y-120802147D01*
X3230934Y-120750035D01*
X3319913Y-120676031D01*
X3324345Y-120672345D01*
X3393166Y-120589597D01*
X3450453Y-120520718D01*
X3450455Y-120520715D01*
X3454147Y-120516276D01*
X3553334Y-120339165D01*
X3555190Y-120333698D01*
X3555192Y-120333693D01*
X3616728Y-120152414D01*
X3616729Y-120152409D01*
X3618584Y-120146945D01*
X3619412Y-120141236D01*
X3619413Y-120141231D01*
X3643640Y-119974134D01*
X3647712Y-119946053D01*
X3649232Y-119888000D01*
X3632921Y-119710487D01*
X3631187Y-119691613D01*
X3631186Y-119691610D01*
X3630658Y-119685859D01*
X3629090Y-119680299D01*
X3577125Y-119496046D01*
X3577124Y-119496044D01*
X3575557Y-119490487D01*
X3564978Y-119469033D01*
X3488331Y-119313609D01*
X3485776Y-119308428D01*
X3364320Y-119145779D01*
X3215258Y-119007987D01*
X3210375Y-119004906D01*
X3210371Y-119004903D01*
X3048464Y-118902748D01*
X3043581Y-118899667D01*
X2855039Y-118824446D01*
X2849379Y-118823320D01*
X2849375Y-118823319D01*
X2661613Y-118785971D01*
X2661610Y-118785971D01*
X2655946Y-118784844D01*
X2650171Y-118784768D01*
X2650167Y-118784768D01*
X2548793Y-118783441D01*
X2452971Y-118782187D01*
X2447274Y-118783166D01*
X2447273Y-118783166D01*
X2318840Y-118805235D01*
X2252910Y-118816564D01*
X2062463Y-118886824D01*
X1888010Y-118990612D01*
X1883670Y-118994418D01*
X1883666Y-118994421D01*
X1739890Y-119120510D01*
X1735392Y-119124455D01*
X1609720Y-119283869D01*
X1607031Y-119288980D01*
X1607029Y-119288983D01*
X1576507Y-119346996D01*
X1515203Y-119463515D01*
X1455007Y-119657378D01*
X1431148Y-119858964D01*
X1106564Y-119858964D01*
X1092921Y-119710487D01*
X1091187Y-119691613D01*
X1091186Y-119691610D01*
X1090658Y-119685859D01*
X1089090Y-119680299D01*
X1037125Y-119496046D01*
X1037124Y-119496044D01*
X1035557Y-119490487D01*
X1024978Y-119469033D01*
X948331Y-119313609D01*
X945776Y-119308428D01*
X919201Y-119272839D01*
X827773Y-119150403D01*
X827772Y-119150402D01*
X824320Y-119145779D01*
X794971Y-119118649D01*
X758526Y-119057720D01*
X754500Y-119026124D01*
X754500Y-108736646D01*
X774502Y-108668525D01*
X785114Y-108654320D01*
X865848Y-108560789D01*
X956528Y-108401165D01*
X964950Y-108386340D01*
X964952Y-108386336D01*
X967995Y-108380979D01*
X1023403Y-108214414D01*
X1031325Y-108190601D01*
X1031326Y-108190598D01*
X1033270Y-108184753D01*
X1059189Y-107979586D01*
X1059602Y-107950000D01*
X1039422Y-107744189D01*
X979651Y-107546217D01*
X888937Y-107375609D01*
X885459Y-107369067D01*
X885457Y-107369064D01*
X882565Y-107363625D01*
X878674Y-107358855D01*
X878672Y-107358851D01*
X755758Y-107208143D01*
X755755Y-107208140D01*
X751863Y-107203368D01*
X744966Y-107197662D01*
X597271Y-107075478D01*
X597266Y-107075475D01*
X592522Y-107071550D01*
X587103Y-107068620D01*
X587100Y-107068618D01*
X416032Y-106976122D01*
X416027Y-106976120D01*
X410612Y-106973192D01*
X213063Y-106912040D01*
X206938Y-106911396D01*
X206937Y-106911396D01*
X13526Y-106891068D01*
X13524Y-106891068D01*
X7397Y-106890424D01*
X-118771Y-106901906D01*
X-192409Y-106908607D01*
X-192410Y-106908607D01*
X-198550Y-106909166D01*
X-396934Y-106967554D01*
X-402399Y-106970411D01*
X-574739Y-107060508D01*
X-574743Y-107060511D01*
X-580199Y-107063363D01*
X-741365Y-107192943D01*
X-874292Y-107351360D01*
X-973918Y-107532578D01*
X-1036447Y-107729696D01*
X-1037133Y-107735813D01*
X-1037134Y-107735817D01*
X-1058548Y-107926730D01*
X-1059499Y-107935206D01*
X-1058257Y-107950000D01*
X-1044169Y-108117755D01*
X-1042194Y-108141278D01*
X-985193Y-108340066D01*
X-982375Y-108345548D01*
X-982374Y-108345552D01*
X-893486Y-108518509D01*
X-893483Y-108518513D01*
X-890666Y-108523995D01*
X-787375Y-108654315D01*
X-781755Y-108661406D01*
X-755117Y-108727216D01*
X-754500Y-108739671D01*
X-754500Y-119023422D01*
X-774502Y-119091543D01*
X-797418Y-119118150D01*
X-804608Y-119124455D01*
X-930280Y-119283869D01*
X-932969Y-119288980D01*
X-932971Y-119288983D01*
X-963493Y-119346996D01*
X-1024797Y-119463515D01*
X-1084993Y-119657378D01*
X-1108852Y-119858964D01*
X-1433436Y-119858964D01*
X-1447079Y-119710487D01*
X-1448813Y-119691613D01*
X-1448814Y-119691610D01*
X-1449342Y-119685859D01*
X-1450910Y-119680299D01*
X-1502875Y-119496046D01*
X-1502876Y-119496044D01*
X-1504443Y-119490487D01*
X-1515022Y-119469033D01*
X-1591669Y-119313609D01*
X-1594224Y-119308428D01*
X-1715680Y-119145779D01*
X-1864742Y-119007987D01*
X-1869625Y-119004906D01*
X-1869629Y-119004903D01*
X-2031536Y-118902748D01*
X-2036419Y-118899667D01*
X-2224961Y-118824446D01*
X-2230621Y-118823320D01*
X-2230625Y-118823319D01*
X-2418387Y-118785971D01*
X-2418390Y-118785971D01*
X-2424054Y-118784844D01*
X-2429829Y-118784768D01*
X-2429833Y-118784768D01*
X-2526928Y-118783497D01*
X-2594781Y-118762605D01*
X-2614373Y-118746603D01*
X-3526595Y-117834381D01*
X-3560621Y-117772069D01*
X-3563500Y-117745286D01*
X-3563500Y-100059715D01*
X-3543498Y-99991594D01*
X-3526600Y-99970625D01*
X-2562815Y-99006839D01*
X-2500504Y-98972815D01*
X-2483391Y-98970306D01*
X-2442738Y-98967178D01*
X-2362144Y-98960977D01*
X-2362140Y-98960976D01*
X-2356002Y-98960504D01*
X-2156822Y-98904892D01*
X-2151318Y-98902112D01*
X-2151316Y-98902111D01*
X-1977810Y-98814467D01*
X-1907988Y-98801607D01*
X-1842297Y-98828536D01*
X-1801594Y-98886706D01*
X-1795000Y-98926933D01*
X-1795000Y-101639501D01*
X-1815002Y-101707622D01*
X-1868658Y-101754115D01*
X-1921000Y-101765501D01*
X-2145066Y-101765501D01*
X-2180818Y-101772612D01*
X-2207126Y-101777844D01*
X-2207128Y-101777845D01*
X-2219301Y-101780266D01*
X-2229621Y-101787161D01*
X-2229622Y-101787162D01*
X-2289781Y-101827360D01*
X-2303484Y-101836516D01*
X-2359734Y-101920699D01*
X-2374500Y-101994933D01*
X-2374499Y-103745066D01*
X-2367461Y-103780453D01*
X-2363932Y-103798192D01*
X-2359734Y-103819301D01*
X-2352839Y-103829620D01*
X-2352838Y-103829622D01*
X-2315495Y-103885508D01*
X-2303484Y-103903484D01*
X-2219301Y-103959734D01*
X-2145067Y-103974500D01*
X-1270142Y-103974500D01*
X-394934Y-103974499D01*
X-359182Y-103967388D01*
X-332874Y-103962156D01*
X-332872Y-103962155D01*
X-320699Y-103959734D01*
X-310379Y-103952839D01*
X-310378Y-103952838D01*
X-246832Y-103910377D01*
X-236516Y-103903484D01*
X-180266Y-103819301D01*
X-165500Y-103745067D01*
X-165501Y-102840964D01*
X161148Y-102840964D01*
X174424Y-103043522D01*
X175845Y-103049118D01*
X175846Y-103049123D01*
X196119Y-103128945D01*
X224392Y-103240269D01*
X226809Y-103245512D01*
X264010Y-103326208D01*
X309377Y-103424616D01*
X426533Y-103590389D01*
X571938Y-103732035D01*
X740720Y-103844812D01*
X746023Y-103847090D01*
X746026Y-103847092D01*
X870286Y-103900478D01*
X927228Y-103924942D01*
X1000244Y-103941464D01*
X1119579Y-103968467D01*
X1119584Y-103968468D01*
X1125216Y-103969742D01*
X1130987Y-103969969D01*
X1130989Y-103969969D01*
X1190756Y-103972317D01*
X1328053Y-103977712D01*
X1435348Y-103962155D01*
X1523231Y-103949413D01*
X1523236Y-103949412D01*
X1528945Y-103948584D01*
X1534409Y-103946729D01*
X1534414Y-103946728D01*
X1715693Y-103885192D01*
X1715698Y-103885190D01*
X1721165Y-103883334D01*
X1898276Y-103784147D01*
X1937969Y-103751135D01*
X2054345Y-103654345D01*
X2055945Y-103656269D01*
X2108851Y-103627379D01*
X2135634Y-103624500D01*
X3445284Y-103624500D01*
X3513405Y-103644502D01*
X3534379Y-103661404D01*
X4288595Y-104415619D01*
X4322620Y-104477932D01*
X4325500Y-104504715D01*
X4325500Y-118719763D01*
X4305498Y-118787884D01*
X4251842Y-118834377D01*
X4243731Y-118837744D01*
X4243642Y-118837777D01*
X4243638Y-118837779D01*
X4235236Y-118840929D01*
X4228057Y-118846309D01*
X4228054Y-118846311D01*
X4156862Y-118899667D01*
X4119596Y-118927596D01*
X4114215Y-118934776D01*
X4038311Y-119036054D01*
X4038309Y-119036057D01*
X4032929Y-119043236D01*
X3982202Y-119178552D01*
X3975500Y-119240244D01*
X3975500Y-120535756D01*
X3982202Y-120597448D01*
X3984974Y-120604841D01*
X3984974Y-120604843D01*
X3987816Y-120612424D01*
X4032929Y-120732764D01*
X4038309Y-120739943D01*
X4038311Y-120739946D01*
X4082160Y-120798453D01*
X4119596Y-120848404D01*
X4126776Y-120853785D01*
X4228054Y-120929689D01*
X4228057Y-120929691D01*
X4235236Y-120935071D01*
X4314347Y-120964728D01*
X4363157Y-120983026D01*
X4363159Y-120983026D01*
X4370552Y-120985798D01*
X4378402Y-120986651D01*
X4378403Y-120986651D01*
X4428847Y-120992131D01*
X4432244Y-120992500D01*
X5727756Y-120992500D01*
X5731153Y-120992131D01*
X5781597Y-120986651D01*
X5781598Y-120986651D01*
X5789448Y-120985798D01*
X5796841Y-120983026D01*
X5796843Y-120983026D01*
X5845653Y-120964728D01*
X5924764Y-120935071D01*
X5931943Y-120929691D01*
X5931946Y-120929689D01*
X6033224Y-120853785D01*
X6040404Y-120848404D01*
X6077840Y-120798453D01*
X6121689Y-120739946D01*
X6121691Y-120739943D01*
X6127071Y-120732764D01*
X6168983Y-120620964D01*
X14951148Y-120620964D01*
X14964424Y-120823522D01*
X14965845Y-120829118D01*
X14965846Y-120829123D01*
X15000968Y-120967413D01*
X15014392Y-121020269D01*
X15016809Y-121025512D01*
X15054010Y-121106208D01*
X15099377Y-121204616D01*
X15102710Y-121209332D01*
X15208177Y-121358565D01*
X15216533Y-121370389D01*
X15361938Y-121512035D01*
X15530720Y-121624812D01*
X15536023Y-121627090D01*
X15536026Y-121627092D01*
X15663491Y-121681855D01*
X15717228Y-121704942D01*
X15790244Y-121721464D01*
X15909579Y-121748467D01*
X15909584Y-121748468D01*
X15915216Y-121749742D01*
X15920987Y-121749969D01*
X15920989Y-121749969D01*
X15980756Y-121752317D01*
X16118053Y-121757712D01*
X16218499Y-121743148D01*
X16313231Y-121729413D01*
X16313236Y-121729412D01*
X16318945Y-121728584D01*
X16324409Y-121726729D01*
X16324414Y-121726728D01*
X16505693Y-121665192D01*
X16505698Y-121665190D01*
X16511165Y-121663334D01*
X16688276Y-121564147D01*
X16702989Y-121551911D01*
X16833702Y-121443197D01*
X16844345Y-121434345D01*
X16909446Y-121356070D01*
X16970453Y-121282718D01*
X16970455Y-121282715D01*
X16974147Y-121278276D01*
X17073334Y-121101165D01*
X17075190Y-121095698D01*
X17075192Y-121095693D01*
X17136728Y-120914414D01*
X17136729Y-120914409D01*
X17138584Y-120908945D01*
X17139412Y-120903236D01*
X17139413Y-120903231D01*
X17161625Y-120750035D01*
X17167712Y-120708053D01*
X17169232Y-120650000D01*
X17150658Y-120447859D01*
X17147700Y-120437371D01*
X17097125Y-120258046D01*
X17097124Y-120258044D01*
X17095557Y-120252487D01*
X17084978Y-120231033D01*
X17008331Y-120075609D01*
X17005776Y-120070428D01*
X16884320Y-119907779D01*
X16735258Y-119769987D01*
X16730375Y-119766906D01*
X16730371Y-119766903D01*
X16568464Y-119664748D01*
X16563581Y-119661667D01*
X16375039Y-119586446D01*
X16369379Y-119585320D01*
X16369375Y-119585319D01*
X16181613Y-119547971D01*
X16181610Y-119547971D01*
X16175946Y-119546844D01*
X16170171Y-119546768D01*
X16170167Y-119546768D01*
X16068793Y-119545441D01*
X15972971Y-119544187D01*
X15967274Y-119545166D01*
X15967273Y-119545166D01*
X15838840Y-119567235D01*
X15772910Y-119578564D01*
X15582463Y-119648824D01*
X15408010Y-119752612D01*
X15403670Y-119756418D01*
X15403666Y-119756421D01*
X15259733Y-119882648D01*
X15255392Y-119886455D01*
X15129720Y-120045869D01*
X15127031Y-120050980D01*
X15127029Y-120050983D01*
X15096507Y-120108996D01*
X15035203Y-120225515D01*
X14975007Y-120419378D01*
X14951148Y-120620964D01*
X6168983Y-120620964D01*
X6172184Y-120612424D01*
X6175026Y-120604843D01*
X6175026Y-120604841D01*
X6177798Y-120597448D01*
X6184500Y-120535756D01*
X6184500Y-119240244D01*
X6177798Y-119178552D01*
X6127071Y-119043236D01*
X6121691Y-119036057D01*
X6121689Y-119036054D01*
X6045785Y-118934776D01*
X6040404Y-118927596D01*
X6003138Y-118899667D01*
X5931946Y-118846311D01*
X5931943Y-118846309D01*
X5924764Y-118840929D01*
X5916362Y-118837779D01*
X5916358Y-118837777D01*
X5916269Y-118837744D01*
X5916194Y-118837687D01*
X5908485Y-118833467D01*
X5909094Y-118832354D01*
X5859505Y-118795102D01*
X5834806Y-118728540D01*
X5834500Y-118719763D01*
X5834500Y-118080964D01*
X14951148Y-118080964D01*
X14964424Y-118283522D01*
X14965845Y-118289118D01*
X14965846Y-118289123D01*
X15008293Y-118456256D01*
X15014392Y-118480269D01*
X15016809Y-118485512D01*
X15054010Y-118566208D01*
X15099377Y-118664616D01*
X15102710Y-118669332D01*
X15208177Y-118818565D01*
X15216533Y-118830389D01*
X15220675Y-118834424D01*
X15239521Y-118852783D01*
X15361938Y-118972035D01*
X15530720Y-119084812D01*
X15536023Y-119087090D01*
X15536026Y-119087092D01*
X15663491Y-119141855D01*
X15717228Y-119164942D01*
X15777376Y-119178552D01*
X15909579Y-119208467D01*
X15909584Y-119208468D01*
X15915216Y-119209742D01*
X15920987Y-119209969D01*
X15920989Y-119209969D01*
X15980756Y-119212317D01*
X16118053Y-119217712D01*
X16218499Y-119203148D01*
X16313231Y-119189413D01*
X16313236Y-119189412D01*
X16318945Y-119188584D01*
X16324409Y-119186729D01*
X16324414Y-119186728D01*
X16505693Y-119125192D01*
X16505698Y-119125190D01*
X16511165Y-119123334D01*
X16518578Y-119119183D01*
X16635630Y-119053630D01*
X16688276Y-119024147D01*
X16702989Y-119011911D01*
X16833999Y-118902950D01*
X16844345Y-118894345D01*
X16909035Y-118816564D01*
X16970453Y-118742718D01*
X16970455Y-118742715D01*
X16974147Y-118738276D01*
X17060823Y-118583505D01*
X17070510Y-118566208D01*
X17070511Y-118566206D01*
X17073334Y-118561165D01*
X17075190Y-118555698D01*
X17075192Y-118555693D01*
X17136728Y-118374414D01*
X17136729Y-118374409D01*
X17138584Y-118368945D01*
X17139412Y-118363236D01*
X17139413Y-118363231D01*
X17167179Y-118171727D01*
X17167712Y-118168053D01*
X17169232Y-118110000D01*
X17150658Y-117907859D01*
X17149090Y-117902299D01*
X17097125Y-117718046D01*
X17097124Y-117718044D01*
X17095557Y-117712487D01*
X17084978Y-117691033D01*
X17008331Y-117535609D01*
X17005776Y-117530428D01*
X16884320Y-117367779D01*
X16735258Y-117229987D01*
X16730375Y-117226906D01*
X16730371Y-117226903D01*
X16568464Y-117124748D01*
X16563581Y-117121667D01*
X16375039Y-117046446D01*
X16369379Y-117045320D01*
X16369375Y-117045319D01*
X16181613Y-117007971D01*
X16181610Y-117007971D01*
X16175946Y-117006844D01*
X16170171Y-117006768D01*
X16170167Y-117006768D01*
X16068793Y-117005441D01*
X15972971Y-117004187D01*
X15967274Y-117005166D01*
X15967273Y-117005166D01*
X15778607Y-117037585D01*
X15772910Y-117038564D01*
X15582463Y-117108824D01*
X15408010Y-117212612D01*
X15403670Y-117216418D01*
X15403666Y-117216421D01*
X15383723Y-117233911D01*
X15255392Y-117346455D01*
X15129720Y-117505869D01*
X15127031Y-117510980D01*
X15127029Y-117510983D01*
X15114073Y-117535609D01*
X15035203Y-117685515D01*
X14975007Y-117879378D01*
X14951148Y-118080964D01*
X5834500Y-118080964D01*
X5834500Y-115540964D01*
X14951148Y-115540964D01*
X14964424Y-115743522D01*
X14965845Y-115749118D01*
X14965846Y-115749123D01*
X14986119Y-115828945D01*
X15014392Y-115940269D01*
X15016809Y-115945512D01*
X15054010Y-116026208D01*
X15099377Y-116124616D01*
X15216533Y-116290389D01*
X15361938Y-116432035D01*
X15530720Y-116544812D01*
X15536023Y-116547090D01*
X15536026Y-116547092D01*
X15624707Y-116585192D01*
X15717228Y-116624942D01*
X15790244Y-116641464D01*
X15909579Y-116668467D01*
X15909584Y-116668468D01*
X15915216Y-116669742D01*
X15920987Y-116669969D01*
X15920989Y-116669969D01*
X15980756Y-116672317D01*
X16118053Y-116677712D01*
X16218499Y-116663148D01*
X16313231Y-116649413D01*
X16313236Y-116649412D01*
X16318945Y-116648584D01*
X16324409Y-116646729D01*
X16324414Y-116646728D01*
X16505693Y-116585192D01*
X16505698Y-116585190D01*
X16511165Y-116583334D01*
X16688276Y-116484147D01*
X16750934Y-116432035D01*
X16839913Y-116358031D01*
X16844345Y-116354345D01*
X16974147Y-116198276D01*
X17073334Y-116021165D01*
X17075190Y-116015698D01*
X17075192Y-116015693D01*
X17136728Y-115834414D01*
X17136729Y-115834409D01*
X17138584Y-115828945D01*
X17139412Y-115823236D01*
X17139413Y-115823231D01*
X17167179Y-115631727D01*
X17167712Y-115628053D01*
X17169232Y-115570000D01*
X17150658Y-115367859D01*
X17149090Y-115362299D01*
X17097125Y-115178046D01*
X17097124Y-115178044D01*
X17095557Y-115172487D01*
X17084978Y-115151033D01*
X17008331Y-114995609D01*
X17005776Y-114990428D01*
X16884320Y-114827779D01*
X16735258Y-114689987D01*
X16730375Y-114686906D01*
X16730371Y-114686903D01*
X16568464Y-114584748D01*
X16563581Y-114581667D01*
X16375039Y-114506446D01*
X16369379Y-114505320D01*
X16369375Y-114505319D01*
X16181613Y-114467971D01*
X16181610Y-114467971D01*
X16175946Y-114466844D01*
X16170171Y-114466768D01*
X16170167Y-114466768D01*
X16068793Y-114465441D01*
X15972971Y-114464187D01*
X15967274Y-114465166D01*
X15967273Y-114465166D01*
X15778607Y-114497585D01*
X15772910Y-114498564D01*
X15582463Y-114568824D01*
X15408010Y-114672612D01*
X15403670Y-114676418D01*
X15403666Y-114676421D01*
X15383723Y-114693911D01*
X15255392Y-114806455D01*
X15129720Y-114965869D01*
X15127031Y-114970980D01*
X15127029Y-114970983D01*
X15114073Y-114995609D01*
X15035203Y-115145515D01*
X14975007Y-115339378D01*
X14951148Y-115540964D01*
X5834500Y-115540964D01*
X5834500Y-113000964D01*
X14951148Y-113000964D01*
X14964424Y-113203522D01*
X14965845Y-113209118D01*
X14965846Y-113209123D01*
X14986119Y-113288945D01*
X15014392Y-113400269D01*
X15016809Y-113405512D01*
X15054010Y-113486208D01*
X15099377Y-113584616D01*
X15216533Y-113750389D01*
X15361938Y-113892035D01*
X15530720Y-114004812D01*
X15536023Y-114007090D01*
X15536026Y-114007092D01*
X15624707Y-114045192D01*
X15717228Y-114084942D01*
X15790244Y-114101464D01*
X15909579Y-114128467D01*
X15909584Y-114128468D01*
X15915216Y-114129742D01*
X15920987Y-114129969D01*
X15920989Y-114129969D01*
X15980756Y-114132317D01*
X16118053Y-114137712D01*
X16218499Y-114123148D01*
X16313231Y-114109413D01*
X16313236Y-114109412D01*
X16318945Y-114108584D01*
X16324409Y-114106729D01*
X16324414Y-114106728D01*
X16505693Y-114045192D01*
X16505698Y-114045190D01*
X16511165Y-114043334D01*
X16688276Y-113944147D01*
X16750934Y-113892035D01*
X16839913Y-113818031D01*
X16844345Y-113814345D01*
X16974147Y-113658276D01*
X17073334Y-113481165D01*
X17075190Y-113475698D01*
X17075192Y-113475693D01*
X17136728Y-113294414D01*
X17136729Y-113294409D01*
X17138584Y-113288945D01*
X17139412Y-113283236D01*
X17139413Y-113283231D01*
X17167179Y-113091727D01*
X17167712Y-113088053D01*
X17169232Y-113030000D01*
X17150658Y-112827859D01*
X17149090Y-112822299D01*
X17097125Y-112638046D01*
X17097124Y-112638044D01*
X17095557Y-112632487D01*
X17084978Y-112611033D01*
X17008331Y-112455609D01*
X17005776Y-112450428D01*
X16884320Y-112287779D01*
X16735258Y-112149987D01*
X16730375Y-112146906D01*
X16730371Y-112146903D01*
X16568464Y-112044748D01*
X16563581Y-112041667D01*
X16375039Y-111966446D01*
X16369379Y-111965320D01*
X16369375Y-111965319D01*
X16181613Y-111927971D01*
X16181610Y-111927971D01*
X16175946Y-111926844D01*
X16170171Y-111926768D01*
X16170167Y-111926768D01*
X16068793Y-111925441D01*
X15972971Y-111924187D01*
X15967274Y-111925166D01*
X15967273Y-111925166D01*
X15778607Y-111957585D01*
X15772910Y-111958564D01*
X15582463Y-112028824D01*
X15408010Y-112132612D01*
X15403670Y-112136418D01*
X15403666Y-112136421D01*
X15383723Y-112153911D01*
X15255392Y-112266455D01*
X15129720Y-112425869D01*
X15127031Y-112430980D01*
X15127029Y-112430983D01*
X15114073Y-112455609D01*
X15035203Y-112605515D01*
X14975007Y-112799378D01*
X14951148Y-113000964D01*
X5834500Y-113000964D01*
X5834500Y-110460964D01*
X14951148Y-110460964D01*
X14951526Y-110466730D01*
X14963540Y-110650027D01*
X14964424Y-110663522D01*
X14965845Y-110669118D01*
X14965846Y-110669123D01*
X15001315Y-110808779D01*
X15014392Y-110860269D01*
X15016809Y-110865512D01*
X15052701Y-110943367D01*
X15099377Y-111044616D01*
X15102710Y-111049332D01*
X15169768Y-111144217D01*
X15216533Y-111210389D01*
X15361938Y-111352035D01*
X15530720Y-111464812D01*
X15536023Y-111467090D01*
X15536026Y-111467092D01*
X15624707Y-111505192D01*
X15717228Y-111544942D01*
X15790244Y-111561464D01*
X15909579Y-111588467D01*
X15909584Y-111588468D01*
X15915216Y-111589742D01*
X15920987Y-111589969D01*
X15920989Y-111589969D01*
X15980756Y-111592317D01*
X16118053Y-111597712D01*
X16218499Y-111583148D01*
X16313231Y-111569413D01*
X16313236Y-111569412D01*
X16318945Y-111568584D01*
X16324409Y-111566729D01*
X16324414Y-111566728D01*
X16505693Y-111505192D01*
X16505698Y-111505190D01*
X16511165Y-111503334D01*
X16535484Y-111489715D01*
X16628675Y-111437525D01*
X16688276Y-111404147D01*
X16750934Y-111352035D01*
X16839913Y-111278031D01*
X16844345Y-111274345D01*
X16901463Y-111205669D01*
X16970453Y-111122718D01*
X16970455Y-111122715D01*
X16974147Y-111118276D01*
X17060925Y-110963323D01*
X17070510Y-110946208D01*
X17070511Y-110946206D01*
X17073334Y-110941165D01*
X17075190Y-110935698D01*
X17075192Y-110935693D01*
X17136728Y-110754414D01*
X17136729Y-110754409D01*
X17138584Y-110748945D01*
X17139412Y-110743236D01*
X17139413Y-110743231D01*
X17162389Y-110584767D01*
X17167712Y-110548053D01*
X17169232Y-110490000D01*
X17150658Y-110287859D01*
X17149090Y-110282299D01*
X17097125Y-110098046D01*
X17097124Y-110098044D01*
X17095557Y-110092487D01*
X17084978Y-110071033D01*
X17008331Y-109915609D01*
X17005776Y-109910428D01*
X16884320Y-109747779D01*
X16735258Y-109609987D01*
X16730375Y-109606906D01*
X16730371Y-109606903D01*
X16568464Y-109504748D01*
X16563581Y-109501667D01*
X16375039Y-109426446D01*
X16369379Y-109425320D01*
X16369375Y-109425319D01*
X16181613Y-109387971D01*
X16181610Y-109387971D01*
X16175946Y-109386844D01*
X16170171Y-109386768D01*
X16170167Y-109386768D01*
X16068793Y-109385441D01*
X15972971Y-109384187D01*
X15967274Y-109385166D01*
X15967273Y-109385166D01*
X15778607Y-109417585D01*
X15772910Y-109418564D01*
X15582463Y-109488824D01*
X15408010Y-109592612D01*
X15403670Y-109596418D01*
X15403666Y-109596421D01*
X15383723Y-109613911D01*
X15255392Y-109726455D01*
X15129720Y-109885869D01*
X15127031Y-109890980D01*
X15127029Y-109890983D01*
X15114073Y-109915609D01*
X15035203Y-110065515D01*
X14975007Y-110259378D01*
X14951148Y-110460964D01*
X5834500Y-110460964D01*
X5834500Y-107920964D01*
X14951148Y-107920964D01*
X14964424Y-108123522D01*
X14965845Y-108129118D01*
X14965846Y-108129123D01*
X14986119Y-108208945D01*
X15014392Y-108320269D01*
X15016809Y-108325512D01*
X15054010Y-108406208D01*
X15099377Y-108504616D01*
X15216533Y-108670389D01*
X15361938Y-108812035D01*
X15530720Y-108924812D01*
X15536023Y-108927090D01*
X15536026Y-108927092D01*
X15624707Y-108965192D01*
X15717228Y-109004942D01*
X15790244Y-109021464D01*
X15909579Y-109048467D01*
X15909584Y-109048468D01*
X15915216Y-109049742D01*
X15920987Y-109049969D01*
X15920989Y-109049969D01*
X15980756Y-109052317D01*
X16118053Y-109057712D01*
X16218499Y-109043148D01*
X16313231Y-109029413D01*
X16313236Y-109029412D01*
X16318945Y-109028584D01*
X16324409Y-109026729D01*
X16324414Y-109026728D01*
X16505693Y-108965192D01*
X16505698Y-108965190D01*
X16511165Y-108963334D01*
X16688276Y-108864147D01*
X16750934Y-108812035D01*
X16839913Y-108738031D01*
X16844345Y-108734345D01*
X16974147Y-108578276D01*
X17073334Y-108401165D01*
X17075190Y-108395698D01*
X17075192Y-108395693D01*
X17136728Y-108214414D01*
X17136729Y-108214409D01*
X17138584Y-108208945D01*
X17139412Y-108203236D01*
X17139413Y-108203231D01*
X17167179Y-108011727D01*
X17167712Y-108008053D01*
X17169232Y-107950000D01*
X17150658Y-107747859D01*
X17147262Y-107735817D01*
X17097125Y-107558046D01*
X17097124Y-107558044D01*
X17095557Y-107552487D01*
X17089782Y-107540775D01*
X17008331Y-107375609D01*
X17005776Y-107370428D01*
X16884320Y-107207779D01*
X16735258Y-107069987D01*
X16730375Y-107066906D01*
X16730371Y-107066903D01*
X16568464Y-106964748D01*
X16563581Y-106961667D01*
X16375039Y-106886446D01*
X16369379Y-106885320D01*
X16369375Y-106885319D01*
X16181613Y-106847971D01*
X16181610Y-106847971D01*
X16175946Y-106846844D01*
X16170171Y-106846768D01*
X16170167Y-106846768D01*
X16068793Y-106845441D01*
X15972971Y-106844187D01*
X15967274Y-106845166D01*
X15967273Y-106845166D01*
X15778607Y-106877585D01*
X15772910Y-106878564D01*
X15582463Y-106948824D01*
X15408010Y-107052612D01*
X15403670Y-107056418D01*
X15403666Y-107056421D01*
X15386415Y-107071550D01*
X15255392Y-107186455D01*
X15251817Y-107190990D01*
X15251816Y-107190991D01*
X15234931Y-107212409D01*
X15129720Y-107345869D01*
X15127031Y-107350980D01*
X15127029Y-107350983D01*
X15114073Y-107375609D01*
X15035203Y-107525515D01*
X14975007Y-107719378D01*
X14951148Y-107920964D01*
X5834500Y-107920964D01*
X5834500Y-105380964D01*
X14951148Y-105380964D01*
X14964424Y-105583522D01*
X14965845Y-105589118D01*
X14965846Y-105589123D01*
X14986119Y-105668945D01*
X15014392Y-105780269D01*
X15016809Y-105785512D01*
X15054010Y-105866208D01*
X15099377Y-105964616D01*
X15216533Y-106130389D01*
X15361938Y-106272035D01*
X15530720Y-106384812D01*
X15536023Y-106387090D01*
X15536026Y-106387092D01*
X15624707Y-106425192D01*
X15717228Y-106464942D01*
X15790244Y-106481464D01*
X15909579Y-106508467D01*
X15909584Y-106508468D01*
X15915216Y-106509742D01*
X15920987Y-106509969D01*
X15920989Y-106509969D01*
X15980756Y-106512317D01*
X16118053Y-106517712D01*
X16218499Y-106503148D01*
X16313231Y-106489413D01*
X16313236Y-106489412D01*
X16318945Y-106488584D01*
X16324409Y-106486729D01*
X16324414Y-106486728D01*
X16505693Y-106425192D01*
X16505698Y-106425190D01*
X16511165Y-106423334D01*
X16688276Y-106324147D01*
X16750934Y-106272035D01*
X16839913Y-106198031D01*
X16844345Y-106194345D01*
X16974147Y-106038276D01*
X17073334Y-105861165D01*
X17075190Y-105855698D01*
X17075192Y-105855693D01*
X17136728Y-105674414D01*
X17136729Y-105674409D01*
X17138584Y-105668945D01*
X17139412Y-105663236D01*
X17139413Y-105663231D01*
X17167179Y-105471727D01*
X17167712Y-105468053D01*
X17169232Y-105410000D01*
X17150658Y-105207859D01*
X17149090Y-105202299D01*
X17097125Y-105018046D01*
X17097124Y-105018044D01*
X17095557Y-105012487D01*
X17091192Y-105003634D01*
X17008331Y-104835609D01*
X17005776Y-104830428D01*
X16884320Y-104667779D01*
X16735258Y-104529987D01*
X16730375Y-104526906D01*
X16730371Y-104526903D01*
X16568464Y-104424748D01*
X16563581Y-104421667D01*
X16375039Y-104346446D01*
X16369379Y-104345320D01*
X16369375Y-104345319D01*
X16181613Y-104307971D01*
X16181610Y-104307971D01*
X16175946Y-104306844D01*
X16170171Y-104306768D01*
X16170167Y-104306768D01*
X16068793Y-104305441D01*
X15972971Y-104304187D01*
X15967274Y-104305166D01*
X15967273Y-104305166D01*
X15917626Y-104313697D01*
X15772910Y-104338564D01*
X15582463Y-104408824D01*
X15408010Y-104512612D01*
X15403670Y-104516418D01*
X15403666Y-104516421D01*
X15336503Y-104575322D01*
X15255392Y-104646455D01*
X15129720Y-104805869D01*
X15127031Y-104810980D01*
X15127029Y-104810983D01*
X15114073Y-104835609D01*
X15035203Y-104985515D01*
X14975007Y-105179378D01*
X14951148Y-105380964D01*
X5834500Y-105380964D01*
X5834500Y-104206766D01*
X5835933Y-104187816D01*
X5838074Y-104173746D01*
X5838074Y-104173740D01*
X5839174Y-104166511D01*
X5834915Y-104114152D01*
X5834500Y-104103937D01*
X5834500Y-104095947D01*
X5831226Y-104067865D01*
X5830795Y-104063509D01*
X5825503Y-103998448D01*
X5824910Y-103991152D01*
X5822653Y-103984186D01*
X5821481Y-103978318D01*
X5820110Y-103972517D01*
X5819262Y-103965246D01*
X5794477Y-103896965D01*
X5793051Y-103892810D01*
X5791611Y-103888363D01*
X5770688Y-103823778D01*
X5766889Y-103817518D01*
X5764390Y-103812059D01*
X5761729Y-103806744D01*
X5759232Y-103799866D01*
X5755224Y-103793752D01*
X5755220Y-103793745D01*
X5719408Y-103739124D01*
X5717061Y-103735404D01*
X5709598Y-103723105D01*
X5679416Y-103673367D01*
X5672050Y-103665026D01*
X5672075Y-103665004D01*
X5669385Y-103661970D01*
X5666781Y-103658855D01*
X5662766Y-103652732D01*
X5606854Y-103599766D01*
X5604413Y-103597389D01*
X4847988Y-102840964D01*
X14951148Y-102840964D01*
X14964424Y-103043522D01*
X14965845Y-103049118D01*
X14965846Y-103049123D01*
X14986119Y-103128945D01*
X15014392Y-103240269D01*
X15016809Y-103245512D01*
X15054010Y-103326208D01*
X15099377Y-103424616D01*
X15216533Y-103590389D01*
X15361938Y-103732035D01*
X15530720Y-103844812D01*
X15536023Y-103847090D01*
X15536026Y-103847092D01*
X15660286Y-103900478D01*
X15717228Y-103924942D01*
X15790244Y-103941464D01*
X15909579Y-103968467D01*
X15909584Y-103968468D01*
X15915216Y-103969742D01*
X15920987Y-103969969D01*
X15920989Y-103969969D01*
X15980756Y-103972317D01*
X16118053Y-103977712D01*
X16225348Y-103962155D01*
X16313231Y-103949413D01*
X16313236Y-103949412D01*
X16318945Y-103948584D01*
X16324409Y-103946729D01*
X16324414Y-103946728D01*
X16505693Y-103885192D01*
X16505698Y-103885190D01*
X16511165Y-103883334D01*
X16688276Y-103784147D01*
X16727969Y-103751135D01*
X16835177Y-103661970D01*
X16844345Y-103654345D01*
X16974147Y-103498276D01*
X17073334Y-103321165D01*
X17075190Y-103315698D01*
X17075192Y-103315693D01*
X17136728Y-103134414D01*
X17136729Y-103134409D01*
X17138584Y-103128945D01*
X17139412Y-103123236D01*
X17139413Y-103123231D01*
X17167179Y-102931727D01*
X17167712Y-102928053D01*
X17169232Y-102870000D01*
X17150658Y-102667859D01*
X17149090Y-102662299D01*
X17097125Y-102478046D01*
X17097124Y-102478044D01*
X17095557Y-102472487D01*
X17084978Y-102451033D01*
X17008331Y-102295609D01*
X17005776Y-102290428D01*
X16884320Y-102127779D01*
X16735258Y-101989987D01*
X16730375Y-101986906D01*
X16730371Y-101986903D01*
X16568464Y-101884748D01*
X16563581Y-101881667D01*
X16375039Y-101806446D01*
X16369379Y-101805320D01*
X16369375Y-101805319D01*
X16181613Y-101767971D01*
X16181610Y-101767971D01*
X16175946Y-101766844D01*
X16170171Y-101766768D01*
X16170167Y-101766768D01*
X16068793Y-101765441D01*
X15972971Y-101764187D01*
X15967274Y-101765166D01*
X15967273Y-101765166D01*
X15893492Y-101777844D01*
X15772910Y-101798564D01*
X15582463Y-101868824D01*
X15408010Y-101972612D01*
X15403670Y-101976418D01*
X15403666Y-101976421D01*
X15283249Y-102082025D01*
X15255392Y-102106455D01*
X15129720Y-102265869D01*
X15127031Y-102270980D01*
X15127029Y-102270983D01*
X15114073Y-102295609D01*
X15035203Y-102445515D01*
X14975007Y-102639378D01*
X14951148Y-102840964D01*
X4847988Y-102840964D01*
X4390724Y-102383700D01*
X4378337Y-102369287D01*
X4369904Y-102357828D01*
X4365563Y-102351929D01*
X4325521Y-102317911D01*
X4318005Y-102310981D01*
X4312362Y-102305338D01*
X4290202Y-102287806D01*
X4286816Y-102285030D01*
X4264263Y-102265869D01*
X4231480Y-102238018D01*
X4224960Y-102234689D01*
X4219982Y-102231369D01*
X4214909Y-102228236D01*
X4209167Y-102223693D01*
X4143383Y-102192947D01*
X4139433Y-102191016D01*
X4081307Y-102161336D01*
X4074788Y-102158007D01*
X4067678Y-102156267D01*
X4062058Y-102154177D01*
X4056407Y-102152297D01*
X4049778Y-102149199D01*
X4042614Y-102147709D01*
X4042611Y-102147708D01*
X4002505Y-102139367D01*
X3978686Y-102134413D01*
X3974427Y-102133449D01*
X3903892Y-102116189D01*
X3898295Y-102115842D01*
X3898290Y-102115841D01*
X3892786Y-102115500D01*
X3892788Y-102115466D01*
X3888729Y-102115223D01*
X3884695Y-102114863D01*
X3877527Y-102113372D01*
X3870210Y-102113570D01*
X3800585Y-102115454D01*
X3797177Y-102115500D01*
X2130353Y-102115500D01*
X2062232Y-102095498D01*
X2044824Y-102082025D01*
X1949498Y-101993906D01*
X1949495Y-101993904D01*
X1945258Y-101989987D01*
X1773581Y-101881667D01*
X1585039Y-101806446D01*
X1579379Y-101805320D01*
X1579375Y-101805319D01*
X1391613Y-101767971D01*
X1391610Y-101767971D01*
X1385946Y-101766844D01*
X1380171Y-101766768D01*
X1380167Y-101766768D01*
X1278793Y-101765441D01*
X1182971Y-101764187D01*
X1177274Y-101765166D01*
X1177273Y-101765166D01*
X1103492Y-101777844D01*
X982910Y-101798564D01*
X792463Y-101868824D01*
X618010Y-101972612D01*
X613670Y-101976418D01*
X613666Y-101976421D01*
X493249Y-102082025D01*
X465392Y-102106455D01*
X339720Y-102265869D01*
X337031Y-102270980D01*
X337029Y-102270983D01*
X324073Y-102295609D01*
X245203Y-102445515D01*
X185007Y-102639378D01*
X161148Y-102840964D01*
X-165501Y-102840964D01*
X-165501Y-101994934D01*
X-180266Y-101920699D01*
X-206346Y-101881667D01*
X-229623Y-101846832D01*
X-236516Y-101836516D01*
X-246832Y-101829623D01*
X-249095Y-101827360D01*
X-283121Y-101765048D01*
X-286000Y-101738265D01*
X-286000Y-100300964D01*
X14951148Y-100300964D01*
X14964424Y-100503522D01*
X14965845Y-100509118D01*
X14965846Y-100509123D01*
X14986119Y-100588945D01*
X15014392Y-100700269D01*
X15016809Y-100705512D01*
X15054010Y-100786208D01*
X15099377Y-100884616D01*
X15216533Y-101050389D01*
X15361938Y-101192035D01*
X15530720Y-101304812D01*
X15536023Y-101307090D01*
X15536026Y-101307092D01*
X15624707Y-101345192D01*
X15717228Y-101384942D01*
X15790244Y-101401464D01*
X15909579Y-101428467D01*
X15909584Y-101428468D01*
X15915216Y-101429742D01*
X15920987Y-101429969D01*
X15920989Y-101429969D01*
X15980756Y-101432317D01*
X16118053Y-101437712D01*
X16218499Y-101423148D01*
X16313231Y-101409413D01*
X16313236Y-101409412D01*
X16318945Y-101408584D01*
X16324409Y-101406729D01*
X16324414Y-101406728D01*
X16505693Y-101345192D01*
X16505698Y-101345190D01*
X16511165Y-101343334D01*
X16688276Y-101244147D01*
X16750934Y-101192035D01*
X16839913Y-101118031D01*
X16844345Y-101114345D01*
X16974147Y-100958276D01*
X17073334Y-100781165D01*
X17075190Y-100775698D01*
X17075192Y-100775693D01*
X17136728Y-100594414D01*
X17136729Y-100594409D01*
X17138584Y-100588945D01*
X17139412Y-100583236D01*
X17139413Y-100583231D01*
X17167179Y-100391727D01*
X17167712Y-100388053D01*
X17169232Y-100330000D01*
X17150658Y-100127859D01*
X17149090Y-100122299D01*
X17097125Y-99938046D01*
X17097124Y-99938044D01*
X17095557Y-99932487D01*
X17084978Y-99911033D01*
X17008331Y-99755609D01*
X17005776Y-99750428D01*
X16884320Y-99587779D01*
X16735258Y-99449987D01*
X16730375Y-99446906D01*
X16730371Y-99446903D01*
X16568464Y-99344748D01*
X16563581Y-99341667D01*
X16375039Y-99266446D01*
X16369379Y-99265320D01*
X16369375Y-99265319D01*
X16181613Y-99227971D01*
X16181610Y-99227971D01*
X16175946Y-99226844D01*
X16170171Y-99226768D01*
X16170167Y-99226768D01*
X16068793Y-99225441D01*
X15972971Y-99224187D01*
X15967274Y-99225166D01*
X15967273Y-99225166D01*
X15778607Y-99257585D01*
X15772910Y-99258564D01*
X15582463Y-99328824D01*
X15408010Y-99432612D01*
X15403670Y-99436418D01*
X15403666Y-99436421D01*
X15301176Y-99526303D01*
X15255392Y-99566455D01*
X15129720Y-99725869D01*
X15127031Y-99730980D01*
X15127029Y-99730983D01*
X15114073Y-99755609D01*
X15035203Y-99905515D01*
X14975007Y-100099378D01*
X14951148Y-100300964D01*
X-286000Y-100300964D01*
X-286000Y-97760964D01*
X14951148Y-97760964D01*
X14964424Y-97963522D01*
X14965845Y-97969118D01*
X14965846Y-97969123D01*
X14986119Y-98048945D01*
X15014392Y-98160269D01*
X15016809Y-98165512D01*
X15054010Y-98246208D01*
X15099377Y-98344616D01*
X15216533Y-98510389D01*
X15361938Y-98652035D01*
X15530720Y-98764812D01*
X15536023Y-98767090D01*
X15536026Y-98767092D01*
X15624707Y-98805192D01*
X15717228Y-98844942D01*
X15790244Y-98861464D01*
X15909579Y-98888467D01*
X15909584Y-98888468D01*
X15915216Y-98889742D01*
X15920987Y-98889969D01*
X15920989Y-98889969D01*
X15980756Y-98892317D01*
X16118053Y-98897712D01*
X16218499Y-98883148D01*
X16313231Y-98869413D01*
X16313236Y-98869412D01*
X16318945Y-98868584D01*
X16324409Y-98866729D01*
X16324414Y-98866728D01*
X16505693Y-98805192D01*
X16505698Y-98805190D01*
X16511165Y-98803334D01*
X16688276Y-98704147D01*
X16712099Y-98684334D01*
X16839913Y-98578031D01*
X16844345Y-98574345D01*
X16974147Y-98418276D01*
X17073334Y-98241165D01*
X17075190Y-98235698D01*
X17075192Y-98235693D01*
X17136728Y-98054414D01*
X17136729Y-98054409D01*
X17138584Y-98048945D01*
X17139412Y-98043236D01*
X17139413Y-98043231D01*
X17167179Y-97851727D01*
X17167712Y-97848053D01*
X17169232Y-97790000D01*
X17150658Y-97587859D01*
X17149090Y-97582299D01*
X17097125Y-97398046D01*
X17097124Y-97398044D01*
X17095557Y-97392487D01*
X17084978Y-97371033D01*
X17008331Y-97215609D01*
X17005776Y-97210428D01*
X16884320Y-97047779D01*
X16735258Y-96909987D01*
X16730375Y-96906906D01*
X16730371Y-96906903D01*
X16568464Y-96804748D01*
X16563581Y-96801667D01*
X16375039Y-96726446D01*
X16369379Y-96725320D01*
X16369375Y-96725319D01*
X16181613Y-96687971D01*
X16181610Y-96687971D01*
X16175946Y-96686844D01*
X16170171Y-96686768D01*
X16170167Y-96686768D01*
X16068793Y-96685441D01*
X15972971Y-96684187D01*
X15967274Y-96685166D01*
X15967273Y-96685166D01*
X15920693Y-96693170D01*
X15772910Y-96718564D01*
X15582463Y-96788824D01*
X15408010Y-96892612D01*
X15403670Y-96896418D01*
X15403666Y-96896421D01*
X15292990Y-96993482D01*
X15255392Y-97026455D01*
X15129720Y-97185869D01*
X15127031Y-97190980D01*
X15127029Y-97190983D01*
X15115848Y-97212235D01*
X15035203Y-97365515D01*
X14975007Y-97559378D01*
X14951148Y-97760964D01*
X-286000Y-97760964D01*
X-286000Y-95220964D01*
X14951148Y-95220964D01*
X14964424Y-95423522D01*
X14965845Y-95429118D01*
X14965846Y-95429123D01*
X14986119Y-95508945D01*
X15014392Y-95620269D01*
X15016809Y-95625512D01*
X15054010Y-95706208D01*
X15099377Y-95804616D01*
X15216533Y-95970389D01*
X15361938Y-96112035D01*
X15530720Y-96224812D01*
X15536023Y-96227090D01*
X15536026Y-96227092D01*
X15624707Y-96265192D01*
X15717228Y-96304942D01*
X15790244Y-96321464D01*
X15909579Y-96348467D01*
X15909584Y-96348468D01*
X15915216Y-96349742D01*
X15920987Y-96349969D01*
X15920989Y-96349969D01*
X15980756Y-96352317D01*
X16118053Y-96357712D01*
X16218499Y-96343148D01*
X16313231Y-96329413D01*
X16313236Y-96329412D01*
X16318945Y-96328584D01*
X16324409Y-96326729D01*
X16324414Y-96326728D01*
X16505693Y-96265192D01*
X16505698Y-96265190D01*
X16511165Y-96263334D01*
X16688276Y-96164147D01*
X16750934Y-96112035D01*
X16839913Y-96038031D01*
X16844345Y-96034345D01*
X16974147Y-95878276D01*
X17073334Y-95701165D01*
X17075190Y-95695698D01*
X17075192Y-95695693D01*
X17136728Y-95514414D01*
X17136729Y-95514409D01*
X17138584Y-95508945D01*
X17139412Y-95503236D01*
X17139413Y-95503231D01*
X17167179Y-95311727D01*
X17167712Y-95308053D01*
X17169232Y-95250000D01*
X17150658Y-95047859D01*
X17149090Y-95042299D01*
X17097125Y-94858046D01*
X17097124Y-94858044D01*
X17095557Y-94852487D01*
X17084978Y-94831033D01*
X17008331Y-94675609D01*
X17005776Y-94670428D01*
X16884320Y-94507779D01*
X16735258Y-94369987D01*
X16730375Y-94366906D01*
X16730371Y-94366903D01*
X16568464Y-94264748D01*
X16563581Y-94261667D01*
X16375039Y-94186446D01*
X16369379Y-94185320D01*
X16369375Y-94185319D01*
X16181613Y-94147971D01*
X16181610Y-94147971D01*
X16175946Y-94146844D01*
X16170171Y-94146768D01*
X16170167Y-94146768D01*
X16068793Y-94145441D01*
X15972971Y-94144187D01*
X15967274Y-94145166D01*
X15967273Y-94145166D01*
X15780830Y-94177203D01*
X15772910Y-94178564D01*
X15582463Y-94248824D01*
X15408010Y-94352612D01*
X15403670Y-94356418D01*
X15403666Y-94356421D01*
X15341455Y-94410979D01*
X15255392Y-94486455D01*
X15129720Y-94645869D01*
X15127031Y-94650980D01*
X15127029Y-94650983D01*
X15089336Y-94722626D01*
X15035203Y-94825515D01*
X14975007Y-95019378D01*
X14951148Y-95220964D01*
X-286000Y-95220964D01*
X-286000Y-92680964D01*
X14951148Y-92680964D01*
X14964424Y-92883522D01*
X14965845Y-92889118D01*
X14965846Y-92889123D01*
X14995561Y-93006122D01*
X15014392Y-93080269D01*
X15016809Y-93085512D01*
X15082341Y-93227662D01*
X15099377Y-93264616D01*
X15216533Y-93430389D01*
X15361938Y-93572035D01*
X15530720Y-93684812D01*
X15536023Y-93687090D01*
X15536026Y-93687092D01*
X15711921Y-93762662D01*
X15717228Y-93764942D01*
X15785198Y-93780322D01*
X15909579Y-93808467D01*
X15909584Y-93808468D01*
X15915216Y-93809742D01*
X15920987Y-93809969D01*
X15920989Y-93809969D01*
X15980756Y-93812317D01*
X16118053Y-93817712D01*
X16218499Y-93803148D01*
X16313231Y-93789413D01*
X16313236Y-93789412D01*
X16318945Y-93788584D01*
X16324409Y-93786729D01*
X16324414Y-93786728D01*
X16505693Y-93725192D01*
X16505698Y-93725190D01*
X16511165Y-93723334D01*
X16688276Y-93624147D01*
X16738813Y-93582116D01*
X16839913Y-93498031D01*
X16844345Y-93494345D01*
X16901463Y-93425669D01*
X16970453Y-93342718D01*
X16970455Y-93342715D01*
X16974147Y-93338276D01*
X17073334Y-93161165D01*
X17075190Y-93155698D01*
X17075192Y-93155693D01*
X17136728Y-92974414D01*
X17136729Y-92974409D01*
X17138584Y-92968945D01*
X17139412Y-92963236D01*
X17139413Y-92963231D01*
X17167179Y-92771727D01*
X17167712Y-92768053D01*
X17169232Y-92710000D01*
X17150658Y-92507859D01*
X17149090Y-92502299D01*
X17097125Y-92318046D01*
X17097124Y-92318044D01*
X17095557Y-92312487D01*
X17084978Y-92291033D01*
X17008331Y-92135609D01*
X17005776Y-92130428D01*
X16884320Y-91967779D01*
X16735258Y-91829987D01*
X16730375Y-91826906D01*
X16730371Y-91826903D01*
X16568464Y-91724748D01*
X16563581Y-91721667D01*
X16375039Y-91646446D01*
X16369379Y-91645320D01*
X16369375Y-91645319D01*
X16181613Y-91607971D01*
X16181610Y-91607971D01*
X16175946Y-91606844D01*
X16170171Y-91606768D01*
X16170167Y-91606768D01*
X16068793Y-91605441D01*
X15972971Y-91604187D01*
X15967274Y-91605166D01*
X15967273Y-91605166D01*
X15778607Y-91637585D01*
X15772910Y-91638564D01*
X15582463Y-91708824D01*
X15408010Y-91812612D01*
X15403670Y-91816418D01*
X15403666Y-91816421D01*
X15308450Y-91899924D01*
X15255392Y-91946455D01*
X15129720Y-92105869D01*
X15127031Y-92110980D01*
X15127029Y-92110983D01*
X15114073Y-92135609D01*
X15035203Y-92285515D01*
X14975007Y-92479378D01*
X14951148Y-92680964D01*
X-286000Y-92680964D01*
X-286000Y-92371265D01*
X-284567Y-92352315D01*
X-282426Y-92338245D01*
X-282426Y-92338241D01*
X-281326Y-92331011D01*
X-282380Y-92318046D01*
X-285585Y-92278652D01*
X-286000Y-92268437D01*
X-286000Y-92260447D01*
X-286845Y-92253198D01*
X-289271Y-92232387D01*
X-289704Y-92228013D01*
X-294996Y-92162951D01*
X-294997Y-92162948D01*
X-295590Y-92155653D01*
X-297845Y-92148693D01*
X-299019Y-92142816D01*
X-300391Y-92137013D01*
X-301238Y-92129746D01*
X-326024Y-92061463D01*
X-327427Y-92057376D01*
X-349811Y-91988278D01*
X-353610Y-91982017D01*
X-356105Y-91976568D01*
X-358772Y-91971242D01*
X-361268Y-91964366D01*
X-401079Y-91903645D01*
X-403426Y-91899924D01*
X-438168Y-91842670D01*
X-438171Y-91842666D01*
X-441083Y-91837867D01*
X-448449Y-91829527D01*
X-448423Y-91829504D01*
X-451123Y-91826461D01*
X-453718Y-91823357D01*
X-457734Y-91817232D01*
X-513646Y-91764266D01*
X-516087Y-91761889D01*
X-2137012Y-90140964D01*
X14951148Y-90140964D01*
X14964424Y-90343522D01*
X14965845Y-90349118D01*
X14965846Y-90349123D01*
X14986119Y-90428945D01*
X15014392Y-90540269D01*
X15016809Y-90545512D01*
X15054010Y-90626208D01*
X15099377Y-90724616D01*
X15216533Y-90890389D01*
X15361938Y-91032035D01*
X15530720Y-91144812D01*
X15536023Y-91147090D01*
X15536026Y-91147092D01*
X15624707Y-91185192D01*
X15717228Y-91224942D01*
X15790244Y-91241464D01*
X15909579Y-91268467D01*
X15909584Y-91268468D01*
X15915216Y-91269742D01*
X15920987Y-91269969D01*
X15920989Y-91269969D01*
X15980756Y-91272317D01*
X16118053Y-91277712D01*
X16218499Y-91263148D01*
X16313231Y-91249413D01*
X16313236Y-91249412D01*
X16318945Y-91248584D01*
X16324409Y-91246729D01*
X16324414Y-91246728D01*
X16505693Y-91185192D01*
X16505698Y-91185190D01*
X16511165Y-91183334D01*
X16688276Y-91084147D01*
X16750934Y-91032035D01*
X16839913Y-90958031D01*
X16844345Y-90954345D01*
X16974147Y-90798276D01*
X17073334Y-90621165D01*
X17075190Y-90615698D01*
X17075192Y-90615693D01*
X17136728Y-90434414D01*
X17136729Y-90434409D01*
X17138584Y-90428945D01*
X17139412Y-90423236D01*
X17139413Y-90423231D01*
X17167179Y-90231727D01*
X17167712Y-90228053D01*
X17169232Y-90170000D01*
X17150658Y-89967859D01*
X17149090Y-89962299D01*
X17097125Y-89778046D01*
X17097124Y-89778044D01*
X17095557Y-89772487D01*
X17084978Y-89751033D01*
X17008331Y-89595609D01*
X17005776Y-89590428D01*
X16884320Y-89427779D01*
X16735258Y-89289987D01*
X16730375Y-89286906D01*
X16730371Y-89286903D01*
X16568464Y-89184748D01*
X16563581Y-89181667D01*
X16375039Y-89106446D01*
X16369379Y-89105320D01*
X16369375Y-89105319D01*
X16181613Y-89067971D01*
X16181610Y-89067971D01*
X16175946Y-89066844D01*
X16170171Y-89066768D01*
X16170167Y-89066768D01*
X16068793Y-89065441D01*
X15972971Y-89064187D01*
X15967274Y-89065166D01*
X15967273Y-89065166D01*
X15778607Y-89097585D01*
X15772910Y-89098564D01*
X15582463Y-89168824D01*
X15408010Y-89272612D01*
X15403670Y-89276418D01*
X15403666Y-89276421D01*
X15383723Y-89293911D01*
X15255392Y-89406455D01*
X15129720Y-89565869D01*
X15127031Y-89570980D01*
X15127029Y-89570983D01*
X15114073Y-89595609D01*
X15035203Y-89745515D01*
X14975007Y-89939378D01*
X14951148Y-90140964D01*
X-2137012Y-90140964D01*
X-2594276Y-89683700D01*
X-2606663Y-89669287D01*
X-2615096Y-89657828D01*
X-2619437Y-89651929D01*
X-2659479Y-89617911D01*
X-2666995Y-89610981D01*
X-2672638Y-89605338D01*
X-2694798Y-89587806D01*
X-2698184Y-89585030D01*
X-2720737Y-89565869D01*
X-2753520Y-89538018D01*
X-2760040Y-89534689D01*
X-2765018Y-89531369D01*
X-2770091Y-89528236D01*
X-2775833Y-89523693D01*
X-2841617Y-89492947D01*
X-2845567Y-89491016D01*
X-2903693Y-89461336D01*
X-2910212Y-89458007D01*
X-2917322Y-89456267D01*
X-2922942Y-89454177D01*
X-2928593Y-89452297D01*
X-2935222Y-89449199D01*
X-2942386Y-89447709D01*
X-2942389Y-89447708D01*
X-2982495Y-89439367D01*
X-3006314Y-89434413D01*
X-3010573Y-89433449D01*
X-3081108Y-89416189D01*
X-3086705Y-89415842D01*
X-3086710Y-89415841D01*
X-3092214Y-89415500D01*
X-3092212Y-89415466D01*
X-3096271Y-89415223D01*
X-3100305Y-89414863D01*
X-3107473Y-89413372D01*
X-3114790Y-89413570D01*
X-3184415Y-89415454D01*
X-3187823Y-89415500D01*
X-15199647Y-89415500D01*
X-15267768Y-89395498D01*
X-15285176Y-89382025D01*
X-15380502Y-89293906D01*
X-15380505Y-89293904D01*
X-15384742Y-89289987D01*
X-15556419Y-89181667D01*
X-15744961Y-89106446D01*
X-15750621Y-89105320D01*
X-15750625Y-89105319D01*
X-15938387Y-89067971D01*
X-15938390Y-89067971D01*
X-15944054Y-89066844D01*
X-15949829Y-89066768D01*
X-15949833Y-89066768D01*
X-16051207Y-89065441D01*
X-16147029Y-89064187D01*
X-16152726Y-89065166D01*
X-16152727Y-89065166D01*
X-16341393Y-89097585D01*
X-16347090Y-89098564D01*
X-16537537Y-89168824D01*
X-16711990Y-89272612D01*
X-16716330Y-89276418D01*
X-16716334Y-89276421D01*
X-16736277Y-89293911D01*
X-16864608Y-89406455D01*
X-16990280Y-89565869D01*
X-16992969Y-89570980D01*
X-16992971Y-89570983D01*
X-17005927Y-89595609D01*
X-17084797Y-89745515D01*
X-17144993Y-89939378D01*
X-17168852Y-90140964D01*
X-18541500Y-90140964D01*
X-18541500Y-87600964D01*
X-17168852Y-87600964D01*
X-17155576Y-87803522D01*
X-17154155Y-87809118D01*
X-17154154Y-87809123D01*
X-17133881Y-87888945D01*
X-17105608Y-88000269D01*
X-17103191Y-88005512D01*
X-17065990Y-88086208D01*
X-17020623Y-88184616D01*
X-16903467Y-88350389D01*
X-16758062Y-88492035D01*
X-16589280Y-88604812D01*
X-16583977Y-88607090D01*
X-16583974Y-88607092D01*
X-16495293Y-88645192D01*
X-16402772Y-88684942D01*
X-16329756Y-88701464D01*
X-16210421Y-88728467D01*
X-16210416Y-88728468D01*
X-16204784Y-88729742D01*
X-16199013Y-88729969D01*
X-16199011Y-88729969D01*
X-16139244Y-88732317D01*
X-16001947Y-88737712D01*
X-15901501Y-88723148D01*
X-15806769Y-88709413D01*
X-15806764Y-88709412D01*
X-15801055Y-88708584D01*
X-15795591Y-88706729D01*
X-15795586Y-88706728D01*
X-15614307Y-88645192D01*
X-15614302Y-88645190D01*
X-15608835Y-88643334D01*
X-15431724Y-88544147D01*
X-15369066Y-88492035D01*
X-15280087Y-88418031D01*
X-15275655Y-88414345D01*
X-15145853Y-88258276D01*
X-15046666Y-88081165D01*
X-15044810Y-88075698D01*
X-15044808Y-88075693D01*
X-14983272Y-87894414D01*
X-14983271Y-87894409D01*
X-14981416Y-87888945D01*
X-14980588Y-87883236D01*
X-14980587Y-87883231D01*
X-14952821Y-87691727D01*
X-14952288Y-87688053D01*
X-14950768Y-87630000D01*
X-14953436Y-87600964D01*
X14951148Y-87600964D01*
X14964424Y-87803522D01*
X14965845Y-87809118D01*
X14965846Y-87809123D01*
X14986119Y-87888945D01*
X15014392Y-88000269D01*
X15016809Y-88005512D01*
X15054010Y-88086208D01*
X15099377Y-88184616D01*
X15216533Y-88350389D01*
X15361938Y-88492035D01*
X15530720Y-88604812D01*
X15536023Y-88607090D01*
X15536026Y-88607092D01*
X15624707Y-88645192D01*
X15717228Y-88684942D01*
X15790244Y-88701464D01*
X15909579Y-88728467D01*
X15909584Y-88728468D01*
X15915216Y-88729742D01*
X15920987Y-88729969D01*
X15920989Y-88729969D01*
X15980756Y-88732317D01*
X16118053Y-88737712D01*
X16218499Y-88723148D01*
X16313231Y-88709413D01*
X16313236Y-88709412D01*
X16318945Y-88708584D01*
X16324409Y-88706729D01*
X16324414Y-88706728D01*
X16505693Y-88645192D01*
X16505698Y-88645190D01*
X16511165Y-88643334D01*
X16688276Y-88544147D01*
X16750934Y-88492035D01*
X16839913Y-88418031D01*
X16844345Y-88414345D01*
X16974147Y-88258276D01*
X17073334Y-88081165D01*
X17075190Y-88075698D01*
X17075192Y-88075693D01*
X17136728Y-87894414D01*
X17136729Y-87894409D01*
X17138584Y-87888945D01*
X17139412Y-87883236D01*
X17139413Y-87883231D01*
X17167179Y-87691727D01*
X17167712Y-87688053D01*
X17169232Y-87630000D01*
X17150658Y-87427859D01*
X17149090Y-87422299D01*
X17097125Y-87238046D01*
X17097124Y-87238044D01*
X17095557Y-87232487D01*
X17084978Y-87211033D01*
X17008331Y-87055609D01*
X17005776Y-87050428D01*
X16884320Y-86887779D01*
X16735258Y-86749987D01*
X16730375Y-86746906D01*
X16730371Y-86746903D01*
X16568464Y-86644748D01*
X16563581Y-86641667D01*
X16375039Y-86566446D01*
X16369379Y-86565320D01*
X16369375Y-86565319D01*
X16181613Y-86527971D01*
X16181610Y-86527971D01*
X16175946Y-86526844D01*
X16170171Y-86526768D01*
X16170167Y-86526768D01*
X16068793Y-86525441D01*
X15972971Y-86524187D01*
X15967274Y-86525166D01*
X15967273Y-86525166D01*
X15778607Y-86557585D01*
X15772910Y-86558564D01*
X15582463Y-86628824D01*
X15408010Y-86732612D01*
X15403670Y-86736418D01*
X15403666Y-86736421D01*
X15383723Y-86753911D01*
X15255392Y-86866455D01*
X15129720Y-87025869D01*
X15127031Y-87030980D01*
X15127029Y-87030983D01*
X15114073Y-87055609D01*
X15035203Y-87205515D01*
X14975007Y-87399378D01*
X14951148Y-87600964D01*
X-14953436Y-87600964D01*
X-14969342Y-87427859D01*
X-14970910Y-87422299D01*
X-15022875Y-87238046D01*
X-15022876Y-87238044D01*
X-15024443Y-87232487D01*
X-15035022Y-87211033D01*
X-15111669Y-87055609D01*
X-15114224Y-87050428D01*
X-15235680Y-86887779D01*
X-15384742Y-86749987D01*
X-15389625Y-86746906D01*
X-15389629Y-86746903D01*
X-15551536Y-86644748D01*
X-15556419Y-86641667D01*
X-15744961Y-86566446D01*
X-15750621Y-86565320D01*
X-15750625Y-86565319D01*
X-15938387Y-86527971D01*
X-15938390Y-86527971D01*
X-15944054Y-86526844D01*
X-15949829Y-86526768D01*
X-15949833Y-86526768D01*
X-16051207Y-86525441D01*
X-16147029Y-86524187D01*
X-16152726Y-86525166D01*
X-16152727Y-86525166D01*
X-16341393Y-86557585D01*
X-16347090Y-86558564D01*
X-16537537Y-86628824D01*
X-16711990Y-86732612D01*
X-16716330Y-86736418D01*
X-16716334Y-86736421D01*
X-16736277Y-86753911D01*
X-16864608Y-86866455D01*
X-16990280Y-87025869D01*
X-16992969Y-87030980D01*
X-16992971Y-87030983D01*
X-17005927Y-87055609D01*
X-17084797Y-87205515D01*
X-17144993Y-87399378D01*
X-17168852Y-87600964D01*
X-18541500Y-87600964D01*
X-18541500Y-85958828D01*
X-17163999Y-85958828D01*
X-17162791Y-85971088D01*
X-17151685Y-86026931D01*
X-17142367Y-86049427D01*
X-17100017Y-86112808D01*
X-17082808Y-86130017D01*
X-17019425Y-86172368D01*
X-16996934Y-86181684D01*
X-16941085Y-86192793D01*
X-16928830Y-86194000D01*
X-16332115Y-86194000D01*
X-16316876Y-86189525D01*
X-16315671Y-86188135D01*
X-16314000Y-86180452D01*
X-16314000Y-86175884D01*
X-15806000Y-86175884D01*
X-15801525Y-86191123D01*
X-15800135Y-86192328D01*
X-15792452Y-86193999D01*
X-15191172Y-86193999D01*
X-15178912Y-86192791D01*
X-15123069Y-86181685D01*
X-15100573Y-86172367D01*
X-15037192Y-86130017D01*
X-15019983Y-86112808D01*
X-14977632Y-86049425D01*
X-14968316Y-86026934D01*
X-14957207Y-85971085D01*
X-14956000Y-85958830D01*
X-14956000Y-85362115D01*
X-14960475Y-85346876D01*
X-14961865Y-85345671D01*
X-14969548Y-85344000D01*
X-15787885Y-85344000D01*
X-15803124Y-85348475D01*
X-15804329Y-85349865D01*
X-15806000Y-85357548D01*
X-15806000Y-86175884D01*
X-16314000Y-86175884D01*
X-16314000Y-85362115D01*
X-16318475Y-85346876D01*
X-16319865Y-85345671D01*
X-16327548Y-85344000D01*
X-17145884Y-85344000D01*
X-17161123Y-85348475D01*
X-17162328Y-85349865D01*
X-17163999Y-85357548D01*
X-17163999Y-85958828D01*
X-18541500Y-85958828D01*
X-18541500Y-85060964D01*
X14951148Y-85060964D01*
X14964424Y-85263522D01*
X14965845Y-85269118D01*
X14965846Y-85269123D01*
X15012971Y-85454674D01*
X15014392Y-85460269D01*
X15016809Y-85465512D01*
X15054010Y-85546208D01*
X15099377Y-85644616D01*
X15216533Y-85810389D01*
X15361938Y-85952035D01*
X15530720Y-86064812D01*
X15536023Y-86067090D01*
X15536026Y-86067092D01*
X15624707Y-86105192D01*
X15717228Y-86144942D01*
X15790244Y-86161464D01*
X15909579Y-86188467D01*
X15909584Y-86188468D01*
X15915216Y-86189742D01*
X15920987Y-86189969D01*
X15920989Y-86189969D01*
X15980756Y-86192317D01*
X16118053Y-86197712D01*
X16228596Y-86181684D01*
X16313231Y-86169413D01*
X16313236Y-86169412D01*
X16318945Y-86168584D01*
X16324409Y-86166729D01*
X16324414Y-86166728D01*
X16505693Y-86105192D01*
X16505698Y-86105190D01*
X16511165Y-86103334D01*
X16688276Y-86004147D01*
X16728029Y-85971085D01*
X16839913Y-85878031D01*
X16844345Y-85874345D01*
X16974147Y-85718276D01*
X17073334Y-85541165D01*
X17075190Y-85535698D01*
X17075192Y-85535693D01*
X17136728Y-85354414D01*
X17136729Y-85354409D01*
X17138584Y-85348945D01*
X17139412Y-85343236D01*
X17139413Y-85343231D01*
X17167179Y-85151727D01*
X17167712Y-85148053D01*
X17169232Y-85090000D01*
X17150658Y-84887859D01*
X17149090Y-84882299D01*
X17097125Y-84698046D01*
X17097124Y-84698044D01*
X17095557Y-84692487D01*
X17084978Y-84671033D01*
X17008331Y-84515609D01*
X17005776Y-84510428D01*
X16884320Y-84347779D01*
X16735258Y-84209987D01*
X16730375Y-84206906D01*
X16730371Y-84206903D01*
X16568464Y-84104748D01*
X16563581Y-84101667D01*
X16375039Y-84026446D01*
X16369379Y-84025320D01*
X16369375Y-84025319D01*
X16181613Y-83987971D01*
X16181610Y-83987971D01*
X16175946Y-83986844D01*
X16170171Y-83986768D01*
X16170167Y-83986768D01*
X16068793Y-83985441D01*
X15972971Y-83984187D01*
X15967274Y-83985166D01*
X15967273Y-83985166D01*
X15836530Y-84007632D01*
X15772910Y-84018564D01*
X15582463Y-84088824D01*
X15408010Y-84192612D01*
X15403670Y-84196418D01*
X15403666Y-84196421D01*
X15259733Y-84322648D01*
X15255392Y-84326455D01*
X15129720Y-84485869D01*
X15127031Y-84490980D01*
X15127029Y-84490983D01*
X15114073Y-84515609D01*
X15035203Y-84665515D01*
X14975007Y-84859378D01*
X14951148Y-85060964D01*
X-18541500Y-85060964D01*
X-18541500Y-84817885D01*
X-17164000Y-84817885D01*
X-17159525Y-84833124D01*
X-17158135Y-84834329D01*
X-17150452Y-84836000D01*
X-16332115Y-84836000D01*
X-16316876Y-84831525D01*
X-16315671Y-84830135D01*
X-16314000Y-84822452D01*
X-16314000Y-84817885D01*
X-15806000Y-84817885D01*
X-15801525Y-84833124D01*
X-15800135Y-84834329D01*
X-15792452Y-84836000D01*
X-14974116Y-84836000D01*
X-14958877Y-84831525D01*
X-14957672Y-84830135D01*
X-14956001Y-84822452D01*
X-14956001Y-84221172D01*
X-14957209Y-84208912D01*
X-14968315Y-84153069D01*
X-14977633Y-84130573D01*
X-15019983Y-84067192D01*
X-15037192Y-84049983D01*
X-15100575Y-84007632D01*
X-15123066Y-83998316D01*
X-15178915Y-83987207D01*
X-15191170Y-83986000D01*
X-15787885Y-83986000D01*
X-15803124Y-83990475D01*
X-15804329Y-83991865D01*
X-15806000Y-83999548D01*
X-15806000Y-84817885D01*
X-16314000Y-84817885D01*
X-16314000Y-84004116D01*
X-16318475Y-83988877D01*
X-16319865Y-83987672D01*
X-16327548Y-83986001D01*
X-16928828Y-83986001D01*
X-16941088Y-83987209D01*
X-16996931Y-83998315D01*
X-17019427Y-84007633D01*
X-17082808Y-84049983D01*
X-17100017Y-84067192D01*
X-17142368Y-84130575D01*
X-17151684Y-84153066D01*
X-17162793Y-84208915D01*
X-17164000Y-84221170D01*
X-17164000Y-84817885D01*
X-18541500Y-84817885D01*
X-18541500Y-82676500D01*
X-18521498Y-82608379D01*
X-18467842Y-82561886D01*
X-18415500Y-82550500D01*
X18415500Y-82550500D01*
X18483621Y-82570502D01*
G37*
G04 #@! TD.AperFunction*
M02*
