%TF.GenerationSoftware,KiCad,Pcbnew,(6.0.9)*%
%TF.CreationDate,2022-12-09T18:34:31+01:00*%
%TF.ProjectId,FT2232HL development board to iceprog,46543232-3332-4484-9c20-646576656c6f,1*%
%TF.SameCoordinates,Original*%
%TF.FileFunction,Drillmap*%
%TF.FilePolarity,Positive*%
%FSLAX45Y45*%
G04 Gerber Fmt 4.5, Leading zero omitted, Abs format (unit mm)*
G04 Created by KiCad (PCBNEW (6.0.9)) date 2022-12-09 18:34:31*
%MOMM*%
%LPD*%
G01*
G04 APERTURE LIST*
%ADD10C,0.100000*%
%ADD11C,0.200000*%
G04 APERTURE END LIST*
D10*
X-1879600Y-8229600D02*
X1879600Y-8229600D01*
X1879600Y-13360400D02*
X-1879600Y-13360400D01*
X1879600Y-8229600D02*
X1879600Y-13360400D01*
X-1879600Y-13360400D02*
X-1879600Y-8229600D01*
D11*
X-1626981Y-13675876D02*
X-1626981Y-13475876D01*
X-1579362Y-13475876D01*
X-1550790Y-13485400D01*
X-1531743Y-13504448D01*
X-1522219Y-13523495D01*
X-1512695Y-13561590D01*
X-1512695Y-13590162D01*
X-1522219Y-13628257D01*
X-1531743Y-13647305D01*
X-1550790Y-13666352D01*
X-1579362Y-13675876D01*
X-1626981Y-13675876D01*
X-1426981Y-13675876D02*
X-1426981Y-13542543D01*
X-1426981Y-13580638D02*
X-1417457Y-13561590D01*
X-1407933Y-13552067D01*
X-1388886Y-13542543D01*
X-1369838Y-13542543D01*
X-1303171Y-13675876D02*
X-1303171Y-13542543D01*
X-1303171Y-13475876D02*
X-1312695Y-13485400D01*
X-1303171Y-13494924D01*
X-1293648Y-13485400D01*
X-1303171Y-13475876D01*
X-1303171Y-13494924D01*
X-1179362Y-13675876D02*
X-1198410Y-13666352D01*
X-1207933Y-13647305D01*
X-1207933Y-13475876D01*
X-1074600Y-13675876D02*
X-1093648Y-13666352D01*
X-1103171Y-13647305D01*
X-1103171Y-13475876D01*
X-846028Y-13675876D02*
X-846028Y-13475876D01*
X-779362Y-13618733D01*
X-712695Y-13475876D01*
X-712695Y-13675876D01*
X-531743Y-13675876D02*
X-531743Y-13571114D01*
X-541267Y-13552067D01*
X-560314Y-13542543D01*
X-598410Y-13542543D01*
X-617457Y-13552067D01*
X-531743Y-13666352D02*
X-550790Y-13675876D01*
X-598410Y-13675876D01*
X-617457Y-13666352D01*
X-626981Y-13647305D01*
X-626981Y-13628257D01*
X-617457Y-13609209D01*
X-598410Y-13599686D01*
X-550790Y-13599686D01*
X-531743Y-13590162D01*
X-436505Y-13542543D02*
X-436505Y-13742543D01*
X-436505Y-13552067D02*
X-417457Y-13542543D01*
X-379362Y-13542543D01*
X-360314Y-13552067D01*
X-350790Y-13561590D01*
X-341267Y-13580638D01*
X-341267Y-13637781D01*
X-350790Y-13656828D01*
X-360314Y-13666352D01*
X-379362Y-13675876D01*
X-417457Y-13675876D01*
X-436505Y-13666352D01*
X-255552Y-13656828D02*
X-246028Y-13666352D01*
X-255552Y-13675876D01*
X-265076Y-13666352D01*
X-255552Y-13656828D01*
X-255552Y-13675876D01*
X-255552Y-13552067D02*
X-246028Y-13561590D01*
X-255552Y-13571114D01*
X-265076Y-13561590D01*
X-255552Y-13552067D01*
X-255552Y-13571114D01*
M02*
