G04 #@! TF.GenerationSoftware,KiCad,Pcbnew,(6.0.9)*
G04 #@! TF.CreationDate,2022-11-20T19:10:43+01:00*
G04 #@! TF.ProjectId,FT2232HL development board to iceprog,46543232-3332-4484-9c20-646576656c6f,rev?*
G04 #@! TF.SameCoordinates,Original*
G04 #@! TF.FileFunction,Legend,Top*
G04 #@! TF.FilePolarity,Positive*
%FSLAX46Y46*%
G04 Gerber Fmt 4.6, Leading zero omitted, Abs format (unit mm)*
G04 Created by KiCad (PCBNEW (6.0.9)) date 2022-11-20 19:10:43*
%MOMM*%
%LPD*%
G01*
G04 APERTURE LIST*
G04 Aperture macros list*
%AMRoundRect*
0 Rectangle with rounded corners*
0 $1 Rounding radius*
0 $2 $3 $4 $5 $6 $7 $8 $9 X,Y pos of 4 corners*
0 Add a 4 corners polygon primitive as box body*
4,1,4,$2,$3,$4,$5,$6,$7,$8,$9,$2,$3,0*
0 Add four circle primitives for the rounded corners*
1,1,$1+$1,$2,$3*
1,1,$1+$1,$4,$5*
1,1,$1+$1,$6,$7*
1,1,$1+$1,$8,$9*
0 Add four rect primitives between the rounded corners*
20,1,$1+$1,$2,$3,$4,$5,0*
20,1,$1+$1,$4,$5,$6,$7,0*
20,1,$1+$1,$6,$7,$8,$9,0*
20,1,$1+$1,$8,$9,$2,$3,0*%
G04 Aperture macros list end*
%ADD10C,0.150000*%
%ADD11C,0.120000*%
%ADD12R,1.700000X1.700000*%
%ADD13O,1.700000X1.700000*%
%ADD14C,1.700000*%
%ADD15RoundRect,0.250000X-0.600000X0.600000X-0.600000X-0.600000X0.600000X-0.600000X0.600000X0.600000X0*%
G04 APERTURE END LIST*
D10*
X1270000Y-120650000D02*
X2540000Y-122428000D01*
X1270000Y-118110000D02*
X1270000Y-120650000D01*
X817619Y-114774404D02*
X1817619Y-114774404D01*
X817619Y-115345833D01*
X1817619Y-115345833D01*
X912857Y-116393452D02*
X865238Y-116345833D01*
X817619Y-116202976D01*
X817619Y-116107738D01*
X865238Y-115964880D01*
X960476Y-115869642D01*
X1055714Y-115822023D01*
X1246190Y-115774404D01*
X1389047Y-115774404D01*
X1579523Y-115822023D01*
X1674761Y-115869642D01*
X1770000Y-115964880D01*
X1817619Y-116107738D01*
X1817619Y-116202976D01*
X1770000Y-116345833D01*
X1722380Y-116393452D01*
X865238Y-116869642D02*
X817619Y-116869642D01*
X722380Y-116822023D01*
X674761Y-116774404D01*
X1484285Y-117726785D02*
X817619Y-117726785D01*
X1865238Y-117488690D02*
X1150952Y-117250595D01*
X1150952Y-117869642D01*
X2087619Y-114774404D02*
X3087619Y-114774404D01*
X2087619Y-115345833D01*
X3087619Y-115345833D01*
X2182857Y-116393452D02*
X2135238Y-116345833D01*
X2087619Y-116202976D01*
X2087619Y-116107738D01*
X2135238Y-115964880D01*
X2230476Y-115869642D01*
X2325714Y-115822023D01*
X2516190Y-115774404D01*
X2659047Y-115774404D01*
X2849523Y-115822023D01*
X2944761Y-115869642D01*
X3040000Y-115964880D01*
X3087619Y-116107738D01*
X3087619Y-116202976D01*
X3040000Y-116345833D01*
X2992380Y-116393452D01*
X2135238Y-116869642D02*
X2087619Y-116869642D01*
X1992380Y-116822023D01*
X1944761Y-116774404D01*
X3087619Y-117202976D02*
X3087619Y-117822023D01*
X2706666Y-117488690D01*
X2706666Y-117631547D01*
X2659047Y-117726785D01*
X2611428Y-117774404D01*
X2516190Y-117822023D01*
X2278095Y-117822023D01*
X2182857Y-117774404D01*
X2135238Y-117726785D01*
X2087619Y-117631547D01*
X2087619Y-117345833D01*
X2135238Y-117250595D01*
X2182857Y-117202976D01*
X-1270000Y-118110000D02*
X-1270000Y-120650000D01*
X-1270000Y-120650000D02*
X0Y-122428000D01*
X3810000Y-118110000D02*
X3810000Y-120650000D01*
X3810000Y-120650000D02*
X5080000Y-122428000D01*
X-6350000Y-118110000D02*
X-6350000Y-120650000D01*
X-6350000Y-120650000D02*
X-5080000Y-122428000D01*
X-3810000Y-120650000D02*
X-2540000Y-122428000D01*
X-3810000Y-118110000D02*
X-3810000Y-120650000D01*
X-6707142Y-114488690D02*
X-6754761Y-114441071D01*
X-6802380Y-114298214D01*
X-6802380Y-114202976D01*
X-6754761Y-114060119D01*
X-6659523Y-113964880D01*
X-6564285Y-113917261D01*
X-6373809Y-113869642D01*
X-6230952Y-113869642D01*
X-6040476Y-113917261D01*
X-5945238Y-113964880D01*
X-5849999Y-114060119D01*
X-5802380Y-114202976D01*
X-5802380Y-114298214D01*
X-5849999Y-114441071D01*
X-5897619Y-114488690D01*
X-6754761Y-114869642D02*
X-6802380Y-115012500D01*
X-6802380Y-115250595D01*
X-6754761Y-115345833D01*
X-6707142Y-115393452D01*
X-6611904Y-115441071D01*
X-6516666Y-115441071D01*
X-6421428Y-115393452D01*
X-6373809Y-115345833D01*
X-6326190Y-115250595D01*
X-6278571Y-115060119D01*
X-6230952Y-114964880D01*
X-6183333Y-114917261D01*
X-6088095Y-114869642D01*
X-5992857Y-114869642D01*
X-5897619Y-114917261D01*
X-5849999Y-114964880D01*
X-5802380Y-115060119D01*
X-5802380Y-115298214D01*
X-5850000Y-115441071D01*
X-6754761Y-115917261D02*
X-6802380Y-115917261D01*
X-6897619Y-115869642D01*
X-6945238Y-115822023D01*
X-6802380Y-116869642D02*
X-6802380Y-116298214D01*
X-6802380Y-116583928D02*
X-5802380Y-116583928D01*
X-5945238Y-116488690D01*
X-6040476Y-116393452D01*
X-6088095Y-116298214D01*
X-5802380Y-117488690D02*
X-5802380Y-117583928D01*
X-5850000Y-117679166D01*
X-5897619Y-117726785D01*
X-5992857Y-117774404D01*
X-6183333Y-117822023D01*
X-6421428Y-117822023D01*
X-6611904Y-117774404D01*
X-6707142Y-117726785D01*
X-6754761Y-117679166D01*
X-6802380Y-117583928D01*
X-6802380Y-117488690D01*
X-6754761Y-117393452D01*
X-6707142Y-117345833D01*
X-6611904Y-117298214D01*
X-6421428Y-117250595D01*
X-6183333Y-117250595D01*
X-5992857Y-117298214D01*
X-5897619Y-117345833D01*
X-5850000Y-117393452D01*
X-5802380Y-117488690D01*
X-4262380Y-113202976D02*
X-3262380Y-113202976D01*
X-3976666Y-113536309D01*
X-3262380Y-113869642D01*
X-4262380Y-113869642D01*
X-4262380Y-114345833D02*
X-3262380Y-114345833D01*
X-4214761Y-114774404D02*
X-4262380Y-114917261D01*
X-4262380Y-115155357D01*
X-4214761Y-115250595D01*
X-4167142Y-115298214D01*
X-4071904Y-115345833D01*
X-3976666Y-115345833D01*
X-3881428Y-115298214D01*
X-3833809Y-115250595D01*
X-3786190Y-115155357D01*
X-3738571Y-114964880D01*
X-3690952Y-114869642D01*
X-3643333Y-114822023D01*
X-3548095Y-114774404D01*
X-3452857Y-114774404D01*
X-3357619Y-114822023D01*
X-3309999Y-114869642D01*
X-3262380Y-114964880D01*
X-3262380Y-115202976D01*
X-3309999Y-115345833D01*
X-3262380Y-115964880D02*
X-3262380Y-116155357D01*
X-3309999Y-116250595D01*
X-3405238Y-116345833D01*
X-3595714Y-116393452D01*
X-3929047Y-116393452D01*
X-4119523Y-116345833D01*
X-4214761Y-116250595D01*
X-4262380Y-116155357D01*
X-4262380Y-115964880D01*
X-4214761Y-115869642D01*
X-4119523Y-115774404D01*
X-3929047Y-115726785D01*
X-3595714Y-115726785D01*
X-3405238Y-115774404D01*
X-3309999Y-115869642D01*
X-3262380Y-115964880D01*
X-4214761Y-116869642D02*
X-4262380Y-116869642D01*
X-4357619Y-116822023D01*
X-4405238Y-116774404D01*
X-3690952Y-117441071D02*
X-3643333Y-117345833D01*
X-3595714Y-117298214D01*
X-3500476Y-117250595D01*
X-3452857Y-117250595D01*
X-3357619Y-117298214D01*
X-3310000Y-117345833D01*
X-3262380Y-117441071D01*
X-3262380Y-117631547D01*
X-3310000Y-117726785D01*
X-3357619Y-117774404D01*
X-3452857Y-117822023D01*
X-3500476Y-117822023D01*
X-3595714Y-117774404D01*
X-3643333Y-117726785D01*
X-3690952Y-117631547D01*
X-3690952Y-117441071D01*
X-3738571Y-117345833D01*
X-3786190Y-117298214D01*
X-3881428Y-117250595D01*
X-4071904Y-117250595D01*
X-4167142Y-117298214D01*
X-4214761Y-117345833D01*
X-4262380Y-117441071D01*
X-4262380Y-117631547D01*
X-4214761Y-117726785D01*
X-4167142Y-117774404D01*
X-4071904Y-117822023D01*
X-3881428Y-117822023D01*
X-3786190Y-117774404D01*
X-3738571Y-117726785D01*
X-3690952Y-117631547D01*
X-1627142Y-111869642D02*
X-1674761Y-111822023D01*
X-1722380Y-111679166D01*
X-1722380Y-111583928D01*
X-1674761Y-111441071D01*
X-1579523Y-111345833D01*
X-1484285Y-111298214D01*
X-1293809Y-111250595D01*
X-1150952Y-111250595D01*
X-960476Y-111298214D01*
X-865238Y-111345833D01*
X-769999Y-111441071D01*
X-722380Y-111583928D01*
X-722380Y-111679166D01*
X-769999Y-111822023D01*
X-817619Y-111869642D01*
X-1722380Y-112869642D02*
X-1246190Y-112536309D01*
X-1722380Y-112298214D02*
X-722380Y-112298214D01*
X-722380Y-112679166D01*
X-769999Y-112774404D01*
X-817619Y-112822023D01*
X-912857Y-112869642D01*
X-1055714Y-112869642D01*
X-1150952Y-112822023D01*
X-1198571Y-112774404D01*
X-1246190Y-112679166D01*
X-1246190Y-112298214D01*
X-1198571Y-113298214D02*
X-1198571Y-113631547D01*
X-1722380Y-113774404D02*
X-1722380Y-113298214D01*
X-722380Y-113298214D01*
X-722380Y-113774404D01*
X-1674761Y-114155357D02*
X-1722380Y-114298214D01*
X-1722380Y-114536309D01*
X-1674761Y-114631547D01*
X-1627142Y-114679166D01*
X-1531904Y-114726785D01*
X-1436666Y-114726785D01*
X-1341428Y-114679166D01*
X-1293809Y-114631547D01*
X-1246190Y-114536309D01*
X-1198571Y-114345833D01*
X-1150952Y-114250595D01*
X-1103333Y-114202976D01*
X-1008095Y-114155357D01*
X-912857Y-114155357D01*
X-817619Y-114202976D01*
X-769999Y-114250595D01*
X-722380Y-114345833D01*
X-722380Y-114583928D01*
X-769999Y-114726785D01*
X-1198571Y-115155357D02*
X-1198571Y-115488690D01*
X-1722380Y-115631547D02*
X-1722380Y-115155357D01*
X-722380Y-115155357D01*
X-722380Y-115631547D01*
X-722380Y-115917261D02*
X-722380Y-116488690D01*
X-1722380Y-116202976D02*
X-722380Y-116202976D01*
X-1674761Y-116869642D02*
X-1722380Y-116869642D01*
X-1817619Y-116822023D01*
X-1865238Y-116774404D01*
X-722380Y-117726785D02*
X-722380Y-117536309D01*
X-769999Y-117441071D01*
X-817619Y-117393452D01*
X-960476Y-117298214D01*
X-1150952Y-117250595D01*
X-1531904Y-117250595D01*
X-1627142Y-117298214D01*
X-1674761Y-117345833D01*
X-1722380Y-117441071D01*
X-1722380Y-117631547D01*
X-1674761Y-117726785D01*
X-1627142Y-117774404D01*
X-1531904Y-117822023D01*
X-1293809Y-117822023D01*
X-1198571Y-117774404D01*
X-1150952Y-117726785D01*
X-1103333Y-117631547D01*
X-1103333Y-117441071D01*
X-1150952Y-117345833D01*
X-1198571Y-117298214D01*
X-1293809Y-117250595D01*
X4310000Y-114298214D02*
X4357619Y-114202976D01*
X4357619Y-114060119D01*
X4310000Y-113917261D01*
X4214761Y-113822023D01*
X4119523Y-113774404D01*
X3929047Y-113726785D01*
X3786190Y-113726785D01*
X3595714Y-113774404D01*
X3500476Y-113822023D01*
X3405238Y-113917261D01*
X3357619Y-114060119D01*
X3357619Y-114155357D01*
X3405238Y-114298214D01*
X3452857Y-114345833D01*
X3786190Y-114345833D01*
X3786190Y-114155357D01*
X3357619Y-114774404D02*
X4357619Y-114774404D01*
X3357619Y-115345833D01*
X4357619Y-115345833D01*
X3357619Y-115822023D02*
X4357619Y-115822023D01*
X4357619Y-116060119D01*
X4310000Y-116202976D01*
X4214761Y-116298214D01*
X4119523Y-116345833D01*
X3929047Y-116393452D01*
X3786190Y-116393452D01*
X3595714Y-116345833D01*
X3500476Y-116298214D01*
X3405238Y-116202976D01*
X3357619Y-116060119D01*
X3357619Y-115822023D01*
X3405238Y-116869642D02*
X3357619Y-116869642D01*
X3262380Y-116822023D01*
X3214761Y-116774404D01*
X4262380Y-117250595D02*
X4310000Y-117298214D01*
X4357619Y-117393452D01*
X4357619Y-117631547D01*
X4310000Y-117726785D01*
X4262380Y-117774404D01*
X4167142Y-117822023D01*
X4071904Y-117822023D01*
X3929047Y-117774404D01*
X3357619Y-117202976D01*
X3357619Y-117822023D01*
X-5484761Y-113822023D02*
X-5532380Y-113964880D01*
X-5532380Y-114202976D01*
X-5484761Y-114298214D01*
X-5437142Y-114345833D01*
X-5341904Y-114393452D01*
X-5246666Y-114393452D01*
X-5151428Y-114345833D01*
X-5103809Y-114298214D01*
X-5056190Y-114202976D01*
X-5008571Y-114012500D01*
X-4960952Y-113917261D01*
X-4913333Y-113869642D01*
X-4818095Y-113822023D01*
X-4722857Y-113822023D01*
X-4627619Y-113869642D01*
X-4579999Y-113917261D01*
X-4532380Y-114012500D01*
X-4532380Y-114250595D01*
X-4579999Y-114393452D01*
X-5437142Y-115393452D02*
X-5484761Y-115345833D01*
X-5532380Y-115202976D01*
X-5532380Y-115107738D01*
X-5484761Y-114964880D01*
X-5389523Y-114869642D01*
X-5294285Y-114822023D01*
X-5103809Y-114774404D01*
X-4960952Y-114774404D01*
X-4770476Y-114822023D01*
X-4675238Y-114869642D01*
X-4579999Y-114964880D01*
X-4532380Y-115107738D01*
X-4532380Y-115202976D01*
X-4579999Y-115345833D01*
X-4627619Y-115393452D01*
X-5532380Y-115822023D02*
X-4532380Y-115822023D01*
X-5532380Y-116393452D02*
X-4960952Y-115964880D01*
X-4532380Y-116393452D02*
X-5103809Y-115822023D01*
X-5484761Y-116869642D02*
X-5532380Y-116869642D01*
X-5627619Y-116822023D01*
X-5675238Y-116774404D01*
X-5532380Y-117345833D02*
X-5532380Y-117536309D01*
X-5484761Y-117631547D01*
X-5437142Y-117679166D01*
X-5294285Y-117774404D01*
X-5103809Y-117822023D01*
X-4722857Y-117822023D01*
X-4627619Y-117774404D01*
X-4580000Y-117726785D01*
X-4532380Y-117631547D01*
X-4532380Y-117441071D01*
X-4580000Y-117345833D01*
X-4627619Y-117298214D01*
X-4722857Y-117250595D01*
X-4960952Y-117250595D01*
X-5056190Y-117298214D01*
X-5103809Y-117345833D01*
X-5151428Y-117441071D01*
X-5151428Y-117631547D01*
X-5103809Y-117726785D01*
X-5056190Y-117774404D01*
X-4960952Y-117822023D01*
X-2992380Y-113202976D02*
X-1992380Y-113202976D01*
X-2706666Y-113536309D01*
X-1992380Y-113869642D01*
X-2992380Y-113869642D01*
X-1992380Y-114536309D02*
X-1992380Y-114726785D01*
X-2039999Y-114822023D01*
X-2135238Y-114917261D01*
X-2325714Y-114964880D01*
X-2659047Y-114964880D01*
X-2849523Y-114917261D01*
X-2944761Y-114822023D01*
X-2992380Y-114726785D01*
X-2992380Y-114536309D01*
X-2944761Y-114441071D01*
X-2849523Y-114345833D01*
X-2659047Y-114298214D01*
X-2325714Y-114298214D01*
X-2135238Y-114345833D01*
X-2039999Y-114441071D01*
X-1992380Y-114536309D01*
X-2944761Y-115345833D02*
X-2992380Y-115488690D01*
X-2992380Y-115726785D01*
X-2944761Y-115822023D01*
X-2897142Y-115869642D01*
X-2801904Y-115917261D01*
X-2706666Y-115917261D01*
X-2611428Y-115869642D01*
X-2563809Y-115822023D01*
X-2516190Y-115726785D01*
X-2468571Y-115536309D01*
X-2420952Y-115441071D01*
X-2373333Y-115393452D01*
X-2278095Y-115345833D01*
X-2182857Y-115345833D01*
X-2087619Y-115393452D01*
X-2039999Y-115441071D01*
X-1992380Y-115536309D01*
X-1992380Y-115774404D01*
X-2039999Y-115917261D01*
X-2992380Y-116345833D02*
X-1992380Y-116345833D01*
X-2944761Y-116869642D02*
X-2992380Y-116869642D01*
X-3087619Y-116822023D01*
X-3135238Y-116774404D01*
X-1992380Y-117202976D02*
X-1992380Y-117869642D01*
X-2992380Y-117441071D01*
X-357142Y-112393452D02*
X-404761Y-112345833D01*
X-452380Y-112202976D01*
X-452380Y-112107738D01*
X-404761Y-111964880D01*
X-309523Y-111869642D01*
X-214285Y-111822023D01*
X-23809Y-111774404D01*
X119047Y-111774404D01*
X309523Y-111822023D01*
X404761Y-111869642D01*
X500000Y-111964880D01*
X547619Y-112107738D01*
X547619Y-112202976D01*
X500000Y-112345833D01*
X452380Y-112393452D01*
X-452380Y-112822023D02*
X547619Y-112822023D01*
X547619Y-113060119D01*
X500000Y-113202976D01*
X404761Y-113298214D01*
X309523Y-113345833D01*
X119047Y-113393452D01*
X-23809Y-113393452D01*
X-214285Y-113345833D01*
X-309523Y-113298214D01*
X-404761Y-113202976D01*
X-452380Y-113060119D01*
X-452380Y-112822023D01*
X547619Y-114012500D02*
X547619Y-114202976D01*
X500000Y-114298214D01*
X404761Y-114393452D01*
X214285Y-114441071D01*
X-119047Y-114441071D01*
X-309523Y-114393452D01*
X-404761Y-114298214D01*
X-452380Y-114202976D01*
X-452380Y-114012500D01*
X-404761Y-113917261D01*
X-309523Y-113822023D01*
X-119047Y-113774404D01*
X214285Y-113774404D01*
X404761Y-113822023D01*
X500000Y-113917261D01*
X547619Y-114012500D01*
X-452380Y-114869642D02*
X547619Y-114869642D01*
X-452380Y-115441071D01*
X547619Y-115441071D01*
X71428Y-115917261D02*
X71428Y-116250595D01*
X-452380Y-116393452D02*
X-452380Y-115917261D01*
X547619Y-115917261D01*
X547619Y-116393452D01*
X-404761Y-116869642D02*
X-452380Y-116869642D01*
X-547619Y-116822023D01*
X-595238Y-116774404D01*
X547619Y-117774404D02*
X547619Y-117298214D01*
X71428Y-117250595D01*
X119047Y-117298214D01*
X166666Y-117393452D01*
X166666Y-117631547D01*
X119047Y-117726785D01*
X71428Y-117774404D01*
X-23809Y-117822023D01*
X-261904Y-117822023D01*
X-357142Y-117774404D01*
X-404761Y-117726785D01*
X-452380Y-117631547D01*
X-452380Y-117393452D01*
X-404761Y-117298214D01*
X-357142Y-117250595D01*
X5627619Y-110123452D02*
X4627619Y-110456785D01*
X5627619Y-110790119D01*
X5294285Y-110980595D02*
X5294285Y-111361547D01*
X5627619Y-111123452D02*
X4770476Y-111123452D01*
X4675238Y-111171071D01*
X4627619Y-111266309D01*
X4627619Y-111361547D01*
X4627619Y-112123452D02*
X5151428Y-112123452D01*
X5246666Y-112075833D01*
X5294285Y-111980595D01*
X5294285Y-111790119D01*
X5246666Y-111694880D01*
X4675238Y-112123452D02*
X4627619Y-112028214D01*
X4627619Y-111790119D01*
X4675238Y-111694880D01*
X4770476Y-111647261D01*
X4865714Y-111647261D01*
X4960952Y-111694880D01*
X5008571Y-111790119D01*
X5008571Y-112028214D01*
X5056190Y-112123452D01*
X4627619Y-112599642D02*
X5294285Y-112599642D01*
X5103809Y-112599642D02*
X5199047Y-112647261D01*
X5246666Y-112694880D01*
X5294285Y-112790119D01*
X5294285Y-112885357D01*
X5294285Y-113647261D02*
X4484761Y-113647261D01*
X4389523Y-113599642D01*
X4341904Y-113552023D01*
X4294285Y-113456785D01*
X4294285Y-113313928D01*
X4341904Y-113218690D01*
X4675238Y-113647261D02*
X4627619Y-113552023D01*
X4627619Y-113361547D01*
X4675238Y-113266309D01*
X4722857Y-113218690D01*
X4818095Y-113171071D01*
X5103809Y-113171071D01*
X5199047Y-113218690D01*
X5246666Y-113266309D01*
X5294285Y-113361547D01*
X5294285Y-113552023D01*
X5246666Y-113647261D01*
X4675238Y-114504404D02*
X4627619Y-114409166D01*
X4627619Y-114218690D01*
X4675238Y-114123452D01*
X4770476Y-114075833D01*
X5151428Y-114075833D01*
X5246666Y-114123452D01*
X5294285Y-114218690D01*
X5294285Y-114409166D01*
X5246666Y-114504404D01*
X5151428Y-114552023D01*
X5056190Y-114552023D01*
X4960952Y-114075833D01*
X5294285Y-114837738D02*
X5294285Y-115218690D01*
X5627619Y-114980595D02*
X4770476Y-114980595D01*
X4675238Y-115028214D01*
X4627619Y-115123452D01*
X4627619Y-115218690D01*
X4675238Y-115599642D02*
X4627619Y-115599642D01*
X4532380Y-115552023D01*
X4484761Y-115504404D01*
X4627619Y-116552023D02*
X4627619Y-115980595D01*
X4627619Y-116266309D02*
X5627619Y-116266309D01*
X5484761Y-116171071D01*
X5389523Y-116075833D01*
X5341904Y-115980595D01*
X-13682023Y-110656666D02*
X-13205833Y-110656666D01*
X-13777261Y-110942380D02*
X-13443928Y-109942380D01*
X-13110595Y-110942380D01*
X-12777261Y-110942380D02*
X-12777261Y-109942380D01*
X-12539166Y-109942380D01*
X-12396309Y-109990000D01*
X-12301071Y-110085238D01*
X-12253452Y-110180476D01*
X-12205833Y-110370952D01*
X-12205833Y-110513809D01*
X-12253452Y-110704285D01*
X-12301071Y-110799523D01*
X-12396309Y-110894761D01*
X-12539166Y-110942380D01*
X-12777261Y-110942380D01*
X-11443928Y-110418571D02*
X-11301071Y-110466190D01*
X-11253452Y-110513809D01*
X-11205833Y-110609047D01*
X-11205833Y-110751904D01*
X-11253452Y-110847142D01*
X-11301071Y-110894761D01*
X-11396309Y-110942380D01*
X-11777261Y-110942380D01*
X-11777261Y-109942380D01*
X-11443928Y-109942380D01*
X-11348690Y-109990000D01*
X-11301071Y-110037619D01*
X-11253452Y-110132857D01*
X-11253452Y-110228095D01*
X-11301071Y-110323333D01*
X-11348690Y-110370952D01*
X-11443928Y-110418571D01*
X-11777261Y-110418571D01*
X-10777261Y-109942380D02*
X-10777261Y-110751904D01*
X-10729642Y-110847142D01*
X-10682023Y-110894761D01*
X-10586785Y-110942380D01*
X-10396309Y-110942380D01*
X-10301071Y-110894761D01*
X-10253452Y-110847142D01*
X-10205833Y-110751904D01*
X-10205833Y-109942380D01*
X-9777261Y-110894761D02*
X-9634404Y-110942380D01*
X-9396309Y-110942380D01*
X-9301071Y-110894761D01*
X-9253452Y-110847142D01*
X-9205833Y-110751904D01*
X-9205833Y-110656666D01*
X-9253452Y-110561428D01*
X-9301071Y-110513809D01*
X-9396309Y-110466190D01*
X-9586785Y-110418571D01*
X-9682023Y-110370952D01*
X-9729642Y-110323333D01*
X-9777261Y-110228095D01*
X-9777261Y-110132857D01*
X-9729642Y-110037619D01*
X-9682023Y-109990000D01*
X-9586785Y-109942380D01*
X-9348690Y-109942380D01*
X-9205833Y-109990000D01*
X-8872500Y-109942380D02*
X-8205833Y-109942380D01*
X-8634404Y-110942380D01*
X-7110595Y-109894761D02*
X-7967738Y-111180476D01*
X-6205833Y-110847142D02*
X-6253452Y-110894761D01*
X-6396309Y-110942380D01*
X-6491547Y-110942380D01*
X-6634404Y-110894761D01*
X-6729642Y-110799523D01*
X-6777261Y-110704285D01*
X-6824880Y-110513809D01*
X-6824880Y-110370952D01*
X-6777261Y-110180476D01*
X-6729642Y-110085238D01*
X-6634404Y-109990000D01*
X-6491547Y-109942380D01*
X-6396309Y-109942380D01*
X-6253452Y-109990000D01*
X-6205833Y-110037619D01*
X-5205833Y-110942380D02*
X-5539166Y-110466190D01*
X-5777261Y-110942380D02*
X-5777261Y-109942380D01*
X-5396309Y-109942380D01*
X-5301071Y-109990000D01*
X-5253452Y-110037619D01*
X-5205833Y-110132857D01*
X-5205833Y-110275714D01*
X-5253452Y-110370952D01*
X-5301071Y-110418571D01*
X-5396309Y-110466190D01*
X-5777261Y-110466190D01*
X-4777261Y-110418571D02*
X-4443928Y-110418571D01*
X-4301071Y-110942380D02*
X-4777261Y-110942380D01*
X-4777261Y-109942380D01*
X-4301071Y-109942380D01*
X-3920119Y-110894761D02*
X-3777261Y-110942380D01*
X-3539166Y-110942380D01*
X-3443928Y-110894761D01*
X-3396309Y-110847142D01*
X-3348690Y-110751904D01*
X-3348690Y-110656666D01*
X-3396309Y-110561428D01*
X-3443928Y-110513809D01*
X-3539166Y-110466190D01*
X-3729642Y-110418571D01*
X-3824880Y-110370952D01*
X-3872500Y-110323333D01*
X-3920119Y-110228095D01*
X-3920119Y-110132857D01*
X-3872500Y-110037619D01*
X-3824880Y-109990000D01*
X-3729642Y-109942380D01*
X-3491547Y-109942380D01*
X-3348690Y-109990000D01*
X-2920119Y-110418571D02*
X-2586785Y-110418571D01*
X-2443928Y-110942380D02*
X-2920119Y-110942380D01*
X-2920119Y-109942380D01*
X-2443928Y-109942380D01*
X-2158214Y-109942380D02*
X-1586785Y-109942380D01*
X-1872500Y-110942380D02*
X-1872500Y-109942380D01*
X-13682023Y-108116666D02*
X-13205833Y-108116666D01*
X-13777261Y-108402380D02*
X-13443928Y-107402380D01*
X-13110595Y-108402380D01*
X-12777261Y-108402380D02*
X-12777261Y-107402380D01*
X-12539166Y-107402380D01*
X-12396309Y-107450000D01*
X-12301071Y-107545238D01*
X-12253452Y-107640476D01*
X-12205833Y-107830952D01*
X-12205833Y-107973809D01*
X-12253452Y-108164285D01*
X-12301071Y-108259523D01*
X-12396309Y-108354761D01*
X-12539166Y-108402380D01*
X-12777261Y-108402380D01*
X-11443928Y-107878571D02*
X-11301071Y-107926190D01*
X-11253452Y-107973809D01*
X-11205833Y-108069047D01*
X-11205833Y-108211904D01*
X-11253452Y-108307142D01*
X-11301071Y-108354761D01*
X-11396309Y-108402380D01*
X-11777261Y-108402380D01*
X-11777261Y-107402380D01*
X-11443928Y-107402380D01*
X-11348690Y-107450000D01*
X-11301071Y-107497619D01*
X-11253452Y-107592857D01*
X-11253452Y-107688095D01*
X-11301071Y-107783333D01*
X-11348690Y-107830952D01*
X-11443928Y-107878571D01*
X-11777261Y-107878571D01*
X-10777261Y-107402380D02*
X-10777261Y-108211904D01*
X-10729642Y-108307142D01*
X-10682023Y-108354761D01*
X-10586785Y-108402380D01*
X-10396309Y-108402380D01*
X-10301071Y-108354761D01*
X-10253452Y-108307142D01*
X-10205833Y-108211904D01*
X-10205833Y-107402380D01*
X-9777261Y-108354761D02*
X-9634404Y-108402380D01*
X-9396309Y-108402380D01*
X-9301071Y-108354761D01*
X-9253452Y-108307142D01*
X-9205833Y-108211904D01*
X-9205833Y-108116666D01*
X-9253452Y-108021428D01*
X-9301071Y-107973809D01*
X-9396309Y-107926190D01*
X-9586785Y-107878571D01*
X-9682023Y-107830952D01*
X-9729642Y-107783333D01*
X-9777261Y-107688095D01*
X-9777261Y-107592857D01*
X-9729642Y-107497619D01*
X-9682023Y-107450000D01*
X-9586785Y-107402380D01*
X-9348690Y-107402380D01*
X-9205833Y-107450000D01*
X-8348690Y-107402380D02*
X-8539166Y-107402380D01*
X-8634404Y-107450000D01*
X-8682023Y-107497619D01*
X-8777261Y-107640476D01*
X-8824880Y-107830952D01*
X-8824880Y-108211904D01*
X-8777261Y-108307142D01*
X-8729642Y-108354761D01*
X-8634404Y-108402380D01*
X-8443928Y-108402380D01*
X-8348690Y-108354761D01*
X-8301071Y-108307142D01*
X-8253452Y-108211904D01*
X-8253452Y-107973809D01*
X-8301071Y-107878571D01*
X-8348690Y-107830952D01*
X-8443928Y-107783333D01*
X-8634404Y-107783333D01*
X-8729642Y-107830952D01*
X-8777261Y-107878571D01*
X-8824880Y-107973809D01*
X-7110595Y-107354761D02*
X-7967738Y-108640476D01*
X-6205833Y-108307142D02*
X-6253452Y-108354761D01*
X-6396309Y-108402380D01*
X-6491547Y-108402380D01*
X-6634404Y-108354761D01*
X-6729642Y-108259523D01*
X-6777261Y-108164285D01*
X-6824880Y-107973809D01*
X-6824880Y-107830952D01*
X-6777261Y-107640476D01*
X-6729642Y-107545238D01*
X-6634404Y-107450000D01*
X-6491547Y-107402380D01*
X-6396309Y-107402380D01*
X-6253452Y-107450000D01*
X-6205833Y-107497619D01*
X-5777261Y-108402380D02*
X-5777261Y-107402380D01*
X-5539166Y-107402380D01*
X-5396309Y-107450000D01*
X-5301071Y-107545238D01*
X-5253452Y-107640476D01*
X-5205833Y-107830952D01*
X-5205833Y-107973809D01*
X-5253452Y-108164285D01*
X-5301071Y-108259523D01*
X-5396309Y-108354761D01*
X-5539166Y-108402380D01*
X-5777261Y-108402380D01*
X-4586785Y-107402380D02*
X-4396309Y-107402380D01*
X-4301071Y-107450000D01*
X-4205833Y-107545238D01*
X-4158214Y-107735714D01*
X-4158214Y-108069047D01*
X-4205833Y-108259523D01*
X-4301071Y-108354761D01*
X-4396309Y-108402380D01*
X-4586785Y-108402380D01*
X-4682023Y-108354761D01*
X-4777261Y-108259523D01*
X-4824880Y-108069047D01*
X-4824880Y-107735714D01*
X-4777261Y-107545238D01*
X-4682023Y-107450000D01*
X-4586785Y-107402380D01*
X-3729642Y-108402380D02*
X-3729642Y-107402380D01*
X-3158214Y-108402380D01*
X-3158214Y-107402380D01*
X-2682023Y-107878571D02*
X-2348690Y-107878571D01*
X-2205833Y-108402380D02*
X-2682023Y-108402380D01*
X-2682023Y-107402380D01*
X-2205833Y-107402380D01*
X-13682023Y-103036666D02*
X-13205833Y-103036666D01*
X-13777261Y-103322380D02*
X-13443928Y-102322380D01*
X-13110595Y-103322380D01*
X-12777261Y-103322380D02*
X-12777261Y-102322380D01*
X-12539166Y-102322380D01*
X-12396309Y-102370000D01*
X-12301071Y-102465238D01*
X-12253452Y-102560476D01*
X-12205833Y-102750952D01*
X-12205833Y-102893809D01*
X-12253452Y-103084285D01*
X-12301071Y-103179523D01*
X-12396309Y-103274761D01*
X-12539166Y-103322380D01*
X-12777261Y-103322380D01*
X-11443928Y-102798571D02*
X-11301071Y-102846190D01*
X-11253452Y-102893809D01*
X-11205833Y-102989047D01*
X-11205833Y-103131904D01*
X-11253452Y-103227142D01*
X-11301071Y-103274761D01*
X-11396309Y-103322380D01*
X-11777261Y-103322380D01*
X-11777261Y-102322380D01*
X-11443928Y-102322380D01*
X-11348690Y-102370000D01*
X-11301071Y-102417619D01*
X-11253452Y-102512857D01*
X-11253452Y-102608095D01*
X-11301071Y-102703333D01*
X-11348690Y-102750952D01*
X-11443928Y-102798571D01*
X-11777261Y-102798571D01*
X-10777261Y-102322380D02*
X-10777261Y-103131904D01*
X-10729642Y-103227142D01*
X-10682023Y-103274761D01*
X-10586785Y-103322380D01*
X-10396309Y-103322380D01*
X-10301071Y-103274761D01*
X-10253452Y-103227142D01*
X-10205833Y-103131904D01*
X-10205833Y-102322380D01*
X-9777261Y-103274761D02*
X-9634404Y-103322380D01*
X-9396309Y-103322380D01*
X-9301071Y-103274761D01*
X-9253452Y-103227142D01*
X-9205833Y-103131904D01*
X-9205833Y-103036666D01*
X-9253452Y-102941428D01*
X-9301071Y-102893809D01*
X-9396309Y-102846190D01*
X-9586785Y-102798571D01*
X-9682023Y-102750952D01*
X-9729642Y-102703333D01*
X-9777261Y-102608095D01*
X-9777261Y-102512857D01*
X-9729642Y-102417619D01*
X-9682023Y-102370000D01*
X-9586785Y-102322380D01*
X-9348690Y-102322380D01*
X-9205833Y-102370000D01*
X-8348690Y-102655714D02*
X-8348690Y-103322380D01*
X-8586785Y-102274761D02*
X-8824880Y-102989047D01*
X-8205833Y-102989047D01*
X-7110595Y-102274761D02*
X-7967738Y-103560476D01*
X-6205833Y-103227142D02*
X-6253452Y-103274761D01*
X-6396309Y-103322380D01*
X-6491547Y-103322380D01*
X-6634404Y-103274761D01*
X-6729642Y-103179523D01*
X-6777261Y-103084285D01*
X-6824880Y-102893809D01*
X-6824880Y-102750952D01*
X-6777261Y-102560476D01*
X-6729642Y-102465238D01*
X-6634404Y-102370000D01*
X-6491547Y-102322380D01*
X-6396309Y-102322380D01*
X-6253452Y-102370000D01*
X-6205833Y-102417619D01*
X-5824880Y-103274761D02*
X-5682023Y-103322380D01*
X-5443928Y-103322380D01*
X-5348690Y-103274761D01*
X-5301071Y-103227142D01*
X-5253452Y-103131904D01*
X-5253452Y-103036666D01*
X-5301071Y-102941428D01*
X-5348690Y-102893809D01*
X-5443928Y-102846190D01*
X-5634404Y-102798571D01*
X-5729642Y-102750952D01*
X-5777261Y-102703333D01*
X-5824880Y-102608095D01*
X-5824880Y-102512857D01*
X-5777261Y-102417619D01*
X-5729642Y-102370000D01*
X-5634404Y-102322380D01*
X-5396309Y-102322380D01*
X-5253452Y-102370000D01*
X-13682023Y-97956666D02*
X-13205833Y-97956666D01*
X-13777261Y-98242380D02*
X-13443928Y-97242380D01*
X-13110595Y-98242380D01*
X-12777261Y-98242380D02*
X-12777261Y-97242380D01*
X-12539166Y-97242380D01*
X-12396309Y-97290000D01*
X-12301071Y-97385238D01*
X-12253452Y-97480476D01*
X-12205833Y-97670952D01*
X-12205833Y-97813809D01*
X-12253452Y-98004285D01*
X-12301071Y-98099523D01*
X-12396309Y-98194761D01*
X-12539166Y-98242380D01*
X-12777261Y-98242380D01*
X-11443928Y-97718571D02*
X-11301071Y-97766190D01*
X-11253452Y-97813809D01*
X-11205833Y-97909047D01*
X-11205833Y-98051904D01*
X-11253452Y-98147142D01*
X-11301071Y-98194761D01*
X-11396309Y-98242380D01*
X-11777261Y-98242380D01*
X-11777261Y-97242380D01*
X-11443928Y-97242380D01*
X-11348690Y-97290000D01*
X-11301071Y-97337619D01*
X-11253452Y-97432857D01*
X-11253452Y-97528095D01*
X-11301071Y-97623333D01*
X-11348690Y-97670952D01*
X-11443928Y-97718571D01*
X-11777261Y-97718571D01*
X-10777261Y-97242380D02*
X-10777261Y-98051904D01*
X-10729642Y-98147142D01*
X-10682023Y-98194761D01*
X-10586785Y-98242380D01*
X-10396309Y-98242380D01*
X-10301071Y-98194761D01*
X-10253452Y-98147142D01*
X-10205833Y-98051904D01*
X-10205833Y-97242380D01*
X-9777261Y-98194761D02*
X-9634404Y-98242380D01*
X-9396309Y-98242380D01*
X-9301071Y-98194761D01*
X-9253452Y-98147142D01*
X-9205833Y-98051904D01*
X-9205833Y-97956666D01*
X-9253452Y-97861428D01*
X-9301071Y-97813809D01*
X-9396309Y-97766190D01*
X-9586785Y-97718571D01*
X-9682023Y-97670952D01*
X-9729642Y-97623333D01*
X-9777261Y-97528095D01*
X-9777261Y-97432857D01*
X-9729642Y-97337619D01*
X-9682023Y-97290000D01*
X-9586785Y-97242380D01*
X-9348690Y-97242380D01*
X-9205833Y-97290000D01*
X-8824880Y-97337619D02*
X-8777261Y-97290000D01*
X-8682023Y-97242380D01*
X-8443928Y-97242380D01*
X-8348690Y-97290000D01*
X-8301071Y-97337619D01*
X-8253452Y-97432857D01*
X-8253452Y-97528095D01*
X-8301071Y-97670952D01*
X-8872500Y-98242380D01*
X-8253452Y-98242380D01*
X-7110595Y-97194761D02*
X-7967738Y-98480476D01*
X-6777261Y-98242380D02*
X-6777261Y-97242380D01*
X-6443928Y-97956666D01*
X-6110595Y-97242380D01*
X-6110595Y-98242380D01*
X-5634404Y-98242380D02*
X-5634404Y-97242380D01*
X-5205833Y-98194761D02*
X-5062976Y-98242380D01*
X-4824880Y-98242380D01*
X-4729642Y-98194761D01*
X-4682023Y-98147142D01*
X-4634404Y-98051904D01*
X-4634404Y-97956666D01*
X-4682023Y-97861428D01*
X-4729642Y-97813809D01*
X-4824880Y-97766190D01*
X-5015357Y-97718571D01*
X-5110595Y-97670952D01*
X-5158214Y-97623333D01*
X-5205833Y-97528095D01*
X-5205833Y-97432857D01*
X-5158214Y-97337619D01*
X-5110595Y-97290000D01*
X-5015357Y-97242380D01*
X-4777261Y-97242380D01*
X-4634404Y-97290000D01*
X-4015357Y-97242380D02*
X-3824880Y-97242380D01*
X-3729642Y-97290000D01*
X-3634404Y-97385238D01*
X-3586785Y-97575714D01*
X-3586785Y-97909047D01*
X-3634404Y-98099523D01*
X-3729642Y-98194761D01*
X-3824880Y-98242380D01*
X-4015357Y-98242380D01*
X-4110595Y-98194761D01*
X-4205833Y-98099523D01*
X-4253452Y-97909047D01*
X-4253452Y-97575714D01*
X-4205833Y-97385238D01*
X-4110595Y-97290000D01*
X-4015357Y-97242380D01*
X-13682023Y-95416666D02*
X-13205833Y-95416666D01*
X-13777261Y-95702380D02*
X-13443928Y-94702380D01*
X-13110595Y-95702380D01*
X-12777261Y-95702380D02*
X-12777261Y-94702380D01*
X-12539166Y-94702380D01*
X-12396309Y-94750000D01*
X-12301071Y-94845238D01*
X-12253452Y-94940476D01*
X-12205833Y-95130952D01*
X-12205833Y-95273809D01*
X-12253452Y-95464285D01*
X-12301071Y-95559523D01*
X-12396309Y-95654761D01*
X-12539166Y-95702380D01*
X-12777261Y-95702380D01*
X-11443928Y-95178571D02*
X-11301071Y-95226190D01*
X-11253452Y-95273809D01*
X-11205833Y-95369047D01*
X-11205833Y-95511904D01*
X-11253452Y-95607142D01*
X-11301071Y-95654761D01*
X-11396309Y-95702380D01*
X-11777261Y-95702380D01*
X-11777261Y-94702380D01*
X-11443928Y-94702380D01*
X-11348690Y-94750000D01*
X-11301071Y-94797619D01*
X-11253452Y-94892857D01*
X-11253452Y-94988095D01*
X-11301071Y-95083333D01*
X-11348690Y-95130952D01*
X-11443928Y-95178571D01*
X-11777261Y-95178571D01*
X-10777261Y-94702380D02*
X-10777261Y-95511904D01*
X-10729642Y-95607142D01*
X-10682023Y-95654761D01*
X-10586785Y-95702380D01*
X-10396309Y-95702380D01*
X-10301071Y-95654761D01*
X-10253452Y-95607142D01*
X-10205833Y-95511904D01*
X-10205833Y-94702380D01*
X-9777261Y-95654761D02*
X-9634404Y-95702380D01*
X-9396309Y-95702380D01*
X-9301071Y-95654761D01*
X-9253452Y-95607142D01*
X-9205833Y-95511904D01*
X-9205833Y-95416666D01*
X-9253452Y-95321428D01*
X-9301071Y-95273809D01*
X-9396309Y-95226190D01*
X-9586785Y-95178571D01*
X-9682023Y-95130952D01*
X-9729642Y-95083333D01*
X-9777261Y-94988095D01*
X-9777261Y-94892857D01*
X-9729642Y-94797619D01*
X-9682023Y-94750000D01*
X-9586785Y-94702380D01*
X-9348690Y-94702380D01*
X-9205833Y-94750000D01*
X-8253452Y-95702380D02*
X-8824880Y-95702380D01*
X-8539166Y-95702380D02*
X-8539166Y-94702380D01*
X-8634404Y-94845238D01*
X-8729642Y-94940476D01*
X-8824880Y-94988095D01*
X-7110595Y-94654761D02*
X-7967738Y-95940476D01*
X-6777261Y-95702380D02*
X-6777261Y-94702380D01*
X-6443928Y-95416666D01*
X-6110595Y-94702380D01*
X-6110595Y-95702380D01*
X-5443928Y-94702380D02*
X-5253452Y-94702380D01*
X-5158214Y-94750000D01*
X-5062976Y-94845238D01*
X-5015357Y-95035714D01*
X-5015357Y-95369047D01*
X-5062976Y-95559523D01*
X-5158214Y-95654761D01*
X-5253452Y-95702380D01*
X-5443928Y-95702380D01*
X-5539166Y-95654761D01*
X-5634404Y-95559523D01*
X-5682023Y-95369047D01*
X-5682023Y-95035714D01*
X-5634404Y-94845238D01*
X-5539166Y-94750000D01*
X-5443928Y-94702380D01*
X-4634404Y-95654761D02*
X-4491547Y-95702380D01*
X-4253452Y-95702380D01*
X-4158214Y-95654761D01*
X-4110595Y-95607142D01*
X-4062976Y-95511904D01*
X-4062976Y-95416666D01*
X-4110595Y-95321428D01*
X-4158214Y-95273809D01*
X-4253452Y-95226190D01*
X-4443928Y-95178571D01*
X-4539166Y-95130952D01*
X-4586785Y-95083333D01*
X-4634404Y-94988095D01*
X-4634404Y-94892857D01*
X-4586785Y-94797619D01*
X-4539166Y-94750000D01*
X-4443928Y-94702380D01*
X-4205833Y-94702380D01*
X-4062976Y-94750000D01*
X-3634404Y-95702380D02*
X-3634404Y-94702380D01*
X-13682023Y-92876666D02*
X-13205833Y-92876666D01*
X-13777261Y-93162380D02*
X-13443928Y-92162380D01*
X-13110595Y-93162380D01*
X-12777261Y-93162380D02*
X-12777261Y-92162380D01*
X-12539166Y-92162380D01*
X-12396309Y-92210000D01*
X-12301071Y-92305238D01*
X-12253452Y-92400476D01*
X-12205833Y-92590952D01*
X-12205833Y-92733809D01*
X-12253452Y-92924285D01*
X-12301071Y-93019523D01*
X-12396309Y-93114761D01*
X-12539166Y-93162380D01*
X-12777261Y-93162380D01*
X-11443928Y-92638571D02*
X-11301071Y-92686190D01*
X-11253452Y-92733809D01*
X-11205833Y-92829047D01*
X-11205833Y-92971904D01*
X-11253452Y-93067142D01*
X-11301071Y-93114761D01*
X-11396309Y-93162380D01*
X-11777261Y-93162380D01*
X-11777261Y-92162380D01*
X-11443928Y-92162380D01*
X-11348690Y-92210000D01*
X-11301071Y-92257619D01*
X-11253452Y-92352857D01*
X-11253452Y-92448095D01*
X-11301071Y-92543333D01*
X-11348690Y-92590952D01*
X-11443928Y-92638571D01*
X-11777261Y-92638571D01*
X-10777261Y-92162380D02*
X-10777261Y-92971904D01*
X-10729642Y-93067142D01*
X-10682023Y-93114761D01*
X-10586785Y-93162380D01*
X-10396309Y-93162380D01*
X-10301071Y-93114761D01*
X-10253452Y-93067142D01*
X-10205833Y-92971904D01*
X-10205833Y-92162380D01*
X-9777261Y-93114761D02*
X-9634404Y-93162380D01*
X-9396309Y-93162380D01*
X-9301071Y-93114761D01*
X-9253452Y-93067142D01*
X-9205833Y-92971904D01*
X-9205833Y-92876666D01*
X-9253452Y-92781428D01*
X-9301071Y-92733809D01*
X-9396309Y-92686190D01*
X-9586785Y-92638571D01*
X-9682023Y-92590952D01*
X-9729642Y-92543333D01*
X-9777261Y-92448095D01*
X-9777261Y-92352857D01*
X-9729642Y-92257619D01*
X-9682023Y-92210000D01*
X-9586785Y-92162380D01*
X-9348690Y-92162380D01*
X-9205833Y-92210000D01*
X-8586785Y-92162380D02*
X-8491547Y-92162380D01*
X-8396309Y-92210000D01*
X-8348690Y-92257619D01*
X-8301071Y-92352857D01*
X-8253452Y-92543333D01*
X-8253452Y-92781428D01*
X-8301071Y-92971904D01*
X-8348690Y-93067142D01*
X-8396309Y-93114761D01*
X-8491547Y-93162380D01*
X-8586785Y-93162380D01*
X-8682023Y-93114761D01*
X-8729642Y-93067142D01*
X-8777261Y-92971904D01*
X-8824880Y-92781428D01*
X-8824880Y-92543333D01*
X-8777261Y-92352857D01*
X-8729642Y-92257619D01*
X-8682023Y-92210000D01*
X-8586785Y-92162380D01*
X-7110595Y-92114761D02*
X-7967738Y-93400476D01*
X-6824880Y-93114761D02*
X-6682023Y-93162380D01*
X-6443928Y-93162380D01*
X-6348690Y-93114761D01*
X-6301071Y-93067142D01*
X-6253452Y-92971904D01*
X-6253452Y-92876666D01*
X-6301071Y-92781428D01*
X-6348690Y-92733809D01*
X-6443928Y-92686190D01*
X-6634404Y-92638571D01*
X-6729642Y-92590952D01*
X-6777261Y-92543333D01*
X-6824880Y-92448095D01*
X-6824880Y-92352857D01*
X-6777261Y-92257619D01*
X-6729642Y-92210000D01*
X-6634404Y-92162380D01*
X-6396309Y-92162380D01*
X-6253452Y-92210000D01*
X-5253452Y-93067142D02*
X-5301071Y-93114761D01*
X-5443928Y-93162380D01*
X-5539166Y-93162380D01*
X-5682023Y-93114761D01*
X-5777261Y-93019523D01*
X-5824880Y-92924285D01*
X-5872500Y-92733809D01*
X-5872500Y-92590952D01*
X-5824880Y-92400476D01*
X-5777261Y-92305238D01*
X-5682023Y-92210000D01*
X-5539166Y-92162380D01*
X-5443928Y-92162380D01*
X-5301071Y-92210000D01*
X-5253452Y-92257619D01*
X-4824880Y-93162380D02*
X-4824880Y-92162380D01*
X-4253452Y-93162380D02*
X-4682023Y-92590952D01*
X-4253452Y-92162380D02*
X-4824880Y-92733809D01*
X-5523809Y-99623571D02*
X-5857142Y-99623571D01*
X-5857142Y-100147380D02*
X-5857142Y-99147380D01*
X-5380952Y-99147380D01*
X-4619047Y-100099761D02*
X-4714285Y-100147380D01*
X-4904761Y-100147380D01*
X-5000000Y-100099761D01*
X-5047619Y-100004523D01*
X-5047619Y-99623571D01*
X-5000000Y-99528333D01*
X-4904761Y-99480714D01*
X-4714285Y-99480714D01*
X-4619047Y-99528333D01*
X-4571428Y-99623571D01*
X-4571428Y-99718809D01*
X-5047619Y-99814047D01*
X-3761904Y-100099761D02*
X-3857142Y-100147380D01*
X-4047619Y-100147380D01*
X-4142857Y-100099761D01*
X-4190476Y-100004523D01*
X-4190476Y-99623571D01*
X-4142857Y-99528333D01*
X-4047619Y-99480714D01*
X-3857142Y-99480714D01*
X-3761904Y-99528333D01*
X-3714285Y-99623571D01*
X-3714285Y-99718809D01*
X-4190476Y-99814047D01*
X-2857142Y-100147380D02*
X-2857142Y-99147380D01*
X-2857142Y-100099761D02*
X-2952380Y-100147380D01*
X-3142857Y-100147380D01*
X-3238095Y-100099761D01*
X-3285714Y-100052142D01*
X-3333333Y-99956904D01*
X-3333333Y-99671190D01*
X-3285714Y-99575952D01*
X-3238095Y-99528333D01*
X-3142857Y-99480714D01*
X-2952380Y-99480714D01*
X-2857142Y-99528333D01*
X-1761904Y-99480714D02*
X-1380952Y-99480714D01*
X-1619047Y-99147380D02*
X-1619047Y-100004523D01*
X-1571428Y-100099761D01*
X-1476190Y-100147380D01*
X-1380952Y-100147380D01*
X-619047Y-100147380D02*
X-619047Y-99623571D01*
X-666666Y-99528333D01*
X-761904Y-99480714D01*
X-952380Y-99480714D01*
X-1047619Y-99528333D01*
X-619047Y-100099761D02*
X-714285Y-100147380D01*
X-952380Y-100147380D01*
X-1047619Y-100099761D01*
X-1095238Y-100004523D01*
X-1095238Y-99909285D01*
X-1047619Y-99814047D01*
X-952380Y-99766428D01*
X-714285Y-99766428D01*
X-619047Y-99718809D01*
X-142857Y-100147380D02*
X-142857Y-99480714D01*
X-142857Y-99671190D02*
X-95238Y-99575952D01*
X-47619Y-99528333D01*
X47619Y-99480714D01*
X142857Y-99480714D01*
X904761Y-99480714D02*
X904761Y-100290238D01*
X857142Y-100385476D01*
X809523Y-100433095D01*
X714285Y-100480714D01*
X571428Y-100480714D01*
X476190Y-100433095D01*
X904761Y-100099761D02*
X809523Y-100147380D01*
X619047Y-100147380D01*
X523809Y-100099761D01*
X476190Y-100052142D01*
X428571Y-99956904D01*
X428571Y-99671190D01*
X476190Y-99575952D01*
X523809Y-99528333D01*
X619047Y-99480714D01*
X809523Y-99480714D01*
X904761Y-99528333D01*
X1761904Y-100099761D02*
X1666666Y-100147380D01*
X1476190Y-100147380D01*
X1380952Y-100099761D01*
X1333333Y-100004523D01*
X1333333Y-99623571D01*
X1380952Y-99528333D01*
X1476190Y-99480714D01*
X1666666Y-99480714D01*
X1761904Y-99528333D01*
X1809523Y-99623571D01*
X1809523Y-99718809D01*
X1333333Y-99814047D01*
X2095238Y-99480714D02*
X2476190Y-99480714D01*
X2238095Y-99147380D02*
X2238095Y-100004523D01*
X2285714Y-100099761D01*
X2380952Y-100147380D01*
X2476190Y-100147380D01*
X3476190Y-99147380D02*
X4095238Y-99147380D01*
X3761904Y-99528333D01*
X3904761Y-99528333D01*
X4000000Y-99575952D01*
X4047619Y-99623571D01*
X4095238Y-99718809D01*
X4095238Y-99956904D01*
X4047619Y-100052142D01*
X4000000Y-100099761D01*
X3904761Y-100147380D01*
X3619047Y-100147380D01*
X3523809Y-100099761D01*
X3476190Y-100052142D01*
X4380952Y-99147380D02*
X4714285Y-100147380D01*
X5047619Y-99147380D01*
X5285714Y-99147380D02*
X5904761Y-99147380D01*
X5571428Y-99528333D01*
X5714285Y-99528333D01*
X5809523Y-99575952D01*
X5857142Y-99623571D01*
X5904761Y-99718809D01*
X5904761Y-99956904D01*
X5857142Y-100052142D01*
X5809523Y-100099761D01*
X5714285Y-100147380D01*
X5428571Y-100147380D01*
X5333333Y-100099761D01*
X5285714Y-100052142D01*
X-11023809Y-84213571D02*
X-11357142Y-84213571D01*
X-11357142Y-84737380D02*
X-11357142Y-83737380D01*
X-10880952Y-83737380D01*
X-10642857Y-83737380D02*
X-10071428Y-83737380D01*
X-10357142Y-84737380D02*
X-10357142Y-83737380D01*
X-9785714Y-83832619D02*
X-9738095Y-83785000D01*
X-9642857Y-83737380D01*
X-9404761Y-83737380D01*
X-9309523Y-83785000D01*
X-9261904Y-83832619D01*
X-9214285Y-83927857D01*
X-9214285Y-84023095D01*
X-9261904Y-84165952D01*
X-9833333Y-84737380D01*
X-9214285Y-84737380D01*
X-8833333Y-83832619D02*
X-8785714Y-83785000D01*
X-8690476Y-83737380D01*
X-8452380Y-83737380D01*
X-8357142Y-83785000D01*
X-8309523Y-83832619D01*
X-8261904Y-83927857D01*
X-8261904Y-84023095D01*
X-8309523Y-84165952D01*
X-8880952Y-84737380D01*
X-8261904Y-84737380D01*
X-7928571Y-83737380D02*
X-7309523Y-83737380D01*
X-7642857Y-84118333D01*
X-7500000Y-84118333D01*
X-7404761Y-84165952D01*
X-7357142Y-84213571D01*
X-7309523Y-84308809D01*
X-7309523Y-84546904D01*
X-7357142Y-84642142D01*
X-7404761Y-84689761D01*
X-7500000Y-84737380D01*
X-7785714Y-84737380D01*
X-7880952Y-84689761D01*
X-7928571Y-84642142D01*
X-6928571Y-83832619D02*
X-6880952Y-83785000D01*
X-6785714Y-83737380D01*
X-6547619Y-83737380D01*
X-6452380Y-83785000D01*
X-6404761Y-83832619D01*
X-6357142Y-83927857D01*
X-6357142Y-84023095D01*
X-6404761Y-84165952D01*
X-6976190Y-84737380D01*
X-6357142Y-84737380D01*
X-5928571Y-84737380D02*
X-5928571Y-83737380D01*
X-5928571Y-84213571D02*
X-5357142Y-84213571D01*
X-5357142Y-84737380D02*
X-5357142Y-83737380D01*
X-4404761Y-84737380D02*
X-4880952Y-84737380D01*
X-4880952Y-83737380D01*
X-2880952Y-84737380D02*
X-2880952Y-83737380D01*
X-2880952Y-84689761D02*
X-2976190Y-84737380D01*
X-3166666Y-84737380D01*
X-3261904Y-84689761D01*
X-3309523Y-84642142D01*
X-3357142Y-84546904D01*
X-3357142Y-84261190D01*
X-3309523Y-84165952D01*
X-3261904Y-84118333D01*
X-3166666Y-84070714D01*
X-2976190Y-84070714D01*
X-2880952Y-84118333D01*
X-2023809Y-84689761D02*
X-2119047Y-84737380D01*
X-2309523Y-84737380D01*
X-2404761Y-84689761D01*
X-2452380Y-84594523D01*
X-2452380Y-84213571D01*
X-2404761Y-84118333D01*
X-2309523Y-84070714D01*
X-2119047Y-84070714D01*
X-2023809Y-84118333D01*
X-1976190Y-84213571D01*
X-1976190Y-84308809D01*
X-2452380Y-84404047D01*
X-1642857Y-84070714D02*
X-1404761Y-84737380D01*
X-1166666Y-84070714D01*
X-404761Y-84689761D02*
X-500000Y-84737380D01*
X-690476Y-84737380D01*
X-785714Y-84689761D01*
X-833333Y-84594523D01*
X-833333Y-84213571D01*
X-785714Y-84118333D01*
X-690476Y-84070714D01*
X-500000Y-84070714D01*
X-404761Y-84118333D01*
X-357142Y-84213571D01*
X-357142Y-84308809D01*
X-833333Y-84404047D01*
X214285Y-84737380D02*
X119047Y-84689761D01*
X71428Y-84594523D01*
X71428Y-83737380D01*
X738095Y-84737380D02*
X642857Y-84689761D01*
X595238Y-84642142D01*
X547619Y-84546904D01*
X547619Y-84261190D01*
X595238Y-84165952D01*
X642857Y-84118333D01*
X738095Y-84070714D01*
X880952Y-84070714D01*
X976190Y-84118333D01*
X1023809Y-84165952D01*
X1071428Y-84261190D01*
X1071428Y-84546904D01*
X1023809Y-84642142D01*
X976190Y-84689761D01*
X880952Y-84737380D01*
X738095Y-84737380D01*
X1499999Y-84070714D02*
X1499999Y-85070714D01*
X1499999Y-84118333D02*
X1595238Y-84070714D01*
X1785714Y-84070714D01*
X1880952Y-84118333D01*
X1928571Y-84165952D01*
X1976190Y-84261190D01*
X1976190Y-84546904D01*
X1928571Y-84642142D01*
X1880952Y-84689761D01*
X1785714Y-84737380D01*
X1595238Y-84737380D01*
X1499999Y-84689761D01*
X2404761Y-84737380D02*
X2404761Y-84070714D01*
X2404761Y-84165952D02*
X2452380Y-84118333D01*
X2547619Y-84070714D01*
X2690476Y-84070714D01*
X2785714Y-84118333D01*
X2833333Y-84213571D01*
X2833333Y-84737380D01*
X2833333Y-84213571D02*
X2880952Y-84118333D01*
X2976190Y-84070714D01*
X3119047Y-84070714D01*
X3214285Y-84118333D01*
X3261904Y-84213571D01*
X3261904Y-84737380D01*
X4119047Y-84689761D02*
X4023809Y-84737380D01*
X3833333Y-84737380D01*
X3738095Y-84689761D01*
X3690476Y-84594523D01*
X3690476Y-84213571D01*
X3738095Y-84118333D01*
X3833333Y-84070714D01*
X4023809Y-84070714D01*
X4119047Y-84118333D01*
X4166666Y-84213571D01*
X4166666Y-84308809D01*
X3690476Y-84404047D01*
X4595238Y-84070714D02*
X4595238Y-84737380D01*
X4595238Y-84165952D02*
X4642857Y-84118333D01*
X4738095Y-84070714D01*
X4880952Y-84070714D01*
X4976190Y-84118333D01*
X5023809Y-84213571D01*
X5023809Y-84737380D01*
X5357142Y-84070714D02*
X5738095Y-84070714D01*
X5499999Y-83737380D02*
X5499999Y-84594523D01*
X5547619Y-84689761D01*
X5642857Y-84737380D01*
X5738095Y-84737380D01*
X6833333Y-84737380D02*
X6833333Y-83737380D01*
X6833333Y-84118333D02*
X6928571Y-84070714D01*
X7119047Y-84070714D01*
X7214285Y-84118333D01*
X7261904Y-84165952D01*
X7309523Y-84261190D01*
X7309523Y-84546904D01*
X7261904Y-84642142D01*
X7214285Y-84689761D01*
X7119047Y-84737380D01*
X6928571Y-84737380D01*
X6833333Y-84689761D01*
X7880952Y-84737380D02*
X7785714Y-84689761D01*
X7738095Y-84642142D01*
X7690476Y-84546904D01*
X7690476Y-84261190D01*
X7738095Y-84165952D01*
X7785714Y-84118333D01*
X7880952Y-84070714D01*
X8023809Y-84070714D01*
X8119047Y-84118333D01*
X8166666Y-84165952D01*
X8214285Y-84261190D01*
X8214285Y-84546904D01*
X8166666Y-84642142D01*
X8119047Y-84689761D01*
X8023809Y-84737380D01*
X7880952Y-84737380D01*
X9071428Y-84737380D02*
X9071428Y-84213571D01*
X9023809Y-84118333D01*
X8928571Y-84070714D01*
X8738095Y-84070714D01*
X8642857Y-84118333D01*
X9071428Y-84689761D02*
X8976190Y-84737380D01*
X8738095Y-84737380D01*
X8642857Y-84689761D01*
X8595238Y-84594523D01*
X8595238Y-84499285D01*
X8642857Y-84404047D01*
X8738095Y-84356428D01*
X8976190Y-84356428D01*
X9071428Y-84308809D01*
X9547619Y-84737380D02*
X9547619Y-84070714D01*
X9547619Y-84261190D02*
X9595238Y-84165952D01*
X9642857Y-84118333D01*
X9738095Y-84070714D01*
X9833333Y-84070714D01*
X10595238Y-84737380D02*
X10595238Y-83737380D01*
X10595238Y-84689761D02*
X10499999Y-84737380D01*
X10309523Y-84737380D01*
X10214285Y-84689761D01*
X10166666Y-84642142D01*
X10119047Y-84546904D01*
X10119047Y-84261190D01*
X10166666Y-84165952D01*
X10214285Y-84118333D01*
X10309523Y-84070714D01*
X10499999Y-84070714D01*
X10595238Y-84118333D01*
X-7095238Y-85680714D02*
X-6714285Y-85680714D01*
X-6952380Y-85347380D02*
X-6952380Y-86204523D01*
X-6904761Y-86299761D01*
X-6809523Y-86347380D01*
X-6714285Y-86347380D01*
X-6238095Y-86347380D02*
X-6333333Y-86299761D01*
X-6380952Y-86252142D01*
X-6428571Y-86156904D01*
X-6428571Y-85871190D01*
X-6380952Y-85775952D01*
X-6333333Y-85728333D01*
X-6238095Y-85680714D01*
X-6095238Y-85680714D01*
X-6000000Y-85728333D01*
X-5952380Y-85775952D01*
X-5904761Y-85871190D01*
X-5904761Y-86156904D01*
X-5952380Y-86252142D01*
X-6000000Y-86299761D01*
X-6095238Y-86347380D01*
X-6238095Y-86347380D01*
X-4714285Y-86347380D02*
X-4714285Y-85680714D01*
X-4714285Y-85347380D02*
X-4761904Y-85395000D01*
X-4714285Y-85442619D01*
X-4666666Y-85395000D01*
X-4714285Y-85347380D01*
X-4714285Y-85442619D01*
X-3666666Y-86252142D02*
X-3714285Y-86299761D01*
X-3857142Y-86347380D01*
X-3952380Y-86347380D01*
X-4095238Y-86299761D01*
X-4190476Y-86204523D01*
X-4238095Y-86109285D01*
X-4285714Y-85918809D01*
X-4285714Y-85775952D01*
X-4238095Y-85585476D01*
X-4190476Y-85490238D01*
X-4095238Y-85395000D01*
X-3952380Y-85347380D01*
X-3857142Y-85347380D01*
X-3714285Y-85395000D01*
X-3666666Y-85442619D01*
X-3238095Y-85823571D02*
X-2904761Y-85823571D01*
X-2761904Y-86347380D02*
X-3238095Y-86347380D01*
X-3238095Y-85347380D01*
X-2761904Y-85347380D01*
X-2333333Y-85680714D02*
X-2333333Y-86680714D01*
X-2333333Y-85728333D02*
X-2238095Y-85680714D01*
X-2047619Y-85680714D01*
X-1952380Y-85728333D01*
X-1904761Y-85775952D01*
X-1857142Y-85871190D01*
X-1857142Y-86156904D01*
X-1904761Y-86252142D01*
X-1952380Y-86299761D01*
X-2047619Y-86347380D01*
X-2238095Y-86347380D01*
X-2333333Y-86299761D01*
X-1428571Y-86347380D02*
X-1428571Y-85680714D01*
X-1428571Y-85871190D02*
X-1380952Y-85775952D01*
X-1333333Y-85728333D01*
X-1238095Y-85680714D01*
X-1142857Y-85680714D01*
X-666666Y-86347380D02*
X-761904Y-86299761D01*
X-809523Y-86252142D01*
X-857142Y-86156904D01*
X-857142Y-85871190D01*
X-809523Y-85775952D01*
X-761904Y-85728333D01*
X-666666Y-85680714D01*
X-523809Y-85680714D01*
X-428571Y-85728333D01*
X-380952Y-85775952D01*
X-333333Y-85871190D01*
X-333333Y-86156904D01*
X-380952Y-86252142D01*
X-428571Y-86299761D01*
X-523809Y-86347380D01*
X-666666Y-86347380D01*
X523809Y-85680714D02*
X523809Y-86490238D01*
X476190Y-86585476D01*
X428571Y-86633095D01*
X333333Y-86680714D01*
X190476Y-86680714D01*
X95238Y-86633095D01*
X523809Y-86299761D02*
X428571Y-86347380D01*
X238095Y-86347380D01*
X142857Y-86299761D01*
X95238Y-86252142D01*
X47619Y-86156904D01*
X47619Y-85871190D01*
X95238Y-85775952D01*
X142857Y-85728333D01*
X238095Y-85680714D01*
X428571Y-85680714D01*
X523809Y-85728333D01*
X2190476Y-86347380D02*
X2190476Y-85823571D01*
X2142857Y-85728333D01*
X2047619Y-85680714D01*
X1857142Y-85680714D01*
X1761904Y-85728333D01*
X2190476Y-86299761D02*
X2095238Y-86347380D01*
X1857142Y-86347380D01*
X1761904Y-86299761D01*
X1714285Y-86204523D01*
X1714285Y-86109285D01*
X1761904Y-86014047D01*
X1857142Y-85966428D01*
X2095238Y-85966428D01*
X2190476Y-85918809D01*
X3095238Y-86347380D02*
X3095238Y-85347380D01*
X3095238Y-86299761D02*
X2999999Y-86347380D01*
X2809523Y-86347380D01*
X2714285Y-86299761D01*
X2666666Y-86252142D01*
X2619047Y-86156904D01*
X2619047Y-85871190D01*
X2666666Y-85775952D01*
X2714285Y-85728333D01*
X2809523Y-85680714D01*
X2999999Y-85680714D01*
X3095238Y-85728333D01*
X3999999Y-86347380D02*
X3999999Y-85823571D01*
X3952380Y-85728333D01*
X3857142Y-85680714D01*
X3666666Y-85680714D01*
X3571428Y-85728333D01*
X3999999Y-86299761D02*
X3904761Y-86347380D01*
X3666666Y-86347380D01*
X3571428Y-86299761D01*
X3523809Y-86204523D01*
X3523809Y-86109285D01*
X3571428Y-86014047D01*
X3666666Y-85966428D01*
X3904761Y-85966428D01*
X3999999Y-85918809D01*
X4476190Y-85680714D02*
X4476190Y-86680714D01*
X4476190Y-85728333D02*
X4571428Y-85680714D01*
X4761904Y-85680714D01*
X4857142Y-85728333D01*
X4904761Y-85775952D01*
X4952380Y-85871190D01*
X4952380Y-86156904D01*
X4904761Y-86252142D01*
X4857142Y-86299761D01*
X4761904Y-86347380D01*
X4571428Y-86347380D01*
X4476190Y-86299761D01*
X5238095Y-85680714D02*
X5619047Y-85680714D01*
X5380952Y-85347380D02*
X5380952Y-86204523D01*
X5428571Y-86299761D01*
X5523809Y-86347380D01*
X5619047Y-86347380D01*
X6333333Y-86299761D02*
X6238095Y-86347380D01*
X6047619Y-86347380D01*
X5952380Y-86299761D01*
X5904761Y-86204523D01*
X5904761Y-85823571D01*
X5952380Y-85728333D01*
X6047619Y-85680714D01*
X6238095Y-85680714D01*
X6333333Y-85728333D01*
X6380952Y-85823571D01*
X6380952Y-85918809D01*
X5904761Y-86014047D01*
X6809523Y-86347380D02*
X6809523Y-85680714D01*
X6809523Y-85871190D02*
X6857142Y-85775952D01*
X6904761Y-85728333D01*
X6999999Y-85680714D01*
X7095238Y-85680714D01*
X-4147619Y-103703333D02*
X-3433333Y-103703333D01*
X-3290476Y-103750952D01*
X-3195238Y-103846190D01*
X-3147619Y-103989047D01*
X-3147619Y-104084285D01*
X-3147619Y-103227142D02*
X-4147619Y-103227142D01*
X-4147619Y-102846190D01*
X-4100000Y-102750952D01*
X-4052380Y-102703333D01*
X-3957142Y-102655714D01*
X-3814285Y-102655714D01*
X-3719047Y-102703333D01*
X-3671428Y-102750952D01*
X-3623809Y-102846190D01*
X-3623809Y-103227142D01*
X-3147619Y-101703333D02*
X-3147619Y-102274761D01*
X-3147619Y-101989047D02*
X-4147619Y-101989047D01*
X-4004761Y-102084285D01*
X-3909523Y-102179523D01*
X-3861904Y-102274761D01*
X10632380Y-126436333D02*
X11346666Y-126436333D01*
X11489523Y-126483952D01*
X11584761Y-126579190D01*
X11632380Y-126722047D01*
X11632380Y-126817285D01*
X11632380Y-125436333D02*
X11632380Y-126007761D01*
X11632380Y-125722047D02*
X10632380Y-125722047D01*
X10775238Y-125817285D01*
X10870476Y-125912523D01*
X10918095Y-126007761D01*
D11*
X-1270000Y-104200000D02*
X-2600000Y-104200000D01*
X2600000Y-104200000D02*
X2600000Y-101540000D01*
X0Y-104200000D02*
X2600000Y-104200000D01*
X0Y-104200000D02*
X0Y-101540000D01*
X-2600000Y-104200000D02*
X-2600000Y-102870000D01*
X0Y-101540000D02*
X2600000Y-101540000D01*
X10290000Y-133278000D02*
X-10290000Y-133278000D01*
X-2050000Y-124158000D02*
X-2050000Y-133278000D01*
X2050000Y-124158000D02*
X2050000Y-133278000D01*
X5580000Y-117538000D02*
X4580000Y-117538000D01*
X10290000Y-124158000D02*
X10290000Y-133278000D01*
X4580000Y-117538000D02*
X5080000Y-118538000D01*
X-10290000Y-133278000D02*
X-10290000Y-124158000D01*
X-10290000Y-124158000D02*
X10290000Y-124158000D01*
X5080000Y-118538000D02*
X5580000Y-117538000D01*
%LPC*%
D12*
X-1270000Y-102870000D03*
D13*
X1270000Y-102870000D03*
D14*
X-5080000Y-122428000D03*
X-5080000Y-119888000D03*
X-2540000Y-122428000D03*
X-2540000Y-119888000D03*
X0Y-122428000D03*
X0Y-119888000D03*
X2540000Y-122428000D03*
X2540000Y-119888000D03*
X5080000Y-122428000D03*
D15*
X5080000Y-119888000D03*
D12*
X16060000Y-130810000D03*
D13*
X16060000Y-128270000D03*
X16060000Y-125730000D03*
X16060000Y-123190000D03*
X16060000Y-120650000D03*
X16060000Y-118110000D03*
X16060000Y-115570000D03*
X16060000Y-113030000D03*
X16060000Y-110490000D03*
X16060000Y-107950000D03*
X16060000Y-105410000D03*
X16060000Y-102870000D03*
X16060000Y-100330000D03*
X16060000Y-97790000D03*
X16060000Y-95250000D03*
X16060000Y-92710000D03*
X16060000Y-90170000D03*
X16060000Y-87630000D03*
X16060000Y-85090000D03*
D12*
X-16060000Y-85090000D03*
D13*
X-16060000Y-87630000D03*
X-16060000Y-90170000D03*
X-16060000Y-92710000D03*
X-16060000Y-95250000D03*
X-16060000Y-97790000D03*
X-16060000Y-100330000D03*
X-16060000Y-102870000D03*
X-16060000Y-105410000D03*
X-16060000Y-107950000D03*
X-16060000Y-110490000D03*
X-16060000Y-113030000D03*
X-16060000Y-115570000D03*
X-16060000Y-118110000D03*
X-16060000Y-120650000D03*
X-16060000Y-123190000D03*
X-16060000Y-125730000D03*
X-16060000Y-128270000D03*
X-16060000Y-130810000D03*
M02*
