G04 #@! TF.GenerationSoftware,KiCad,Pcbnew,(6.0.9)*
G04 #@! TF.CreationDate,2022-11-20T19:10:43+01:00*
G04 #@! TF.ProjectId,FT2232HL development board to iceprog,46543232-3332-4484-9c20-646576656c6f,rev?*
G04 #@! TF.SameCoordinates,Original*
G04 #@! TF.FileFunction,Soldermask,Top*
G04 #@! TF.FilePolarity,Negative*
%FSLAX46Y46*%
G04 Gerber Fmt 4.6, Leading zero omitted, Abs format (unit mm)*
G04 Created by KiCad (PCBNEW (6.0.9)) date 2022-11-20 19:10:43*
%MOMM*%
%LPD*%
G01*
G04 APERTURE LIST*
G04 Aperture macros list*
%AMRoundRect*
0 Rectangle with rounded corners*
0 $1 Rounding radius*
0 $2 $3 $4 $5 $6 $7 $8 $9 X,Y pos of 4 corners*
0 Add a 4 corners polygon primitive as box body*
4,1,4,$2,$3,$4,$5,$6,$7,$8,$9,$2,$3,0*
0 Add four circle primitives for the rounded corners*
1,1,$1+$1,$2,$3*
1,1,$1+$1,$4,$5*
1,1,$1+$1,$6,$7*
1,1,$1+$1,$8,$9*
0 Add four rect primitives between the rounded corners*
20,1,$1+$1,$2,$3,$4,$5,0*
20,1,$1+$1,$4,$5,$6,$7,0*
20,1,$1+$1,$6,$7,$8,$9,0*
20,1,$1+$1,$8,$9,$2,$3,0*%
G04 Aperture macros list end*
%ADD10R,1.700000X1.700000*%
%ADD11O,1.700000X1.700000*%
%ADD12C,1.700000*%
%ADD13RoundRect,0.250000X-0.600000X0.600000X-0.600000X-0.600000X0.600000X-0.600000X0.600000X0.600000X0*%
G04 APERTURE END LIST*
D10*
X-1270000Y-102870000D03*
D11*
X1270000Y-102870000D03*
D12*
X-5080000Y-122428000D03*
X-5080000Y-119888000D03*
X-2540000Y-122428000D03*
X-2540000Y-119888000D03*
X0Y-122428000D03*
X0Y-119888000D03*
X2540000Y-122428000D03*
X2540000Y-119888000D03*
X5080000Y-122428000D03*
D13*
X5080000Y-119888000D03*
D10*
X16060000Y-130810000D03*
D11*
X16060000Y-128270000D03*
X16060000Y-125730000D03*
X16060000Y-123190000D03*
X16060000Y-120650000D03*
X16060000Y-118110000D03*
X16060000Y-115570000D03*
X16060000Y-113030000D03*
X16060000Y-110490000D03*
X16060000Y-107950000D03*
X16060000Y-105410000D03*
X16060000Y-102870000D03*
X16060000Y-100330000D03*
X16060000Y-97790000D03*
X16060000Y-95250000D03*
X16060000Y-92710000D03*
X16060000Y-90170000D03*
X16060000Y-87630000D03*
X16060000Y-85090000D03*
D10*
X-16060000Y-85090000D03*
D11*
X-16060000Y-87630000D03*
X-16060000Y-90170000D03*
X-16060000Y-92710000D03*
X-16060000Y-95250000D03*
X-16060000Y-97790000D03*
X-16060000Y-100330000D03*
X-16060000Y-102870000D03*
X-16060000Y-105410000D03*
X-16060000Y-107950000D03*
X-16060000Y-110490000D03*
X-16060000Y-113030000D03*
X-16060000Y-115570000D03*
X-16060000Y-118110000D03*
X-16060000Y-120650000D03*
X-16060000Y-123190000D03*
X-16060000Y-125730000D03*
X-16060000Y-128270000D03*
X-16060000Y-130810000D03*
M02*
