G04 #@! TF.GenerationSoftware,KiCad,Pcbnew,(6.0.9)*
G04 #@! TF.CreationDate,2022-12-09T18:34:29+01:00*
G04 #@! TF.ProjectId,FT2232HL development board to iceprog,46543232-3332-4484-9c20-646576656c6f,1*
G04 #@! TF.SameCoordinates,Original*
G04 #@! TF.FileFunction,Copper,L1,Top*
G04 #@! TF.FilePolarity,Positive*
%FSLAX46Y46*%
G04 Gerber Fmt 4.6, Leading zero omitted, Abs format (unit mm)*
G04 Created by KiCad (PCBNEW (6.0.9)) date 2022-12-09 18:34:29*
%MOMM*%
%LPD*%
G01*
G04 APERTURE LIST*
G04 Aperture macros list*
%AMRoundRect*
0 Rectangle with rounded corners*
0 $1 Rounding radius*
0 $2 $3 $4 $5 $6 $7 $8 $9 X,Y pos of 4 corners*
0 Add a 4 corners polygon primitive as box body*
4,1,4,$2,$3,$4,$5,$6,$7,$8,$9,$2,$3,0*
0 Add four circle primitives for the rounded corners*
1,1,$1+$1,$2,$3*
1,1,$1+$1,$4,$5*
1,1,$1+$1,$6,$7*
1,1,$1+$1,$8,$9*
0 Add four rect primitives between the rounded corners*
20,1,$1+$1,$2,$3,$4,$5,0*
20,1,$1+$1,$4,$5,$6,$7,0*
20,1,$1+$1,$6,$7,$8,$9,0*
20,1,$1+$1,$8,$9,$2,$3,0*%
G04 Aperture macros list end*
G04 #@! TA.AperFunction,ComponentPad*
%ADD10RoundRect,0.250000X-0.600000X0.600000X-0.600000X-0.600000X0.600000X-0.600000X0.600000X0.600000X0*%
G04 #@! TD*
G04 #@! TA.AperFunction,ComponentPad*
%ADD11C,1.700000*%
G04 #@! TD*
G04 #@! TA.AperFunction,ComponentPad*
%ADD12R,1.700000X1.700000*%
G04 #@! TD*
G04 #@! TA.AperFunction,ComponentPad*
%ADD13O,1.700000X1.700000*%
G04 #@! TD*
G04 #@! TA.AperFunction,ViaPad*
%ADD14C,1.600000*%
G04 #@! TD*
G04 #@! TA.AperFunction,ViaPad*
%ADD15C,0.800000*%
G04 #@! TD*
G04 #@! TA.AperFunction,Conductor*
%ADD16C,1.000000*%
G04 #@! TD*
G04 APERTURE END LIST*
D10*
X5080000Y-119888000D03*
D11*
X5080000Y-122428000D03*
X2540000Y-119888000D03*
X2540000Y-122428000D03*
X0Y-119888000D03*
X0Y-122428000D03*
X-2540000Y-119888000D03*
X-2540000Y-122428000D03*
X-5080000Y-119888000D03*
X-5080000Y-122428000D03*
D12*
X-1270000Y-102870000D03*
D13*
X1270000Y-102870000D03*
D12*
X-16060000Y-85090000D03*
D13*
X-16060000Y-87630000D03*
X-16060000Y-90170000D03*
X-16060000Y-92710000D03*
X-16060000Y-95250000D03*
X-16060000Y-97790000D03*
X-16060000Y-100330000D03*
X-16060000Y-102870000D03*
X-16060000Y-105410000D03*
X-16060000Y-107950000D03*
X-16060000Y-110490000D03*
X-16060000Y-113030000D03*
X-16060000Y-115570000D03*
X-16060000Y-118110000D03*
X-16060000Y-120650000D03*
X-16060000Y-123190000D03*
X-16060000Y-125730000D03*
X-16060000Y-128270000D03*
X-16060000Y-130810000D03*
D12*
X16060000Y-130810000D03*
D13*
X16060000Y-128270000D03*
X16060000Y-125730000D03*
X16060000Y-123190000D03*
X16060000Y-120650000D03*
X16060000Y-118110000D03*
X16060000Y-115570000D03*
X16060000Y-113030000D03*
X16060000Y-110490000D03*
X16060000Y-107950000D03*
X16060000Y-105410000D03*
X16060000Y-102870000D03*
X16060000Y-100330000D03*
X16060000Y-97790000D03*
X16060000Y-95250000D03*
X16060000Y-92710000D03*
X16060000Y-90170000D03*
X16060000Y-87630000D03*
X16060000Y-85090000D03*
D14*
X-2540000Y-97917000D03*
D15*
X-1905000Y-105918000D03*
X-1524000Y-124968000D03*
X-13081000Y-100711000D03*
X-7874000Y-100457000D03*
X-3937000Y-94234000D03*
X-7366000Y-123698000D03*
X-12827000Y-105410000D03*
X2159000Y-113538000D03*
X-10795000Y-93980000D03*
X-7366000Y-118110000D03*
D14*
X-6096000Y-93980000D03*
X-8890000Y-104775000D03*
X0Y-107950000D03*
D16*
X-16060000Y-97790000D02*
X-2667000Y-97790000D01*
X-2667000Y-97790000D02*
X-2540000Y-97917000D01*
X-7366000Y-92710000D02*
X-6096000Y-93980000D01*
X-16060000Y-92710000D02*
X-7366000Y-92710000D01*
X-10795000Y-102870000D02*
X-8890000Y-104775000D01*
X-16060000Y-102870000D02*
X-10795000Y-102870000D01*
X0Y-107950000D02*
X-16060000Y-107950000D01*
G04 #@! TA.AperFunction,Conductor*
G36*
X18483621Y-82570502D02*
G01*
X18530114Y-82624158D01*
X18541500Y-82676500D01*
X18541500Y-133223500D01*
X18521498Y-133291621D01*
X18467842Y-133338114D01*
X18415500Y-133349500D01*
X-18415500Y-133349500D01*
X-18483621Y-133329498D01*
X-18530114Y-133275842D01*
X-18541500Y-133223500D01*
X-18541500Y-130780964D01*
X-17168852Y-130780964D01*
X-17155576Y-130983522D01*
X-17154155Y-130989118D01*
X-17154154Y-130989123D01*
X-17133881Y-131068945D01*
X-17105608Y-131180269D01*
X-17103191Y-131185512D01*
X-17065990Y-131266208D01*
X-17020623Y-131364616D01*
X-16903467Y-131530389D01*
X-16758062Y-131672035D01*
X-16589280Y-131784812D01*
X-16583977Y-131787090D01*
X-16583974Y-131787092D01*
X-16452717Y-131843484D01*
X-16402772Y-131864942D01*
X-16329756Y-131881464D01*
X-16210421Y-131908467D01*
X-16210416Y-131908468D01*
X-16204784Y-131909742D01*
X-16199013Y-131909969D01*
X-16199011Y-131909969D01*
X-16139244Y-131912317D01*
X-16001947Y-131917712D01*
X-15894652Y-131902155D01*
X-15806769Y-131889413D01*
X-15806764Y-131889412D01*
X-15801055Y-131888584D01*
X-15795591Y-131886729D01*
X-15795586Y-131886728D01*
X-15614307Y-131825192D01*
X-15614302Y-131825190D01*
X-15608835Y-131823334D01*
X-15431724Y-131724147D01*
X-15392031Y-131691135D01*
X-15280087Y-131598031D01*
X-15275655Y-131594345D01*
X-15145853Y-131438276D01*
X-15046666Y-131261165D01*
X-15044810Y-131255698D01*
X-15044808Y-131255693D01*
X-14983272Y-131074414D01*
X-14983271Y-131074409D01*
X-14981416Y-131068945D01*
X-14980588Y-131063236D01*
X-14980587Y-131063231D01*
X-14952821Y-130871727D01*
X-14952288Y-130868053D01*
X-14950768Y-130810000D01*
X-14969342Y-130607859D01*
X-14970910Y-130602299D01*
X-15022875Y-130418046D01*
X-15022876Y-130418044D01*
X-15024443Y-130412487D01*
X-15035022Y-130391033D01*
X-15111669Y-130235609D01*
X-15114224Y-130230428D01*
X-15235680Y-130067779D01*
X-15379391Y-129934933D01*
X14955500Y-129934933D01*
X14955501Y-131685066D01*
X14970266Y-131759301D01*
X14977161Y-131769620D01*
X14977162Y-131769622D01*
X15017516Y-131830015D01*
X15026516Y-131843484D01*
X15110699Y-131899734D01*
X15184933Y-131914500D01*
X16059858Y-131914500D01*
X16935066Y-131914499D01*
X16970818Y-131907388D01*
X16997126Y-131902156D01*
X16997128Y-131902155D01*
X17009301Y-131899734D01*
X17019621Y-131892839D01*
X17019622Y-131892838D01*
X17083168Y-131850377D01*
X17093484Y-131843484D01*
X17149734Y-131759301D01*
X17164500Y-131685067D01*
X17164499Y-129934934D01*
X17149734Y-129860699D01*
X17123654Y-129821667D01*
X17100377Y-129786832D01*
X17093484Y-129776516D01*
X17009301Y-129720266D01*
X16935067Y-129705500D01*
X16060142Y-129705500D01*
X15184934Y-129705501D01*
X15149182Y-129712612D01*
X15122874Y-129717844D01*
X15122872Y-129717845D01*
X15110699Y-129720266D01*
X15100379Y-129727161D01*
X15100378Y-129727162D01*
X15039985Y-129767516D01*
X15026516Y-129776516D01*
X14970266Y-129860699D01*
X14955500Y-129934933D01*
X-15379391Y-129934933D01*
X-15384742Y-129929987D01*
X-15389625Y-129926906D01*
X-15389629Y-129926903D01*
X-15551536Y-129824748D01*
X-15556419Y-129821667D01*
X-15744961Y-129746446D01*
X-15750621Y-129745320D01*
X-15750625Y-129745319D01*
X-15938387Y-129707971D01*
X-15938390Y-129707971D01*
X-15944054Y-129706844D01*
X-15949829Y-129706768D01*
X-15949833Y-129706768D01*
X-16051207Y-129705441D01*
X-16147029Y-129704187D01*
X-16152726Y-129705166D01*
X-16152727Y-129705166D01*
X-16240603Y-129720266D01*
X-16347090Y-129738564D01*
X-16537537Y-129808824D01*
X-16711990Y-129912612D01*
X-16716330Y-129916418D01*
X-16716334Y-129916421D01*
X-16860267Y-130042648D01*
X-16864608Y-130046455D01*
X-16990280Y-130205869D01*
X-16992969Y-130210980D01*
X-16992971Y-130210983D01*
X-17005927Y-130235609D01*
X-17084797Y-130385515D01*
X-17144993Y-130579378D01*
X-17168852Y-130780964D01*
X-18541500Y-130780964D01*
X-18541500Y-128240964D01*
X-17168852Y-128240964D01*
X-17155576Y-128443522D01*
X-17154155Y-128449118D01*
X-17154154Y-128449123D01*
X-17133881Y-128528945D01*
X-17105608Y-128640269D01*
X-17103191Y-128645512D01*
X-17065990Y-128726208D01*
X-17020623Y-128824616D01*
X-16903467Y-128990389D01*
X-16758062Y-129132035D01*
X-16589280Y-129244812D01*
X-16583977Y-129247090D01*
X-16583974Y-129247092D01*
X-16495293Y-129285192D01*
X-16402772Y-129324942D01*
X-16329756Y-129341464D01*
X-16210421Y-129368467D01*
X-16210416Y-129368468D01*
X-16204784Y-129369742D01*
X-16199013Y-129369969D01*
X-16199011Y-129369969D01*
X-16139244Y-129372317D01*
X-16001947Y-129377712D01*
X-15901501Y-129363148D01*
X-15806769Y-129349413D01*
X-15806764Y-129349412D01*
X-15801055Y-129348584D01*
X-15795591Y-129346729D01*
X-15795586Y-129346728D01*
X-15614307Y-129285192D01*
X-15614302Y-129285190D01*
X-15608835Y-129283334D01*
X-15431724Y-129184147D01*
X-15369066Y-129132035D01*
X-15280087Y-129058031D01*
X-15275655Y-129054345D01*
X-15145853Y-128898276D01*
X-15046666Y-128721165D01*
X-15044810Y-128715698D01*
X-15044808Y-128715693D01*
X-14983272Y-128534414D01*
X-14983271Y-128534409D01*
X-14981416Y-128528945D01*
X-14980588Y-128523236D01*
X-14980587Y-128523231D01*
X-14952821Y-128331727D01*
X-14952288Y-128328053D01*
X-14950768Y-128270000D01*
X-14953436Y-128240964D01*
X14951148Y-128240964D01*
X14964424Y-128443522D01*
X14965845Y-128449118D01*
X14965846Y-128449123D01*
X14986119Y-128528945D01*
X15014392Y-128640269D01*
X15016809Y-128645512D01*
X15054010Y-128726208D01*
X15099377Y-128824616D01*
X15216533Y-128990389D01*
X15361938Y-129132035D01*
X15530720Y-129244812D01*
X15536023Y-129247090D01*
X15536026Y-129247092D01*
X15624707Y-129285192D01*
X15717228Y-129324942D01*
X15790244Y-129341464D01*
X15909579Y-129368467D01*
X15909584Y-129368468D01*
X15915216Y-129369742D01*
X15920987Y-129369969D01*
X15920989Y-129369969D01*
X15980756Y-129372317D01*
X16118053Y-129377712D01*
X16218499Y-129363148D01*
X16313231Y-129349413D01*
X16313236Y-129349412D01*
X16318945Y-129348584D01*
X16324409Y-129346729D01*
X16324414Y-129346728D01*
X16505693Y-129285192D01*
X16505698Y-129285190D01*
X16511165Y-129283334D01*
X16688276Y-129184147D01*
X16750934Y-129132035D01*
X16839913Y-129058031D01*
X16844345Y-129054345D01*
X16974147Y-128898276D01*
X17073334Y-128721165D01*
X17075190Y-128715698D01*
X17075192Y-128715693D01*
X17136728Y-128534414D01*
X17136729Y-128534409D01*
X17138584Y-128528945D01*
X17139412Y-128523236D01*
X17139413Y-128523231D01*
X17167179Y-128331727D01*
X17167712Y-128328053D01*
X17169232Y-128270000D01*
X17150658Y-128067859D01*
X17149090Y-128062299D01*
X17097125Y-127878046D01*
X17097124Y-127878044D01*
X17095557Y-127872487D01*
X17084978Y-127851033D01*
X17008331Y-127695609D01*
X17005776Y-127690428D01*
X16884320Y-127527779D01*
X16735258Y-127389987D01*
X16730375Y-127386906D01*
X16730371Y-127386903D01*
X16568464Y-127284748D01*
X16563581Y-127281667D01*
X16375039Y-127206446D01*
X16369379Y-127205320D01*
X16369375Y-127205319D01*
X16181613Y-127167971D01*
X16181610Y-127167971D01*
X16175946Y-127166844D01*
X16170171Y-127166768D01*
X16170167Y-127166768D01*
X16068793Y-127165441D01*
X15972971Y-127164187D01*
X15967274Y-127165166D01*
X15967273Y-127165166D01*
X15778607Y-127197585D01*
X15772910Y-127198564D01*
X15582463Y-127268824D01*
X15408010Y-127372612D01*
X15403670Y-127376418D01*
X15403666Y-127376421D01*
X15383723Y-127393911D01*
X15255392Y-127506455D01*
X15129720Y-127665869D01*
X15127031Y-127670980D01*
X15127029Y-127670983D01*
X15114073Y-127695609D01*
X15035203Y-127845515D01*
X14975007Y-128039378D01*
X14951148Y-128240964D01*
X-14953436Y-128240964D01*
X-14969342Y-128067859D01*
X-14970910Y-128062299D01*
X-15022875Y-127878046D01*
X-15022876Y-127878044D01*
X-15024443Y-127872487D01*
X-15035022Y-127851033D01*
X-15111669Y-127695609D01*
X-15114224Y-127690428D01*
X-15235680Y-127527779D01*
X-15384742Y-127389987D01*
X-15389625Y-127386906D01*
X-15389629Y-127386903D01*
X-15551536Y-127284748D01*
X-15556419Y-127281667D01*
X-15744961Y-127206446D01*
X-15750621Y-127205320D01*
X-15750625Y-127205319D01*
X-15938387Y-127167971D01*
X-15938390Y-127167971D01*
X-15944054Y-127166844D01*
X-15949829Y-127166768D01*
X-15949833Y-127166768D01*
X-16051207Y-127165441D01*
X-16147029Y-127164187D01*
X-16152726Y-127165166D01*
X-16152727Y-127165166D01*
X-16341393Y-127197585D01*
X-16347090Y-127198564D01*
X-16537537Y-127268824D01*
X-16711990Y-127372612D01*
X-16716330Y-127376418D01*
X-16716334Y-127376421D01*
X-16736277Y-127393911D01*
X-16864608Y-127506455D01*
X-16990280Y-127665869D01*
X-16992969Y-127670980D01*
X-16992971Y-127670983D01*
X-17005927Y-127695609D01*
X-17084797Y-127845515D01*
X-17144993Y-128039378D01*
X-17168852Y-128240964D01*
X-18541500Y-128240964D01*
X-18541500Y-125700964D01*
X-17168852Y-125700964D01*
X-17155576Y-125903522D01*
X-17154155Y-125909118D01*
X-17154154Y-125909123D01*
X-17133881Y-125988945D01*
X-17105608Y-126100269D01*
X-17103191Y-126105512D01*
X-17065990Y-126186208D01*
X-17020623Y-126284616D01*
X-16903467Y-126450389D01*
X-16758062Y-126592035D01*
X-16589280Y-126704812D01*
X-16583977Y-126707090D01*
X-16583974Y-126707092D01*
X-16495293Y-126745192D01*
X-16402772Y-126784942D01*
X-16329756Y-126801464D01*
X-16210421Y-126828467D01*
X-16210416Y-126828468D01*
X-16204784Y-126829742D01*
X-16199013Y-126829969D01*
X-16199011Y-126829969D01*
X-16139244Y-126832317D01*
X-16001947Y-126837712D01*
X-15901501Y-126823148D01*
X-15806769Y-126809413D01*
X-15806764Y-126809412D01*
X-15801055Y-126808584D01*
X-15795591Y-126806729D01*
X-15795586Y-126806728D01*
X-15614307Y-126745192D01*
X-15614302Y-126745190D01*
X-15608835Y-126743334D01*
X-15431724Y-126644147D01*
X-15369066Y-126592035D01*
X-15280087Y-126518031D01*
X-15275655Y-126514345D01*
X-15145853Y-126358276D01*
X-15046666Y-126181165D01*
X-15044810Y-126175698D01*
X-15044808Y-126175693D01*
X-14983272Y-125994414D01*
X-14983271Y-125994409D01*
X-14981416Y-125988945D01*
X-14980588Y-125983236D01*
X-14980587Y-125983231D01*
X-14952821Y-125791727D01*
X-14952288Y-125788053D01*
X-14950768Y-125730000D01*
X-14953436Y-125700964D01*
X14951148Y-125700964D01*
X14964424Y-125903522D01*
X14965845Y-125909118D01*
X14965846Y-125909123D01*
X14986119Y-125988945D01*
X15014392Y-126100269D01*
X15016809Y-126105512D01*
X15054010Y-126186208D01*
X15099377Y-126284616D01*
X15216533Y-126450389D01*
X15361938Y-126592035D01*
X15530720Y-126704812D01*
X15536023Y-126707090D01*
X15536026Y-126707092D01*
X15624707Y-126745192D01*
X15717228Y-126784942D01*
X15790244Y-126801464D01*
X15909579Y-126828467D01*
X15909584Y-126828468D01*
X15915216Y-126829742D01*
X15920987Y-126829969D01*
X15920989Y-126829969D01*
X15980756Y-126832317D01*
X16118053Y-126837712D01*
X16218499Y-126823148D01*
X16313231Y-126809413D01*
X16313236Y-126809412D01*
X16318945Y-126808584D01*
X16324409Y-126806729D01*
X16324414Y-126806728D01*
X16505693Y-126745192D01*
X16505698Y-126745190D01*
X16511165Y-126743334D01*
X16688276Y-126644147D01*
X16750934Y-126592035D01*
X16839913Y-126518031D01*
X16844345Y-126514345D01*
X16974147Y-126358276D01*
X17073334Y-126181165D01*
X17075190Y-126175698D01*
X17075192Y-126175693D01*
X17136728Y-125994414D01*
X17136729Y-125994409D01*
X17138584Y-125988945D01*
X17139412Y-125983236D01*
X17139413Y-125983231D01*
X17167179Y-125791727D01*
X17167712Y-125788053D01*
X17169232Y-125730000D01*
X17150658Y-125527859D01*
X17149090Y-125522299D01*
X17097125Y-125338046D01*
X17097124Y-125338044D01*
X17095557Y-125332487D01*
X17084978Y-125311033D01*
X17008331Y-125155609D01*
X17005776Y-125150428D01*
X16884320Y-124987779D01*
X16735258Y-124849987D01*
X16730375Y-124846906D01*
X16730371Y-124846903D01*
X16568464Y-124744748D01*
X16563581Y-124741667D01*
X16375039Y-124666446D01*
X16369379Y-124665320D01*
X16369375Y-124665319D01*
X16181613Y-124627971D01*
X16181610Y-124627971D01*
X16175946Y-124626844D01*
X16170171Y-124626768D01*
X16170167Y-124626768D01*
X16068793Y-124625441D01*
X15972971Y-124624187D01*
X15967274Y-124625166D01*
X15967273Y-124625166D01*
X15778607Y-124657585D01*
X15772910Y-124658564D01*
X15582463Y-124728824D01*
X15408010Y-124832612D01*
X15403670Y-124836418D01*
X15403666Y-124836421D01*
X15383723Y-124853911D01*
X15255392Y-124966455D01*
X15129720Y-125125869D01*
X15127031Y-125130980D01*
X15127029Y-125130983D01*
X15114073Y-125155609D01*
X15035203Y-125305515D01*
X14975007Y-125499378D01*
X14951148Y-125700964D01*
X-14953436Y-125700964D01*
X-14969342Y-125527859D01*
X-14970910Y-125522299D01*
X-15022875Y-125338046D01*
X-15022876Y-125338044D01*
X-15024443Y-125332487D01*
X-15035022Y-125311033D01*
X-15111669Y-125155609D01*
X-15114224Y-125150428D01*
X-15235680Y-124987779D01*
X-15384742Y-124849987D01*
X-15389625Y-124846906D01*
X-15389629Y-124846903D01*
X-15551536Y-124744748D01*
X-15556419Y-124741667D01*
X-15744961Y-124666446D01*
X-15750621Y-124665320D01*
X-15750625Y-124665319D01*
X-15938387Y-124627971D01*
X-15938390Y-124627971D01*
X-15944054Y-124626844D01*
X-15949829Y-124626768D01*
X-15949833Y-124626768D01*
X-16051207Y-124625441D01*
X-16147029Y-124624187D01*
X-16152726Y-124625166D01*
X-16152727Y-124625166D01*
X-16341393Y-124657585D01*
X-16347090Y-124658564D01*
X-16537537Y-124728824D01*
X-16711990Y-124832612D01*
X-16716330Y-124836418D01*
X-16716334Y-124836421D01*
X-16736277Y-124853911D01*
X-16864608Y-124966455D01*
X-16990280Y-125125869D01*
X-16992969Y-125130980D01*
X-16992971Y-125130983D01*
X-17005927Y-125155609D01*
X-17084797Y-125305515D01*
X-17144993Y-125499378D01*
X-17168852Y-125700964D01*
X-18541500Y-125700964D01*
X-18541500Y-123160964D01*
X-17168852Y-123160964D01*
X-17155576Y-123363522D01*
X-17154155Y-123369118D01*
X-17154154Y-123369123D01*
X-17113869Y-123527742D01*
X-17105608Y-123560269D01*
X-17103191Y-123565512D01*
X-17065990Y-123646208D01*
X-17020623Y-123744616D01*
X-16903467Y-123910389D01*
X-16758062Y-124052035D01*
X-16589280Y-124164812D01*
X-16583977Y-124167090D01*
X-16583974Y-124167092D01*
X-16495293Y-124205192D01*
X-16402772Y-124244942D01*
X-16329756Y-124261464D01*
X-16210421Y-124288467D01*
X-16210416Y-124288468D01*
X-16204784Y-124289742D01*
X-16199013Y-124289969D01*
X-16199011Y-124289969D01*
X-16139244Y-124292317D01*
X-16001947Y-124297712D01*
X-15901501Y-124283148D01*
X-15806769Y-124269413D01*
X-15806764Y-124269412D01*
X-15801055Y-124268584D01*
X-15795591Y-124266729D01*
X-15795586Y-124266728D01*
X-15614307Y-124205192D01*
X-15614302Y-124205190D01*
X-15608835Y-124203334D01*
X-15431724Y-124104147D01*
X-15369066Y-124052035D01*
X-15280087Y-123978031D01*
X-15275655Y-123974345D01*
X-15145853Y-123818276D01*
X-15046666Y-123641165D01*
X-15044810Y-123635698D01*
X-15044808Y-123635693D01*
X-14983272Y-123454414D01*
X-14983271Y-123454409D01*
X-14981416Y-123448945D01*
X-14980588Y-123443236D01*
X-14980587Y-123443231D01*
X-14958375Y-123290035D01*
X-14952288Y-123248053D01*
X-14950768Y-123190000D01*
X-14967965Y-123002845D01*
X-14968813Y-122993613D01*
X-14968814Y-122993610D01*
X-14969342Y-122987859D01*
X-14972372Y-122977116D01*
X-15022875Y-122798046D01*
X-15022876Y-122798044D01*
X-15024443Y-122792487D01*
X-15035022Y-122771033D01*
X-15111669Y-122615609D01*
X-15114224Y-122610428D01*
X-15235680Y-122447779D01*
X-15288488Y-122398964D01*
X-6188852Y-122398964D01*
X-6175576Y-122601522D01*
X-6174155Y-122607118D01*
X-6174154Y-122607123D01*
X-6153881Y-122686945D01*
X-6125608Y-122798269D01*
X-6123191Y-122803512D01*
X-6086085Y-122884002D01*
X-6040623Y-122982616D01*
X-5923467Y-123148389D01*
X-5919325Y-123152424D01*
X-5910558Y-123160964D01*
X-5778062Y-123290035D01*
X-5609280Y-123402812D01*
X-5603977Y-123405090D01*
X-5603974Y-123405092D01*
X-5489173Y-123454414D01*
X-5422772Y-123482942D01*
X-5349756Y-123499464D01*
X-5230421Y-123526467D01*
X-5230416Y-123526468D01*
X-5224784Y-123527742D01*
X-5219013Y-123527969D01*
X-5219011Y-123527969D01*
X-5159244Y-123530317D01*
X-5021947Y-123535712D01*
X-4921501Y-123521148D01*
X-4826769Y-123507413D01*
X-4826764Y-123507412D01*
X-4821055Y-123506584D01*
X-4815591Y-123504729D01*
X-4815586Y-123504728D01*
X-4634307Y-123443192D01*
X-4634302Y-123443190D01*
X-4628835Y-123441334D01*
X-4622974Y-123438052D01*
X-4517348Y-123378898D01*
X-4451724Y-123342147D01*
X-4389066Y-123290035D01*
X-4300087Y-123216031D01*
X-4295655Y-123212345D01*
X-4165853Y-123056276D01*
X-4066666Y-122879165D01*
X-4064810Y-122873698D01*
X-4064808Y-122873693D01*
X-4003272Y-122692414D01*
X-4003271Y-122692409D01*
X-4001416Y-122686945D01*
X-4000588Y-122681236D01*
X-4000587Y-122681231D01*
X-3972821Y-122489727D01*
X-3972288Y-122486053D01*
X-3970768Y-122428000D01*
X-3973436Y-122398964D01*
X-3648852Y-122398964D01*
X-3635576Y-122601522D01*
X-3634155Y-122607118D01*
X-3634154Y-122607123D01*
X-3613881Y-122686945D01*
X-3585608Y-122798269D01*
X-3583191Y-122803512D01*
X-3546085Y-122884002D01*
X-3500623Y-122982616D01*
X-3383467Y-123148389D01*
X-3379325Y-123152424D01*
X-3370558Y-123160964D01*
X-3238062Y-123290035D01*
X-3069280Y-123402812D01*
X-3063977Y-123405090D01*
X-3063974Y-123405092D01*
X-2949173Y-123454414D01*
X-2882772Y-123482942D01*
X-2809756Y-123499464D01*
X-2690421Y-123526467D01*
X-2690416Y-123526468D01*
X-2684784Y-123527742D01*
X-2679013Y-123527969D01*
X-2679011Y-123527969D01*
X-2619244Y-123530317D01*
X-2481947Y-123535712D01*
X-2381501Y-123521148D01*
X-2286769Y-123507413D01*
X-2286764Y-123507412D01*
X-2281055Y-123506584D01*
X-2275591Y-123504729D01*
X-2275586Y-123504728D01*
X-2094307Y-123443192D01*
X-2094302Y-123443190D01*
X-2088835Y-123441334D01*
X-2082974Y-123438052D01*
X-1977348Y-123378898D01*
X-1911724Y-123342147D01*
X-1849066Y-123290035D01*
X-1760087Y-123216031D01*
X-1755655Y-123212345D01*
X-1625853Y-123056276D01*
X-1526666Y-122879165D01*
X-1524810Y-122873698D01*
X-1524808Y-122873693D01*
X-1463272Y-122692414D01*
X-1463271Y-122692409D01*
X-1461416Y-122686945D01*
X-1460588Y-122681236D01*
X-1460587Y-122681231D01*
X-1432821Y-122489727D01*
X-1432288Y-122486053D01*
X-1430768Y-122428000D01*
X-1433436Y-122398964D01*
X-1108852Y-122398964D01*
X-1095576Y-122601522D01*
X-1094155Y-122607118D01*
X-1094154Y-122607123D01*
X-1073881Y-122686945D01*
X-1045608Y-122798269D01*
X-1043191Y-122803512D01*
X-1006085Y-122884002D01*
X-960623Y-122982616D01*
X-843467Y-123148389D01*
X-839325Y-123152424D01*
X-830558Y-123160964D01*
X-698062Y-123290035D01*
X-529280Y-123402812D01*
X-523977Y-123405090D01*
X-523974Y-123405092D01*
X-409173Y-123454414D01*
X-342772Y-123482942D01*
X-269756Y-123499464D01*
X-150421Y-123526467D01*
X-150416Y-123526468D01*
X-144784Y-123527742D01*
X-139013Y-123527969D01*
X-139011Y-123527969D01*
X-79244Y-123530317D01*
X58053Y-123535712D01*
X158499Y-123521148D01*
X253231Y-123507413D01*
X253236Y-123507412D01*
X258945Y-123506584D01*
X264409Y-123504729D01*
X264414Y-123504728D01*
X445693Y-123443192D01*
X445698Y-123443190D01*
X451165Y-123441334D01*
X457026Y-123438052D01*
X562652Y-123378898D01*
X628276Y-123342147D01*
X690934Y-123290035D01*
X779913Y-123216031D01*
X784345Y-123212345D01*
X914147Y-123056276D01*
X1013334Y-122879165D01*
X1015190Y-122873698D01*
X1015192Y-122873693D01*
X1076728Y-122692414D01*
X1076729Y-122692409D01*
X1078584Y-122686945D01*
X1079412Y-122681236D01*
X1079413Y-122681231D01*
X1107179Y-122489727D01*
X1107712Y-122486053D01*
X1109232Y-122428000D01*
X1106564Y-122398964D01*
X1431148Y-122398964D01*
X1444424Y-122601522D01*
X1445845Y-122607118D01*
X1445846Y-122607123D01*
X1466119Y-122686945D01*
X1494392Y-122798269D01*
X1496809Y-122803512D01*
X1533915Y-122884002D01*
X1579377Y-122982616D01*
X1696533Y-123148389D01*
X1700675Y-123152424D01*
X1709442Y-123160964D01*
X1841938Y-123290035D01*
X2010720Y-123402812D01*
X2016023Y-123405090D01*
X2016026Y-123405092D01*
X2130827Y-123454414D01*
X2197228Y-123482942D01*
X2270244Y-123499464D01*
X2389579Y-123526467D01*
X2389584Y-123526468D01*
X2395216Y-123527742D01*
X2400987Y-123527969D01*
X2400989Y-123527969D01*
X2460756Y-123530317D01*
X2598053Y-123535712D01*
X2698499Y-123521148D01*
X2793231Y-123507413D01*
X2793236Y-123507412D01*
X2798945Y-123506584D01*
X2804409Y-123504729D01*
X2804414Y-123504728D01*
X2985693Y-123443192D01*
X2985698Y-123443190D01*
X2991165Y-123441334D01*
X2997026Y-123438052D01*
X3102652Y-123378898D01*
X3124949Y-123366411D01*
X4505950Y-123366411D01*
X4515830Y-123378898D01*
X4546159Y-123399163D01*
X4556264Y-123404650D01*
X4732077Y-123480185D01*
X4743020Y-123483740D01*
X4929646Y-123525970D01*
X4941055Y-123527472D01*
X5132258Y-123534984D01*
X5143740Y-123534382D01*
X5333106Y-123506926D01*
X5344302Y-123504238D01*
X5525493Y-123442731D01*
X5536002Y-123438052D01*
X5645091Y-123376959D01*
X5654955Y-123366881D01*
X5652000Y-123359210D01*
X5453754Y-123160964D01*
X14951148Y-123160964D01*
X14964424Y-123363522D01*
X14965845Y-123369118D01*
X14965846Y-123369123D01*
X15006131Y-123527742D01*
X15014392Y-123560269D01*
X15016809Y-123565512D01*
X15054010Y-123646208D01*
X15099377Y-123744616D01*
X15216533Y-123910389D01*
X15361938Y-124052035D01*
X15530720Y-124164812D01*
X15536023Y-124167090D01*
X15536026Y-124167092D01*
X15624707Y-124205192D01*
X15717228Y-124244942D01*
X15790244Y-124261464D01*
X15909579Y-124288467D01*
X15909584Y-124288468D01*
X15915216Y-124289742D01*
X15920987Y-124289969D01*
X15920989Y-124289969D01*
X15980756Y-124292317D01*
X16118053Y-124297712D01*
X16218499Y-124283148D01*
X16313231Y-124269413D01*
X16313236Y-124269412D01*
X16318945Y-124268584D01*
X16324409Y-124266729D01*
X16324414Y-124266728D01*
X16505693Y-124205192D01*
X16505698Y-124205190D01*
X16511165Y-124203334D01*
X16688276Y-124104147D01*
X16750934Y-124052035D01*
X16839913Y-123978031D01*
X16844345Y-123974345D01*
X16974147Y-123818276D01*
X17073334Y-123641165D01*
X17075190Y-123635698D01*
X17075192Y-123635693D01*
X17136728Y-123454414D01*
X17136729Y-123454409D01*
X17138584Y-123448945D01*
X17139412Y-123443236D01*
X17139413Y-123443231D01*
X17161625Y-123290035D01*
X17167712Y-123248053D01*
X17169232Y-123190000D01*
X17152035Y-123002845D01*
X17151187Y-122993613D01*
X17151186Y-122993610D01*
X17150658Y-122987859D01*
X17147628Y-122977116D01*
X17097125Y-122798046D01*
X17097124Y-122798044D01*
X17095557Y-122792487D01*
X17084978Y-122771033D01*
X17008331Y-122615609D01*
X17005776Y-122610428D01*
X16884320Y-122447779D01*
X16735258Y-122309987D01*
X16730375Y-122306906D01*
X16730371Y-122306903D01*
X16568464Y-122204748D01*
X16563581Y-122201667D01*
X16375039Y-122126446D01*
X16369379Y-122125320D01*
X16369375Y-122125319D01*
X16181613Y-122087971D01*
X16181610Y-122087971D01*
X16175946Y-122086844D01*
X16170171Y-122086768D01*
X16170167Y-122086768D01*
X16068793Y-122085441D01*
X15972971Y-122084187D01*
X15967274Y-122085166D01*
X15967273Y-122085166D01*
X15778607Y-122117585D01*
X15772910Y-122118564D01*
X15582463Y-122188824D01*
X15577502Y-122191776D01*
X15577501Y-122191776D01*
X15568085Y-122197378D01*
X15408010Y-122292612D01*
X15403670Y-122296418D01*
X15403666Y-122296421D01*
X15280150Y-122404743D01*
X15255392Y-122426455D01*
X15129720Y-122585869D01*
X15127031Y-122590980D01*
X15127029Y-122590983D01*
X15114073Y-122615609D01*
X15035203Y-122765515D01*
X14975007Y-122959378D01*
X14951148Y-123160964D01*
X5453754Y-123160964D01*
X5092812Y-122800022D01*
X5078868Y-122792408D01*
X5077035Y-122792539D01*
X5070420Y-122796790D01*
X4512146Y-123355064D01*
X4505950Y-123366411D01*
X3124949Y-123366411D01*
X3168276Y-123342147D01*
X3230934Y-123290035D01*
X3319913Y-123216031D01*
X3324345Y-123212345D01*
X3454147Y-123056276D01*
X3553334Y-122879165D01*
X3555190Y-122873698D01*
X3555192Y-122873693D01*
X3616728Y-122692414D01*
X3616729Y-122692409D01*
X3618584Y-122686945D01*
X3619412Y-122681236D01*
X3619413Y-122681231D01*
X3647179Y-122489727D01*
X3647712Y-122486053D01*
X3649232Y-122428000D01*
X3647095Y-122404743D01*
X3972028Y-122404743D01*
X3984542Y-122595676D01*
X3986343Y-122607046D01*
X4033443Y-122792502D01*
X4037284Y-122803348D01*
X4117392Y-122977116D01*
X4123146Y-122987083D01*
X4128658Y-122994882D01*
X4139247Y-123003270D01*
X4152548Y-122996242D01*
X4707978Y-122440812D01*
X4714356Y-122429132D01*
X5444408Y-122429132D01*
X5444539Y-122430965D01*
X5448790Y-122437580D01*
X6007295Y-122996085D01*
X6019675Y-123002845D01*
X6026255Y-122997919D01*
X6090052Y-122884002D01*
X6094731Y-122873493D01*
X6156238Y-122692302D01*
X6158926Y-122681106D01*
X6186678Y-122489699D01*
X6187308Y-122482318D01*
X6188633Y-122431704D01*
X6188390Y-122424305D01*
X6170693Y-122231707D01*
X6168595Y-122220386D01*
X6116658Y-122036231D01*
X6112533Y-122025484D01*
X6028998Y-121856092D01*
X6022010Y-121850847D01*
X6009591Y-121857619D01*
X5452022Y-122415188D01*
X5444408Y-122429132D01*
X4714356Y-122429132D01*
X4715592Y-122426868D01*
X4715461Y-122425035D01*
X4711210Y-122418420D01*
X4151504Y-121858714D01*
X4139124Y-121851954D01*
X4133158Y-121856420D01*
X4058356Y-121998595D01*
X4053953Y-122009228D01*
X3997213Y-122191959D01*
X3994819Y-122203221D01*
X3972329Y-122393241D01*
X3972028Y-122404743D01*
X3647095Y-122404743D01*
X3636520Y-122289657D01*
X3631187Y-122231613D01*
X3631186Y-122231610D01*
X3630658Y-122225859D01*
X3624273Y-122203221D01*
X3577125Y-122036046D01*
X3577124Y-122036044D01*
X3575557Y-122030487D01*
X3565074Y-122009228D01*
X3488331Y-121853609D01*
X3485776Y-121848428D01*
X3364320Y-121685779D01*
X3215258Y-121547987D01*
X3210375Y-121544906D01*
X3210371Y-121544903D01*
X3122709Y-121489593D01*
X4505705Y-121489593D01*
X4509192Y-121497982D01*
X5067188Y-122055978D01*
X5081132Y-122063592D01*
X5082965Y-122063461D01*
X5089580Y-122059210D01*
X5647381Y-121501409D01*
X5654141Y-121489029D01*
X5648111Y-121480974D01*
X5588239Y-121443197D01*
X5577988Y-121437974D01*
X5400260Y-121367068D01*
X5389232Y-121363801D01*
X5201561Y-121326471D01*
X5190115Y-121325268D01*
X4998792Y-121322764D01*
X4987312Y-121323667D01*
X4798737Y-121356070D01*
X4787617Y-121359050D01*
X4608095Y-121425279D01*
X4597717Y-121430229D01*
X4515303Y-121479260D01*
X4505705Y-121489593D01*
X3122709Y-121489593D01*
X3048464Y-121442748D01*
X3043581Y-121439667D01*
X2855039Y-121364446D01*
X2849379Y-121363320D01*
X2849375Y-121363319D01*
X2661613Y-121325971D01*
X2661610Y-121325971D01*
X2655946Y-121324844D01*
X2650171Y-121324768D01*
X2650167Y-121324768D01*
X2548793Y-121323441D01*
X2452971Y-121322187D01*
X2447274Y-121323166D01*
X2447273Y-121323166D01*
X2258607Y-121355585D01*
X2252910Y-121356564D01*
X2062463Y-121426824D01*
X1888010Y-121530612D01*
X1883670Y-121534418D01*
X1883666Y-121534421D01*
X1784256Y-121621602D01*
X1735392Y-121664455D01*
X1609720Y-121823869D01*
X1607031Y-121828980D01*
X1607029Y-121828983D01*
X1592594Y-121856420D01*
X1515203Y-122003515D01*
X1455007Y-122197378D01*
X1431148Y-122398964D01*
X1106564Y-122398964D01*
X1096520Y-122289657D01*
X1091187Y-122231613D01*
X1091186Y-122231610D01*
X1090658Y-122225859D01*
X1084273Y-122203221D01*
X1037125Y-122036046D01*
X1037124Y-122036044D01*
X1035557Y-122030487D01*
X1025074Y-122009228D01*
X948331Y-121853609D01*
X945776Y-121848428D01*
X824320Y-121685779D01*
X675258Y-121547987D01*
X670375Y-121544906D01*
X670371Y-121544903D01*
X508464Y-121442748D01*
X503581Y-121439667D01*
X315039Y-121364446D01*
X309379Y-121363320D01*
X309375Y-121363319D01*
X121613Y-121325971D01*
X121610Y-121325971D01*
X115946Y-121324844D01*
X110171Y-121324768D01*
X110167Y-121324768D01*
X8793Y-121323441D01*
X-87029Y-121322187D01*
X-92726Y-121323166D01*
X-92727Y-121323166D01*
X-281393Y-121355585D01*
X-287090Y-121356564D01*
X-477537Y-121426824D01*
X-651990Y-121530612D01*
X-656330Y-121534418D01*
X-656334Y-121534421D01*
X-755744Y-121621602D01*
X-804608Y-121664455D01*
X-930280Y-121823869D01*
X-932969Y-121828980D01*
X-932971Y-121828983D01*
X-947406Y-121856420D01*
X-1024797Y-122003515D01*
X-1084993Y-122197378D01*
X-1108852Y-122398964D01*
X-1433436Y-122398964D01*
X-1443480Y-122289657D01*
X-1448813Y-122231613D01*
X-1448814Y-122231610D01*
X-1449342Y-122225859D01*
X-1455727Y-122203221D01*
X-1502875Y-122036046D01*
X-1502876Y-122036044D01*
X-1504443Y-122030487D01*
X-1514926Y-122009228D01*
X-1591669Y-121853609D01*
X-1594224Y-121848428D01*
X-1715680Y-121685779D01*
X-1864742Y-121547987D01*
X-1869625Y-121544906D01*
X-1869629Y-121544903D01*
X-2031536Y-121442748D01*
X-2036419Y-121439667D01*
X-2224961Y-121364446D01*
X-2230621Y-121363320D01*
X-2230625Y-121363319D01*
X-2418387Y-121325971D01*
X-2418390Y-121325971D01*
X-2424054Y-121324844D01*
X-2429829Y-121324768D01*
X-2429833Y-121324768D01*
X-2531207Y-121323441D01*
X-2627029Y-121322187D01*
X-2632726Y-121323166D01*
X-2632727Y-121323166D01*
X-2821393Y-121355585D01*
X-2827090Y-121356564D01*
X-3017537Y-121426824D01*
X-3191990Y-121530612D01*
X-3196330Y-121534418D01*
X-3196334Y-121534421D01*
X-3295744Y-121621602D01*
X-3344608Y-121664455D01*
X-3470280Y-121823869D01*
X-3472969Y-121828980D01*
X-3472971Y-121828983D01*
X-3487406Y-121856420D01*
X-3564797Y-122003515D01*
X-3624993Y-122197378D01*
X-3648852Y-122398964D01*
X-3973436Y-122398964D01*
X-3983480Y-122289657D01*
X-3988813Y-122231613D01*
X-3988814Y-122231610D01*
X-3989342Y-122225859D01*
X-3995727Y-122203221D01*
X-4042875Y-122036046D01*
X-4042876Y-122036044D01*
X-4044443Y-122030487D01*
X-4054926Y-122009228D01*
X-4131669Y-121853609D01*
X-4134224Y-121848428D01*
X-4255680Y-121685779D01*
X-4404742Y-121547987D01*
X-4409625Y-121544906D01*
X-4409629Y-121544903D01*
X-4571536Y-121442748D01*
X-4576419Y-121439667D01*
X-4764961Y-121364446D01*
X-4770621Y-121363320D01*
X-4770625Y-121363319D01*
X-4958387Y-121325971D01*
X-4958390Y-121325971D01*
X-4964054Y-121324844D01*
X-4969829Y-121324768D01*
X-4969833Y-121324768D01*
X-5071207Y-121323441D01*
X-5167029Y-121322187D01*
X-5172726Y-121323166D01*
X-5172727Y-121323166D01*
X-5361393Y-121355585D01*
X-5367090Y-121356564D01*
X-5557537Y-121426824D01*
X-5731990Y-121530612D01*
X-5736330Y-121534418D01*
X-5736334Y-121534421D01*
X-5835744Y-121621602D01*
X-5884608Y-121664455D01*
X-6010280Y-121823869D01*
X-6012969Y-121828980D01*
X-6012971Y-121828983D01*
X-6027406Y-121856420D01*
X-6104797Y-122003515D01*
X-6164993Y-122197378D01*
X-6188852Y-122398964D01*
X-15288488Y-122398964D01*
X-15384742Y-122309987D01*
X-15389625Y-122306906D01*
X-15389629Y-122306903D01*
X-15551536Y-122204748D01*
X-15556419Y-122201667D01*
X-15744961Y-122126446D01*
X-15750621Y-122125320D01*
X-15750625Y-122125319D01*
X-15938387Y-122087971D01*
X-15938390Y-122087971D01*
X-15944054Y-122086844D01*
X-15949829Y-122086768D01*
X-15949833Y-122086768D01*
X-16051207Y-122085441D01*
X-16147029Y-122084187D01*
X-16152726Y-122085166D01*
X-16152727Y-122085166D01*
X-16341393Y-122117585D01*
X-16347090Y-122118564D01*
X-16537537Y-122188824D01*
X-16542498Y-122191776D01*
X-16542499Y-122191776D01*
X-16551915Y-122197378D01*
X-16711990Y-122292612D01*
X-16716330Y-122296418D01*
X-16716334Y-122296421D01*
X-16839850Y-122404743D01*
X-16864608Y-122426455D01*
X-16990280Y-122585869D01*
X-16992969Y-122590980D01*
X-16992971Y-122590983D01*
X-17005927Y-122615609D01*
X-17084797Y-122765515D01*
X-17144993Y-122959378D01*
X-17168852Y-123160964D01*
X-18541500Y-123160964D01*
X-18541500Y-120620964D01*
X-17168852Y-120620964D01*
X-17155576Y-120823522D01*
X-17154155Y-120829118D01*
X-17154154Y-120829123D01*
X-17119032Y-120967413D01*
X-17105608Y-121020269D01*
X-17103191Y-121025512D01*
X-17065990Y-121106208D01*
X-17020623Y-121204616D01*
X-17017290Y-121209332D01*
X-16911823Y-121358565D01*
X-16903467Y-121370389D01*
X-16758062Y-121512035D01*
X-16589280Y-121624812D01*
X-16583977Y-121627090D01*
X-16583974Y-121627092D01*
X-16456509Y-121681855D01*
X-16402772Y-121704942D01*
X-16329756Y-121721464D01*
X-16210421Y-121748467D01*
X-16210416Y-121748468D01*
X-16204784Y-121749742D01*
X-16199013Y-121749969D01*
X-16199011Y-121749969D01*
X-16139244Y-121752317D01*
X-16001947Y-121757712D01*
X-15901501Y-121743148D01*
X-15806769Y-121729413D01*
X-15806764Y-121729412D01*
X-15801055Y-121728584D01*
X-15795591Y-121726729D01*
X-15795586Y-121726728D01*
X-15614307Y-121665192D01*
X-15614302Y-121665190D01*
X-15608835Y-121663334D01*
X-15431724Y-121564147D01*
X-15417011Y-121551911D01*
X-15286298Y-121443197D01*
X-15275655Y-121434345D01*
X-15210554Y-121356070D01*
X-15149547Y-121282718D01*
X-15149545Y-121282715D01*
X-15145853Y-121278276D01*
X-15046666Y-121101165D01*
X-15044810Y-121095698D01*
X-15044808Y-121095693D01*
X-14983272Y-120914414D01*
X-14983271Y-120914409D01*
X-14981416Y-120908945D01*
X-14980588Y-120903236D01*
X-14980587Y-120903231D01*
X-14958375Y-120750035D01*
X-14952288Y-120708053D01*
X-14950768Y-120650000D01*
X-14969342Y-120447859D01*
X-14972300Y-120437371D01*
X-15022875Y-120258046D01*
X-15022876Y-120258044D01*
X-15024443Y-120252487D01*
X-15035022Y-120231033D01*
X-15111669Y-120075609D01*
X-15114224Y-120070428D01*
X-15235680Y-119907779D01*
X-15288488Y-119858964D01*
X-6188852Y-119858964D01*
X-6175576Y-120061522D01*
X-6174155Y-120067118D01*
X-6174154Y-120067123D01*
X-6153881Y-120146945D01*
X-6125608Y-120258269D01*
X-6123191Y-120263512D01*
X-6085990Y-120344208D01*
X-6040623Y-120442616D01*
X-6037290Y-120447332D01*
X-5931199Y-120597448D01*
X-5923467Y-120608389D01*
X-5919325Y-120612424D01*
X-5910558Y-120620964D01*
X-5778062Y-120750035D01*
X-5609280Y-120862812D01*
X-5603977Y-120865090D01*
X-5603974Y-120865092D01*
X-5428079Y-120940662D01*
X-5422772Y-120942942D01*
X-5349756Y-120959464D01*
X-5230421Y-120986467D01*
X-5230416Y-120986468D01*
X-5224784Y-120987742D01*
X-5219013Y-120987969D01*
X-5219011Y-120987969D01*
X-5159244Y-120990317D01*
X-5021947Y-120995712D01*
X-4921501Y-120981148D01*
X-4826769Y-120967413D01*
X-4826764Y-120967412D01*
X-4821055Y-120966584D01*
X-4815591Y-120964729D01*
X-4815586Y-120964728D01*
X-4634307Y-120903192D01*
X-4634302Y-120903190D01*
X-4628835Y-120901334D01*
X-4451724Y-120802147D01*
X-4389066Y-120750035D01*
X-4300087Y-120676031D01*
X-4295655Y-120672345D01*
X-4226834Y-120589597D01*
X-4169547Y-120520718D01*
X-4169545Y-120520715D01*
X-4165853Y-120516276D01*
X-4066666Y-120339165D01*
X-4064810Y-120333698D01*
X-4064808Y-120333693D01*
X-4003272Y-120152414D01*
X-4003271Y-120152409D01*
X-4001416Y-120146945D01*
X-4000588Y-120141236D01*
X-4000587Y-120141231D01*
X-3972821Y-119949727D01*
X-3972288Y-119946053D01*
X-3970768Y-119888000D01*
X-3973436Y-119858964D01*
X-3648852Y-119858964D01*
X-3635576Y-120061522D01*
X-3634155Y-120067118D01*
X-3634154Y-120067123D01*
X-3613881Y-120146945D01*
X-3585608Y-120258269D01*
X-3583191Y-120263512D01*
X-3545990Y-120344208D01*
X-3500623Y-120442616D01*
X-3497290Y-120447332D01*
X-3391199Y-120597448D01*
X-3383467Y-120608389D01*
X-3379325Y-120612424D01*
X-3370558Y-120620964D01*
X-3238062Y-120750035D01*
X-3069280Y-120862812D01*
X-3063977Y-120865090D01*
X-3063974Y-120865092D01*
X-2888079Y-120940662D01*
X-2882772Y-120942942D01*
X-2809756Y-120959464D01*
X-2690421Y-120986467D01*
X-2690416Y-120986468D01*
X-2684784Y-120987742D01*
X-2679013Y-120987969D01*
X-2679011Y-120987969D01*
X-2619244Y-120990317D01*
X-2481947Y-120995712D01*
X-2381501Y-120981148D01*
X-2286769Y-120967413D01*
X-2286764Y-120967412D01*
X-2281055Y-120966584D01*
X-2275591Y-120964729D01*
X-2275586Y-120964728D01*
X-2094307Y-120903192D01*
X-2094302Y-120903190D01*
X-2088835Y-120901334D01*
X-1911724Y-120802147D01*
X-1849066Y-120750035D01*
X-1760087Y-120676031D01*
X-1755655Y-120672345D01*
X-1686834Y-120589597D01*
X-1629547Y-120520718D01*
X-1629545Y-120520715D01*
X-1625853Y-120516276D01*
X-1526666Y-120339165D01*
X-1524810Y-120333698D01*
X-1524808Y-120333693D01*
X-1463272Y-120152414D01*
X-1463271Y-120152409D01*
X-1461416Y-120146945D01*
X-1460588Y-120141236D01*
X-1460587Y-120141231D01*
X-1432821Y-119949727D01*
X-1432288Y-119946053D01*
X-1430768Y-119888000D01*
X-1433436Y-119858964D01*
X-1108852Y-119858964D01*
X-1095576Y-120061522D01*
X-1094155Y-120067118D01*
X-1094154Y-120067123D01*
X-1073881Y-120146945D01*
X-1045608Y-120258269D01*
X-1043191Y-120263512D01*
X-1005990Y-120344208D01*
X-960623Y-120442616D01*
X-957290Y-120447332D01*
X-851199Y-120597448D01*
X-843467Y-120608389D01*
X-839325Y-120612424D01*
X-830558Y-120620964D01*
X-698062Y-120750035D01*
X-529280Y-120862812D01*
X-523977Y-120865090D01*
X-523974Y-120865092D01*
X-348079Y-120940662D01*
X-342772Y-120942942D01*
X-269756Y-120959464D01*
X-150421Y-120986467D01*
X-150416Y-120986468D01*
X-144784Y-120987742D01*
X-139013Y-120987969D01*
X-139011Y-120987969D01*
X-79244Y-120990317D01*
X58053Y-120995712D01*
X158499Y-120981148D01*
X253231Y-120967413D01*
X253236Y-120967412D01*
X258945Y-120966584D01*
X264409Y-120964729D01*
X264414Y-120964728D01*
X445693Y-120903192D01*
X445698Y-120903190D01*
X451165Y-120901334D01*
X628276Y-120802147D01*
X690934Y-120750035D01*
X779913Y-120676031D01*
X784345Y-120672345D01*
X853166Y-120589597D01*
X910453Y-120520718D01*
X910455Y-120520715D01*
X914147Y-120516276D01*
X1013334Y-120339165D01*
X1015190Y-120333698D01*
X1015192Y-120333693D01*
X1076728Y-120152414D01*
X1076729Y-120152409D01*
X1078584Y-120146945D01*
X1079412Y-120141236D01*
X1079413Y-120141231D01*
X1107179Y-119949727D01*
X1107712Y-119946053D01*
X1109232Y-119888000D01*
X1106564Y-119858964D01*
X1431148Y-119858964D01*
X1444424Y-120061522D01*
X1445845Y-120067118D01*
X1445846Y-120067123D01*
X1466119Y-120146945D01*
X1494392Y-120258269D01*
X1496809Y-120263512D01*
X1534010Y-120344208D01*
X1579377Y-120442616D01*
X1582710Y-120447332D01*
X1688801Y-120597448D01*
X1696533Y-120608389D01*
X1700675Y-120612424D01*
X1709442Y-120620964D01*
X1841938Y-120750035D01*
X2010720Y-120862812D01*
X2016023Y-120865090D01*
X2016026Y-120865092D01*
X2191921Y-120940662D01*
X2197228Y-120942942D01*
X2270244Y-120959464D01*
X2389579Y-120986467D01*
X2389584Y-120986468D01*
X2395216Y-120987742D01*
X2400987Y-120987969D01*
X2400989Y-120987969D01*
X2460756Y-120990317D01*
X2598053Y-120995712D01*
X2698499Y-120981148D01*
X2793231Y-120967413D01*
X2793236Y-120967412D01*
X2798945Y-120966584D01*
X2804409Y-120964729D01*
X2804414Y-120964728D01*
X2985693Y-120903192D01*
X2985698Y-120903190D01*
X2991165Y-120901334D01*
X3168276Y-120802147D01*
X3230934Y-120750035D01*
X3319913Y-120676031D01*
X3324345Y-120672345D01*
X3393166Y-120589597D01*
X3437946Y-120535756D01*
X3975500Y-120535756D01*
X3982202Y-120597448D01*
X3984974Y-120604841D01*
X3984974Y-120604843D01*
X3987816Y-120612424D01*
X4032929Y-120732764D01*
X4038309Y-120739943D01*
X4038311Y-120739946D01*
X4082160Y-120798453D01*
X4119596Y-120848404D01*
X4126776Y-120853785D01*
X4228054Y-120929689D01*
X4228057Y-120929691D01*
X4235236Y-120935071D01*
X4314347Y-120964728D01*
X4363157Y-120983026D01*
X4363159Y-120983026D01*
X4370552Y-120985798D01*
X4378402Y-120986651D01*
X4378403Y-120986651D01*
X4428847Y-120992131D01*
X4432244Y-120992500D01*
X5727756Y-120992500D01*
X5731153Y-120992131D01*
X5781597Y-120986651D01*
X5781598Y-120986651D01*
X5789448Y-120985798D01*
X5796841Y-120983026D01*
X5796843Y-120983026D01*
X5845653Y-120964728D01*
X5924764Y-120935071D01*
X5931943Y-120929691D01*
X5931946Y-120929689D01*
X6033224Y-120853785D01*
X6040404Y-120848404D01*
X6077840Y-120798453D01*
X6121689Y-120739946D01*
X6121691Y-120739943D01*
X6127071Y-120732764D01*
X6168983Y-120620964D01*
X14951148Y-120620964D01*
X14964424Y-120823522D01*
X14965845Y-120829118D01*
X14965846Y-120829123D01*
X15000968Y-120967413D01*
X15014392Y-121020269D01*
X15016809Y-121025512D01*
X15054010Y-121106208D01*
X15099377Y-121204616D01*
X15102710Y-121209332D01*
X15208177Y-121358565D01*
X15216533Y-121370389D01*
X15361938Y-121512035D01*
X15530720Y-121624812D01*
X15536023Y-121627090D01*
X15536026Y-121627092D01*
X15663491Y-121681855D01*
X15717228Y-121704942D01*
X15790244Y-121721464D01*
X15909579Y-121748467D01*
X15909584Y-121748468D01*
X15915216Y-121749742D01*
X15920987Y-121749969D01*
X15920989Y-121749969D01*
X15980756Y-121752317D01*
X16118053Y-121757712D01*
X16218499Y-121743148D01*
X16313231Y-121729413D01*
X16313236Y-121729412D01*
X16318945Y-121728584D01*
X16324409Y-121726729D01*
X16324414Y-121726728D01*
X16505693Y-121665192D01*
X16505698Y-121665190D01*
X16511165Y-121663334D01*
X16688276Y-121564147D01*
X16702989Y-121551911D01*
X16833702Y-121443197D01*
X16844345Y-121434345D01*
X16909446Y-121356070D01*
X16970453Y-121282718D01*
X16970455Y-121282715D01*
X16974147Y-121278276D01*
X17073334Y-121101165D01*
X17075190Y-121095698D01*
X17075192Y-121095693D01*
X17136728Y-120914414D01*
X17136729Y-120914409D01*
X17138584Y-120908945D01*
X17139412Y-120903236D01*
X17139413Y-120903231D01*
X17161625Y-120750035D01*
X17167712Y-120708053D01*
X17169232Y-120650000D01*
X17150658Y-120447859D01*
X17147700Y-120437371D01*
X17097125Y-120258046D01*
X17097124Y-120258044D01*
X17095557Y-120252487D01*
X17084978Y-120231033D01*
X17008331Y-120075609D01*
X17005776Y-120070428D01*
X16884320Y-119907779D01*
X16735258Y-119769987D01*
X16730375Y-119766906D01*
X16730371Y-119766903D01*
X16568464Y-119664748D01*
X16563581Y-119661667D01*
X16375039Y-119586446D01*
X16369379Y-119585320D01*
X16369375Y-119585319D01*
X16181613Y-119547971D01*
X16181610Y-119547971D01*
X16175946Y-119546844D01*
X16170171Y-119546768D01*
X16170167Y-119546768D01*
X16068793Y-119545441D01*
X15972971Y-119544187D01*
X15967274Y-119545166D01*
X15967273Y-119545166D01*
X15778607Y-119577585D01*
X15772910Y-119578564D01*
X15582463Y-119648824D01*
X15408010Y-119752612D01*
X15403670Y-119756418D01*
X15403666Y-119756421D01*
X15259733Y-119882648D01*
X15255392Y-119886455D01*
X15129720Y-120045869D01*
X15127031Y-120050980D01*
X15127029Y-120050983D01*
X15114073Y-120075609D01*
X15035203Y-120225515D01*
X14975007Y-120419378D01*
X14951148Y-120620964D01*
X6168983Y-120620964D01*
X6172184Y-120612424D01*
X6175026Y-120604843D01*
X6175026Y-120604841D01*
X6177798Y-120597448D01*
X6184500Y-120535756D01*
X6184500Y-119240244D01*
X6177798Y-119178552D01*
X6127071Y-119043236D01*
X6121691Y-119036057D01*
X6121689Y-119036054D01*
X6045785Y-118934776D01*
X6040404Y-118927596D01*
X6003138Y-118899667D01*
X5931946Y-118846311D01*
X5931943Y-118846309D01*
X5924764Y-118840929D01*
X5835046Y-118807296D01*
X5796843Y-118792974D01*
X5796841Y-118792974D01*
X5789448Y-118790202D01*
X5781598Y-118789349D01*
X5781597Y-118789349D01*
X5731153Y-118783869D01*
X5731152Y-118783869D01*
X5727756Y-118783500D01*
X4432244Y-118783500D01*
X4428848Y-118783869D01*
X4428847Y-118783869D01*
X4378403Y-118789349D01*
X4378402Y-118789349D01*
X4370552Y-118790202D01*
X4363159Y-118792974D01*
X4363157Y-118792974D01*
X4324954Y-118807296D01*
X4235236Y-118840929D01*
X4228057Y-118846309D01*
X4228054Y-118846311D01*
X4156862Y-118899667D01*
X4119596Y-118927596D01*
X4114215Y-118934776D01*
X4038311Y-119036054D01*
X4038309Y-119036057D01*
X4032929Y-119043236D01*
X3982202Y-119178552D01*
X3975500Y-119240244D01*
X3975500Y-120535756D01*
X3437946Y-120535756D01*
X3450453Y-120520718D01*
X3450455Y-120520715D01*
X3454147Y-120516276D01*
X3553334Y-120339165D01*
X3555190Y-120333698D01*
X3555192Y-120333693D01*
X3616728Y-120152414D01*
X3616729Y-120152409D01*
X3618584Y-120146945D01*
X3619412Y-120141236D01*
X3619413Y-120141231D01*
X3647179Y-119949727D01*
X3647712Y-119946053D01*
X3649232Y-119888000D01*
X3630658Y-119685859D01*
X3624704Y-119664748D01*
X3577125Y-119496046D01*
X3577124Y-119496044D01*
X3575557Y-119490487D01*
X3564978Y-119469033D01*
X3488331Y-119313609D01*
X3485776Y-119308428D01*
X3364320Y-119145779D01*
X3215258Y-119007987D01*
X3210375Y-119004906D01*
X3210371Y-119004903D01*
X3048464Y-118902748D01*
X3043581Y-118899667D01*
X2855039Y-118824446D01*
X2849379Y-118823320D01*
X2849375Y-118823319D01*
X2661613Y-118785971D01*
X2661610Y-118785971D01*
X2655946Y-118784844D01*
X2650171Y-118784768D01*
X2650167Y-118784768D01*
X2548793Y-118783441D01*
X2452971Y-118782187D01*
X2447274Y-118783166D01*
X2447273Y-118783166D01*
X2258607Y-118815585D01*
X2252910Y-118816564D01*
X2062463Y-118886824D01*
X1888010Y-118990612D01*
X1883670Y-118994418D01*
X1883666Y-118994421D01*
X1828004Y-119043236D01*
X1735392Y-119124455D01*
X1609720Y-119283869D01*
X1607031Y-119288980D01*
X1607029Y-119288983D01*
X1594073Y-119313609D01*
X1515203Y-119463515D01*
X1455007Y-119657378D01*
X1431148Y-119858964D01*
X1106564Y-119858964D01*
X1090658Y-119685859D01*
X1084704Y-119664748D01*
X1037125Y-119496046D01*
X1037124Y-119496044D01*
X1035557Y-119490487D01*
X1024978Y-119469033D01*
X948331Y-119313609D01*
X945776Y-119308428D01*
X824320Y-119145779D01*
X675258Y-119007987D01*
X670375Y-119004906D01*
X670371Y-119004903D01*
X508464Y-118902748D01*
X503581Y-118899667D01*
X315039Y-118824446D01*
X309379Y-118823320D01*
X309375Y-118823319D01*
X121613Y-118785971D01*
X121610Y-118785971D01*
X115946Y-118784844D01*
X110171Y-118784768D01*
X110167Y-118784768D01*
X8793Y-118783441D01*
X-87029Y-118782187D01*
X-92726Y-118783166D01*
X-92727Y-118783166D01*
X-281393Y-118815585D01*
X-287090Y-118816564D01*
X-477537Y-118886824D01*
X-651990Y-118990612D01*
X-656330Y-118994418D01*
X-656334Y-118994421D01*
X-711996Y-119043236D01*
X-804608Y-119124455D01*
X-930280Y-119283869D01*
X-932969Y-119288980D01*
X-932971Y-119288983D01*
X-945927Y-119313609D01*
X-1024797Y-119463515D01*
X-1084993Y-119657378D01*
X-1108852Y-119858964D01*
X-1433436Y-119858964D01*
X-1449342Y-119685859D01*
X-1455296Y-119664748D01*
X-1502875Y-119496046D01*
X-1502876Y-119496044D01*
X-1504443Y-119490487D01*
X-1515022Y-119469033D01*
X-1591669Y-119313609D01*
X-1594224Y-119308428D01*
X-1715680Y-119145779D01*
X-1864742Y-119007987D01*
X-1869625Y-119004906D01*
X-1869629Y-119004903D01*
X-2031536Y-118902748D01*
X-2036419Y-118899667D01*
X-2224961Y-118824446D01*
X-2230621Y-118823320D01*
X-2230625Y-118823319D01*
X-2418387Y-118785971D01*
X-2418390Y-118785971D01*
X-2424054Y-118784844D01*
X-2429829Y-118784768D01*
X-2429833Y-118784768D01*
X-2531207Y-118783441D01*
X-2627029Y-118782187D01*
X-2632726Y-118783166D01*
X-2632727Y-118783166D01*
X-2821393Y-118815585D01*
X-2827090Y-118816564D01*
X-3017537Y-118886824D01*
X-3191990Y-118990612D01*
X-3196330Y-118994418D01*
X-3196334Y-118994421D01*
X-3251996Y-119043236D01*
X-3344608Y-119124455D01*
X-3470280Y-119283869D01*
X-3472969Y-119288980D01*
X-3472971Y-119288983D01*
X-3485927Y-119313609D01*
X-3564797Y-119463515D01*
X-3624993Y-119657378D01*
X-3648852Y-119858964D01*
X-3973436Y-119858964D01*
X-3989342Y-119685859D01*
X-3995296Y-119664748D01*
X-4042875Y-119496046D01*
X-4042876Y-119496044D01*
X-4044443Y-119490487D01*
X-4055022Y-119469033D01*
X-4131669Y-119313609D01*
X-4134224Y-119308428D01*
X-4255680Y-119145779D01*
X-4404742Y-119007987D01*
X-4409625Y-119004906D01*
X-4409629Y-119004903D01*
X-4571536Y-118902748D01*
X-4576419Y-118899667D01*
X-4764961Y-118824446D01*
X-4770621Y-118823320D01*
X-4770625Y-118823319D01*
X-4958387Y-118785971D01*
X-4958390Y-118785971D01*
X-4964054Y-118784844D01*
X-4969829Y-118784768D01*
X-4969833Y-118784768D01*
X-5071207Y-118783441D01*
X-5167029Y-118782187D01*
X-5172726Y-118783166D01*
X-5172727Y-118783166D01*
X-5361393Y-118815585D01*
X-5367090Y-118816564D01*
X-5557537Y-118886824D01*
X-5731990Y-118990612D01*
X-5736330Y-118994418D01*
X-5736334Y-118994421D01*
X-5791996Y-119043236D01*
X-5884608Y-119124455D01*
X-6010280Y-119283869D01*
X-6012969Y-119288980D01*
X-6012971Y-119288983D01*
X-6025927Y-119313609D01*
X-6104797Y-119463515D01*
X-6164993Y-119657378D01*
X-6188852Y-119858964D01*
X-15288488Y-119858964D01*
X-15384742Y-119769987D01*
X-15389625Y-119766906D01*
X-15389629Y-119766903D01*
X-15551536Y-119664748D01*
X-15556419Y-119661667D01*
X-15744961Y-119586446D01*
X-15750621Y-119585320D01*
X-15750625Y-119585319D01*
X-15938387Y-119547971D01*
X-15938390Y-119547971D01*
X-15944054Y-119546844D01*
X-15949829Y-119546768D01*
X-15949833Y-119546768D01*
X-16051207Y-119545441D01*
X-16147029Y-119544187D01*
X-16152726Y-119545166D01*
X-16152727Y-119545166D01*
X-16341393Y-119577585D01*
X-16347090Y-119578564D01*
X-16537537Y-119648824D01*
X-16711990Y-119752612D01*
X-16716330Y-119756418D01*
X-16716334Y-119756421D01*
X-16860267Y-119882648D01*
X-16864608Y-119886455D01*
X-16990280Y-120045869D01*
X-16992969Y-120050980D01*
X-16992971Y-120050983D01*
X-17005927Y-120075609D01*
X-17084797Y-120225515D01*
X-17144993Y-120419378D01*
X-17168852Y-120620964D01*
X-18541500Y-120620964D01*
X-18541500Y-118080964D01*
X-17168852Y-118080964D01*
X-17155576Y-118283522D01*
X-17154155Y-118289118D01*
X-17154154Y-118289123D01*
X-17133881Y-118368945D01*
X-17105608Y-118480269D01*
X-17103191Y-118485512D01*
X-17065990Y-118566208D01*
X-17020623Y-118664616D01*
X-17017290Y-118669332D01*
X-16911823Y-118818565D01*
X-16903467Y-118830389D01*
X-16899325Y-118834424D01*
X-16847585Y-118884826D01*
X-16758062Y-118972035D01*
X-16589280Y-119084812D01*
X-16583977Y-119087090D01*
X-16583974Y-119087092D01*
X-16456509Y-119141855D01*
X-16402772Y-119164942D01*
X-16342624Y-119178552D01*
X-16210421Y-119208467D01*
X-16210416Y-119208468D01*
X-16204784Y-119209742D01*
X-16199013Y-119209969D01*
X-16199011Y-119209969D01*
X-16139244Y-119212317D01*
X-16001947Y-119217712D01*
X-15901501Y-119203148D01*
X-15806769Y-119189413D01*
X-15806764Y-119189412D01*
X-15801055Y-119188584D01*
X-15795591Y-119186729D01*
X-15795586Y-119186728D01*
X-15614307Y-119125192D01*
X-15614302Y-119125190D01*
X-15608835Y-119123334D01*
X-15431724Y-119024147D01*
X-15417011Y-119011911D01*
X-15304304Y-118918172D01*
X-15275655Y-118894345D01*
X-15210965Y-118816564D01*
X-15149547Y-118742718D01*
X-15149545Y-118742715D01*
X-15145853Y-118738276D01*
X-15046666Y-118561165D01*
X-15044810Y-118555698D01*
X-15044808Y-118555693D01*
X-14983272Y-118374414D01*
X-14983271Y-118374409D01*
X-14981416Y-118368945D01*
X-14980588Y-118363236D01*
X-14980587Y-118363231D01*
X-14952821Y-118171727D01*
X-14952288Y-118168053D01*
X-14950768Y-118110000D01*
X-14953436Y-118080964D01*
X14951148Y-118080964D01*
X14964424Y-118283522D01*
X14965845Y-118289118D01*
X14965846Y-118289123D01*
X14986119Y-118368945D01*
X15014392Y-118480269D01*
X15016809Y-118485512D01*
X15054010Y-118566208D01*
X15099377Y-118664616D01*
X15102710Y-118669332D01*
X15208177Y-118818565D01*
X15216533Y-118830389D01*
X15220675Y-118834424D01*
X15272415Y-118884826D01*
X15361938Y-118972035D01*
X15530720Y-119084812D01*
X15536023Y-119087090D01*
X15536026Y-119087092D01*
X15663491Y-119141855D01*
X15717228Y-119164942D01*
X15777376Y-119178552D01*
X15909579Y-119208467D01*
X15909584Y-119208468D01*
X15915216Y-119209742D01*
X15920987Y-119209969D01*
X15920989Y-119209969D01*
X15980756Y-119212317D01*
X16118053Y-119217712D01*
X16218499Y-119203148D01*
X16313231Y-119189413D01*
X16313236Y-119189412D01*
X16318945Y-119188584D01*
X16324409Y-119186729D01*
X16324414Y-119186728D01*
X16505693Y-119125192D01*
X16505698Y-119125190D01*
X16511165Y-119123334D01*
X16688276Y-119024147D01*
X16702989Y-119011911D01*
X16815696Y-118918172D01*
X16844345Y-118894345D01*
X16909035Y-118816564D01*
X16970453Y-118742718D01*
X16970455Y-118742715D01*
X16974147Y-118738276D01*
X17073334Y-118561165D01*
X17075190Y-118555698D01*
X17075192Y-118555693D01*
X17136728Y-118374414D01*
X17136729Y-118374409D01*
X17138584Y-118368945D01*
X17139412Y-118363236D01*
X17139413Y-118363231D01*
X17167179Y-118171727D01*
X17167712Y-118168053D01*
X17169232Y-118110000D01*
X17150658Y-117907859D01*
X17149090Y-117902299D01*
X17097125Y-117718046D01*
X17097124Y-117718044D01*
X17095557Y-117712487D01*
X17084978Y-117691033D01*
X17008331Y-117535609D01*
X17005776Y-117530428D01*
X16884320Y-117367779D01*
X16735258Y-117229987D01*
X16730375Y-117226906D01*
X16730371Y-117226903D01*
X16568464Y-117124748D01*
X16563581Y-117121667D01*
X16375039Y-117046446D01*
X16369379Y-117045320D01*
X16369375Y-117045319D01*
X16181613Y-117007971D01*
X16181610Y-117007971D01*
X16175946Y-117006844D01*
X16170171Y-117006768D01*
X16170167Y-117006768D01*
X16068793Y-117005441D01*
X15972971Y-117004187D01*
X15967274Y-117005166D01*
X15967273Y-117005166D01*
X15778607Y-117037585D01*
X15772910Y-117038564D01*
X15582463Y-117108824D01*
X15408010Y-117212612D01*
X15403670Y-117216418D01*
X15403666Y-117216421D01*
X15383723Y-117233911D01*
X15255392Y-117346455D01*
X15129720Y-117505869D01*
X15127031Y-117510980D01*
X15127029Y-117510983D01*
X15114073Y-117535609D01*
X15035203Y-117685515D01*
X14975007Y-117879378D01*
X14951148Y-118080964D01*
X-14953436Y-118080964D01*
X-14969342Y-117907859D01*
X-14970910Y-117902299D01*
X-15022875Y-117718046D01*
X-15022876Y-117718044D01*
X-15024443Y-117712487D01*
X-15035022Y-117691033D01*
X-15111669Y-117535609D01*
X-15114224Y-117530428D01*
X-15235680Y-117367779D01*
X-15384742Y-117229987D01*
X-15389625Y-117226906D01*
X-15389629Y-117226903D01*
X-15551536Y-117124748D01*
X-15556419Y-117121667D01*
X-15744961Y-117046446D01*
X-15750621Y-117045320D01*
X-15750625Y-117045319D01*
X-15938387Y-117007971D01*
X-15938390Y-117007971D01*
X-15944054Y-117006844D01*
X-15949829Y-117006768D01*
X-15949833Y-117006768D01*
X-16051207Y-117005441D01*
X-16147029Y-117004187D01*
X-16152726Y-117005166D01*
X-16152727Y-117005166D01*
X-16341393Y-117037585D01*
X-16347090Y-117038564D01*
X-16537537Y-117108824D01*
X-16711990Y-117212612D01*
X-16716330Y-117216418D01*
X-16716334Y-117216421D01*
X-16736277Y-117233911D01*
X-16864608Y-117346455D01*
X-16990280Y-117505869D01*
X-16992969Y-117510980D01*
X-16992971Y-117510983D01*
X-17005927Y-117535609D01*
X-17084797Y-117685515D01*
X-17144993Y-117879378D01*
X-17168852Y-118080964D01*
X-18541500Y-118080964D01*
X-18541500Y-115540964D01*
X-17168852Y-115540964D01*
X-17155576Y-115743522D01*
X-17154155Y-115749118D01*
X-17154154Y-115749123D01*
X-17133881Y-115828945D01*
X-17105608Y-115940269D01*
X-17103191Y-115945512D01*
X-17065990Y-116026208D01*
X-17020623Y-116124616D01*
X-16903467Y-116290389D01*
X-16758062Y-116432035D01*
X-16589280Y-116544812D01*
X-16583977Y-116547090D01*
X-16583974Y-116547092D01*
X-16495293Y-116585192D01*
X-16402772Y-116624942D01*
X-16329756Y-116641464D01*
X-16210421Y-116668467D01*
X-16210416Y-116668468D01*
X-16204784Y-116669742D01*
X-16199013Y-116669969D01*
X-16199011Y-116669969D01*
X-16139244Y-116672317D01*
X-16001947Y-116677712D01*
X-15901501Y-116663148D01*
X-15806769Y-116649413D01*
X-15806764Y-116649412D01*
X-15801055Y-116648584D01*
X-15795591Y-116646729D01*
X-15795586Y-116646728D01*
X-15614307Y-116585192D01*
X-15614302Y-116585190D01*
X-15608835Y-116583334D01*
X-15431724Y-116484147D01*
X-15369066Y-116432035D01*
X-15280087Y-116358031D01*
X-15275655Y-116354345D01*
X-15145853Y-116198276D01*
X-15046666Y-116021165D01*
X-15044810Y-116015698D01*
X-15044808Y-116015693D01*
X-14983272Y-115834414D01*
X-14983271Y-115834409D01*
X-14981416Y-115828945D01*
X-14980588Y-115823236D01*
X-14980587Y-115823231D01*
X-14952821Y-115631727D01*
X-14952288Y-115628053D01*
X-14950768Y-115570000D01*
X-14953436Y-115540964D01*
X14951148Y-115540964D01*
X14964424Y-115743522D01*
X14965845Y-115749118D01*
X14965846Y-115749123D01*
X14986119Y-115828945D01*
X15014392Y-115940269D01*
X15016809Y-115945512D01*
X15054010Y-116026208D01*
X15099377Y-116124616D01*
X15216533Y-116290389D01*
X15361938Y-116432035D01*
X15530720Y-116544812D01*
X15536023Y-116547090D01*
X15536026Y-116547092D01*
X15624707Y-116585192D01*
X15717228Y-116624942D01*
X15790244Y-116641464D01*
X15909579Y-116668467D01*
X15909584Y-116668468D01*
X15915216Y-116669742D01*
X15920987Y-116669969D01*
X15920989Y-116669969D01*
X15980756Y-116672317D01*
X16118053Y-116677712D01*
X16218499Y-116663148D01*
X16313231Y-116649413D01*
X16313236Y-116649412D01*
X16318945Y-116648584D01*
X16324409Y-116646729D01*
X16324414Y-116646728D01*
X16505693Y-116585192D01*
X16505698Y-116585190D01*
X16511165Y-116583334D01*
X16688276Y-116484147D01*
X16750934Y-116432035D01*
X16839913Y-116358031D01*
X16844345Y-116354345D01*
X16974147Y-116198276D01*
X17073334Y-116021165D01*
X17075190Y-116015698D01*
X17075192Y-116015693D01*
X17136728Y-115834414D01*
X17136729Y-115834409D01*
X17138584Y-115828945D01*
X17139412Y-115823236D01*
X17139413Y-115823231D01*
X17167179Y-115631727D01*
X17167712Y-115628053D01*
X17169232Y-115570000D01*
X17150658Y-115367859D01*
X17149090Y-115362299D01*
X17097125Y-115178046D01*
X17097124Y-115178044D01*
X17095557Y-115172487D01*
X17084978Y-115151033D01*
X17008331Y-114995609D01*
X17005776Y-114990428D01*
X16884320Y-114827779D01*
X16735258Y-114689987D01*
X16730375Y-114686906D01*
X16730371Y-114686903D01*
X16568464Y-114584748D01*
X16563581Y-114581667D01*
X16375039Y-114506446D01*
X16369379Y-114505320D01*
X16369375Y-114505319D01*
X16181613Y-114467971D01*
X16181610Y-114467971D01*
X16175946Y-114466844D01*
X16170171Y-114466768D01*
X16170167Y-114466768D01*
X16068793Y-114465441D01*
X15972971Y-114464187D01*
X15967274Y-114465166D01*
X15967273Y-114465166D01*
X15778607Y-114497585D01*
X15772910Y-114498564D01*
X15582463Y-114568824D01*
X15408010Y-114672612D01*
X15403670Y-114676418D01*
X15403666Y-114676421D01*
X15383723Y-114693911D01*
X15255392Y-114806455D01*
X15129720Y-114965869D01*
X15127031Y-114970980D01*
X15127029Y-114970983D01*
X15114073Y-114995609D01*
X15035203Y-115145515D01*
X14975007Y-115339378D01*
X14951148Y-115540964D01*
X-14953436Y-115540964D01*
X-14969342Y-115367859D01*
X-14970910Y-115362299D01*
X-15022875Y-115178046D01*
X-15022876Y-115178044D01*
X-15024443Y-115172487D01*
X-15035022Y-115151033D01*
X-15111669Y-114995609D01*
X-15114224Y-114990428D01*
X-15235680Y-114827779D01*
X-15384742Y-114689987D01*
X-15389625Y-114686906D01*
X-15389629Y-114686903D01*
X-15551536Y-114584748D01*
X-15556419Y-114581667D01*
X-15744961Y-114506446D01*
X-15750621Y-114505320D01*
X-15750625Y-114505319D01*
X-15938387Y-114467971D01*
X-15938390Y-114467971D01*
X-15944054Y-114466844D01*
X-15949829Y-114466768D01*
X-15949833Y-114466768D01*
X-16051207Y-114465441D01*
X-16147029Y-114464187D01*
X-16152726Y-114465166D01*
X-16152727Y-114465166D01*
X-16341393Y-114497585D01*
X-16347090Y-114498564D01*
X-16537537Y-114568824D01*
X-16711990Y-114672612D01*
X-16716330Y-114676418D01*
X-16716334Y-114676421D01*
X-16736277Y-114693911D01*
X-16864608Y-114806455D01*
X-16990280Y-114965869D01*
X-16992969Y-114970980D01*
X-16992971Y-114970983D01*
X-17005927Y-114995609D01*
X-17084797Y-115145515D01*
X-17144993Y-115339378D01*
X-17168852Y-115540964D01*
X-18541500Y-115540964D01*
X-18541500Y-113000964D01*
X-17168852Y-113000964D01*
X-17155576Y-113203522D01*
X-17154155Y-113209118D01*
X-17154154Y-113209123D01*
X-17133881Y-113288945D01*
X-17105608Y-113400269D01*
X-17103191Y-113405512D01*
X-17065990Y-113486208D01*
X-17020623Y-113584616D01*
X-16903467Y-113750389D01*
X-16758062Y-113892035D01*
X-16589280Y-114004812D01*
X-16583977Y-114007090D01*
X-16583974Y-114007092D01*
X-16495293Y-114045192D01*
X-16402772Y-114084942D01*
X-16329756Y-114101464D01*
X-16210421Y-114128467D01*
X-16210416Y-114128468D01*
X-16204784Y-114129742D01*
X-16199013Y-114129969D01*
X-16199011Y-114129969D01*
X-16139244Y-114132317D01*
X-16001947Y-114137712D01*
X-15901501Y-114123148D01*
X-15806769Y-114109413D01*
X-15806764Y-114109412D01*
X-15801055Y-114108584D01*
X-15795591Y-114106729D01*
X-15795586Y-114106728D01*
X-15614307Y-114045192D01*
X-15614302Y-114045190D01*
X-15608835Y-114043334D01*
X-15431724Y-113944147D01*
X-15369066Y-113892035D01*
X-15280087Y-113818031D01*
X-15275655Y-113814345D01*
X-15145853Y-113658276D01*
X-15046666Y-113481165D01*
X-15044810Y-113475698D01*
X-15044808Y-113475693D01*
X-14983272Y-113294414D01*
X-14983271Y-113294409D01*
X-14981416Y-113288945D01*
X-14980588Y-113283236D01*
X-14980587Y-113283231D01*
X-14952821Y-113091727D01*
X-14952288Y-113088053D01*
X-14950768Y-113030000D01*
X-14953436Y-113000964D01*
X14951148Y-113000964D01*
X14964424Y-113203522D01*
X14965845Y-113209118D01*
X14965846Y-113209123D01*
X14986119Y-113288945D01*
X15014392Y-113400269D01*
X15016809Y-113405512D01*
X15054010Y-113486208D01*
X15099377Y-113584616D01*
X15216533Y-113750389D01*
X15361938Y-113892035D01*
X15530720Y-114004812D01*
X15536023Y-114007090D01*
X15536026Y-114007092D01*
X15624707Y-114045192D01*
X15717228Y-114084942D01*
X15790244Y-114101464D01*
X15909579Y-114128467D01*
X15909584Y-114128468D01*
X15915216Y-114129742D01*
X15920987Y-114129969D01*
X15920989Y-114129969D01*
X15980756Y-114132317D01*
X16118053Y-114137712D01*
X16218499Y-114123148D01*
X16313231Y-114109413D01*
X16313236Y-114109412D01*
X16318945Y-114108584D01*
X16324409Y-114106729D01*
X16324414Y-114106728D01*
X16505693Y-114045192D01*
X16505698Y-114045190D01*
X16511165Y-114043334D01*
X16688276Y-113944147D01*
X16750934Y-113892035D01*
X16839913Y-113818031D01*
X16844345Y-113814345D01*
X16974147Y-113658276D01*
X17073334Y-113481165D01*
X17075190Y-113475698D01*
X17075192Y-113475693D01*
X17136728Y-113294414D01*
X17136729Y-113294409D01*
X17138584Y-113288945D01*
X17139412Y-113283236D01*
X17139413Y-113283231D01*
X17167179Y-113091727D01*
X17167712Y-113088053D01*
X17169232Y-113030000D01*
X17150658Y-112827859D01*
X17149090Y-112822299D01*
X17097125Y-112638046D01*
X17097124Y-112638044D01*
X17095557Y-112632487D01*
X17084978Y-112611033D01*
X17008331Y-112455609D01*
X17005776Y-112450428D01*
X16884320Y-112287779D01*
X16735258Y-112149987D01*
X16730375Y-112146906D01*
X16730371Y-112146903D01*
X16568464Y-112044748D01*
X16563581Y-112041667D01*
X16375039Y-111966446D01*
X16369379Y-111965320D01*
X16369375Y-111965319D01*
X16181613Y-111927971D01*
X16181610Y-111927971D01*
X16175946Y-111926844D01*
X16170171Y-111926768D01*
X16170167Y-111926768D01*
X16068793Y-111925441D01*
X15972971Y-111924187D01*
X15967274Y-111925166D01*
X15967273Y-111925166D01*
X15778607Y-111957585D01*
X15772910Y-111958564D01*
X15582463Y-112028824D01*
X15408010Y-112132612D01*
X15403670Y-112136418D01*
X15403666Y-112136421D01*
X15383723Y-112153911D01*
X15255392Y-112266455D01*
X15129720Y-112425869D01*
X15127031Y-112430980D01*
X15127029Y-112430983D01*
X15114073Y-112455609D01*
X15035203Y-112605515D01*
X14975007Y-112799378D01*
X14951148Y-113000964D01*
X-14953436Y-113000964D01*
X-14969342Y-112827859D01*
X-14970910Y-112822299D01*
X-15022875Y-112638046D01*
X-15022876Y-112638044D01*
X-15024443Y-112632487D01*
X-15035022Y-112611033D01*
X-15111669Y-112455609D01*
X-15114224Y-112450428D01*
X-15235680Y-112287779D01*
X-15384742Y-112149987D01*
X-15389625Y-112146906D01*
X-15389629Y-112146903D01*
X-15551536Y-112044748D01*
X-15556419Y-112041667D01*
X-15744961Y-111966446D01*
X-15750621Y-111965320D01*
X-15750625Y-111965319D01*
X-15938387Y-111927971D01*
X-15938390Y-111927971D01*
X-15944054Y-111926844D01*
X-15949829Y-111926768D01*
X-15949833Y-111926768D01*
X-16051207Y-111925441D01*
X-16147029Y-111924187D01*
X-16152726Y-111925166D01*
X-16152727Y-111925166D01*
X-16341393Y-111957585D01*
X-16347090Y-111958564D01*
X-16537537Y-112028824D01*
X-16711990Y-112132612D01*
X-16716330Y-112136418D01*
X-16716334Y-112136421D01*
X-16736277Y-112153911D01*
X-16864608Y-112266455D01*
X-16990280Y-112425869D01*
X-16992969Y-112430980D01*
X-16992971Y-112430983D01*
X-17005927Y-112455609D01*
X-17084797Y-112605515D01*
X-17144993Y-112799378D01*
X-17168852Y-113000964D01*
X-18541500Y-113000964D01*
X-18541500Y-110460964D01*
X-17168852Y-110460964D01*
X-17155576Y-110663522D01*
X-17154155Y-110669118D01*
X-17154154Y-110669123D01*
X-17133881Y-110748945D01*
X-17105608Y-110860269D01*
X-17103191Y-110865512D01*
X-17065990Y-110946208D01*
X-17020623Y-111044616D01*
X-16903467Y-111210389D01*
X-16758062Y-111352035D01*
X-16589280Y-111464812D01*
X-16583977Y-111467090D01*
X-16583974Y-111467092D01*
X-16495293Y-111505192D01*
X-16402772Y-111544942D01*
X-16329756Y-111561464D01*
X-16210421Y-111588467D01*
X-16210416Y-111588468D01*
X-16204784Y-111589742D01*
X-16199013Y-111589969D01*
X-16199011Y-111589969D01*
X-16139244Y-111592317D01*
X-16001947Y-111597712D01*
X-15901501Y-111583148D01*
X-15806769Y-111569413D01*
X-15806764Y-111569412D01*
X-15801055Y-111568584D01*
X-15795591Y-111566729D01*
X-15795586Y-111566728D01*
X-15614307Y-111505192D01*
X-15614302Y-111505190D01*
X-15608835Y-111503334D01*
X-15431724Y-111404147D01*
X-15369066Y-111352035D01*
X-15280087Y-111278031D01*
X-15275655Y-111274345D01*
X-15145853Y-111118276D01*
X-15046666Y-110941165D01*
X-15044810Y-110935698D01*
X-15044808Y-110935693D01*
X-14983272Y-110754414D01*
X-14983271Y-110754409D01*
X-14981416Y-110748945D01*
X-14980588Y-110743236D01*
X-14980587Y-110743231D01*
X-14952821Y-110551727D01*
X-14952288Y-110548053D01*
X-14950768Y-110490000D01*
X-14953436Y-110460964D01*
X14951148Y-110460964D01*
X14964424Y-110663522D01*
X14965845Y-110669118D01*
X14965846Y-110669123D01*
X14986119Y-110748945D01*
X15014392Y-110860269D01*
X15016809Y-110865512D01*
X15054010Y-110946208D01*
X15099377Y-111044616D01*
X15216533Y-111210389D01*
X15361938Y-111352035D01*
X15530720Y-111464812D01*
X15536023Y-111467090D01*
X15536026Y-111467092D01*
X15624707Y-111505192D01*
X15717228Y-111544942D01*
X15790244Y-111561464D01*
X15909579Y-111588467D01*
X15909584Y-111588468D01*
X15915216Y-111589742D01*
X15920987Y-111589969D01*
X15920989Y-111589969D01*
X15980756Y-111592317D01*
X16118053Y-111597712D01*
X16218499Y-111583148D01*
X16313231Y-111569413D01*
X16313236Y-111569412D01*
X16318945Y-111568584D01*
X16324409Y-111566729D01*
X16324414Y-111566728D01*
X16505693Y-111505192D01*
X16505698Y-111505190D01*
X16511165Y-111503334D01*
X16688276Y-111404147D01*
X16750934Y-111352035D01*
X16839913Y-111278031D01*
X16844345Y-111274345D01*
X16974147Y-111118276D01*
X17073334Y-110941165D01*
X17075190Y-110935698D01*
X17075192Y-110935693D01*
X17136728Y-110754414D01*
X17136729Y-110754409D01*
X17138584Y-110748945D01*
X17139412Y-110743236D01*
X17139413Y-110743231D01*
X17167179Y-110551727D01*
X17167712Y-110548053D01*
X17169232Y-110490000D01*
X17150658Y-110287859D01*
X17149090Y-110282299D01*
X17097125Y-110098046D01*
X17097124Y-110098044D01*
X17095557Y-110092487D01*
X17084978Y-110071033D01*
X17008331Y-109915609D01*
X17005776Y-109910428D01*
X16884320Y-109747779D01*
X16735258Y-109609987D01*
X16730375Y-109606906D01*
X16730371Y-109606903D01*
X16568464Y-109504748D01*
X16563581Y-109501667D01*
X16375039Y-109426446D01*
X16369379Y-109425320D01*
X16369375Y-109425319D01*
X16181613Y-109387971D01*
X16181610Y-109387971D01*
X16175946Y-109386844D01*
X16170171Y-109386768D01*
X16170167Y-109386768D01*
X16068793Y-109385441D01*
X15972971Y-109384187D01*
X15967274Y-109385166D01*
X15967273Y-109385166D01*
X15778607Y-109417585D01*
X15772910Y-109418564D01*
X15582463Y-109488824D01*
X15408010Y-109592612D01*
X15403670Y-109596418D01*
X15403666Y-109596421D01*
X15383723Y-109613911D01*
X15255392Y-109726455D01*
X15129720Y-109885869D01*
X15127031Y-109890980D01*
X15127029Y-109890983D01*
X15114073Y-109915609D01*
X15035203Y-110065515D01*
X14975007Y-110259378D01*
X14951148Y-110460964D01*
X-14953436Y-110460964D01*
X-14969342Y-110287859D01*
X-14970910Y-110282299D01*
X-15022875Y-110098046D01*
X-15022876Y-110098044D01*
X-15024443Y-110092487D01*
X-15035022Y-110071033D01*
X-15111669Y-109915609D01*
X-15114224Y-109910428D01*
X-15235680Y-109747779D01*
X-15384742Y-109609987D01*
X-15389625Y-109606906D01*
X-15389629Y-109606903D01*
X-15551536Y-109504748D01*
X-15556419Y-109501667D01*
X-15744961Y-109426446D01*
X-15750621Y-109425320D01*
X-15750625Y-109425319D01*
X-15938387Y-109387971D01*
X-15938390Y-109387971D01*
X-15944054Y-109386844D01*
X-15949829Y-109386768D01*
X-15949833Y-109386768D01*
X-16051207Y-109385441D01*
X-16147029Y-109384187D01*
X-16152726Y-109385166D01*
X-16152727Y-109385166D01*
X-16341393Y-109417585D01*
X-16347090Y-109418564D01*
X-16537537Y-109488824D01*
X-16711990Y-109592612D01*
X-16716330Y-109596418D01*
X-16716334Y-109596421D01*
X-16736277Y-109613911D01*
X-16864608Y-109726455D01*
X-16990280Y-109885869D01*
X-16992969Y-109890980D01*
X-16992971Y-109890983D01*
X-17005927Y-109915609D01*
X-17084797Y-110065515D01*
X-17144993Y-110259378D01*
X-17168852Y-110460964D01*
X-18541500Y-110460964D01*
X-18541500Y-107920964D01*
X-17168852Y-107920964D01*
X-17155576Y-108123522D01*
X-17154155Y-108129118D01*
X-17154154Y-108129123D01*
X-17133881Y-108208945D01*
X-17105608Y-108320269D01*
X-17103191Y-108325512D01*
X-17065990Y-108406208D01*
X-17020623Y-108504616D01*
X-16903467Y-108670389D01*
X-16899325Y-108674424D01*
X-16847918Y-108724502D01*
X-16758062Y-108812035D01*
X-16589280Y-108924812D01*
X-16583977Y-108927090D01*
X-16583974Y-108927092D01*
X-16447762Y-108985613D01*
X-16402772Y-109004942D01*
X-16329756Y-109021464D01*
X-16210421Y-109048467D01*
X-16210416Y-109048468D01*
X-16204784Y-109049742D01*
X-16199013Y-109049969D01*
X-16199011Y-109049969D01*
X-16139244Y-109052317D01*
X-16001947Y-109057712D01*
X-15901501Y-109043148D01*
X-15806769Y-109029413D01*
X-15806764Y-109029412D01*
X-15801055Y-109028584D01*
X-15795591Y-109026729D01*
X-15795586Y-109026728D01*
X-15614307Y-108965192D01*
X-15614302Y-108965190D01*
X-15608835Y-108963334D01*
X-15431724Y-108864147D01*
X-15378752Y-108820091D01*
X-15275655Y-108734345D01*
X-15274055Y-108736269D01*
X-15221149Y-108707379D01*
X-15194366Y-108704500D01*
X-786907Y-108704500D01*
X-718786Y-108724502D01*
X-705244Y-108734546D01*
X-604729Y-108820091D01*
X-424211Y-108920980D01*
X-227534Y-108984884D01*
X-22191Y-109009370D01*
X-16056Y-109008898D01*
X-16054Y-109008898D01*
X177856Y-108993977D01*
X177860Y-108993976D01*
X183998Y-108993504D01*
X383178Y-108937892D01*
X388682Y-108935112D01*
X388684Y-108935111D01*
X562262Y-108847431D01*
X562264Y-108847430D01*
X567763Y-108844652D01*
X730722Y-108717334D01*
X734748Y-108712670D01*
X734751Y-108712667D01*
X861819Y-108565457D01*
X861820Y-108565455D01*
X865848Y-108560789D01*
X956528Y-108401165D01*
X964950Y-108386340D01*
X964952Y-108386336D01*
X967995Y-108380979D01*
X1023403Y-108214414D01*
X1031325Y-108190601D01*
X1031326Y-108190598D01*
X1033270Y-108184753D01*
X1059189Y-107979586D01*
X1059602Y-107950000D01*
X1056755Y-107920964D01*
X14951148Y-107920964D01*
X14964424Y-108123522D01*
X14965845Y-108129118D01*
X14965846Y-108129123D01*
X14986119Y-108208945D01*
X15014392Y-108320269D01*
X15016809Y-108325512D01*
X15054010Y-108406208D01*
X15099377Y-108504616D01*
X15216533Y-108670389D01*
X15220675Y-108674424D01*
X15272082Y-108724502D01*
X15361938Y-108812035D01*
X15530720Y-108924812D01*
X15536023Y-108927090D01*
X15536026Y-108927092D01*
X15672238Y-108985613D01*
X15717228Y-109004942D01*
X15790244Y-109021464D01*
X15909579Y-109048467D01*
X15909584Y-109048468D01*
X15915216Y-109049742D01*
X15920987Y-109049969D01*
X15920989Y-109049969D01*
X15980756Y-109052317D01*
X16118053Y-109057712D01*
X16218499Y-109043148D01*
X16313231Y-109029413D01*
X16313236Y-109029412D01*
X16318945Y-109028584D01*
X16324409Y-109026729D01*
X16324414Y-109026728D01*
X16505693Y-108965192D01*
X16505698Y-108965190D01*
X16511165Y-108963334D01*
X16688276Y-108864147D01*
X16741248Y-108820091D01*
X16839913Y-108738031D01*
X16844345Y-108734345D01*
X16974147Y-108578276D01*
X17073334Y-108401165D01*
X17075190Y-108395698D01*
X17075192Y-108395693D01*
X17136728Y-108214414D01*
X17136729Y-108214409D01*
X17138584Y-108208945D01*
X17139412Y-108203236D01*
X17139413Y-108203231D01*
X17167179Y-108011727D01*
X17167712Y-108008053D01*
X17169232Y-107950000D01*
X17150658Y-107747859D01*
X17147958Y-107738287D01*
X17097125Y-107558046D01*
X17097124Y-107558044D01*
X17095557Y-107552487D01*
X17089782Y-107540775D01*
X17008331Y-107375609D01*
X17005776Y-107370428D01*
X16884320Y-107207779D01*
X16735258Y-107069987D01*
X16730375Y-107066906D01*
X16730371Y-107066903D01*
X16568464Y-106964748D01*
X16563581Y-106961667D01*
X16375039Y-106886446D01*
X16369379Y-106885320D01*
X16369375Y-106885319D01*
X16181613Y-106847971D01*
X16181610Y-106847971D01*
X16175946Y-106846844D01*
X16170171Y-106846768D01*
X16170167Y-106846768D01*
X16068793Y-106845441D01*
X15972971Y-106844187D01*
X15967274Y-106845166D01*
X15967273Y-106845166D01*
X15778607Y-106877585D01*
X15772910Y-106878564D01*
X15582463Y-106948824D01*
X15408010Y-107052612D01*
X15403670Y-107056418D01*
X15403666Y-107056421D01*
X15383723Y-107073911D01*
X15255392Y-107186455D01*
X15251817Y-107190990D01*
X15251816Y-107190991D01*
X15234931Y-107212409D01*
X15129720Y-107345869D01*
X15127031Y-107350980D01*
X15127029Y-107350983D01*
X15114073Y-107375609D01*
X15035203Y-107525515D01*
X14975007Y-107719378D01*
X14951148Y-107920964D01*
X1056755Y-107920964D01*
X1039422Y-107744189D01*
X979651Y-107546217D01*
X888937Y-107375609D01*
X885459Y-107369067D01*
X885457Y-107369064D01*
X882565Y-107363625D01*
X878674Y-107358855D01*
X878672Y-107358851D01*
X755758Y-107208143D01*
X755755Y-107208140D01*
X751863Y-107203368D01*
X747114Y-107199439D01*
X597271Y-107075478D01*
X597266Y-107075475D01*
X592522Y-107071550D01*
X587103Y-107068620D01*
X587100Y-107068618D01*
X416032Y-106976122D01*
X416027Y-106976120D01*
X410612Y-106973192D01*
X213063Y-106912040D01*
X206938Y-106911396D01*
X206937Y-106911396D01*
X13526Y-106891068D01*
X13524Y-106891068D01*
X7397Y-106890424D01*
X-118771Y-106901906D01*
X-192409Y-106908607D01*
X-192410Y-106908607D01*
X-198550Y-106909166D01*
X-396934Y-106967554D01*
X-402399Y-106970411D01*
X-574739Y-107060508D01*
X-574743Y-107060511D01*
X-580199Y-107063363D01*
X-702910Y-107162025D01*
X-709965Y-107167697D01*
X-775588Y-107194793D01*
X-788917Y-107195500D01*
X-15199647Y-107195500D01*
X-15267768Y-107175498D01*
X-15285176Y-107162025D01*
X-15380502Y-107073906D01*
X-15380505Y-107073904D01*
X-15384742Y-107069987D01*
X-15556419Y-106961667D01*
X-15744961Y-106886446D01*
X-15750621Y-106885320D01*
X-15750625Y-106885319D01*
X-15938387Y-106847971D01*
X-15938390Y-106847971D01*
X-15944054Y-106846844D01*
X-15949829Y-106846768D01*
X-15949833Y-106846768D01*
X-16051207Y-106845441D01*
X-16147029Y-106844187D01*
X-16152726Y-106845166D01*
X-16152727Y-106845166D01*
X-16341393Y-106877585D01*
X-16347090Y-106878564D01*
X-16537537Y-106948824D01*
X-16711990Y-107052612D01*
X-16716330Y-107056418D01*
X-16716334Y-107056421D01*
X-16736277Y-107073911D01*
X-16864608Y-107186455D01*
X-16868183Y-107190990D01*
X-16868184Y-107190991D01*
X-16885069Y-107212409D01*
X-16990280Y-107345869D01*
X-16992969Y-107350980D01*
X-16992971Y-107350983D01*
X-17005927Y-107375609D01*
X-17084797Y-107525515D01*
X-17144993Y-107719378D01*
X-17168852Y-107920964D01*
X-18541500Y-107920964D01*
X-18541500Y-105380964D01*
X-17168852Y-105380964D01*
X-17155576Y-105583522D01*
X-17154155Y-105589118D01*
X-17154154Y-105589123D01*
X-17113833Y-105747884D01*
X-17105608Y-105780269D01*
X-17103191Y-105785512D01*
X-17065990Y-105866208D01*
X-17020623Y-105964616D01*
X-16903467Y-106130389D01*
X-16758062Y-106272035D01*
X-16589280Y-106384812D01*
X-16583977Y-106387090D01*
X-16583974Y-106387092D01*
X-16495293Y-106425192D01*
X-16402772Y-106464942D01*
X-16329756Y-106481464D01*
X-16210421Y-106508467D01*
X-16210416Y-106508468D01*
X-16204784Y-106509742D01*
X-16199013Y-106509969D01*
X-16199011Y-106509969D01*
X-16139244Y-106512317D01*
X-16001947Y-106517712D01*
X-15901501Y-106503148D01*
X-15806769Y-106489413D01*
X-15806764Y-106489412D01*
X-15801055Y-106488584D01*
X-15795591Y-106486729D01*
X-15795586Y-106486728D01*
X-15614307Y-106425192D01*
X-15614302Y-106425190D01*
X-15608835Y-106423334D01*
X-15431724Y-106324147D01*
X-15369066Y-106272035D01*
X-15280087Y-106198031D01*
X-15275655Y-106194345D01*
X-15145853Y-106038276D01*
X-15046666Y-105861165D01*
X-15044810Y-105855698D01*
X-15044808Y-105855693D01*
X-14983272Y-105674414D01*
X-14983271Y-105674409D01*
X-14981416Y-105668945D01*
X-14980588Y-105663236D01*
X-14980587Y-105663231D01*
X-14958524Y-105511061D01*
X-14952288Y-105468053D01*
X-14950768Y-105410000D01*
X-14969342Y-105207859D01*
X-14970910Y-105202299D01*
X-15022875Y-105018046D01*
X-15022876Y-105018044D01*
X-15024443Y-105012487D01*
X-15028808Y-105003634D01*
X-15111669Y-104835609D01*
X-15114224Y-104830428D01*
X-15235680Y-104667779D01*
X-15384742Y-104529987D01*
X-15389625Y-104526906D01*
X-15389629Y-104526903D01*
X-15551536Y-104424748D01*
X-15556419Y-104421667D01*
X-15744961Y-104346446D01*
X-15750621Y-104345320D01*
X-15750625Y-104345319D01*
X-15938387Y-104307971D01*
X-15938390Y-104307971D01*
X-15944054Y-104306844D01*
X-15949829Y-104306768D01*
X-15949833Y-104306768D01*
X-16051207Y-104305441D01*
X-16147029Y-104304187D01*
X-16152726Y-104305166D01*
X-16152727Y-104305166D01*
X-16341393Y-104337585D01*
X-16347090Y-104338564D01*
X-16537537Y-104408824D01*
X-16711990Y-104512612D01*
X-16716330Y-104516418D01*
X-16716334Y-104516421D01*
X-16783497Y-104575322D01*
X-16864608Y-104646455D01*
X-16990280Y-104805869D01*
X-16992969Y-104810980D01*
X-16992971Y-104810983D01*
X-17003248Y-104830517D01*
X-17084797Y-104985515D01*
X-17092323Y-105009753D01*
X-17142252Y-105170552D01*
X-17144993Y-105179378D01*
X-17168852Y-105380964D01*
X-18541500Y-105380964D01*
X-18541500Y-102840964D01*
X-17168852Y-102840964D01*
X-17155576Y-103043522D01*
X-17154155Y-103049118D01*
X-17154154Y-103049123D01*
X-17133881Y-103128945D01*
X-17105608Y-103240269D01*
X-17103191Y-103245512D01*
X-17065990Y-103326208D01*
X-17020623Y-103424616D01*
X-16903467Y-103590389D01*
X-16758062Y-103732035D01*
X-16589280Y-103844812D01*
X-16583977Y-103847090D01*
X-16583974Y-103847092D01*
X-16459714Y-103900478D01*
X-16402772Y-103924942D01*
X-16329756Y-103941464D01*
X-16210421Y-103968467D01*
X-16210416Y-103968468D01*
X-16204784Y-103969742D01*
X-16199013Y-103969969D01*
X-16199011Y-103969969D01*
X-16139244Y-103972317D01*
X-16001947Y-103977712D01*
X-15894652Y-103962155D01*
X-15806769Y-103949413D01*
X-15806764Y-103949412D01*
X-15801055Y-103948584D01*
X-15795591Y-103946729D01*
X-15795586Y-103946728D01*
X-15614307Y-103885192D01*
X-15614302Y-103885190D01*
X-15608835Y-103883334D01*
X-15431724Y-103784147D01*
X-15392031Y-103751135D01*
X-15275655Y-103654345D01*
X-15274055Y-103656269D01*
X-15221149Y-103627379D01*
X-15194366Y-103624500D01*
X-11159715Y-103624500D01*
X-11091594Y-103644502D01*
X-11070620Y-103661405D01*
X-9980058Y-104751966D01*
X-9946033Y-104814278D01*
X-9943595Y-104830517D01*
X-9932194Y-104966278D01*
X-9875193Y-105165066D01*
X-9872375Y-105170548D01*
X-9872374Y-105170552D01*
X-9783486Y-105343509D01*
X-9783483Y-105343513D01*
X-9780666Y-105348995D01*
X-9652214Y-105511061D01*
X-9647521Y-105515055D01*
X-9647520Y-105515056D01*
X-9567072Y-105583522D01*
X-9494729Y-105645091D01*
X-9314211Y-105745980D01*
X-9117534Y-105809884D01*
X-8912191Y-105834370D01*
X-8906056Y-105833898D01*
X-8906054Y-105833898D01*
X-8712144Y-105818977D01*
X-8712140Y-105818976D01*
X-8706002Y-105818504D01*
X-8506822Y-105762892D01*
X-8501318Y-105760112D01*
X-8501316Y-105760111D01*
X-8327738Y-105672431D01*
X-8327736Y-105672430D01*
X-8322237Y-105669652D01*
X-8159278Y-105542334D01*
X-8155252Y-105537670D01*
X-8155249Y-105537667D01*
X-8028181Y-105390457D01*
X-8028180Y-105390455D01*
X-8024152Y-105385789D01*
X-8021411Y-105380964D01*
X14951148Y-105380964D01*
X14964424Y-105583522D01*
X14965845Y-105589118D01*
X14965846Y-105589123D01*
X15006167Y-105747884D01*
X15014392Y-105780269D01*
X15016809Y-105785512D01*
X15054010Y-105866208D01*
X15099377Y-105964616D01*
X15216533Y-106130389D01*
X15361938Y-106272035D01*
X15530720Y-106384812D01*
X15536023Y-106387090D01*
X15536026Y-106387092D01*
X15624707Y-106425192D01*
X15717228Y-106464942D01*
X15790244Y-106481464D01*
X15909579Y-106508467D01*
X15909584Y-106508468D01*
X15915216Y-106509742D01*
X15920987Y-106509969D01*
X15920989Y-106509969D01*
X15980756Y-106512317D01*
X16118053Y-106517712D01*
X16218499Y-106503148D01*
X16313231Y-106489413D01*
X16313236Y-106489412D01*
X16318945Y-106488584D01*
X16324409Y-106486729D01*
X16324414Y-106486728D01*
X16505693Y-106425192D01*
X16505698Y-106425190D01*
X16511165Y-106423334D01*
X16688276Y-106324147D01*
X16750934Y-106272035D01*
X16839913Y-106198031D01*
X16844345Y-106194345D01*
X16974147Y-106038276D01*
X17073334Y-105861165D01*
X17075190Y-105855698D01*
X17075192Y-105855693D01*
X17136728Y-105674414D01*
X17136729Y-105674409D01*
X17138584Y-105668945D01*
X17139412Y-105663236D01*
X17139413Y-105663231D01*
X17161476Y-105511061D01*
X17167712Y-105468053D01*
X17169232Y-105410000D01*
X17150658Y-105207859D01*
X17149090Y-105202299D01*
X17097125Y-105018046D01*
X17097124Y-105018044D01*
X17095557Y-105012487D01*
X17091192Y-105003634D01*
X17008331Y-104835609D01*
X17005776Y-104830428D01*
X16884320Y-104667779D01*
X16735258Y-104529987D01*
X16730375Y-104526906D01*
X16730371Y-104526903D01*
X16568464Y-104424748D01*
X16563581Y-104421667D01*
X16375039Y-104346446D01*
X16369379Y-104345320D01*
X16369375Y-104345319D01*
X16181613Y-104307971D01*
X16181610Y-104307971D01*
X16175946Y-104306844D01*
X16170171Y-104306768D01*
X16170167Y-104306768D01*
X16068793Y-104305441D01*
X15972971Y-104304187D01*
X15967274Y-104305166D01*
X15967273Y-104305166D01*
X15778607Y-104337585D01*
X15772910Y-104338564D01*
X15582463Y-104408824D01*
X15408010Y-104512612D01*
X15403670Y-104516418D01*
X15403666Y-104516421D01*
X15336503Y-104575322D01*
X15255392Y-104646455D01*
X15129720Y-104805869D01*
X15127031Y-104810980D01*
X15127029Y-104810983D01*
X15116752Y-104830517D01*
X15035203Y-104985515D01*
X15027677Y-105009753D01*
X14977748Y-105170552D01*
X14975007Y-105179378D01*
X14951148Y-105380964D01*
X-8021411Y-105380964D01*
X-7973079Y-105295884D01*
X-7925050Y-105211340D01*
X-7925048Y-105211336D01*
X-7922005Y-105205979D01*
X-7889367Y-105107866D01*
X-7858675Y-105015601D01*
X-7858674Y-105015598D01*
X-7856730Y-105009753D01*
X-7830811Y-104804586D01*
X-7830398Y-104775000D01*
X-7850578Y-104569189D01*
X-7910349Y-104371217D01*
X-8007435Y-104188625D01*
X-8011326Y-104183855D01*
X-8011328Y-104183851D01*
X-8134242Y-104033143D01*
X-8134245Y-104033140D01*
X-8138137Y-104028368D01*
X-8142886Y-104024439D01*
X-8292729Y-103900478D01*
X-8292734Y-103900475D01*
X-8297478Y-103896550D01*
X-8302897Y-103893620D01*
X-8302900Y-103893618D01*
X-8473968Y-103801122D01*
X-8473973Y-103801120D01*
X-8479388Y-103798192D01*
X-8676937Y-103737040D01*
X-8683060Y-103736397D01*
X-8683062Y-103736396D01*
X-8771670Y-103727083D01*
X-8838173Y-103720094D01*
X-8903829Y-103693081D01*
X-8914097Y-103683879D01*
X-10214276Y-102383700D01*
X-10226663Y-102369287D01*
X-10235096Y-102357828D01*
X-10239437Y-102351929D01*
X-10279479Y-102317911D01*
X-10286995Y-102310981D01*
X-10292638Y-102305338D01*
X-10314798Y-102287806D01*
X-10318184Y-102285030D01*
X-10340737Y-102265869D01*
X-10373520Y-102238018D01*
X-10380040Y-102234689D01*
X-10385018Y-102231369D01*
X-10390091Y-102228236D01*
X-10395833Y-102223693D01*
X-10461617Y-102192947D01*
X-10465567Y-102191016D01*
X-10523693Y-102161336D01*
X-10530212Y-102158007D01*
X-10537322Y-102156267D01*
X-10542942Y-102154177D01*
X-10548593Y-102152297D01*
X-10555222Y-102149199D01*
X-10562386Y-102147709D01*
X-10562389Y-102147708D01*
X-10602495Y-102139367D01*
X-10626314Y-102134413D01*
X-10630573Y-102133449D01*
X-10701108Y-102116189D01*
X-10706705Y-102115842D01*
X-10706710Y-102115841D01*
X-10712214Y-102115500D01*
X-10712212Y-102115466D01*
X-10716271Y-102115223D01*
X-10720305Y-102114863D01*
X-10727473Y-102113372D01*
X-10734790Y-102113570D01*
X-10804415Y-102115454D01*
X-10807823Y-102115500D01*
X-15199647Y-102115500D01*
X-15267768Y-102095498D01*
X-15285176Y-102082025D01*
X-15379391Y-101994933D01*
X-2374500Y-101994933D01*
X-2374499Y-103745066D01*
X-2367461Y-103780453D01*
X-2363932Y-103798192D01*
X-2359734Y-103819301D01*
X-2352839Y-103829620D01*
X-2352838Y-103829622D01*
X-2312484Y-103890015D01*
X-2303484Y-103903484D01*
X-2219301Y-103959734D01*
X-2145067Y-103974500D01*
X-1270142Y-103974500D01*
X-394934Y-103974499D01*
X-359182Y-103967388D01*
X-332874Y-103962156D01*
X-332872Y-103962155D01*
X-320699Y-103959734D01*
X-310379Y-103952839D01*
X-310378Y-103952838D01*
X-246832Y-103910377D01*
X-236516Y-103903484D01*
X-180266Y-103819301D01*
X-165500Y-103745067D01*
X-165501Y-102840964D01*
X161148Y-102840964D01*
X174424Y-103043522D01*
X175845Y-103049118D01*
X175846Y-103049123D01*
X196119Y-103128945D01*
X224392Y-103240269D01*
X226809Y-103245512D01*
X264010Y-103326208D01*
X309377Y-103424616D01*
X426533Y-103590389D01*
X571938Y-103732035D01*
X740720Y-103844812D01*
X746023Y-103847090D01*
X746026Y-103847092D01*
X870286Y-103900478D01*
X927228Y-103924942D01*
X1000244Y-103941464D01*
X1119579Y-103968467D01*
X1119584Y-103968468D01*
X1125216Y-103969742D01*
X1130987Y-103969969D01*
X1130989Y-103969969D01*
X1190756Y-103972317D01*
X1328053Y-103977712D01*
X1435348Y-103962155D01*
X1523231Y-103949413D01*
X1523236Y-103949412D01*
X1528945Y-103948584D01*
X1534409Y-103946729D01*
X1534414Y-103946728D01*
X1715693Y-103885192D01*
X1715698Y-103885190D01*
X1721165Y-103883334D01*
X1898276Y-103784147D01*
X1937969Y-103751135D01*
X2049913Y-103658031D01*
X2054345Y-103654345D01*
X2184147Y-103498276D01*
X2283334Y-103321165D01*
X2285190Y-103315698D01*
X2285192Y-103315693D01*
X2346728Y-103134414D01*
X2346729Y-103134409D01*
X2348584Y-103128945D01*
X2349412Y-103123236D01*
X2349413Y-103123231D01*
X2377179Y-102931727D01*
X2377712Y-102928053D01*
X2379232Y-102870000D01*
X2376564Y-102840964D01*
X14951148Y-102840964D01*
X14964424Y-103043522D01*
X14965845Y-103049118D01*
X14965846Y-103049123D01*
X14986119Y-103128945D01*
X15014392Y-103240269D01*
X15016809Y-103245512D01*
X15054010Y-103326208D01*
X15099377Y-103424616D01*
X15216533Y-103590389D01*
X15361938Y-103732035D01*
X15530720Y-103844812D01*
X15536023Y-103847090D01*
X15536026Y-103847092D01*
X15660286Y-103900478D01*
X15717228Y-103924942D01*
X15790244Y-103941464D01*
X15909579Y-103968467D01*
X15909584Y-103968468D01*
X15915216Y-103969742D01*
X15920987Y-103969969D01*
X15920989Y-103969969D01*
X15980756Y-103972317D01*
X16118053Y-103977712D01*
X16225348Y-103962155D01*
X16313231Y-103949413D01*
X16313236Y-103949412D01*
X16318945Y-103948584D01*
X16324409Y-103946729D01*
X16324414Y-103946728D01*
X16505693Y-103885192D01*
X16505698Y-103885190D01*
X16511165Y-103883334D01*
X16688276Y-103784147D01*
X16727969Y-103751135D01*
X16839913Y-103658031D01*
X16844345Y-103654345D01*
X16974147Y-103498276D01*
X17073334Y-103321165D01*
X17075190Y-103315698D01*
X17075192Y-103315693D01*
X17136728Y-103134414D01*
X17136729Y-103134409D01*
X17138584Y-103128945D01*
X17139412Y-103123236D01*
X17139413Y-103123231D01*
X17167179Y-102931727D01*
X17167712Y-102928053D01*
X17169232Y-102870000D01*
X17150658Y-102667859D01*
X17149090Y-102662299D01*
X17097125Y-102478046D01*
X17097124Y-102478044D01*
X17095557Y-102472487D01*
X17084978Y-102451033D01*
X17008331Y-102295609D01*
X17005776Y-102290428D01*
X16884320Y-102127779D01*
X16735258Y-101989987D01*
X16730375Y-101986906D01*
X16730371Y-101986903D01*
X16568464Y-101884748D01*
X16563581Y-101881667D01*
X16375039Y-101806446D01*
X16369379Y-101805320D01*
X16369375Y-101805319D01*
X16181613Y-101767971D01*
X16181610Y-101767971D01*
X16175946Y-101766844D01*
X16170171Y-101766768D01*
X16170167Y-101766768D01*
X16068793Y-101765441D01*
X15972971Y-101764187D01*
X15967274Y-101765166D01*
X15967273Y-101765166D01*
X15879397Y-101780266D01*
X15772910Y-101798564D01*
X15582463Y-101868824D01*
X15408010Y-101972612D01*
X15403670Y-101976418D01*
X15403666Y-101976421D01*
X15283249Y-102082025D01*
X15255392Y-102106455D01*
X15129720Y-102265869D01*
X15127031Y-102270980D01*
X15127029Y-102270983D01*
X15114073Y-102295609D01*
X15035203Y-102445515D01*
X14975007Y-102639378D01*
X14951148Y-102840964D01*
X2376564Y-102840964D01*
X2360658Y-102667859D01*
X2359090Y-102662299D01*
X2307125Y-102478046D01*
X2307124Y-102478044D01*
X2305557Y-102472487D01*
X2294978Y-102451033D01*
X2218331Y-102295609D01*
X2215776Y-102290428D01*
X2094320Y-102127779D01*
X1945258Y-101989987D01*
X1940375Y-101986906D01*
X1940371Y-101986903D01*
X1778464Y-101884748D01*
X1773581Y-101881667D01*
X1585039Y-101806446D01*
X1579379Y-101805320D01*
X1579375Y-101805319D01*
X1391613Y-101767971D01*
X1391610Y-101767971D01*
X1385946Y-101766844D01*
X1380171Y-101766768D01*
X1380167Y-101766768D01*
X1278793Y-101765441D01*
X1182971Y-101764187D01*
X1177274Y-101765166D01*
X1177273Y-101765166D01*
X1089397Y-101780266D01*
X982910Y-101798564D01*
X792463Y-101868824D01*
X618010Y-101972612D01*
X613670Y-101976418D01*
X613666Y-101976421D01*
X493249Y-102082025D01*
X465392Y-102106455D01*
X339720Y-102265869D01*
X337031Y-102270980D01*
X337029Y-102270983D01*
X324073Y-102295609D01*
X245203Y-102445515D01*
X185007Y-102639378D01*
X161148Y-102840964D01*
X-165501Y-102840964D01*
X-165501Y-101994934D01*
X-180266Y-101920699D01*
X-206346Y-101881667D01*
X-229623Y-101846832D01*
X-236516Y-101836516D01*
X-320699Y-101780266D01*
X-394933Y-101765500D01*
X-1269858Y-101765500D01*
X-2145066Y-101765501D01*
X-2180818Y-101772612D01*
X-2207126Y-101777844D01*
X-2207128Y-101777845D01*
X-2219301Y-101780266D01*
X-2229621Y-101787161D01*
X-2229622Y-101787162D01*
X-2290015Y-101827516D01*
X-2303484Y-101836516D01*
X-2359734Y-101920699D01*
X-2374500Y-101994933D01*
X-15379391Y-101994933D01*
X-15380502Y-101993906D01*
X-15380505Y-101993904D01*
X-15384742Y-101989987D01*
X-15556419Y-101881667D01*
X-15744961Y-101806446D01*
X-15750621Y-101805320D01*
X-15750625Y-101805319D01*
X-15938387Y-101767971D01*
X-15938390Y-101767971D01*
X-15944054Y-101766844D01*
X-15949829Y-101766768D01*
X-15949833Y-101766768D01*
X-16051207Y-101765441D01*
X-16147029Y-101764187D01*
X-16152726Y-101765166D01*
X-16152727Y-101765166D01*
X-16240603Y-101780266D01*
X-16347090Y-101798564D01*
X-16537537Y-101868824D01*
X-16711990Y-101972612D01*
X-16716330Y-101976418D01*
X-16716334Y-101976421D01*
X-16836751Y-102082025D01*
X-16864608Y-102106455D01*
X-16990280Y-102265869D01*
X-16992969Y-102270980D01*
X-16992971Y-102270983D01*
X-17005927Y-102295609D01*
X-17084797Y-102445515D01*
X-17144993Y-102639378D01*
X-17168852Y-102840964D01*
X-18541500Y-102840964D01*
X-18541500Y-100300964D01*
X-17168852Y-100300964D01*
X-17155576Y-100503522D01*
X-17154155Y-100509118D01*
X-17154154Y-100509123D01*
X-17133881Y-100588945D01*
X-17105608Y-100700269D01*
X-17103191Y-100705512D01*
X-17065990Y-100786208D01*
X-17020623Y-100884616D01*
X-16903467Y-101050389D01*
X-16758062Y-101192035D01*
X-16589280Y-101304812D01*
X-16583977Y-101307090D01*
X-16583974Y-101307092D01*
X-16495293Y-101345192D01*
X-16402772Y-101384942D01*
X-16329756Y-101401464D01*
X-16210421Y-101428467D01*
X-16210416Y-101428468D01*
X-16204784Y-101429742D01*
X-16199013Y-101429969D01*
X-16199011Y-101429969D01*
X-16139244Y-101432317D01*
X-16001947Y-101437712D01*
X-15901501Y-101423148D01*
X-15806769Y-101409413D01*
X-15806764Y-101409412D01*
X-15801055Y-101408584D01*
X-15795591Y-101406729D01*
X-15795586Y-101406728D01*
X-15614307Y-101345192D01*
X-15614302Y-101345190D01*
X-15608835Y-101343334D01*
X-15431724Y-101244147D01*
X-15369066Y-101192035D01*
X-15280087Y-101118031D01*
X-15275655Y-101114345D01*
X-15145853Y-100958276D01*
X-15046666Y-100781165D01*
X-15044810Y-100775698D01*
X-15044808Y-100775693D01*
X-14983272Y-100594414D01*
X-14983271Y-100594409D01*
X-14981416Y-100588945D01*
X-14980588Y-100583236D01*
X-14980587Y-100583231D01*
X-14952821Y-100391727D01*
X-14952288Y-100388053D01*
X-14950768Y-100330000D01*
X-14953436Y-100300964D01*
X14951148Y-100300964D01*
X14964424Y-100503522D01*
X14965845Y-100509118D01*
X14965846Y-100509123D01*
X14986119Y-100588945D01*
X15014392Y-100700269D01*
X15016809Y-100705512D01*
X15054010Y-100786208D01*
X15099377Y-100884616D01*
X15216533Y-101050389D01*
X15361938Y-101192035D01*
X15530720Y-101304812D01*
X15536023Y-101307090D01*
X15536026Y-101307092D01*
X15624707Y-101345192D01*
X15717228Y-101384942D01*
X15790244Y-101401464D01*
X15909579Y-101428467D01*
X15909584Y-101428468D01*
X15915216Y-101429742D01*
X15920987Y-101429969D01*
X15920989Y-101429969D01*
X15980756Y-101432317D01*
X16118053Y-101437712D01*
X16218499Y-101423148D01*
X16313231Y-101409413D01*
X16313236Y-101409412D01*
X16318945Y-101408584D01*
X16324409Y-101406729D01*
X16324414Y-101406728D01*
X16505693Y-101345192D01*
X16505698Y-101345190D01*
X16511165Y-101343334D01*
X16688276Y-101244147D01*
X16750934Y-101192035D01*
X16839913Y-101118031D01*
X16844345Y-101114345D01*
X16974147Y-100958276D01*
X17073334Y-100781165D01*
X17075190Y-100775698D01*
X17075192Y-100775693D01*
X17136728Y-100594414D01*
X17136729Y-100594409D01*
X17138584Y-100588945D01*
X17139412Y-100583236D01*
X17139413Y-100583231D01*
X17167179Y-100391727D01*
X17167712Y-100388053D01*
X17169232Y-100330000D01*
X17150658Y-100127859D01*
X17149090Y-100122299D01*
X17097125Y-99938046D01*
X17097124Y-99938044D01*
X17095557Y-99932487D01*
X17084978Y-99911033D01*
X17008331Y-99755609D01*
X17005776Y-99750428D01*
X16884320Y-99587779D01*
X16735258Y-99449987D01*
X16730375Y-99446906D01*
X16730371Y-99446903D01*
X16568464Y-99344748D01*
X16563581Y-99341667D01*
X16375039Y-99266446D01*
X16369379Y-99265320D01*
X16369375Y-99265319D01*
X16181613Y-99227971D01*
X16181610Y-99227971D01*
X16175946Y-99226844D01*
X16170171Y-99226768D01*
X16170167Y-99226768D01*
X16068793Y-99225441D01*
X15972971Y-99224187D01*
X15967274Y-99225166D01*
X15967273Y-99225166D01*
X15778607Y-99257585D01*
X15772910Y-99258564D01*
X15582463Y-99328824D01*
X15408010Y-99432612D01*
X15403670Y-99436418D01*
X15403666Y-99436421D01*
X15383723Y-99453911D01*
X15255392Y-99566455D01*
X15129720Y-99725869D01*
X15127031Y-99730980D01*
X15127029Y-99730983D01*
X15114073Y-99755609D01*
X15035203Y-99905515D01*
X14975007Y-100099378D01*
X14951148Y-100300964D01*
X-14953436Y-100300964D01*
X-14969342Y-100127859D01*
X-14970910Y-100122299D01*
X-15022875Y-99938046D01*
X-15022876Y-99938044D01*
X-15024443Y-99932487D01*
X-15035022Y-99911033D01*
X-15111669Y-99755609D01*
X-15114224Y-99750428D01*
X-15235680Y-99587779D01*
X-15384742Y-99449987D01*
X-15389625Y-99446906D01*
X-15389629Y-99446903D01*
X-15551536Y-99344748D01*
X-15556419Y-99341667D01*
X-15744961Y-99266446D01*
X-15750621Y-99265320D01*
X-15750625Y-99265319D01*
X-15938387Y-99227971D01*
X-15938390Y-99227971D01*
X-15944054Y-99226844D01*
X-15949829Y-99226768D01*
X-15949833Y-99226768D01*
X-16051207Y-99225441D01*
X-16147029Y-99224187D01*
X-16152726Y-99225166D01*
X-16152727Y-99225166D01*
X-16341393Y-99257585D01*
X-16347090Y-99258564D01*
X-16537537Y-99328824D01*
X-16711990Y-99432612D01*
X-16716330Y-99436418D01*
X-16716334Y-99436421D01*
X-16736277Y-99453911D01*
X-16864608Y-99566455D01*
X-16990280Y-99725869D01*
X-16992969Y-99730980D01*
X-16992971Y-99730983D01*
X-17005927Y-99755609D01*
X-17084797Y-99905515D01*
X-17144993Y-100099378D01*
X-17168852Y-100300964D01*
X-18541500Y-100300964D01*
X-18541500Y-97760964D01*
X-17168852Y-97760964D01*
X-17155576Y-97963522D01*
X-17154155Y-97969118D01*
X-17154154Y-97969123D01*
X-17133881Y-98048945D01*
X-17105608Y-98160269D01*
X-17103191Y-98165512D01*
X-17065990Y-98246208D01*
X-17020623Y-98344616D01*
X-16903467Y-98510389D01*
X-16758062Y-98652035D01*
X-16589280Y-98764812D01*
X-16583977Y-98767090D01*
X-16583974Y-98767092D01*
X-16408079Y-98842662D01*
X-16402772Y-98844942D01*
X-16329756Y-98861464D01*
X-16210421Y-98888467D01*
X-16210416Y-98888468D01*
X-16204784Y-98889742D01*
X-16199013Y-98889969D01*
X-16199011Y-98889969D01*
X-16139244Y-98892317D01*
X-16001947Y-98897712D01*
X-15901501Y-98883148D01*
X-15806769Y-98869413D01*
X-15806764Y-98869412D01*
X-15801055Y-98868584D01*
X-15795591Y-98866729D01*
X-15795586Y-98866728D01*
X-15614307Y-98805192D01*
X-15614302Y-98805190D01*
X-15608835Y-98803334D01*
X-15431724Y-98704147D01*
X-15407901Y-98684334D01*
X-15275655Y-98574345D01*
X-15274055Y-98576269D01*
X-15221149Y-98547379D01*
X-15194366Y-98544500D01*
X-3449169Y-98544500D01*
X-3381048Y-98564502D01*
X-3350423Y-98592236D01*
X-3306043Y-98648231D01*
X-3306039Y-98648236D01*
X-3302214Y-98653061D01*
X-3297521Y-98657055D01*
X-3297520Y-98657056D01*
X-3246528Y-98700453D01*
X-3144729Y-98787091D01*
X-2964211Y-98887980D01*
X-2767534Y-98951884D01*
X-2562191Y-98976370D01*
X-2556056Y-98975898D01*
X-2556054Y-98975898D01*
X-2362144Y-98960977D01*
X-2362140Y-98960976D01*
X-2356002Y-98960504D01*
X-2156822Y-98904892D01*
X-2151318Y-98902112D01*
X-2151316Y-98902111D01*
X-1977738Y-98814431D01*
X-1977736Y-98814430D01*
X-1972237Y-98811652D01*
X-1809278Y-98684334D01*
X-1805252Y-98679670D01*
X-1805249Y-98679667D01*
X-1678181Y-98532457D01*
X-1678180Y-98532455D01*
X-1674152Y-98527789D01*
X-1614463Y-98422718D01*
X-1575050Y-98353340D01*
X-1575048Y-98353336D01*
X-1572005Y-98347979D01*
X-1506730Y-98151753D01*
X-1480811Y-97946586D01*
X-1480398Y-97917000D01*
X-1495698Y-97760964D01*
X14951148Y-97760964D01*
X14964424Y-97963522D01*
X14965845Y-97969118D01*
X14965846Y-97969123D01*
X14986119Y-98048945D01*
X15014392Y-98160269D01*
X15016809Y-98165512D01*
X15054010Y-98246208D01*
X15099377Y-98344616D01*
X15216533Y-98510389D01*
X15361938Y-98652035D01*
X15530720Y-98764812D01*
X15536023Y-98767090D01*
X15536026Y-98767092D01*
X15711921Y-98842662D01*
X15717228Y-98844942D01*
X15790244Y-98861464D01*
X15909579Y-98888467D01*
X15909584Y-98888468D01*
X15915216Y-98889742D01*
X15920987Y-98889969D01*
X15920989Y-98889969D01*
X15980756Y-98892317D01*
X16118053Y-98897712D01*
X16218499Y-98883148D01*
X16313231Y-98869413D01*
X16313236Y-98869412D01*
X16318945Y-98868584D01*
X16324409Y-98866729D01*
X16324414Y-98866728D01*
X16505693Y-98805192D01*
X16505698Y-98805190D01*
X16511165Y-98803334D01*
X16688276Y-98704147D01*
X16712099Y-98684334D01*
X16839913Y-98578031D01*
X16844345Y-98574345D01*
X16879183Y-98532457D01*
X16970453Y-98422718D01*
X16970455Y-98422715D01*
X16974147Y-98418276D01*
X17073334Y-98241165D01*
X17075190Y-98235698D01*
X17075192Y-98235693D01*
X17136728Y-98054414D01*
X17136729Y-98054409D01*
X17138584Y-98048945D01*
X17139412Y-98043236D01*
X17139413Y-98043231D01*
X17167179Y-97851727D01*
X17167712Y-97848053D01*
X17169232Y-97790000D01*
X17150658Y-97587859D01*
X17149090Y-97582299D01*
X17097125Y-97398046D01*
X17097124Y-97398044D01*
X17095557Y-97392487D01*
X17084978Y-97371033D01*
X17008331Y-97215609D01*
X17005776Y-97210428D01*
X16884320Y-97047779D01*
X16735258Y-96909987D01*
X16730375Y-96906906D01*
X16730371Y-96906903D01*
X16568464Y-96804748D01*
X16563581Y-96801667D01*
X16375039Y-96726446D01*
X16369379Y-96725320D01*
X16369375Y-96725319D01*
X16181613Y-96687971D01*
X16181610Y-96687971D01*
X16175946Y-96686844D01*
X16170171Y-96686768D01*
X16170167Y-96686768D01*
X16068793Y-96685441D01*
X15972971Y-96684187D01*
X15967274Y-96685166D01*
X15967273Y-96685166D01*
X15778607Y-96717585D01*
X15772910Y-96718564D01*
X15582463Y-96788824D01*
X15408010Y-96892612D01*
X15403670Y-96896418D01*
X15403666Y-96896421D01*
X15283249Y-97002025D01*
X15255392Y-97026455D01*
X15129720Y-97185869D01*
X15127031Y-97190980D01*
X15127029Y-97190983D01*
X15114073Y-97215609D01*
X15035203Y-97365515D01*
X14975007Y-97559378D01*
X14951148Y-97760964D01*
X-1495698Y-97760964D01*
X-1500578Y-97711189D01*
X-1560349Y-97513217D01*
X-1608892Y-97421921D01*
X-1654541Y-97336067D01*
X-1654543Y-97336064D01*
X-1657435Y-97330625D01*
X-1661326Y-97325855D01*
X-1661328Y-97325851D01*
X-1784242Y-97175143D01*
X-1784245Y-97175140D01*
X-1788137Y-97170368D01*
X-1792886Y-97166439D01*
X-1942729Y-97042478D01*
X-1942734Y-97042475D01*
X-1947478Y-97038550D01*
X-1952897Y-97035620D01*
X-1952900Y-97035618D01*
X-2123968Y-96943122D01*
X-2123973Y-96943120D01*
X-2129388Y-96940192D01*
X-2326937Y-96879040D01*
X-2333062Y-96878396D01*
X-2333063Y-96878396D01*
X-2526474Y-96858068D01*
X-2526476Y-96858068D01*
X-2532603Y-96857424D01*
X-2658771Y-96868906D01*
X-2732409Y-96875607D01*
X-2732410Y-96875607D01*
X-2738550Y-96876166D01*
X-2936934Y-96934554D01*
X-3102600Y-97021163D01*
X-3160974Y-97035500D01*
X-15199647Y-97035500D01*
X-15267768Y-97015498D01*
X-15285176Y-97002025D01*
X-15380502Y-96913906D01*
X-15380505Y-96913904D01*
X-15384742Y-96909987D01*
X-15556419Y-96801667D01*
X-15744961Y-96726446D01*
X-15750621Y-96725320D01*
X-15750625Y-96725319D01*
X-15938387Y-96687971D01*
X-15938390Y-96687971D01*
X-15944054Y-96686844D01*
X-15949829Y-96686768D01*
X-15949833Y-96686768D01*
X-16051207Y-96685441D01*
X-16147029Y-96684187D01*
X-16152726Y-96685166D01*
X-16152727Y-96685166D01*
X-16341393Y-96717585D01*
X-16347090Y-96718564D01*
X-16537537Y-96788824D01*
X-16711990Y-96892612D01*
X-16716330Y-96896418D01*
X-16716334Y-96896421D01*
X-16836751Y-97002025D01*
X-16864608Y-97026455D01*
X-16990280Y-97185869D01*
X-16992969Y-97190980D01*
X-16992971Y-97190983D01*
X-17005927Y-97215609D01*
X-17084797Y-97365515D01*
X-17144993Y-97559378D01*
X-17168852Y-97760964D01*
X-18541500Y-97760964D01*
X-18541500Y-95220964D01*
X-17168852Y-95220964D01*
X-17155576Y-95423522D01*
X-17154155Y-95429118D01*
X-17154154Y-95429123D01*
X-17133881Y-95508945D01*
X-17105608Y-95620269D01*
X-17103191Y-95625512D01*
X-17065990Y-95706208D01*
X-17020623Y-95804616D01*
X-16903467Y-95970389D01*
X-16758062Y-96112035D01*
X-16589280Y-96224812D01*
X-16583977Y-96227090D01*
X-16583974Y-96227092D01*
X-16495293Y-96265192D01*
X-16402772Y-96304942D01*
X-16329756Y-96321464D01*
X-16210421Y-96348467D01*
X-16210416Y-96348468D01*
X-16204784Y-96349742D01*
X-16199013Y-96349969D01*
X-16199011Y-96349969D01*
X-16139244Y-96352317D01*
X-16001947Y-96357712D01*
X-15901501Y-96343148D01*
X-15806769Y-96329413D01*
X-15806764Y-96329412D01*
X-15801055Y-96328584D01*
X-15795591Y-96326729D01*
X-15795586Y-96326728D01*
X-15614307Y-96265192D01*
X-15614302Y-96265190D01*
X-15608835Y-96263334D01*
X-15431724Y-96164147D01*
X-15369066Y-96112035D01*
X-15280087Y-96038031D01*
X-15275655Y-96034345D01*
X-15145853Y-95878276D01*
X-15046666Y-95701165D01*
X-15044810Y-95695698D01*
X-15044808Y-95695693D01*
X-14983272Y-95514414D01*
X-14983271Y-95514409D01*
X-14981416Y-95508945D01*
X-14980588Y-95503236D01*
X-14980587Y-95503231D01*
X-14952821Y-95311727D01*
X-14952288Y-95308053D01*
X-14950768Y-95250000D01*
X-14953436Y-95220964D01*
X14951148Y-95220964D01*
X14964424Y-95423522D01*
X14965845Y-95429118D01*
X14965846Y-95429123D01*
X14986119Y-95508945D01*
X15014392Y-95620269D01*
X15016809Y-95625512D01*
X15054010Y-95706208D01*
X15099377Y-95804616D01*
X15216533Y-95970389D01*
X15361938Y-96112035D01*
X15530720Y-96224812D01*
X15536023Y-96227090D01*
X15536026Y-96227092D01*
X15624707Y-96265192D01*
X15717228Y-96304942D01*
X15790244Y-96321464D01*
X15909579Y-96348467D01*
X15909584Y-96348468D01*
X15915216Y-96349742D01*
X15920987Y-96349969D01*
X15920989Y-96349969D01*
X15980756Y-96352317D01*
X16118053Y-96357712D01*
X16218499Y-96343148D01*
X16313231Y-96329413D01*
X16313236Y-96329412D01*
X16318945Y-96328584D01*
X16324409Y-96326729D01*
X16324414Y-96326728D01*
X16505693Y-96265192D01*
X16505698Y-96265190D01*
X16511165Y-96263334D01*
X16688276Y-96164147D01*
X16750934Y-96112035D01*
X16839913Y-96038031D01*
X16844345Y-96034345D01*
X16974147Y-95878276D01*
X17073334Y-95701165D01*
X17075190Y-95695698D01*
X17075192Y-95695693D01*
X17136728Y-95514414D01*
X17136729Y-95514409D01*
X17138584Y-95508945D01*
X17139412Y-95503236D01*
X17139413Y-95503231D01*
X17167179Y-95311727D01*
X17167712Y-95308053D01*
X17169232Y-95250000D01*
X17150658Y-95047859D01*
X17148058Y-95038641D01*
X17097125Y-94858046D01*
X17097124Y-94858044D01*
X17095557Y-94852487D01*
X17092407Y-94846098D01*
X17008331Y-94675609D01*
X17005776Y-94670428D01*
X16884320Y-94507779D01*
X16735258Y-94369987D01*
X16730375Y-94366906D01*
X16730371Y-94366903D01*
X16568464Y-94264748D01*
X16563581Y-94261667D01*
X16375039Y-94186446D01*
X16369379Y-94185320D01*
X16369375Y-94185319D01*
X16181613Y-94147971D01*
X16181610Y-94147971D01*
X16175946Y-94146844D01*
X16170171Y-94146768D01*
X16170167Y-94146768D01*
X16068793Y-94145441D01*
X15972971Y-94144187D01*
X15967274Y-94145166D01*
X15967273Y-94145166D01*
X15780830Y-94177203D01*
X15772910Y-94178564D01*
X15582463Y-94248824D01*
X15408010Y-94352612D01*
X15403670Y-94356418D01*
X15403666Y-94356421D01*
X15341455Y-94410979D01*
X15255392Y-94486455D01*
X15129720Y-94645869D01*
X15127031Y-94650980D01*
X15127029Y-94650983D01*
X15114073Y-94675609D01*
X15035203Y-94825515D01*
X14975007Y-95019378D01*
X14951148Y-95220964D01*
X-14953436Y-95220964D01*
X-14969342Y-95047859D01*
X-14971942Y-95038641D01*
X-15022875Y-94858046D01*
X-15022876Y-94858044D01*
X-15024443Y-94852487D01*
X-15027593Y-94846098D01*
X-15111669Y-94675609D01*
X-15114224Y-94670428D01*
X-15235680Y-94507779D01*
X-15384742Y-94369987D01*
X-15389625Y-94366906D01*
X-15389629Y-94366903D01*
X-15551536Y-94264748D01*
X-15556419Y-94261667D01*
X-15744961Y-94186446D01*
X-15750621Y-94185320D01*
X-15750625Y-94185319D01*
X-15938387Y-94147971D01*
X-15938390Y-94147971D01*
X-15944054Y-94146844D01*
X-15949829Y-94146768D01*
X-15949833Y-94146768D01*
X-16051207Y-94145441D01*
X-16147029Y-94144187D01*
X-16152726Y-94145166D01*
X-16152727Y-94145166D01*
X-16339170Y-94177203D01*
X-16347090Y-94178564D01*
X-16537537Y-94248824D01*
X-16711990Y-94352612D01*
X-16716330Y-94356418D01*
X-16716334Y-94356421D01*
X-16778545Y-94410979D01*
X-16864608Y-94486455D01*
X-16990280Y-94645869D01*
X-16992969Y-94650980D01*
X-16992971Y-94650983D01*
X-17005927Y-94675609D01*
X-17084797Y-94825515D01*
X-17144993Y-95019378D01*
X-17168852Y-95220964D01*
X-18541500Y-95220964D01*
X-18541500Y-92680964D01*
X-17168852Y-92680964D01*
X-17155576Y-92883522D01*
X-17154155Y-92889118D01*
X-17154154Y-92889123D01*
X-17124439Y-93006122D01*
X-17105608Y-93080269D01*
X-17103191Y-93085512D01*
X-17065990Y-93166208D01*
X-17020623Y-93264616D01*
X-16903467Y-93430389D01*
X-16758062Y-93572035D01*
X-16589280Y-93684812D01*
X-16583977Y-93687090D01*
X-16583974Y-93687092D01*
X-16495293Y-93725192D01*
X-16402772Y-93764942D01*
X-16334802Y-93780322D01*
X-16210421Y-93808467D01*
X-16210416Y-93808468D01*
X-16204784Y-93809742D01*
X-16199013Y-93809969D01*
X-16199011Y-93809969D01*
X-16139244Y-93812317D01*
X-16001947Y-93817712D01*
X-15901501Y-93803148D01*
X-15806769Y-93789413D01*
X-15806764Y-93789412D01*
X-15801055Y-93788584D01*
X-15795591Y-93786729D01*
X-15795586Y-93786728D01*
X-15614307Y-93725192D01*
X-15614302Y-93725190D01*
X-15608835Y-93723334D01*
X-15431724Y-93624147D01*
X-15381187Y-93582116D01*
X-15275655Y-93494345D01*
X-15274055Y-93496269D01*
X-15221149Y-93467379D01*
X-15194366Y-93464500D01*
X-7730715Y-93464500D01*
X-7662594Y-93484502D01*
X-7641620Y-93501405D01*
X-7186058Y-93956967D01*
X-7152032Y-94019279D01*
X-7149595Y-94035518D01*
X-7138194Y-94171278D01*
X-7081193Y-94370066D01*
X-7078375Y-94375548D01*
X-7078374Y-94375552D01*
X-6989486Y-94548509D01*
X-6989483Y-94548513D01*
X-6986666Y-94553995D01*
X-6858214Y-94716061D01*
X-6700729Y-94850091D01*
X-6520211Y-94950980D01*
X-6323534Y-95014884D01*
X-6118191Y-95039370D01*
X-6112056Y-95038898D01*
X-6112054Y-95038898D01*
X-5918144Y-95023977D01*
X-5918140Y-95023976D01*
X-5912002Y-95023504D01*
X-5712822Y-94967892D01*
X-5707318Y-94965112D01*
X-5707316Y-94965111D01*
X-5533738Y-94877431D01*
X-5533736Y-94877430D01*
X-5528237Y-94874652D01*
X-5365278Y-94747334D01*
X-5361252Y-94742670D01*
X-5361249Y-94742667D01*
X-5234181Y-94595457D01*
X-5234180Y-94595455D01*
X-5230152Y-94590789D01*
X-5128005Y-94410979D01*
X-5062730Y-94214753D01*
X-5036811Y-94009586D01*
X-5036398Y-93980000D01*
X-5056578Y-93774189D01*
X-5116349Y-93576217D01*
X-5213435Y-93393625D01*
X-5217326Y-93388855D01*
X-5217328Y-93388851D01*
X-5340242Y-93238143D01*
X-5340245Y-93238140D01*
X-5344137Y-93233368D01*
X-5348886Y-93229439D01*
X-5498729Y-93105478D01*
X-5498734Y-93105475D01*
X-5503478Y-93101550D01*
X-5508897Y-93098620D01*
X-5508900Y-93098618D01*
X-5679968Y-93006122D01*
X-5679973Y-93006120D01*
X-5685388Y-93003192D01*
X-5882937Y-92942040D01*
X-5889060Y-92941397D01*
X-5889062Y-92941396D01*
X-5977670Y-92932083D01*
X-6044173Y-92925094D01*
X-6109829Y-92898081D01*
X-6120097Y-92888879D01*
X-6328012Y-92680964D01*
X14951148Y-92680964D01*
X14964424Y-92883522D01*
X14965845Y-92889118D01*
X14965846Y-92889123D01*
X14995561Y-93006122D01*
X15014392Y-93080269D01*
X15016809Y-93085512D01*
X15054010Y-93166208D01*
X15099377Y-93264616D01*
X15216533Y-93430389D01*
X15361938Y-93572035D01*
X15530720Y-93684812D01*
X15536023Y-93687090D01*
X15536026Y-93687092D01*
X15624707Y-93725192D01*
X15717228Y-93764942D01*
X15785198Y-93780322D01*
X15909579Y-93808467D01*
X15909584Y-93808468D01*
X15915216Y-93809742D01*
X15920987Y-93809969D01*
X15920989Y-93809969D01*
X15980756Y-93812317D01*
X16118053Y-93817712D01*
X16218499Y-93803148D01*
X16313231Y-93789413D01*
X16313236Y-93789412D01*
X16318945Y-93788584D01*
X16324409Y-93786729D01*
X16324414Y-93786728D01*
X16505693Y-93725192D01*
X16505698Y-93725190D01*
X16511165Y-93723334D01*
X16688276Y-93624147D01*
X16738813Y-93582116D01*
X16839913Y-93498031D01*
X16844345Y-93494345D01*
X16901463Y-93425669D01*
X16970453Y-93342718D01*
X16970455Y-93342715D01*
X16974147Y-93338276D01*
X17073334Y-93161165D01*
X17075190Y-93155698D01*
X17075192Y-93155693D01*
X17136728Y-92974414D01*
X17136729Y-92974409D01*
X17138584Y-92968945D01*
X17139412Y-92963236D01*
X17139413Y-92963231D01*
X17167179Y-92771727D01*
X17167712Y-92768053D01*
X17169232Y-92710000D01*
X17150658Y-92507859D01*
X17149090Y-92502299D01*
X17097125Y-92318046D01*
X17097124Y-92318044D01*
X17095557Y-92312487D01*
X17084978Y-92291033D01*
X17008331Y-92135609D01*
X17005776Y-92130428D01*
X16884320Y-91967779D01*
X16735258Y-91829987D01*
X16730375Y-91826906D01*
X16730371Y-91826903D01*
X16568464Y-91724748D01*
X16563581Y-91721667D01*
X16375039Y-91646446D01*
X16369379Y-91645320D01*
X16369375Y-91645319D01*
X16181613Y-91607971D01*
X16181610Y-91607971D01*
X16175946Y-91606844D01*
X16170171Y-91606768D01*
X16170167Y-91606768D01*
X16068793Y-91605441D01*
X15972971Y-91604187D01*
X15967274Y-91605166D01*
X15967273Y-91605166D01*
X15778607Y-91637585D01*
X15772910Y-91638564D01*
X15582463Y-91708824D01*
X15408010Y-91812612D01*
X15403670Y-91816418D01*
X15403666Y-91816421D01*
X15383723Y-91833911D01*
X15255392Y-91946455D01*
X15129720Y-92105869D01*
X15127031Y-92110980D01*
X15127029Y-92110983D01*
X15114073Y-92135609D01*
X15035203Y-92285515D01*
X14975007Y-92479378D01*
X14951148Y-92680964D01*
X-6328012Y-92680964D01*
X-6785276Y-92223700D01*
X-6797663Y-92209287D01*
X-6806096Y-92197828D01*
X-6810437Y-92191929D01*
X-6850479Y-92157911D01*
X-6857995Y-92150981D01*
X-6863638Y-92145338D01*
X-6885798Y-92127806D01*
X-6889184Y-92125030D01*
X-6911737Y-92105869D01*
X-6944520Y-92078018D01*
X-6951040Y-92074689D01*
X-6956018Y-92071369D01*
X-6961091Y-92068236D01*
X-6966833Y-92063693D01*
X-7032617Y-92032947D01*
X-7036567Y-92031016D01*
X-7094693Y-92001336D01*
X-7101212Y-91998007D01*
X-7108322Y-91996267D01*
X-7113942Y-91994177D01*
X-7119593Y-91992297D01*
X-7126222Y-91989199D01*
X-7133386Y-91987709D01*
X-7133389Y-91987708D01*
X-7173495Y-91979367D01*
X-7197314Y-91974413D01*
X-7201573Y-91973449D01*
X-7272108Y-91956189D01*
X-7277705Y-91955842D01*
X-7277710Y-91955841D01*
X-7283214Y-91955500D01*
X-7283212Y-91955466D01*
X-7287271Y-91955223D01*
X-7291305Y-91954863D01*
X-7298473Y-91953372D01*
X-7305790Y-91953570D01*
X-7375415Y-91955454D01*
X-7378823Y-91955500D01*
X-15199647Y-91955500D01*
X-15267768Y-91935498D01*
X-15285176Y-91922025D01*
X-15380502Y-91833906D01*
X-15380505Y-91833904D01*
X-15384742Y-91829987D01*
X-15556419Y-91721667D01*
X-15744961Y-91646446D01*
X-15750621Y-91645320D01*
X-15750625Y-91645319D01*
X-15938387Y-91607971D01*
X-15938390Y-91607971D01*
X-15944054Y-91606844D01*
X-15949829Y-91606768D01*
X-15949833Y-91606768D01*
X-16051207Y-91605441D01*
X-16147029Y-91604187D01*
X-16152726Y-91605166D01*
X-16152727Y-91605166D01*
X-16341393Y-91637585D01*
X-16347090Y-91638564D01*
X-16537537Y-91708824D01*
X-16711990Y-91812612D01*
X-16716330Y-91816418D01*
X-16716334Y-91816421D01*
X-16736277Y-91833911D01*
X-16864608Y-91946455D01*
X-16990280Y-92105869D01*
X-16992969Y-92110980D01*
X-16992971Y-92110983D01*
X-17005927Y-92135609D01*
X-17084797Y-92285515D01*
X-17144993Y-92479378D01*
X-17168852Y-92680964D01*
X-18541500Y-92680964D01*
X-18541500Y-90140964D01*
X-17168852Y-90140964D01*
X-17155576Y-90343522D01*
X-17154155Y-90349118D01*
X-17154154Y-90349123D01*
X-17133881Y-90428945D01*
X-17105608Y-90540269D01*
X-17103191Y-90545512D01*
X-17065990Y-90626208D01*
X-17020623Y-90724616D01*
X-16903467Y-90890389D01*
X-16758062Y-91032035D01*
X-16589280Y-91144812D01*
X-16583977Y-91147090D01*
X-16583974Y-91147092D01*
X-16495293Y-91185192D01*
X-16402772Y-91224942D01*
X-16329756Y-91241464D01*
X-16210421Y-91268467D01*
X-16210416Y-91268468D01*
X-16204784Y-91269742D01*
X-16199013Y-91269969D01*
X-16199011Y-91269969D01*
X-16139244Y-91272317D01*
X-16001947Y-91277712D01*
X-15901501Y-91263148D01*
X-15806769Y-91249413D01*
X-15806764Y-91249412D01*
X-15801055Y-91248584D01*
X-15795591Y-91246729D01*
X-15795586Y-91246728D01*
X-15614307Y-91185192D01*
X-15614302Y-91185190D01*
X-15608835Y-91183334D01*
X-15431724Y-91084147D01*
X-15369066Y-91032035D01*
X-15280087Y-90958031D01*
X-15275655Y-90954345D01*
X-15145853Y-90798276D01*
X-15046666Y-90621165D01*
X-15044810Y-90615698D01*
X-15044808Y-90615693D01*
X-14983272Y-90434414D01*
X-14983271Y-90434409D01*
X-14981416Y-90428945D01*
X-14980588Y-90423236D01*
X-14980587Y-90423231D01*
X-14952821Y-90231727D01*
X-14952288Y-90228053D01*
X-14950768Y-90170000D01*
X-14953436Y-90140964D01*
X14951148Y-90140964D01*
X14964424Y-90343522D01*
X14965845Y-90349118D01*
X14965846Y-90349123D01*
X14986119Y-90428945D01*
X15014392Y-90540269D01*
X15016809Y-90545512D01*
X15054010Y-90626208D01*
X15099377Y-90724616D01*
X15216533Y-90890389D01*
X15361938Y-91032035D01*
X15530720Y-91144812D01*
X15536023Y-91147090D01*
X15536026Y-91147092D01*
X15624707Y-91185192D01*
X15717228Y-91224942D01*
X15790244Y-91241464D01*
X15909579Y-91268467D01*
X15909584Y-91268468D01*
X15915216Y-91269742D01*
X15920987Y-91269969D01*
X15920989Y-91269969D01*
X15980756Y-91272317D01*
X16118053Y-91277712D01*
X16218499Y-91263148D01*
X16313231Y-91249413D01*
X16313236Y-91249412D01*
X16318945Y-91248584D01*
X16324409Y-91246729D01*
X16324414Y-91246728D01*
X16505693Y-91185192D01*
X16505698Y-91185190D01*
X16511165Y-91183334D01*
X16688276Y-91084147D01*
X16750934Y-91032035D01*
X16839913Y-90958031D01*
X16844345Y-90954345D01*
X16974147Y-90798276D01*
X17073334Y-90621165D01*
X17075190Y-90615698D01*
X17075192Y-90615693D01*
X17136728Y-90434414D01*
X17136729Y-90434409D01*
X17138584Y-90428945D01*
X17139412Y-90423236D01*
X17139413Y-90423231D01*
X17167179Y-90231727D01*
X17167712Y-90228053D01*
X17169232Y-90170000D01*
X17150658Y-89967859D01*
X17149090Y-89962299D01*
X17097125Y-89778046D01*
X17097124Y-89778044D01*
X17095557Y-89772487D01*
X17084978Y-89751033D01*
X17008331Y-89595609D01*
X17005776Y-89590428D01*
X16884320Y-89427779D01*
X16735258Y-89289987D01*
X16730375Y-89286906D01*
X16730371Y-89286903D01*
X16568464Y-89184748D01*
X16563581Y-89181667D01*
X16375039Y-89106446D01*
X16369379Y-89105320D01*
X16369375Y-89105319D01*
X16181613Y-89067971D01*
X16181610Y-89067971D01*
X16175946Y-89066844D01*
X16170171Y-89066768D01*
X16170167Y-89066768D01*
X16068793Y-89065441D01*
X15972971Y-89064187D01*
X15967274Y-89065166D01*
X15967273Y-89065166D01*
X15778607Y-89097585D01*
X15772910Y-89098564D01*
X15582463Y-89168824D01*
X15408010Y-89272612D01*
X15403670Y-89276418D01*
X15403666Y-89276421D01*
X15383723Y-89293911D01*
X15255392Y-89406455D01*
X15129720Y-89565869D01*
X15127031Y-89570980D01*
X15127029Y-89570983D01*
X15114073Y-89595609D01*
X15035203Y-89745515D01*
X14975007Y-89939378D01*
X14951148Y-90140964D01*
X-14953436Y-90140964D01*
X-14969342Y-89967859D01*
X-14970910Y-89962299D01*
X-15022875Y-89778046D01*
X-15022876Y-89778044D01*
X-15024443Y-89772487D01*
X-15035022Y-89751033D01*
X-15111669Y-89595609D01*
X-15114224Y-89590428D01*
X-15235680Y-89427779D01*
X-15384742Y-89289987D01*
X-15389625Y-89286906D01*
X-15389629Y-89286903D01*
X-15551536Y-89184748D01*
X-15556419Y-89181667D01*
X-15744961Y-89106446D01*
X-15750621Y-89105320D01*
X-15750625Y-89105319D01*
X-15938387Y-89067971D01*
X-15938390Y-89067971D01*
X-15944054Y-89066844D01*
X-15949829Y-89066768D01*
X-15949833Y-89066768D01*
X-16051207Y-89065441D01*
X-16147029Y-89064187D01*
X-16152726Y-89065166D01*
X-16152727Y-89065166D01*
X-16341393Y-89097585D01*
X-16347090Y-89098564D01*
X-16537537Y-89168824D01*
X-16711990Y-89272612D01*
X-16716330Y-89276418D01*
X-16716334Y-89276421D01*
X-16736277Y-89293911D01*
X-16864608Y-89406455D01*
X-16990280Y-89565869D01*
X-16992969Y-89570980D01*
X-16992971Y-89570983D01*
X-17005927Y-89595609D01*
X-17084797Y-89745515D01*
X-17144993Y-89939378D01*
X-17168852Y-90140964D01*
X-18541500Y-90140964D01*
X-18541500Y-87600964D01*
X-17168852Y-87600964D01*
X-17155576Y-87803522D01*
X-17154155Y-87809118D01*
X-17154154Y-87809123D01*
X-17133881Y-87888945D01*
X-17105608Y-88000269D01*
X-17103191Y-88005512D01*
X-17065990Y-88086208D01*
X-17020623Y-88184616D01*
X-16903467Y-88350389D01*
X-16758062Y-88492035D01*
X-16589280Y-88604812D01*
X-16583977Y-88607090D01*
X-16583974Y-88607092D01*
X-16495293Y-88645192D01*
X-16402772Y-88684942D01*
X-16329756Y-88701464D01*
X-16210421Y-88728467D01*
X-16210416Y-88728468D01*
X-16204784Y-88729742D01*
X-16199013Y-88729969D01*
X-16199011Y-88729969D01*
X-16139244Y-88732317D01*
X-16001947Y-88737712D01*
X-15901501Y-88723148D01*
X-15806769Y-88709413D01*
X-15806764Y-88709412D01*
X-15801055Y-88708584D01*
X-15795591Y-88706729D01*
X-15795586Y-88706728D01*
X-15614307Y-88645192D01*
X-15614302Y-88645190D01*
X-15608835Y-88643334D01*
X-15431724Y-88544147D01*
X-15369066Y-88492035D01*
X-15280087Y-88418031D01*
X-15275655Y-88414345D01*
X-15145853Y-88258276D01*
X-15046666Y-88081165D01*
X-15044810Y-88075698D01*
X-15044808Y-88075693D01*
X-14983272Y-87894414D01*
X-14983271Y-87894409D01*
X-14981416Y-87888945D01*
X-14980588Y-87883236D01*
X-14980587Y-87883231D01*
X-14952821Y-87691727D01*
X-14952288Y-87688053D01*
X-14950768Y-87630000D01*
X-14953436Y-87600964D01*
X14951148Y-87600964D01*
X14964424Y-87803522D01*
X14965845Y-87809118D01*
X14965846Y-87809123D01*
X14986119Y-87888945D01*
X15014392Y-88000269D01*
X15016809Y-88005512D01*
X15054010Y-88086208D01*
X15099377Y-88184616D01*
X15216533Y-88350389D01*
X15361938Y-88492035D01*
X15530720Y-88604812D01*
X15536023Y-88607090D01*
X15536026Y-88607092D01*
X15624707Y-88645192D01*
X15717228Y-88684942D01*
X15790244Y-88701464D01*
X15909579Y-88728467D01*
X15909584Y-88728468D01*
X15915216Y-88729742D01*
X15920987Y-88729969D01*
X15920989Y-88729969D01*
X15980756Y-88732317D01*
X16118053Y-88737712D01*
X16218499Y-88723148D01*
X16313231Y-88709413D01*
X16313236Y-88709412D01*
X16318945Y-88708584D01*
X16324409Y-88706729D01*
X16324414Y-88706728D01*
X16505693Y-88645192D01*
X16505698Y-88645190D01*
X16511165Y-88643334D01*
X16688276Y-88544147D01*
X16750934Y-88492035D01*
X16839913Y-88418031D01*
X16844345Y-88414345D01*
X16974147Y-88258276D01*
X17073334Y-88081165D01*
X17075190Y-88075698D01*
X17075192Y-88075693D01*
X17136728Y-87894414D01*
X17136729Y-87894409D01*
X17138584Y-87888945D01*
X17139412Y-87883236D01*
X17139413Y-87883231D01*
X17167179Y-87691727D01*
X17167712Y-87688053D01*
X17169232Y-87630000D01*
X17150658Y-87427859D01*
X17149090Y-87422299D01*
X17097125Y-87238046D01*
X17097124Y-87238044D01*
X17095557Y-87232487D01*
X17084978Y-87211033D01*
X17008331Y-87055609D01*
X17005776Y-87050428D01*
X16884320Y-86887779D01*
X16735258Y-86749987D01*
X16730375Y-86746906D01*
X16730371Y-86746903D01*
X16568464Y-86644748D01*
X16563581Y-86641667D01*
X16375039Y-86566446D01*
X16369379Y-86565320D01*
X16369375Y-86565319D01*
X16181613Y-86527971D01*
X16181610Y-86527971D01*
X16175946Y-86526844D01*
X16170171Y-86526768D01*
X16170167Y-86526768D01*
X16068793Y-86525441D01*
X15972971Y-86524187D01*
X15967274Y-86525166D01*
X15967273Y-86525166D01*
X15778607Y-86557585D01*
X15772910Y-86558564D01*
X15582463Y-86628824D01*
X15408010Y-86732612D01*
X15403670Y-86736418D01*
X15403666Y-86736421D01*
X15383723Y-86753911D01*
X15255392Y-86866455D01*
X15129720Y-87025869D01*
X15127031Y-87030980D01*
X15127029Y-87030983D01*
X15114073Y-87055609D01*
X15035203Y-87205515D01*
X14975007Y-87399378D01*
X14951148Y-87600964D01*
X-14953436Y-87600964D01*
X-14969342Y-87427859D01*
X-14970910Y-87422299D01*
X-15022875Y-87238046D01*
X-15022876Y-87238044D01*
X-15024443Y-87232487D01*
X-15035022Y-87211033D01*
X-15111669Y-87055609D01*
X-15114224Y-87050428D01*
X-15235680Y-86887779D01*
X-15384742Y-86749987D01*
X-15389625Y-86746906D01*
X-15389629Y-86746903D01*
X-15551536Y-86644748D01*
X-15556419Y-86641667D01*
X-15744961Y-86566446D01*
X-15750621Y-86565320D01*
X-15750625Y-86565319D01*
X-15938387Y-86527971D01*
X-15938390Y-86527971D01*
X-15944054Y-86526844D01*
X-15949829Y-86526768D01*
X-15949833Y-86526768D01*
X-16051207Y-86525441D01*
X-16147029Y-86524187D01*
X-16152726Y-86525166D01*
X-16152727Y-86525166D01*
X-16341393Y-86557585D01*
X-16347090Y-86558564D01*
X-16537537Y-86628824D01*
X-16711990Y-86732612D01*
X-16716330Y-86736418D01*
X-16716334Y-86736421D01*
X-16736277Y-86753911D01*
X-16864608Y-86866455D01*
X-16990280Y-87025869D01*
X-16992969Y-87030980D01*
X-16992971Y-87030983D01*
X-17005927Y-87055609D01*
X-17084797Y-87205515D01*
X-17144993Y-87399378D01*
X-17168852Y-87600964D01*
X-18541500Y-87600964D01*
X-18541500Y-85958828D01*
X-17163999Y-85958828D01*
X-17162791Y-85971088D01*
X-17151685Y-86026931D01*
X-17142367Y-86049427D01*
X-17100017Y-86112808D01*
X-17082808Y-86130017D01*
X-17019425Y-86172368D01*
X-16996934Y-86181684D01*
X-16941085Y-86192793D01*
X-16928830Y-86194000D01*
X-16332115Y-86194000D01*
X-16316876Y-86189525D01*
X-16315671Y-86188135D01*
X-16314000Y-86180452D01*
X-16314000Y-86175884D01*
X-15806000Y-86175884D01*
X-15801525Y-86191123D01*
X-15800135Y-86192328D01*
X-15792452Y-86193999D01*
X-15191172Y-86193999D01*
X-15178912Y-86192791D01*
X-15123069Y-86181685D01*
X-15100573Y-86172367D01*
X-15037192Y-86130017D01*
X-15019983Y-86112808D01*
X-14977632Y-86049425D01*
X-14968316Y-86026934D01*
X-14957207Y-85971085D01*
X-14956000Y-85958830D01*
X-14956000Y-85362115D01*
X-14960475Y-85346876D01*
X-14961865Y-85345671D01*
X-14969548Y-85344000D01*
X-15787885Y-85344000D01*
X-15803124Y-85348475D01*
X-15804329Y-85349865D01*
X-15806000Y-85357548D01*
X-15806000Y-86175884D01*
X-16314000Y-86175884D01*
X-16314000Y-85362115D01*
X-16318475Y-85346876D01*
X-16319865Y-85345671D01*
X-16327548Y-85344000D01*
X-17145884Y-85344000D01*
X-17161123Y-85348475D01*
X-17162328Y-85349865D01*
X-17163999Y-85357548D01*
X-17163999Y-85958828D01*
X-18541500Y-85958828D01*
X-18541500Y-85060964D01*
X14951148Y-85060964D01*
X14964424Y-85263522D01*
X14965845Y-85269118D01*
X14965846Y-85269123D01*
X15012971Y-85454674D01*
X15014392Y-85460269D01*
X15016809Y-85465512D01*
X15054010Y-85546208D01*
X15099377Y-85644616D01*
X15216533Y-85810389D01*
X15361938Y-85952035D01*
X15530720Y-86064812D01*
X15536023Y-86067090D01*
X15536026Y-86067092D01*
X15624707Y-86105192D01*
X15717228Y-86144942D01*
X15790244Y-86161464D01*
X15909579Y-86188467D01*
X15909584Y-86188468D01*
X15915216Y-86189742D01*
X15920987Y-86189969D01*
X15920989Y-86189969D01*
X15980756Y-86192317D01*
X16118053Y-86197712D01*
X16228596Y-86181684D01*
X16313231Y-86169413D01*
X16313236Y-86169412D01*
X16318945Y-86168584D01*
X16324409Y-86166729D01*
X16324414Y-86166728D01*
X16505693Y-86105192D01*
X16505698Y-86105190D01*
X16511165Y-86103334D01*
X16688276Y-86004147D01*
X16728029Y-85971085D01*
X16839913Y-85878031D01*
X16844345Y-85874345D01*
X16974147Y-85718276D01*
X17073334Y-85541165D01*
X17075190Y-85535698D01*
X17075192Y-85535693D01*
X17136728Y-85354414D01*
X17136729Y-85354409D01*
X17138584Y-85348945D01*
X17139412Y-85343236D01*
X17139413Y-85343231D01*
X17167179Y-85151727D01*
X17167712Y-85148053D01*
X17169232Y-85090000D01*
X17150658Y-84887859D01*
X17149090Y-84882299D01*
X17097125Y-84698046D01*
X17097124Y-84698044D01*
X17095557Y-84692487D01*
X17084978Y-84671033D01*
X17008331Y-84515609D01*
X17005776Y-84510428D01*
X16884320Y-84347779D01*
X16735258Y-84209987D01*
X16730375Y-84206906D01*
X16730371Y-84206903D01*
X16568464Y-84104748D01*
X16563581Y-84101667D01*
X16375039Y-84026446D01*
X16369379Y-84025320D01*
X16369375Y-84025319D01*
X16181613Y-83987971D01*
X16181610Y-83987971D01*
X16175946Y-83986844D01*
X16170171Y-83986768D01*
X16170167Y-83986768D01*
X16068793Y-83985441D01*
X15972971Y-83984187D01*
X15967274Y-83985166D01*
X15967273Y-83985166D01*
X15836530Y-84007632D01*
X15772910Y-84018564D01*
X15582463Y-84088824D01*
X15408010Y-84192612D01*
X15403670Y-84196418D01*
X15403666Y-84196421D01*
X15259733Y-84322648D01*
X15255392Y-84326455D01*
X15129720Y-84485869D01*
X15127031Y-84490980D01*
X15127029Y-84490983D01*
X15114073Y-84515609D01*
X15035203Y-84665515D01*
X14975007Y-84859378D01*
X14951148Y-85060964D01*
X-18541500Y-85060964D01*
X-18541500Y-84817885D01*
X-17164000Y-84817885D01*
X-17159525Y-84833124D01*
X-17158135Y-84834329D01*
X-17150452Y-84836000D01*
X-16332115Y-84836000D01*
X-16316876Y-84831525D01*
X-16315671Y-84830135D01*
X-16314000Y-84822452D01*
X-16314000Y-84817885D01*
X-15806000Y-84817885D01*
X-15801525Y-84833124D01*
X-15800135Y-84834329D01*
X-15792452Y-84836000D01*
X-14974116Y-84836000D01*
X-14958877Y-84831525D01*
X-14957672Y-84830135D01*
X-14956001Y-84822452D01*
X-14956001Y-84221172D01*
X-14957209Y-84208912D01*
X-14968315Y-84153069D01*
X-14977633Y-84130573D01*
X-15019983Y-84067192D01*
X-15037192Y-84049983D01*
X-15100575Y-84007632D01*
X-15123066Y-83998316D01*
X-15178915Y-83987207D01*
X-15191170Y-83986000D01*
X-15787885Y-83986000D01*
X-15803124Y-83990475D01*
X-15804329Y-83991865D01*
X-15806000Y-83999548D01*
X-15806000Y-84817885D01*
X-16314000Y-84817885D01*
X-16314000Y-84004116D01*
X-16318475Y-83988877D01*
X-16319865Y-83987672D01*
X-16327548Y-83986001D01*
X-16928828Y-83986001D01*
X-16941088Y-83987209D01*
X-16996931Y-83998315D01*
X-17019427Y-84007633D01*
X-17082808Y-84049983D01*
X-17100017Y-84067192D01*
X-17142368Y-84130575D01*
X-17151684Y-84153066D01*
X-17162793Y-84208915D01*
X-17164000Y-84221170D01*
X-17164000Y-84817885D01*
X-18541500Y-84817885D01*
X-18541500Y-82676500D01*
X-18521498Y-82608379D01*
X-18467842Y-82561886D01*
X-18415500Y-82550500D01*
X18415500Y-82550500D01*
X18483621Y-82570502D01*
G37*
G04 #@! TD.AperFunction*
M02*
