M48
; DRILL file {KiCad (6.0.9)} date Fri Dec  9 18:34:31 2022
; FORMAT={-:-/ absolute / metric / decimal}
; #@! TF.CreationDate,2022-12-09T18:34:31+01:00
; #@! TF.GenerationSoftware,Kicad,Pcbnew,(6.0.9)
; #@! TF.FileFunction,Plated,1,2,PTH
FMAT,2
METRIC
; #@! TA.AperFunction,Plated,PTH,ViaDrill
T1C0.400
; #@! TA.AperFunction,Plated,PTH,ViaDrill
T2C0.800
; #@! TA.AperFunction,Plated,PTH,ComponentDrill
T3C1.000
%
G90
G05
T1
X-13.081Y-100.711
X-12.827Y-105.41
X-10.795Y-93.98
X-7.874Y-100.457
X-7.366Y-118.11
X-7.366Y-123.698
X-3.937Y-94.234
X-1.905Y-105.918
X-1.524Y-124.968
X2.159Y-113.538
T2
X-8.89Y-104.775
X-6.096Y-93.98
X-2.54Y-97.917
X0.0Y-107.95
T3
X-16.06Y-85.09
X-16.06Y-87.63
X-16.06Y-90.17
X-16.06Y-92.71
X-16.06Y-95.25
X-16.06Y-97.79
X-16.06Y-100.33
X-16.06Y-102.87
X-16.06Y-105.41
X-16.06Y-107.95
X-16.06Y-110.49
X-16.06Y-113.03
X-16.06Y-115.57
X-16.06Y-118.11
X-16.06Y-120.65
X-16.06Y-123.19
X-16.06Y-125.73
X-16.06Y-128.27
X-16.06Y-130.81
X-5.08Y-119.888
X-5.08Y-122.428
X-2.54Y-119.888
X-2.54Y-122.428
X-1.27Y-102.87
X0.0Y-119.888
X0.0Y-122.428
X1.27Y-102.87
X2.54Y-119.888
X2.54Y-122.428
X5.08Y-119.888
X5.08Y-122.428
X16.06Y-85.09
X16.06Y-87.63
X16.06Y-90.17
X16.06Y-92.71
X16.06Y-95.25
X16.06Y-97.79
X16.06Y-100.33
X16.06Y-102.87
X16.06Y-105.41
X16.06Y-107.95
X16.06Y-110.49
X16.06Y-113.03
X16.06Y-115.57
X16.06Y-118.11
X16.06Y-120.65
X16.06Y-123.19
X16.06Y-125.73
X16.06Y-128.27
X16.06Y-130.81
T0
M30
